M48
INCH,TZ
T1C0.039
T2C0.040
%
G90
G05
T2
X40000Y-40000
X40000Y-41000
X40000Y-42000
X40000Y-44000
X40000Y-45000
X40000Y-46000
X40000Y-48000
X40000Y-49000
X40000Y-50000
X40100Y-52200
X40100Y-58200
X41100Y-52200
X41100Y-58200
X42100Y-52200
X42100Y-58200
X43000Y-40000
X43000Y-41000
X43000Y-42000
X43000Y-44000
X43000Y-45000
X43000Y-46000
X43000Y-48000
X43000Y-49000
X43000Y-50000
X45000Y-40000
X45000Y-41000
X45000Y-42000
X45000Y-44000
X45000Y-45000
X45000Y-46000
X45000Y-48000
X45000Y-49000
X45000Y-50000
X45400Y-52500
X45400Y-53500
X46400Y-52500
X46400Y-53500
X48000Y-40000
X48000Y-41000
X48000Y-42000
X48000Y-44000
X48000Y-45000
X48000Y-46000
X48000Y-48000
X48000Y-49000
X48000Y-50000
X50300Y-40000
X50300Y-41000
X50300Y-42000
X50300Y-44000
X50300Y-45000
X50300Y-46000
X50300Y-48000
X50300Y-49000
X50300Y-50000
X51650Y-52500
X51650Y-53500
X52650Y-52500
X52650Y-53500
X53300Y-40000
X53300Y-41000
X53300Y-42000
X53300Y-44000
X53300Y-45000
X53300Y-46000
X53300Y-48000
X53300Y-49000
X53300Y-50000
X55300Y-40000
X55300Y-41000
X55300Y-42000
X55300Y-44000
X55300Y-45000
X55300Y-46000
X55300Y-48000
X55300Y-49000
X55300Y-50000
X56350Y-52200
X56350Y-58200
X57350Y-52200
X57350Y-58200
X58300Y-40000
X58300Y-41000
X58300Y-42000
X58300Y-44000
X58300Y-45000
X58300Y-46000
X58300Y-48000
X58300Y-49000
X58300Y-50000
X58350Y-52200
X58350Y-58200
T1
X45478Y-55064G85X46265Y-55064
G05
X45478Y-57426G85X46265Y-57426
G05
X47721Y-56639G85X47721Y-55852
G05
X51728Y-55064G85X52515Y-55064
G05
X51728Y-57426G85X52515Y-57426
G05
X53971Y-56639G85X53971Y-55852
G05
T0
M30
