G04 #@! TF.FileFunction,Copper,L1,Top,Signal*
%FSLAX46Y46*%
G04 Gerber Fmt 4.6, Leading zero omitted, Abs format (unit mm)*
G04 Created by KiCad (PCBNEW 4.0.2+dfsg1-stable) date Sun 30 Oct 2016 14:39:10 AEDT*
%MOMM*%
G01*
G04 APERTURE LIST*
%ADD10C,0.100000*%
%ADD11R,0.800100X0.800100*%
%ADD12O,2.032000X1.727200*%
%ADD13C,0.304800*%
G04 APERTURE END LIST*
D10*
D11*
X104409240Y-141925000D03*
X104409240Y-143825000D03*
X106408220Y-142875000D03*
X106410760Y-147635000D03*
X106410760Y-145735000D03*
X104411780Y-146685000D03*
D12*
X101600000Y-142240000D03*
X101600000Y-144780000D03*
X101600000Y-147320000D03*
X109220000Y-142240000D03*
X109220000Y-144780000D03*
X109220000Y-147320000D03*
X121920000Y-142240000D03*
X121920000Y-144780000D03*
X121920000Y-147320000D03*
X114300000Y-142240000D03*
X114300000Y-144780000D03*
X114300000Y-147320000D03*
D11*
X119110760Y-147635000D03*
X119110760Y-145735000D03*
X117111780Y-146685000D03*
X117109240Y-141925000D03*
X117109240Y-143825000D03*
X119108220Y-142875000D03*
X129809240Y-141925000D03*
X129809240Y-143825000D03*
X131808220Y-142875000D03*
X131810760Y-147635000D03*
X131810760Y-145735000D03*
X129811780Y-146685000D03*
D12*
X127000000Y-142240000D03*
X127000000Y-144780000D03*
X127000000Y-147320000D03*
X134620000Y-142240000D03*
X134620000Y-144780000D03*
X134620000Y-147320000D03*
X147320000Y-142240000D03*
X147320000Y-144780000D03*
X147320000Y-147320000D03*
X139700000Y-142240000D03*
X139700000Y-144780000D03*
X139700000Y-147320000D03*
D11*
X144510760Y-147635000D03*
X144510760Y-145735000D03*
X142511780Y-146685000D03*
X142509240Y-141925000D03*
X142509240Y-143825000D03*
X144508220Y-142875000D03*
X104409240Y-121605000D03*
X104409240Y-123505000D03*
X106408220Y-122555000D03*
X106410760Y-127315000D03*
X106410760Y-125415000D03*
X104411780Y-126365000D03*
D12*
X101600000Y-121920000D03*
X101600000Y-124460000D03*
X101600000Y-127000000D03*
X109220000Y-121920000D03*
X109220000Y-124460000D03*
X109220000Y-127000000D03*
X121920000Y-121920000D03*
X121920000Y-124460000D03*
X121920000Y-127000000D03*
X114300000Y-121920000D03*
X114300000Y-124460000D03*
X114300000Y-127000000D03*
D11*
X119110760Y-127315000D03*
X119110760Y-125415000D03*
X117111780Y-126365000D03*
X117109240Y-121605000D03*
X117109240Y-123505000D03*
X119108220Y-122555000D03*
X129809240Y-121605000D03*
X129809240Y-123505000D03*
X131808220Y-122555000D03*
X131810760Y-127315000D03*
X131810760Y-125415000D03*
X129811780Y-126365000D03*
D12*
X127000000Y-121920000D03*
X127000000Y-124460000D03*
X127000000Y-127000000D03*
X134620000Y-121920000D03*
X134620000Y-124460000D03*
X134620000Y-127000000D03*
X147320000Y-121920000D03*
X147320000Y-124460000D03*
X147320000Y-127000000D03*
X139700000Y-121920000D03*
X139700000Y-124460000D03*
X139700000Y-127000000D03*
D11*
X144510760Y-127315000D03*
X144510760Y-125415000D03*
X142511780Y-126365000D03*
X142509240Y-121605000D03*
X142509240Y-123505000D03*
X144508220Y-122555000D03*
X142509240Y-131765000D03*
X142509240Y-133665000D03*
X144508220Y-132715000D03*
X144510760Y-137475000D03*
X144510760Y-135575000D03*
X142511780Y-136525000D03*
D12*
X139700000Y-132080000D03*
X139700000Y-134620000D03*
X139700000Y-137160000D03*
X147320000Y-132080000D03*
X147320000Y-134620000D03*
X147320000Y-137160000D03*
X134620000Y-132080000D03*
X134620000Y-134620000D03*
X134620000Y-137160000D03*
X127000000Y-132080000D03*
X127000000Y-134620000D03*
X127000000Y-137160000D03*
D11*
X131810760Y-137475000D03*
X131810760Y-135575000D03*
X129811780Y-136525000D03*
X129809240Y-131765000D03*
X129809240Y-133665000D03*
X131808220Y-132715000D03*
X117109240Y-131765000D03*
X117109240Y-133665000D03*
X119108220Y-132715000D03*
X119110760Y-137475000D03*
X119110760Y-135575000D03*
X117111780Y-136525000D03*
D12*
X114300000Y-132080000D03*
X114300000Y-134620000D03*
X114300000Y-137160000D03*
X121920000Y-132080000D03*
X121920000Y-134620000D03*
X121920000Y-137160000D03*
X109220000Y-132080000D03*
X109220000Y-134620000D03*
X109220000Y-137160000D03*
X101600000Y-132080000D03*
X101600000Y-134620000D03*
X101600000Y-137160000D03*
D11*
X106410760Y-137475000D03*
X106410760Y-135575000D03*
X104411780Y-136525000D03*
X104409240Y-131765000D03*
X104409240Y-133665000D03*
X106408220Y-132715000D03*
X104409240Y-111445000D03*
X104409240Y-113345000D03*
X106408220Y-112395000D03*
X106410760Y-117155000D03*
X106410760Y-115255000D03*
X104411780Y-116205000D03*
D12*
X101600000Y-111760000D03*
X101600000Y-114300000D03*
X101600000Y-116840000D03*
X109220000Y-111760000D03*
X109220000Y-114300000D03*
X109220000Y-116840000D03*
X121920000Y-111760000D03*
X121920000Y-114300000D03*
X121920000Y-116840000D03*
X114300000Y-111760000D03*
X114300000Y-114300000D03*
X114300000Y-116840000D03*
D11*
X119110760Y-117155000D03*
X119110760Y-115255000D03*
X117111780Y-116205000D03*
X117109240Y-111445000D03*
X117109240Y-113345000D03*
X119108220Y-112395000D03*
X129809240Y-111445000D03*
X129809240Y-113345000D03*
X131808220Y-112395000D03*
X131810760Y-117155000D03*
X131810760Y-115255000D03*
X129811780Y-116205000D03*
D12*
X127000000Y-111760000D03*
X127000000Y-114300000D03*
X127000000Y-116840000D03*
X134620000Y-111760000D03*
X134620000Y-114300000D03*
X134620000Y-116840000D03*
X147320000Y-111760000D03*
X147320000Y-114300000D03*
X147320000Y-116840000D03*
X139700000Y-111760000D03*
X139700000Y-114300000D03*
X139700000Y-116840000D03*
D11*
X144510760Y-117155000D03*
X144510760Y-115255000D03*
X142511780Y-116205000D03*
X142509240Y-111445000D03*
X142509240Y-113345000D03*
X144508220Y-112395000D03*
X142509240Y-101285000D03*
X142509240Y-103185000D03*
X144508220Y-102235000D03*
X144510760Y-106995000D03*
X144510760Y-105095000D03*
X142511780Y-106045000D03*
D12*
X139700000Y-101600000D03*
X139700000Y-104140000D03*
X139700000Y-106680000D03*
X147320000Y-101600000D03*
X147320000Y-104140000D03*
X147320000Y-106680000D03*
X134620000Y-101600000D03*
X134620000Y-104140000D03*
X134620000Y-106680000D03*
X127000000Y-101600000D03*
X127000000Y-104140000D03*
X127000000Y-106680000D03*
D11*
X131810760Y-106995000D03*
X131810760Y-105095000D03*
X129811780Y-106045000D03*
X129809240Y-101285000D03*
X129809240Y-103185000D03*
X131808220Y-102235000D03*
X117109240Y-101285000D03*
X117109240Y-103185000D03*
X119108220Y-102235000D03*
X119110760Y-106995000D03*
X119110760Y-105095000D03*
X117111780Y-106045000D03*
D12*
X114300000Y-101600000D03*
X114300000Y-104140000D03*
X114300000Y-106680000D03*
X121920000Y-101600000D03*
X121920000Y-104140000D03*
X121920000Y-106680000D03*
X109220000Y-101600000D03*
X109220000Y-104140000D03*
X109220000Y-106680000D03*
X101600000Y-101600000D03*
X101600000Y-104140000D03*
X101600000Y-106680000D03*
D11*
X106410760Y-106995000D03*
X106410760Y-105095000D03*
X104411780Y-106045000D03*
X104409240Y-101285000D03*
X104409240Y-103185000D03*
X106408220Y-102235000D03*
D13*
X108458000Y-142240000D02*
X109982000Y-142240000D01*
X107823000Y-142875000D02*
X108458000Y-142240000D01*
X106408220Y-142875000D02*
X107823000Y-142875000D01*
X101915000Y-141925000D02*
X101600000Y-142240000D01*
X104409240Y-141925000D02*
X101915000Y-141925000D01*
X104140000Y-144780000D02*
X101600000Y-144780000D01*
X104409240Y-144510760D02*
X104140000Y-144780000D01*
X104409240Y-143825000D02*
X104409240Y-144510760D01*
X106680000Y-144780000D02*
X109982000Y-144780000D01*
X106410760Y-145049240D02*
X106680000Y-144780000D01*
X106410760Y-145735000D02*
X106410760Y-145049240D01*
X103124000Y-147320000D02*
X101600000Y-147320000D01*
X103759000Y-146685000D02*
X103124000Y-147320000D01*
X104411780Y-146685000D02*
X103759000Y-146685000D01*
X109667000Y-147635000D02*
X109982000Y-147320000D01*
X106410760Y-147635000D02*
X109667000Y-147635000D01*
X119110760Y-147635000D02*
X122367000Y-147635000D01*
X122367000Y-147635000D02*
X122682000Y-147320000D01*
X117111780Y-146685000D02*
X116459000Y-146685000D01*
X116459000Y-146685000D02*
X115824000Y-147320000D01*
X115824000Y-147320000D02*
X114300000Y-147320000D01*
X119110760Y-145735000D02*
X119110760Y-145049240D01*
X119110760Y-145049240D02*
X119380000Y-144780000D01*
X119380000Y-144780000D02*
X122682000Y-144780000D01*
X117109240Y-143825000D02*
X117109240Y-144510760D01*
X117109240Y-144510760D02*
X116840000Y-144780000D01*
X116840000Y-144780000D02*
X114300000Y-144780000D01*
X117109240Y-141925000D02*
X114615000Y-141925000D01*
X114615000Y-141925000D02*
X114300000Y-142240000D01*
X119108220Y-142875000D02*
X120523000Y-142875000D01*
X120523000Y-142875000D02*
X121158000Y-142240000D01*
X121158000Y-142240000D02*
X122682000Y-142240000D01*
X133858000Y-142240000D02*
X135382000Y-142240000D01*
X133223000Y-142875000D02*
X133858000Y-142240000D01*
X131808220Y-142875000D02*
X133223000Y-142875000D01*
X127315000Y-141925000D02*
X127000000Y-142240000D01*
X129809240Y-141925000D02*
X127315000Y-141925000D01*
X129540000Y-144780000D02*
X127000000Y-144780000D01*
X129809240Y-144510760D02*
X129540000Y-144780000D01*
X129809240Y-143825000D02*
X129809240Y-144510760D01*
X132080000Y-144780000D02*
X135382000Y-144780000D01*
X131810760Y-145049240D02*
X132080000Y-144780000D01*
X131810760Y-145735000D02*
X131810760Y-145049240D01*
X128524000Y-147320000D02*
X127000000Y-147320000D01*
X129159000Y-146685000D02*
X128524000Y-147320000D01*
X129811780Y-146685000D02*
X129159000Y-146685000D01*
X135067000Y-147635000D02*
X135382000Y-147320000D01*
X131810760Y-147635000D02*
X135067000Y-147635000D01*
X144510760Y-147635000D02*
X147767000Y-147635000D01*
X147767000Y-147635000D02*
X148082000Y-147320000D01*
X142511780Y-146685000D02*
X141859000Y-146685000D01*
X141859000Y-146685000D02*
X141224000Y-147320000D01*
X141224000Y-147320000D02*
X139700000Y-147320000D01*
X144510760Y-145735000D02*
X144510760Y-145049240D01*
X144510760Y-145049240D02*
X144780000Y-144780000D01*
X144780000Y-144780000D02*
X148082000Y-144780000D01*
X142509240Y-143825000D02*
X142509240Y-144510760D01*
X142509240Y-144510760D02*
X142240000Y-144780000D01*
X142240000Y-144780000D02*
X139700000Y-144780000D01*
X142509240Y-141925000D02*
X140015000Y-141925000D01*
X140015000Y-141925000D02*
X139700000Y-142240000D01*
X144508220Y-142875000D02*
X145923000Y-142875000D01*
X145923000Y-142875000D02*
X146558000Y-142240000D01*
X146558000Y-142240000D02*
X148082000Y-142240000D01*
X108458000Y-121920000D02*
X109982000Y-121920000D01*
X107823000Y-122555000D02*
X108458000Y-121920000D01*
X106408220Y-122555000D02*
X107823000Y-122555000D01*
X101915000Y-121605000D02*
X101600000Y-121920000D01*
X104409240Y-121605000D02*
X101915000Y-121605000D01*
X104140000Y-124460000D02*
X101600000Y-124460000D01*
X104409240Y-124190760D02*
X104140000Y-124460000D01*
X104409240Y-123505000D02*
X104409240Y-124190760D01*
X106680000Y-124460000D02*
X109982000Y-124460000D01*
X106410760Y-124729240D02*
X106680000Y-124460000D01*
X106410760Y-125415000D02*
X106410760Y-124729240D01*
X103124000Y-127000000D02*
X101600000Y-127000000D01*
X103759000Y-126365000D02*
X103124000Y-127000000D01*
X104411780Y-126365000D02*
X103759000Y-126365000D01*
X109667000Y-127315000D02*
X109982000Y-127000000D01*
X106410760Y-127315000D02*
X109667000Y-127315000D01*
X119110760Y-127315000D02*
X122367000Y-127315000D01*
X122367000Y-127315000D02*
X122682000Y-127000000D01*
X117111780Y-126365000D02*
X116459000Y-126365000D01*
X116459000Y-126365000D02*
X115824000Y-127000000D01*
X115824000Y-127000000D02*
X114300000Y-127000000D01*
X119110760Y-125415000D02*
X119110760Y-124729240D01*
X119110760Y-124729240D02*
X119380000Y-124460000D01*
X119380000Y-124460000D02*
X122682000Y-124460000D01*
X117109240Y-123505000D02*
X117109240Y-124190760D01*
X117109240Y-124190760D02*
X116840000Y-124460000D01*
X116840000Y-124460000D02*
X114300000Y-124460000D01*
X117109240Y-121605000D02*
X114615000Y-121605000D01*
X114615000Y-121605000D02*
X114300000Y-121920000D01*
X119108220Y-122555000D02*
X120523000Y-122555000D01*
X120523000Y-122555000D02*
X121158000Y-121920000D01*
X121158000Y-121920000D02*
X122682000Y-121920000D01*
X133858000Y-121920000D02*
X135382000Y-121920000D01*
X133223000Y-122555000D02*
X133858000Y-121920000D01*
X131808220Y-122555000D02*
X133223000Y-122555000D01*
X127315000Y-121605000D02*
X127000000Y-121920000D01*
X129809240Y-121605000D02*
X127315000Y-121605000D01*
X129540000Y-124460000D02*
X127000000Y-124460000D01*
X129809240Y-124190760D02*
X129540000Y-124460000D01*
X129809240Y-123505000D02*
X129809240Y-124190760D01*
X132080000Y-124460000D02*
X135382000Y-124460000D01*
X131810760Y-124729240D02*
X132080000Y-124460000D01*
X131810760Y-125415000D02*
X131810760Y-124729240D01*
X128524000Y-127000000D02*
X127000000Y-127000000D01*
X129159000Y-126365000D02*
X128524000Y-127000000D01*
X129811780Y-126365000D02*
X129159000Y-126365000D01*
X135067000Y-127315000D02*
X135382000Y-127000000D01*
X131810760Y-127315000D02*
X135067000Y-127315000D01*
X144510760Y-127315000D02*
X147767000Y-127315000D01*
X147767000Y-127315000D02*
X148082000Y-127000000D01*
X142511780Y-126365000D02*
X141859000Y-126365000D01*
X141859000Y-126365000D02*
X141224000Y-127000000D01*
X141224000Y-127000000D02*
X139700000Y-127000000D01*
X144510760Y-125415000D02*
X144510760Y-124729240D01*
X144510760Y-124729240D02*
X144780000Y-124460000D01*
X144780000Y-124460000D02*
X148082000Y-124460000D01*
X142509240Y-123505000D02*
X142509240Y-124190760D01*
X142509240Y-124190760D02*
X142240000Y-124460000D01*
X142240000Y-124460000D02*
X139700000Y-124460000D01*
X142509240Y-121605000D02*
X140015000Y-121605000D01*
X140015000Y-121605000D02*
X139700000Y-121920000D01*
X144508220Y-122555000D02*
X145923000Y-122555000D01*
X145923000Y-122555000D02*
X146558000Y-121920000D01*
X146558000Y-121920000D02*
X148082000Y-121920000D01*
X146558000Y-132080000D02*
X148082000Y-132080000D01*
X145923000Y-132715000D02*
X146558000Y-132080000D01*
X144508220Y-132715000D02*
X145923000Y-132715000D01*
X140015000Y-131765000D02*
X139700000Y-132080000D01*
X142509240Y-131765000D02*
X140015000Y-131765000D01*
X142240000Y-134620000D02*
X139700000Y-134620000D01*
X142509240Y-134350760D02*
X142240000Y-134620000D01*
X142509240Y-133665000D02*
X142509240Y-134350760D01*
X144780000Y-134620000D02*
X148082000Y-134620000D01*
X144510760Y-134889240D02*
X144780000Y-134620000D01*
X144510760Y-135575000D02*
X144510760Y-134889240D01*
X141224000Y-137160000D02*
X139700000Y-137160000D01*
X141859000Y-136525000D02*
X141224000Y-137160000D01*
X142511780Y-136525000D02*
X141859000Y-136525000D01*
X147767000Y-137475000D02*
X148082000Y-137160000D01*
X144510760Y-137475000D02*
X147767000Y-137475000D01*
X131810760Y-137475000D02*
X135067000Y-137475000D01*
X135067000Y-137475000D02*
X135382000Y-137160000D01*
X129811780Y-136525000D02*
X129159000Y-136525000D01*
X129159000Y-136525000D02*
X128524000Y-137160000D01*
X128524000Y-137160000D02*
X127000000Y-137160000D01*
X131810760Y-135575000D02*
X131810760Y-134889240D01*
X131810760Y-134889240D02*
X132080000Y-134620000D01*
X132080000Y-134620000D02*
X135382000Y-134620000D01*
X129809240Y-133665000D02*
X129809240Y-134350760D01*
X129809240Y-134350760D02*
X129540000Y-134620000D01*
X129540000Y-134620000D02*
X127000000Y-134620000D01*
X129809240Y-131765000D02*
X127315000Y-131765000D01*
X127315000Y-131765000D02*
X127000000Y-132080000D01*
X131808220Y-132715000D02*
X133223000Y-132715000D01*
X133223000Y-132715000D02*
X133858000Y-132080000D01*
X133858000Y-132080000D02*
X135382000Y-132080000D01*
X121158000Y-132080000D02*
X122682000Y-132080000D01*
X120523000Y-132715000D02*
X121158000Y-132080000D01*
X119108220Y-132715000D02*
X120523000Y-132715000D01*
X114615000Y-131765000D02*
X114300000Y-132080000D01*
X117109240Y-131765000D02*
X114615000Y-131765000D01*
X116840000Y-134620000D02*
X114300000Y-134620000D01*
X117109240Y-134350760D02*
X116840000Y-134620000D01*
X117109240Y-133665000D02*
X117109240Y-134350760D01*
X119380000Y-134620000D02*
X122682000Y-134620000D01*
X119110760Y-134889240D02*
X119380000Y-134620000D01*
X119110760Y-135575000D02*
X119110760Y-134889240D01*
X115824000Y-137160000D02*
X114300000Y-137160000D01*
X116459000Y-136525000D02*
X115824000Y-137160000D01*
X117111780Y-136525000D02*
X116459000Y-136525000D01*
X122367000Y-137475000D02*
X122682000Y-137160000D01*
X119110760Y-137475000D02*
X122367000Y-137475000D01*
X106410760Y-137475000D02*
X109667000Y-137475000D01*
X109667000Y-137475000D02*
X109982000Y-137160000D01*
X104411780Y-136525000D02*
X103759000Y-136525000D01*
X103759000Y-136525000D02*
X103124000Y-137160000D01*
X103124000Y-137160000D02*
X101600000Y-137160000D01*
X106410760Y-135575000D02*
X106410760Y-134889240D01*
X106410760Y-134889240D02*
X106680000Y-134620000D01*
X106680000Y-134620000D02*
X109982000Y-134620000D01*
X104409240Y-133665000D02*
X104409240Y-134350760D01*
X104409240Y-134350760D02*
X104140000Y-134620000D01*
X104140000Y-134620000D02*
X101600000Y-134620000D01*
X104409240Y-131765000D02*
X101915000Y-131765000D01*
X101915000Y-131765000D02*
X101600000Y-132080000D01*
X106408220Y-132715000D02*
X107823000Y-132715000D01*
X107823000Y-132715000D02*
X108458000Y-132080000D01*
X108458000Y-132080000D02*
X109982000Y-132080000D01*
X108458000Y-111760000D02*
X109982000Y-111760000D01*
X107823000Y-112395000D02*
X108458000Y-111760000D01*
X106408220Y-112395000D02*
X107823000Y-112395000D01*
X101915000Y-111445000D02*
X101600000Y-111760000D01*
X104409240Y-111445000D02*
X101915000Y-111445000D01*
X104140000Y-114300000D02*
X101600000Y-114300000D01*
X104409240Y-114030760D02*
X104140000Y-114300000D01*
X104409240Y-113345000D02*
X104409240Y-114030760D01*
X106680000Y-114300000D02*
X109982000Y-114300000D01*
X106410760Y-114569240D02*
X106680000Y-114300000D01*
X106410760Y-115255000D02*
X106410760Y-114569240D01*
X103124000Y-116840000D02*
X101600000Y-116840000D01*
X103759000Y-116205000D02*
X103124000Y-116840000D01*
X104411780Y-116205000D02*
X103759000Y-116205000D01*
X109667000Y-117155000D02*
X109982000Y-116840000D01*
X106410760Y-117155000D02*
X109667000Y-117155000D01*
X119110760Y-117155000D02*
X122367000Y-117155000D01*
X122367000Y-117155000D02*
X122682000Y-116840000D01*
X117111780Y-116205000D02*
X116459000Y-116205000D01*
X116459000Y-116205000D02*
X115824000Y-116840000D01*
X115824000Y-116840000D02*
X114300000Y-116840000D01*
X119110760Y-115255000D02*
X119110760Y-114569240D01*
X119110760Y-114569240D02*
X119380000Y-114300000D01*
X119380000Y-114300000D02*
X122682000Y-114300000D01*
X117109240Y-113345000D02*
X117109240Y-114030760D01*
X117109240Y-114030760D02*
X116840000Y-114300000D01*
X116840000Y-114300000D02*
X114300000Y-114300000D01*
X117109240Y-111445000D02*
X114615000Y-111445000D01*
X114615000Y-111445000D02*
X114300000Y-111760000D01*
X119108220Y-112395000D02*
X120523000Y-112395000D01*
X120523000Y-112395000D02*
X121158000Y-111760000D01*
X121158000Y-111760000D02*
X122682000Y-111760000D01*
X133858000Y-111760000D02*
X135382000Y-111760000D01*
X133223000Y-112395000D02*
X133858000Y-111760000D01*
X131808220Y-112395000D02*
X133223000Y-112395000D01*
X127315000Y-111445000D02*
X127000000Y-111760000D01*
X129809240Y-111445000D02*
X127315000Y-111445000D01*
X129540000Y-114300000D02*
X127000000Y-114300000D01*
X129809240Y-114030760D02*
X129540000Y-114300000D01*
X129809240Y-113345000D02*
X129809240Y-114030760D01*
X132080000Y-114300000D02*
X135382000Y-114300000D01*
X131810760Y-114569240D02*
X132080000Y-114300000D01*
X131810760Y-115255000D02*
X131810760Y-114569240D01*
X128524000Y-116840000D02*
X127000000Y-116840000D01*
X129159000Y-116205000D02*
X128524000Y-116840000D01*
X129811780Y-116205000D02*
X129159000Y-116205000D01*
X135067000Y-117155000D02*
X135382000Y-116840000D01*
X131810760Y-117155000D02*
X135067000Y-117155000D01*
X144510760Y-117155000D02*
X147767000Y-117155000D01*
X147767000Y-117155000D02*
X148082000Y-116840000D01*
X142511780Y-116205000D02*
X141859000Y-116205000D01*
X141859000Y-116205000D02*
X141224000Y-116840000D01*
X141224000Y-116840000D02*
X139700000Y-116840000D01*
X144510760Y-115255000D02*
X144510760Y-114569240D01*
X144510760Y-114569240D02*
X144780000Y-114300000D01*
X144780000Y-114300000D02*
X148082000Y-114300000D01*
X142509240Y-113345000D02*
X142509240Y-114030760D01*
X142509240Y-114030760D02*
X142240000Y-114300000D01*
X142240000Y-114300000D02*
X139700000Y-114300000D01*
X142509240Y-111445000D02*
X140015000Y-111445000D01*
X140015000Y-111445000D02*
X139700000Y-111760000D01*
X144508220Y-112395000D02*
X145923000Y-112395000D01*
X145923000Y-112395000D02*
X146558000Y-111760000D01*
X146558000Y-111760000D02*
X148082000Y-111760000D01*
X146558000Y-101600000D02*
X148082000Y-101600000D01*
X145923000Y-102235000D02*
X146558000Y-101600000D01*
X144508220Y-102235000D02*
X145923000Y-102235000D01*
X140015000Y-101285000D02*
X139700000Y-101600000D01*
X142509240Y-101285000D02*
X140015000Y-101285000D01*
X142240000Y-104140000D02*
X139700000Y-104140000D01*
X142509240Y-103870760D02*
X142240000Y-104140000D01*
X142509240Y-103185000D02*
X142509240Y-103870760D01*
X144780000Y-104140000D02*
X148082000Y-104140000D01*
X144510760Y-104409240D02*
X144780000Y-104140000D01*
X144510760Y-105095000D02*
X144510760Y-104409240D01*
X141224000Y-106680000D02*
X139700000Y-106680000D01*
X141859000Y-106045000D02*
X141224000Y-106680000D01*
X142511780Y-106045000D02*
X141859000Y-106045000D01*
X147767000Y-106995000D02*
X148082000Y-106680000D01*
X144510760Y-106995000D02*
X147767000Y-106995000D01*
X131810760Y-106995000D02*
X135067000Y-106995000D01*
X135067000Y-106995000D02*
X135382000Y-106680000D01*
X129811780Y-106045000D02*
X129159000Y-106045000D01*
X129159000Y-106045000D02*
X128524000Y-106680000D01*
X128524000Y-106680000D02*
X127000000Y-106680000D01*
X131810760Y-105095000D02*
X131810760Y-104409240D01*
X131810760Y-104409240D02*
X132080000Y-104140000D01*
X132080000Y-104140000D02*
X135382000Y-104140000D01*
X129809240Y-103185000D02*
X129809240Y-103870760D01*
X129809240Y-103870760D02*
X129540000Y-104140000D01*
X129540000Y-104140000D02*
X127000000Y-104140000D01*
X129809240Y-101285000D02*
X127315000Y-101285000D01*
X127315000Y-101285000D02*
X127000000Y-101600000D01*
X131808220Y-102235000D02*
X133223000Y-102235000D01*
X133223000Y-102235000D02*
X133858000Y-101600000D01*
X133858000Y-101600000D02*
X135382000Y-101600000D01*
X121158000Y-101600000D02*
X122682000Y-101600000D01*
X120523000Y-102235000D02*
X121158000Y-101600000D01*
X119108220Y-102235000D02*
X120523000Y-102235000D01*
X114615000Y-101285000D02*
X114300000Y-101600000D01*
X117109240Y-101285000D02*
X114615000Y-101285000D01*
X116840000Y-104140000D02*
X114300000Y-104140000D01*
X117109240Y-103870760D02*
X116840000Y-104140000D01*
X117109240Y-103185000D02*
X117109240Y-103870760D01*
X119380000Y-104140000D02*
X122682000Y-104140000D01*
X119110760Y-104409240D02*
X119380000Y-104140000D01*
X119110760Y-105095000D02*
X119110760Y-104409240D01*
X115824000Y-106680000D02*
X114300000Y-106680000D01*
X116459000Y-106045000D02*
X115824000Y-106680000D01*
X117111780Y-106045000D02*
X116459000Y-106045000D01*
X122367000Y-106995000D02*
X122682000Y-106680000D01*
X119110760Y-106995000D02*
X122367000Y-106995000D01*
X106410760Y-106995000D02*
X109667000Y-106995000D01*
X109667000Y-106995000D02*
X109982000Y-106680000D01*
X104411780Y-106045000D02*
X103759000Y-106045000D01*
X103759000Y-106045000D02*
X103124000Y-106680000D01*
X103124000Y-106680000D02*
X101600000Y-106680000D01*
X106410760Y-105095000D02*
X106410760Y-104409240D01*
X106410760Y-104409240D02*
X106680000Y-104140000D01*
X106680000Y-104140000D02*
X109982000Y-104140000D01*
X104409240Y-103185000D02*
X104409240Y-103870760D01*
X104409240Y-103870760D02*
X104140000Y-104140000D01*
X104140000Y-104140000D02*
X101600000Y-104140000D01*
X104409240Y-101285000D02*
X101915000Y-101285000D01*
X101915000Y-101285000D02*
X101600000Y-101600000D01*
X106408220Y-102235000D02*
X107823000Y-102235000D01*
X107823000Y-102235000D02*
X108458000Y-101600000D01*
X108458000Y-101600000D02*
X109982000Y-101600000D01*
M02*
