M48
INCH,TZ
T1C0.040
%
G90
G05
T1
X40000Y-40000
X40000Y-41000
X40000Y-42000
X40000Y-44000
X40000Y-45000
X40000Y-46000
X40000Y-48000
X40000Y-49000
X40000Y-50000
X40000Y-52000
X40000Y-53000
X40000Y-54000
X40000Y-56000
X40000Y-57000
X40000Y-58000
X43000Y-40000
X43000Y-41000
X43000Y-42000
X43000Y-44000
X43000Y-45000
X43000Y-46000
X43000Y-48000
X43000Y-49000
X43000Y-50000
X43000Y-52000
X43000Y-53000
X43000Y-54000
X43000Y-56000
X43000Y-57000
X43000Y-58000
X45000Y-40000
X45000Y-41000
X45000Y-42000
X45000Y-44000
X45000Y-45000
X45000Y-46000
X45000Y-48000
X45000Y-49000
X45000Y-50000
X45000Y-52000
X45000Y-53000
X45000Y-54000
X45000Y-56000
X45000Y-57000
X45000Y-58000
X48000Y-40000
X48000Y-41000
X48000Y-42000
X48000Y-44000
X48000Y-45000
X48000Y-46000
X48000Y-48000
X48000Y-49000
X48000Y-50000
X48000Y-52000
X48000Y-53000
X48000Y-54000
X48000Y-56000
X48000Y-57000
X48000Y-58000
X50000Y-40000
X50000Y-41000
X50000Y-42000
X50000Y-44000
X50000Y-45000
X50000Y-46000
X50000Y-48000
X50000Y-49000
X50000Y-50000
X50000Y-52000
X50000Y-53000
X50000Y-54000
X50000Y-56000
X50000Y-57000
X50000Y-58000
X53000Y-40000
X53000Y-41000
X53000Y-42000
X53000Y-44000
X53000Y-45000
X53000Y-46000
X53000Y-48000
X53000Y-49000
X53000Y-50000
X53000Y-52000
X53000Y-53000
X53000Y-54000
X53000Y-56000
X53000Y-57000
X53000Y-58000
X55000Y-40000
X55000Y-41000
X55000Y-42000
X55000Y-44000
X55000Y-45000
X55000Y-46000
X55000Y-48000
X55000Y-49000
X55000Y-50000
X55000Y-52000
X55000Y-53000
X55000Y-54000
X55000Y-56000
X55000Y-57000
X55000Y-58000
X58000Y-40000
X58000Y-41000
X58000Y-42000
X58000Y-44000
X58000Y-45000
X58000Y-46000
X58000Y-48000
X58000Y-49000
X58000Y-50000
X58000Y-52000
X58000Y-53000
X58000Y-54000
X58000Y-56000
X58000Y-57000
X58000Y-58000
T0
M30
