G04 #@! TF.FileFunction,Profile,NP*
%FSLAX46Y46*%
G04 Gerber Fmt 4.6, Leading zero omitted, Abs format (unit mm)*
G04 Created by KiCad (PCBNEW 4.0.7+dfsg1-1) date Mon Nov 20 21:48:08 2017*
%MOMM*%
%LPD*%
G01*
G04 APERTURE LIST*
%ADD10C,0.100000*%
G04 APERTURE END LIST*
D10*
X138500000Y-148500000D02*
G75*
G03X138500000Y-148500000I-500000J0D01*
G01*
X138500000Y-148500000D02*
X137500000Y-148500000D01*
X138500000Y-51500000D02*
X138500000Y-148500000D01*
X137500000Y-148500000D02*
X137500000Y-51500000D01*
X137500000Y-51500000D02*
X138500000Y-51500000D01*
X138500000Y-51500000D02*
G75*
G03X138500000Y-51500000I-500000J0D01*
G01*
X125600000Y-148500000D02*
G75*
G03X125600000Y-148500000I-500000J0D01*
G01*
X125600000Y-148500000D02*
X124600000Y-148500000D01*
X125600000Y-51500000D02*
X125600000Y-148500000D01*
X124600000Y-148500000D02*
X124600000Y-51500000D01*
X124600000Y-51500000D02*
X125600000Y-51500000D01*
X125600000Y-51500000D02*
G75*
G03X125600000Y-51500000I-500000J0D01*
G01*
X112800000Y-148500000D02*
G75*
G03X112800000Y-148500000I-500000J0D01*
G01*
X112800000Y-148500000D02*
X111800000Y-148500000D01*
X112800000Y-51500000D02*
X112800000Y-148500000D01*
X111800000Y-148500000D02*
X111800000Y-51500000D01*
X111800000Y-51500000D02*
X112800000Y-51500000D01*
X112800000Y-51500000D02*
G75*
G03X112800000Y-51500000I-500000J0D01*
G01*
X100400000Y-148500000D02*
G75*
G03X100400000Y-148500000I-500000J0D01*
G01*
X100400000Y-148500000D02*
X99400000Y-148500000D01*
X100400000Y-51500000D02*
X100400000Y-148500000D01*
X99400000Y-148500000D02*
X99400000Y-51500000D01*
X99400000Y-51500000D02*
X100400000Y-51500000D01*
X100400000Y-51500000D02*
G75*
G03X100400000Y-51500000I-500000J0D01*
G01*
X87700000Y-148500000D02*
G75*
G03X87700000Y-148500000I-500000J0D01*
G01*
X87700000Y-148500000D02*
X86700000Y-148500000D01*
X87700000Y-51500000D02*
X87700000Y-148500000D01*
X86700000Y-148500000D02*
X86700000Y-51500000D01*
X86700000Y-51500000D02*
X87700000Y-51500000D01*
X87700000Y-51500000D02*
G75*
G03X87700000Y-51500000I-500000J0D01*
G01*
X74800000Y-148500000D02*
G75*
G03X74800000Y-148500000I-500000J0D01*
G01*
X74800000Y-148500000D02*
X73800000Y-148500000D01*
X74800000Y-51500000D02*
X74800000Y-148500000D01*
X73800000Y-148500000D02*
X73800000Y-51500000D01*
X73800000Y-51500000D02*
X74800000Y-51500000D01*
X74800000Y-51500000D02*
G75*
G03X74800000Y-51500000I-500000J0D01*
G01*
X62100000Y-148500000D02*
X61100000Y-148500000D01*
X62100000Y-51500000D02*
X62100000Y-148500000D01*
X61100000Y-51500000D02*
X62100000Y-51500000D01*
X61100000Y-148500000D02*
X61100000Y-51500000D01*
X62100000Y-148500000D02*
G75*
G03X62100000Y-148500000I-500000J0D01*
G01*
X62100000Y-51500000D02*
G75*
G03X62100000Y-51500000I-500000J0D01*
G01*
X50000000Y-50000000D02*
X50000000Y-150000000D01*
X150000000Y-150000000D02*
X150000000Y-50000000D01*
X150000000Y-50000000D02*
X50000000Y-50000000D01*
X50000000Y-150000000D02*
X150000000Y-150000000D01*
M02*
