G04 #@! TF.FileFunction,Soldermask,Top*
%FSLAX46Y46*%
G04 Gerber Fmt 4.6, Leading zero omitted, Abs format (unit mm)*
G04 Created by KiCad (PCBNEW 4.0.4+dfsg1-stable) date Tue Nov  1 20:37:28 2016*
%MOMM*%
%LPD*%
G01*
G04 APERTURE LIST*
%ADD10C,0.100000*%
%ADD11R,4.057600X2.432000*%
%ADD12R,1.416000X2.432000*%
%ADD13O,2.127200X2.432000*%
%ADD14R,3.900120X3.900120*%
%ADD15R,1.200100X1.200100*%
%ADD16O,2.432000X2.127200*%
G04 APERTURE END LIST*
D10*
D11*
X145669000Y-136906000D03*
D12*
X145669000Y-143510000D03*
X147955000Y-143510000D03*
X143383000Y-143510000D03*
D13*
X143129000Y-147828000D03*
X145669000Y-147828000D03*
X148209000Y-147828000D03*
X143129000Y-132588000D03*
X145669000Y-132588000D03*
X148209000Y-132588000D03*
D14*
X132388000Y-139862860D03*
X132388000Y-145862340D03*
X137087000Y-142862600D03*
D13*
X131191000Y-135890000D03*
X133731000Y-135890000D03*
X131191000Y-133350000D03*
X133731000Y-133350000D03*
X115316000Y-133350000D03*
X117856000Y-133350000D03*
X115316000Y-135890000D03*
X117856000Y-135890000D03*
X101854000Y-132588000D03*
X104394000Y-132588000D03*
X106934000Y-132588000D03*
X101854000Y-147828000D03*
X104394000Y-147828000D03*
X106934000Y-147828000D03*
D11*
X104394000Y-136906000D03*
D12*
X104394000Y-143510000D03*
X106680000Y-143510000D03*
X102108000Y-143510000D03*
D15*
X104409240Y-121605000D03*
X104409240Y-123505000D03*
X106408220Y-122555000D03*
X106410760Y-127315000D03*
X106410760Y-125415000D03*
X104411780Y-126365000D03*
D16*
X101600000Y-121920000D03*
X101600000Y-124460000D03*
X101600000Y-127000000D03*
X109220000Y-121920000D03*
X109220000Y-124460000D03*
X109220000Y-127000000D03*
X121920000Y-121920000D03*
X121920000Y-124460000D03*
X121920000Y-127000000D03*
X114300000Y-121920000D03*
X114300000Y-124460000D03*
X114300000Y-127000000D03*
D15*
X119110760Y-127315000D03*
X119110760Y-125415000D03*
X117111780Y-126365000D03*
X117109240Y-121605000D03*
X117109240Y-123505000D03*
X119108220Y-122555000D03*
X130571240Y-121605000D03*
X130571240Y-123505000D03*
X132570220Y-122555000D03*
X132572760Y-127315000D03*
X132572760Y-125415000D03*
X130573780Y-126365000D03*
D16*
X127762000Y-121920000D03*
X127762000Y-124460000D03*
X127762000Y-127000000D03*
X135382000Y-121920000D03*
X135382000Y-124460000D03*
X135382000Y-127000000D03*
X148082000Y-121920000D03*
X148082000Y-124460000D03*
X148082000Y-127000000D03*
X140462000Y-121920000D03*
X140462000Y-124460000D03*
X140462000Y-127000000D03*
D15*
X145272760Y-127315000D03*
X145272760Y-125415000D03*
X143273780Y-126365000D03*
X143271240Y-121605000D03*
X143271240Y-123505000D03*
X145270220Y-122555000D03*
X104409240Y-111445000D03*
X104409240Y-113345000D03*
X106408220Y-112395000D03*
X106410760Y-117155000D03*
X106410760Y-115255000D03*
X104411780Y-116205000D03*
D16*
X101600000Y-111760000D03*
X101600000Y-114300000D03*
X101600000Y-116840000D03*
X109220000Y-111760000D03*
X109220000Y-114300000D03*
X109220000Y-116840000D03*
X121920000Y-111760000D03*
X121920000Y-114300000D03*
X121920000Y-116840000D03*
X114300000Y-111760000D03*
X114300000Y-114300000D03*
X114300000Y-116840000D03*
D15*
X119110760Y-117155000D03*
X119110760Y-115255000D03*
X117111780Y-116205000D03*
X117109240Y-111445000D03*
X117109240Y-113345000D03*
X119108220Y-112395000D03*
X130571240Y-111445000D03*
X130571240Y-113345000D03*
X132570220Y-112395000D03*
X132572760Y-117155000D03*
X132572760Y-115255000D03*
X130573780Y-116205000D03*
D16*
X127762000Y-111760000D03*
X127762000Y-114300000D03*
X127762000Y-116840000D03*
X135382000Y-111760000D03*
X135382000Y-114300000D03*
X135382000Y-116840000D03*
X148082000Y-111760000D03*
X148082000Y-114300000D03*
X148082000Y-116840000D03*
X140462000Y-111760000D03*
X140462000Y-114300000D03*
X140462000Y-116840000D03*
D15*
X145272760Y-117155000D03*
X145272760Y-115255000D03*
X143273780Y-116205000D03*
X143271240Y-111445000D03*
X143271240Y-113345000D03*
X145270220Y-112395000D03*
X143271240Y-101285000D03*
X143271240Y-103185000D03*
X145270220Y-102235000D03*
X145272760Y-106995000D03*
X145272760Y-105095000D03*
X143273780Y-106045000D03*
D16*
X140462000Y-101600000D03*
X140462000Y-104140000D03*
X140462000Y-106680000D03*
X148082000Y-101600000D03*
X148082000Y-104140000D03*
X148082000Y-106680000D03*
X135382000Y-101600000D03*
X135382000Y-104140000D03*
X135382000Y-106680000D03*
X127762000Y-101600000D03*
X127762000Y-104140000D03*
X127762000Y-106680000D03*
D15*
X132572760Y-106995000D03*
X132572760Y-105095000D03*
X130573780Y-106045000D03*
X130571240Y-101285000D03*
X130571240Y-103185000D03*
X132570220Y-102235000D03*
X117109240Y-101285000D03*
X117109240Y-103185000D03*
X119108220Y-102235000D03*
X119110760Y-106995000D03*
X119110760Y-105095000D03*
X117111780Y-106045000D03*
D16*
X114300000Y-101600000D03*
X114300000Y-104140000D03*
X114300000Y-106680000D03*
X121920000Y-101600000D03*
X121920000Y-104140000D03*
X121920000Y-106680000D03*
X109220000Y-101600000D03*
X109220000Y-104140000D03*
X109220000Y-106680000D03*
X101600000Y-101600000D03*
X101600000Y-104140000D03*
X101600000Y-106680000D03*
D15*
X106410760Y-106995000D03*
X106410760Y-105095000D03*
X104411780Y-106045000D03*
X104409240Y-101285000D03*
X104409240Y-103185000D03*
X106408220Y-102235000D03*
D14*
X116513000Y-139862860D03*
X116513000Y-145862340D03*
X121212000Y-142862600D03*
M02*
