G04 #@! TF.FileFunction,Soldermask,Bot*
%FSLAX46Y46*%
G04 Gerber Fmt 4.6, Leading zero omitted, Abs format (unit mm)*
G04 Created by KiCad (PCBNEW 4.0.2+dfsg1-stable) date Sun 30 Oct 2016 17:39:28 AEDT*
%MOMM*%
G01*
G04 APERTURE LIST*
%ADD10C,0.100000*%
%ADD11R,1.460000X1.050000*%
%ADD12O,2.432000X2.127200*%
%ADD13R,1.100000X1.700000*%
%ADD14C,0.254000*%
G04 APERTURE END LIST*
D10*
D11*
X104310000Y-145730000D03*
X104310000Y-144780000D03*
X104310000Y-143830000D03*
X106510000Y-143830000D03*
X106510000Y-145730000D03*
X106510000Y-144780000D03*
D12*
X101600000Y-142240000D03*
X101600000Y-144780000D03*
X101600000Y-147320000D03*
X109220000Y-142240000D03*
X109220000Y-144780000D03*
X109220000Y-147320000D03*
D13*
X104460000Y-141732000D03*
X106360000Y-141732000D03*
X104460000Y-147955000D03*
X106360000Y-147955000D03*
X117160000Y-147955000D03*
X119060000Y-147955000D03*
X117160000Y-141732000D03*
X119060000Y-141732000D03*
D12*
X121920000Y-142240000D03*
X121920000Y-144780000D03*
X121920000Y-147320000D03*
X114300000Y-142240000D03*
X114300000Y-144780000D03*
X114300000Y-147320000D03*
D11*
X117010000Y-145730000D03*
X117010000Y-144780000D03*
X117010000Y-143830000D03*
X119210000Y-143830000D03*
X119210000Y-145730000D03*
X119210000Y-144780000D03*
X129710000Y-145730000D03*
X129710000Y-144780000D03*
X129710000Y-143830000D03*
X131910000Y-143830000D03*
X131910000Y-145730000D03*
X131910000Y-144780000D03*
D12*
X127000000Y-142240000D03*
X127000000Y-144780000D03*
X127000000Y-147320000D03*
X134620000Y-142240000D03*
X134620000Y-144780000D03*
X134620000Y-147320000D03*
D13*
X129860000Y-141732000D03*
X131760000Y-141732000D03*
X129860000Y-147955000D03*
X131760000Y-147955000D03*
X142560000Y-147955000D03*
X144460000Y-147955000D03*
X142560000Y-141732000D03*
X144460000Y-141732000D03*
D12*
X147320000Y-142240000D03*
X147320000Y-144780000D03*
X147320000Y-147320000D03*
X139700000Y-142240000D03*
X139700000Y-144780000D03*
X139700000Y-147320000D03*
D11*
X142410000Y-145730000D03*
X142410000Y-144780000D03*
X142410000Y-143830000D03*
X144610000Y-143830000D03*
X144610000Y-145730000D03*
X144610000Y-144780000D03*
X104310000Y-125410000D03*
X104310000Y-124460000D03*
X104310000Y-123510000D03*
X106510000Y-123510000D03*
X106510000Y-125410000D03*
X106510000Y-124460000D03*
D12*
X101600000Y-121920000D03*
X101600000Y-124460000D03*
X101600000Y-127000000D03*
X109220000Y-121920000D03*
X109220000Y-124460000D03*
X109220000Y-127000000D03*
D13*
X104460000Y-121412000D03*
X106360000Y-121412000D03*
X104460000Y-127635000D03*
X106360000Y-127635000D03*
X117160000Y-127635000D03*
X119060000Y-127635000D03*
X117160000Y-121412000D03*
X119060000Y-121412000D03*
D12*
X121920000Y-121920000D03*
X121920000Y-124460000D03*
X121920000Y-127000000D03*
X114300000Y-121920000D03*
X114300000Y-124460000D03*
X114300000Y-127000000D03*
D11*
X117010000Y-125410000D03*
X117010000Y-124460000D03*
X117010000Y-123510000D03*
X119210000Y-123510000D03*
X119210000Y-125410000D03*
X119210000Y-124460000D03*
X129710000Y-125410000D03*
X129710000Y-124460000D03*
X129710000Y-123510000D03*
X131910000Y-123510000D03*
X131910000Y-125410000D03*
X131910000Y-124460000D03*
D12*
X127000000Y-121920000D03*
X127000000Y-124460000D03*
X127000000Y-127000000D03*
X134620000Y-121920000D03*
X134620000Y-124460000D03*
X134620000Y-127000000D03*
D13*
X129860000Y-121412000D03*
X131760000Y-121412000D03*
X129860000Y-127635000D03*
X131760000Y-127635000D03*
X142560000Y-127635000D03*
X144460000Y-127635000D03*
X142560000Y-121412000D03*
X144460000Y-121412000D03*
D12*
X147320000Y-121920000D03*
X147320000Y-124460000D03*
X147320000Y-127000000D03*
X139700000Y-121920000D03*
X139700000Y-124460000D03*
X139700000Y-127000000D03*
D11*
X142410000Y-125410000D03*
X142410000Y-124460000D03*
X142410000Y-123510000D03*
X144610000Y-123510000D03*
X144610000Y-125410000D03*
X144610000Y-124460000D03*
X142410000Y-135570000D03*
X142410000Y-134620000D03*
X142410000Y-133670000D03*
X144610000Y-133670000D03*
X144610000Y-135570000D03*
X144610000Y-134620000D03*
D12*
X139700000Y-132080000D03*
X139700000Y-134620000D03*
X139700000Y-137160000D03*
X147320000Y-132080000D03*
X147320000Y-134620000D03*
X147320000Y-137160000D03*
D13*
X142560000Y-131572000D03*
X144460000Y-131572000D03*
X142560000Y-137795000D03*
X144460000Y-137795000D03*
X129860000Y-137795000D03*
X131760000Y-137795000D03*
X129860000Y-131572000D03*
X131760000Y-131572000D03*
D12*
X134620000Y-132080000D03*
X134620000Y-134620000D03*
X134620000Y-137160000D03*
X127000000Y-132080000D03*
X127000000Y-134620000D03*
X127000000Y-137160000D03*
D11*
X129710000Y-135570000D03*
X129710000Y-134620000D03*
X129710000Y-133670000D03*
X131910000Y-133670000D03*
X131910000Y-135570000D03*
X131910000Y-134620000D03*
X117010000Y-135570000D03*
X117010000Y-134620000D03*
X117010000Y-133670000D03*
X119210000Y-133670000D03*
X119210000Y-135570000D03*
X119210000Y-134620000D03*
D12*
X114300000Y-132080000D03*
X114300000Y-134620000D03*
X114300000Y-137160000D03*
X121920000Y-132080000D03*
X121920000Y-134620000D03*
X121920000Y-137160000D03*
D13*
X117160000Y-131572000D03*
X119060000Y-131572000D03*
X117160000Y-137795000D03*
X119060000Y-137795000D03*
X104460000Y-137795000D03*
X106360000Y-137795000D03*
X104460000Y-131572000D03*
X106360000Y-131572000D03*
D12*
X109220000Y-132080000D03*
X109220000Y-134620000D03*
X109220000Y-137160000D03*
X101600000Y-132080000D03*
X101600000Y-134620000D03*
X101600000Y-137160000D03*
D11*
X104310000Y-135570000D03*
X104310000Y-134620000D03*
X104310000Y-133670000D03*
X106510000Y-133670000D03*
X106510000Y-135570000D03*
X106510000Y-134620000D03*
X104310000Y-115250000D03*
X104310000Y-114300000D03*
X104310000Y-113350000D03*
X106510000Y-113350000D03*
X106510000Y-115250000D03*
X106510000Y-114300000D03*
D12*
X101600000Y-111760000D03*
X101600000Y-114300000D03*
X101600000Y-116840000D03*
X109220000Y-111760000D03*
X109220000Y-114300000D03*
X109220000Y-116840000D03*
D13*
X104460000Y-111252000D03*
X106360000Y-111252000D03*
X104460000Y-117475000D03*
X106360000Y-117475000D03*
X117160000Y-117475000D03*
X119060000Y-117475000D03*
X117160000Y-111252000D03*
X119060000Y-111252000D03*
D12*
X121920000Y-111760000D03*
X121920000Y-114300000D03*
X121920000Y-116840000D03*
X114300000Y-111760000D03*
X114300000Y-114300000D03*
X114300000Y-116840000D03*
D11*
X117010000Y-115250000D03*
X117010000Y-114300000D03*
X117010000Y-113350000D03*
X119210000Y-113350000D03*
X119210000Y-115250000D03*
X119210000Y-114300000D03*
X129710000Y-115250000D03*
X129710000Y-114300000D03*
X129710000Y-113350000D03*
X131910000Y-113350000D03*
X131910000Y-115250000D03*
X131910000Y-114300000D03*
D12*
X127000000Y-111760000D03*
X127000000Y-114300000D03*
X127000000Y-116840000D03*
X134620000Y-111760000D03*
X134620000Y-114300000D03*
X134620000Y-116840000D03*
D13*
X129860000Y-111252000D03*
X131760000Y-111252000D03*
X129860000Y-117475000D03*
X131760000Y-117475000D03*
X142560000Y-117475000D03*
X144460000Y-117475000D03*
X142560000Y-111252000D03*
X144460000Y-111252000D03*
D12*
X147320000Y-111760000D03*
X147320000Y-114300000D03*
X147320000Y-116840000D03*
X139700000Y-111760000D03*
X139700000Y-114300000D03*
X139700000Y-116840000D03*
D11*
X142410000Y-115250000D03*
X142410000Y-114300000D03*
X142410000Y-113350000D03*
X144610000Y-113350000D03*
X144610000Y-115250000D03*
X144610000Y-114300000D03*
X142410000Y-105090000D03*
X142410000Y-104140000D03*
X142410000Y-103190000D03*
X144610000Y-103190000D03*
X144610000Y-105090000D03*
X144610000Y-104140000D03*
D12*
X139700000Y-101600000D03*
X139700000Y-104140000D03*
X139700000Y-106680000D03*
X147320000Y-101600000D03*
X147320000Y-104140000D03*
X147320000Y-106680000D03*
D13*
X142560000Y-101092000D03*
X144460000Y-101092000D03*
X142560000Y-107315000D03*
X144460000Y-107315000D03*
X129860000Y-107315000D03*
X131760000Y-107315000D03*
X129860000Y-101092000D03*
X131760000Y-101092000D03*
D12*
X134620000Y-101600000D03*
X134620000Y-104140000D03*
X134620000Y-106680000D03*
X127000000Y-101600000D03*
X127000000Y-104140000D03*
X127000000Y-106680000D03*
D11*
X129710000Y-105090000D03*
X129710000Y-104140000D03*
X129710000Y-103190000D03*
X131910000Y-103190000D03*
X131910000Y-105090000D03*
X131910000Y-104140000D03*
X117010000Y-105090000D03*
X117010000Y-104140000D03*
X117010000Y-103190000D03*
X119210000Y-103190000D03*
X119210000Y-105090000D03*
X119210000Y-104140000D03*
D12*
X114300000Y-101600000D03*
X114300000Y-104140000D03*
X114300000Y-106680000D03*
X121920000Y-101600000D03*
X121920000Y-104140000D03*
X121920000Y-106680000D03*
D13*
X117160000Y-101092000D03*
X119060000Y-101092000D03*
X117160000Y-107315000D03*
X119060000Y-107315000D03*
X104460000Y-107315000D03*
X106360000Y-107315000D03*
X104460000Y-101092000D03*
X106360000Y-101092000D03*
D12*
X109220000Y-101600000D03*
X109220000Y-104140000D03*
X109220000Y-106680000D03*
X101600000Y-101600000D03*
X101600000Y-104140000D03*
X101600000Y-106680000D03*
D11*
X104310000Y-105090000D03*
X104310000Y-104140000D03*
X104310000Y-103190000D03*
X106510000Y-103190000D03*
X106510000Y-105090000D03*
X106510000Y-104140000D03*
D14*
G36*
X103505000Y-100838000D02*
X102997000Y-100838000D01*
X102997000Y-100330000D01*
X103505000Y-100330000D01*
X103505000Y-100838000D01*
X103505000Y-100838000D01*
G37*
X103505000Y-100838000D02*
X102997000Y-100838000D01*
X102997000Y-100330000D01*
X103505000Y-100330000D01*
X103505000Y-100838000D01*
G36*
X107823000Y-100838000D02*
X107315000Y-100838000D01*
X107315000Y-100330000D01*
X107823000Y-100330000D01*
X107823000Y-100838000D01*
X107823000Y-100838000D01*
G37*
X107823000Y-100838000D02*
X107315000Y-100838000D01*
X107315000Y-100330000D01*
X107823000Y-100330000D01*
X107823000Y-100838000D01*
G36*
X103505000Y-108077000D02*
X102997000Y-108077000D01*
X102997000Y-107569000D01*
X103505000Y-107569000D01*
X103505000Y-108077000D01*
X103505000Y-108077000D01*
G37*
X103505000Y-108077000D02*
X102997000Y-108077000D01*
X102997000Y-107569000D01*
X103505000Y-107569000D01*
X103505000Y-108077000D01*
G36*
X107823000Y-108077000D02*
X107315000Y-108077000D01*
X107315000Y-107569000D01*
X107823000Y-107569000D01*
X107823000Y-108077000D01*
X107823000Y-108077000D01*
G37*
X107823000Y-108077000D02*
X107315000Y-108077000D01*
X107315000Y-107569000D01*
X107823000Y-107569000D01*
X107823000Y-108077000D01*
G36*
X105664000Y-102362000D02*
X105156000Y-102362000D01*
X105156000Y-101854000D01*
X105664000Y-101854000D01*
X105664000Y-102362000D01*
X105664000Y-102362000D01*
G37*
X105664000Y-102362000D02*
X105156000Y-102362000D01*
X105156000Y-101854000D01*
X105664000Y-101854000D01*
X105664000Y-102362000D01*
G36*
X105664000Y-106426000D02*
X105156000Y-106426000D01*
X105156000Y-105918000D01*
X105664000Y-105918000D01*
X105664000Y-106426000D01*
X105664000Y-106426000D01*
G37*
X105664000Y-106426000D02*
X105156000Y-106426000D01*
X105156000Y-105918000D01*
X105664000Y-105918000D01*
X105664000Y-106426000D01*
G36*
X116205000Y-100838000D02*
X115697000Y-100838000D01*
X115697000Y-100330000D01*
X116205000Y-100330000D01*
X116205000Y-100838000D01*
X116205000Y-100838000D01*
G37*
X116205000Y-100838000D02*
X115697000Y-100838000D01*
X115697000Y-100330000D01*
X116205000Y-100330000D01*
X116205000Y-100838000D01*
G36*
X120523000Y-100838000D02*
X120015000Y-100838000D01*
X120015000Y-100330000D01*
X120523000Y-100330000D01*
X120523000Y-100838000D01*
X120523000Y-100838000D01*
G37*
X120523000Y-100838000D02*
X120015000Y-100838000D01*
X120015000Y-100330000D01*
X120523000Y-100330000D01*
X120523000Y-100838000D01*
G36*
X116205000Y-108077000D02*
X115697000Y-108077000D01*
X115697000Y-107569000D01*
X116205000Y-107569000D01*
X116205000Y-108077000D01*
X116205000Y-108077000D01*
G37*
X116205000Y-108077000D02*
X115697000Y-108077000D01*
X115697000Y-107569000D01*
X116205000Y-107569000D01*
X116205000Y-108077000D01*
G36*
X120523000Y-108077000D02*
X120015000Y-108077000D01*
X120015000Y-107569000D01*
X120523000Y-107569000D01*
X120523000Y-108077000D01*
X120523000Y-108077000D01*
G37*
X120523000Y-108077000D02*
X120015000Y-108077000D01*
X120015000Y-107569000D01*
X120523000Y-107569000D01*
X120523000Y-108077000D01*
G36*
X118364000Y-102362000D02*
X117856000Y-102362000D01*
X117856000Y-101854000D01*
X118364000Y-101854000D01*
X118364000Y-102362000D01*
X118364000Y-102362000D01*
G37*
X118364000Y-102362000D02*
X117856000Y-102362000D01*
X117856000Y-101854000D01*
X118364000Y-101854000D01*
X118364000Y-102362000D01*
G36*
X118364000Y-106426000D02*
X117856000Y-106426000D01*
X117856000Y-105918000D01*
X118364000Y-105918000D01*
X118364000Y-106426000D01*
X118364000Y-106426000D01*
G37*
X118364000Y-106426000D02*
X117856000Y-106426000D01*
X117856000Y-105918000D01*
X118364000Y-105918000D01*
X118364000Y-106426000D01*
G36*
X128905000Y-100838000D02*
X128397000Y-100838000D01*
X128397000Y-100330000D01*
X128905000Y-100330000D01*
X128905000Y-100838000D01*
X128905000Y-100838000D01*
G37*
X128905000Y-100838000D02*
X128397000Y-100838000D01*
X128397000Y-100330000D01*
X128905000Y-100330000D01*
X128905000Y-100838000D01*
G36*
X133223000Y-100838000D02*
X132715000Y-100838000D01*
X132715000Y-100330000D01*
X133223000Y-100330000D01*
X133223000Y-100838000D01*
X133223000Y-100838000D01*
G37*
X133223000Y-100838000D02*
X132715000Y-100838000D01*
X132715000Y-100330000D01*
X133223000Y-100330000D01*
X133223000Y-100838000D01*
G36*
X128905000Y-108077000D02*
X128397000Y-108077000D01*
X128397000Y-107569000D01*
X128905000Y-107569000D01*
X128905000Y-108077000D01*
X128905000Y-108077000D01*
G37*
X128905000Y-108077000D02*
X128397000Y-108077000D01*
X128397000Y-107569000D01*
X128905000Y-107569000D01*
X128905000Y-108077000D01*
G36*
X133223000Y-108077000D02*
X132715000Y-108077000D01*
X132715000Y-107569000D01*
X133223000Y-107569000D01*
X133223000Y-108077000D01*
X133223000Y-108077000D01*
G37*
X133223000Y-108077000D02*
X132715000Y-108077000D01*
X132715000Y-107569000D01*
X133223000Y-107569000D01*
X133223000Y-108077000D01*
G36*
X131064000Y-102362000D02*
X130556000Y-102362000D01*
X130556000Y-101854000D01*
X131064000Y-101854000D01*
X131064000Y-102362000D01*
X131064000Y-102362000D01*
G37*
X131064000Y-102362000D02*
X130556000Y-102362000D01*
X130556000Y-101854000D01*
X131064000Y-101854000D01*
X131064000Y-102362000D01*
G36*
X131064000Y-106426000D02*
X130556000Y-106426000D01*
X130556000Y-105918000D01*
X131064000Y-105918000D01*
X131064000Y-106426000D01*
X131064000Y-106426000D01*
G37*
X131064000Y-106426000D02*
X130556000Y-106426000D01*
X130556000Y-105918000D01*
X131064000Y-105918000D01*
X131064000Y-106426000D01*
G36*
X141605000Y-100838000D02*
X141097000Y-100838000D01*
X141097000Y-100330000D01*
X141605000Y-100330000D01*
X141605000Y-100838000D01*
X141605000Y-100838000D01*
G37*
X141605000Y-100838000D02*
X141097000Y-100838000D01*
X141097000Y-100330000D01*
X141605000Y-100330000D01*
X141605000Y-100838000D01*
G36*
X145923000Y-100838000D02*
X145415000Y-100838000D01*
X145415000Y-100330000D01*
X145923000Y-100330000D01*
X145923000Y-100838000D01*
X145923000Y-100838000D01*
G37*
X145923000Y-100838000D02*
X145415000Y-100838000D01*
X145415000Y-100330000D01*
X145923000Y-100330000D01*
X145923000Y-100838000D01*
G36*
X141605000Y-108077000D02*
X141097000Y-108077000D01*
X141097000Y-107569000D01*
X141605000Y-107569000D01*
X141605000Y-108077000D01*
X141605000Y-108077000D01*
G37*
X141605000Y-108077000D02*
X141097000Y-108077000D01*
X141097000Y-107569000D01*
X141605000Y-107569000D01*
X141605000Y-108077000D01*
G36*
X145923000Y-108077000D02*
X145415000Y-108077000D01*
X145415000Y-107569000D01*
X145923000Y-107569000D01*
X145923000Y-108077000D01*
X145923000Y-108077000D01*
G37*
X145923000Y-108077000D02*
X145415000Y-108077000D01*
X145415000Y-107569000D01*
X145923000Y-107569000D01*
X145923000Y-108077000D01*
G36*
X143764000Y-102362000D02*
X143256000Y-102362000D01*
X143256000Y-101854000D01*
X143764000Y-101854000D01*
X143764000Y-102362000D01*
X143764000Y-102362000D01*
G37*
X143764000Y-102362000D02*
X143256000Y-102362000D01*
X143256000Y-101854000D01*
X143764000Y-101854000D01*
X143764000Y-102362000D01*
G36*
X143764000Y-106426000D02*
X143256000Y-106426000D01*
X143256000Y-105918000D01*
X143764000Y-105918000D01*
X143764000Y-106426000D01*
X143764000Y-106426000D01*
G37*
X143764000Y-106426000D02*
X143256000Y-106426000D01*
X143256000Y-105918000D01*
X143764000Y-105918000D01*
X143764000Y-106426000D01*
G36*
X103505000Y-110998000D02*
X102997000Y-110998000D01*
X102997000Y-110490000D01*
X103505000Y-110490000D01*
X103505000Y-110998000D01*
X103505000Y-110998000D01*
G37*
X103505000Y-110998000D02*
X102997000Y-110998000D01*
X102997000Y-110490000D01*
X103505000Y-110490000D01*
X103505000Y-110998000D01*
G36*
X107823000Y-110998000D02*
X107315000Y-110998000D01*
X107315000Y-110490000D01*
X107823000Y-110490000D01*
X107823000Y-110998000D01*
X107823000Y-110998000D01*
G37*
X107823000Y-110998000D02*
X107315000Y-110998000D01*
X107315000Y-110490000D01*
X107823000Y-110490000D01*
X107823000Y-110998000D01*
G36*
X103505000Y-118237000D02*
X102997000Y-118237000D01*
X102997000Y-117729000D01*
X103505000Y-117729000D01*
X103505000Y-118237000D01*
X103505000Y-118237000D01*
G37*
X103505000Y-118237000D02*
X102997000Y-118237000D01*
X102997000Y-117729000D01*
X103505000Y-117729000D01*
X103505000Y-118237000D01*
G36*
X107823000Y-118237000D02*
X107315000Y-118237000D01*
X107315000Y-117729000D01*
X107823000Y-117729000D01*
X107823000Y-118237000D01*
X107823000Y-118237000D01*
G37*
X107823000Y-118237000D02*
X107315000Y-118237000D01*
X107315000Y-117729000D01*
X107823000Y-117729000D01*
X107823000Y-118237000D01*
G36*
X105664000Y-112522000D02*
X105156000Y-112522000D01*
X105156000Y-112014000D01*
X105664000Y-112014000D01*
X105664000Y-112522000D01*
X105664000Y-112522000D01*
G37*
X105664000Y-112522000D02*
X105156000Y-112522000D01*
X105156000Y-112014000D01*
X105664000Y-112014000D01*
X105664000Y-112522000D01*
G36*
X105664000Y-116586000D02*
X105156000Y-116586000D01*
X105156000Y-116078000D01*
X105664000Y-116078000D01*
X105664000Y-116586000D01*
X105664000Y-116586000D01*
G37*
X105664000Y-116586000D02*
X105156000Y-116586000D01*
X105156000Y-116078000D01*
X105664000Y-116078000D01*
X105664000Y-116586000D01*
G36*
X116205000Y-110998000D02*
X115697000Y-110998000D01*
X115697000Y-110490000D01*
X116205000Y-110490000D01*
X116205000Y-110998000D01*
X116205000Y-110998000D01*
G37*
X116205000Y-110998000D02*
X115697000Y-110998000D01*
X115697000Y-110490000D01*
X116205000Y-110490000D01*
X116205000Y-110998000D01*
G36*
X120523000Y-110998000D02*
X120015000Y-110998000D01*
X120015000Y-110490000D01*
X120523000Y-110490000D01*
X120523000Y-110998000D01*
X120523000Y-110998000D01*
G37*
X120523000Y-110998000D02*
X120015000Y-110998000D01*
X120015000Y-110490000D01*
X120523000Y-110490000D01*
X120523000Y-110998000D01*
G36*
X116205000Y-118237000D02*
X115697000Y-118237000D01*
X115697000Y-117729000D01*
X116205000Y-117729000D01*
X116205000Y-118237000D01*
X116205000Y-118237000D01*
G37*
X116205000Y-118237000D02*
X115697000Y-118237000D01*
X115697000Y-117729000D01*
X116205000Y-117729000D01*
X116205000Y-118237000D01*
G36*
X120523000Y-118237000D02*
X120015000Y-118237000D01*
X120015000Y-117729000D01*
X120523000Y-117729000D01*
X120523000Y-118237000D01*
X120523000Y-118237000D01*
G37*
X120523000Y-118237000D02*
X120015000Y-118237000D01*
X120015000Y-117729000D01*
X120523000Y-117729000D01*
X120523000Y-118237000D01*
G36*
X118364000Y-112522000D02*
X117856000Y-112522000D01*
X117856000Y-112014000D01*
X118364000Y-112014000D01*
X118364000Y-112522000D01*
X118364000Y-112522000D01*
G37*
X118364000Y-112522000D02*
X117856000Y-112522000D01*
X117856000Y-112014000D01*
X118364000Y-112014000D01*
X118364000Y-112522000D01*
G36*
X118364000Y-116586000D02*
X117856000Y-116586000D01*
X117856000Y-116078000D01*
X118364000Y-116078000D01*
X118364000Y-116586000D01*
X118364000Y-116586000D01*
G37*
X118364000Y-116586000D02*
X117856000Y-116586000D01*
X117856000Y-116078000D01*
X118364000Y-116078000D01*
X118364000Y-116586000D01*
G36*
X128905000Y-110998000D02*
X128397000Y-110998000D01*
X128397000Y-110490000D01*
X128905000Y-110490000D01*
X128905000Y-110998000D01*
X128905000Y-110998000D01*
G37*
X128905000Y-110998000D02*
X128397000Y-110998000D01*
X128397000Y-110490000D01*
X128905000Y-110490000D01*
X128905000Y-110998000D01*
G36*
X133223000Y-110998000D02*
X132715000Y-110998000D01*
X132715000Y-110490000D01*
X133223000Y-110490000D01*
X133223000Y-110998000D01*
X133223000Y-110998000D01*
G37*
X133223000Y-110998000D02*
X132715000Y-110998000D01*
X132715000Y-110490000D01*
X133223000Y-110490000D01*
X133223000Y-110998000D01*
G36*
X128905000Y-118237000D02*
X128397000Y-118237000D01*
X128397000Y-117729000D01*
X128905000Y-117729000D01*
X128905000Y-118237000D01*
X128905000Y-118237000D01*
G37*
X128905000Y-118237000D02*
X128397000Y-118237000D01*
X128397000Y-117729000D01*
X128905000Y-117729000D01*
X128905000Y-118237000D01*
G36*
X133223000Y-118237000D02*
X132715000Y-118237000D01*
X132715000Y-117729000D01*
X133223000Y-117729000D01*
X133223000Y-118237000D01*
X133223000Y-118237000D01*
G37*
X133223000Y-118237000D02*
X132715000Y-118237000D01*
X132715000Y-117729000D01*
X133223000Y-117729000D01*
X133223000Y-118237000D01*
G36*
X131064000Y-112522000D02*
X130556000Y-112522000D01*
X130556000Y-112014000D01*
X131064000Y-112014000D01*
X131064000Y-112522000D01*
X131064000Y-112522000D01*
G37*
X131064000Y-112522000D02*
X130556000Y-112522000D01*
X130556000Y-112014000D01*
X131064000Y-112014000D01*
X131064000Y-112522000D01*
G36*
X131064000Y-116586000D02*
X130556000Y-116586000D01*
X130556000Y-116078000D01*
X131064000Y-116078000D01*
X131064000Y-116586000D01*
X131064000Y-116586000D01*
G37*
X131064000Y-116586000D02*
X130556000Y-116586000D01*
X130556000Y-116078000D01*
X131064000Y-116078000D01*
X131064000Y-116586000D01*
G36*
X141605000Y-110998000D02*
X141097000Y-110998000D01*
X141097000Y-110490000D01*
X141605000Y-110490000D01*
X141605000Y-110998000D01*
X141605000Y-110998000D01*
G37*
X141605000Y-110998000D02*
X141097000Y-110998000D01*
X141097000Y-110490000D01*
X141605000Y-110490000D01*
X141605000Y-110998000D01*
G36*
X145923000Y-110998000D02*
X145415000Y-110998000D01*
X145415000Y-110490000D01*
X145923000Y-110490000D01*
X145923000Y-110998000D01*
X145923000Y-110998000D01*
G37*
X145923000Y-110998000D02*
X145415000Y-110998000D01*
X145415000Y-110490000D01*
X145923000Y-110490000D01*
X145923000Y-110998000D01*
G36*
X141605000Y-118237000D02*
X141097000Y-118237000D01*
X141097000Y-117729000D01*
X141605000Y-117729000D01*
X141605000Y-118237000D01*
X141605000Y-118237000D01*
G37*
X141605000Y-118237000D02*
X141097000Y-118237000D01*
X141097000Y-117729000D01*
X141605000Y-117729000D01*
X141605000Y-118237000D01*
G36*
X145923000Y-118237000D02*
X145415000Y-118237000D01*
X145415000Y-117729000D01*
X145923000Y-117729000D01*
X145923000Y-118237000D01*
X145923000Y-118237000D01*
G37*
X145923000Y-118237000D02*
X145415000Y-118237000D01*
X145415000Y-117729000D01*
X145923000Y-117729000D01*
X145923000Y-118237000D01*
G36*
X143764000Y-112522000D02*
X143256000Y-112522000D01*
X143256000Y-112014000D01*
X143764000Y-112014000D01*
X143764000Y-112522000D01*
X143764000Y-112522000D01*
G37*
X143764000Y-112522000D02*
X143256000Y-112522000D01*
X143256000Y-112014000D01*
X143764000Y-112014000D01*
X143764000Y-112522000D01*
G36*
X143764000Y-116586000D02*
X143256000Y-116586000D01*
X143256000Y-116078000D01*
X143764000Y-116078000D01*
X143764000Y-116586000D01*
X143764000Y-116586000D01*
G37*
X143764000Y-116586000D02*
X143256000Y-116586000D01*
X143256000Y-116078000D01*
X143764000Y-116078000D01*
X143764000Y-116586000D01*
G36*
X103505000Y-121158000D02*
X102997000Y-121158000D01*
X102997000Y-120650000D01*
X103505000Y-120650000D01*
X103505000Y-121158000D01*
X103505000Y-121158000D01*
G37*
X103505000Y-121158000D02*
X102997000Y-121158000D01*
X102997000Y-120650000D01*
X103505000Y-120650000D01*
X103505000Y-121158000D01*
G36*
X107823000Y-121158000D02*
X107315000Y-121158000D01*
X107315000Y-120650000D01*
X107823000Y-120650000D01*
X107823000Y-121158000D01*
X107823000Y-121158000D01*
G37*
X107823000Y-121158000D02*
X107315000Y-121158000D01*
X107315000Y-120650000D01*
X107823000Y-120650000D01*
X107823000Y-121158000D01*
G36*
X103505000Y-128397000D02*
X102997000Y-128397000D01*
X102997000Y-127889000D01*
X103505000Y-127889000D01*
X103505000Y-128397000D01*
X103505000Y-128397000D01*
G37*
X103505000Y-128397000D02*
X102997000Y-128397000D01*
X102997000Y-127889000D01*
X103505000Y-127889000D01*
X103505000Y-128397000D01*
G36*
X107823000Y-128397000D02*
X107315000Y-128397000D01*
X107315000Y-127889000D01*
X107823000Y-127889000D01*
X107823000Y-128397000D01*
X107823000Y-128397000D01*
G37*
X107823000Y-128397000D02*
X107315000Y-128397000D01*
X107315000Y-127889000D01*
X107823000Y-127889000D01*
X107823000Y-128397000D01*
G36*
X105664000Y-122682000D02*
X105156000Y-122682000D01*
X105156000Y-122174000D01*
X105664000Y-122174000D01*
X105664000Y-122682000D01*
X105664000Y-122682000D01*
G37*
X105664000Y-122682000D02*
X105156000Y-122682000D01*
X105156000Y-122174000D01*
X105664000Y-122174000D01*
X105664000Y-122682000D01*
G36*
X105664000Y-126746000D02*
X105156000Y-126746000D01*
X105156000Y-126238000D01*
X105664000Y-126238000D01*
X105664000Y-126746000D01*
X105664000Y-126746000D01*
G37*
X105664000Y-126746000D02*
X105156000Y-126746000D01*
X105156000Y-126238000D01*
X105664000Y-126238000D01*
X105664000Y-126746000D01*
G36*
X116205000Y-121158000D02*
X115697000Y-121158000D01*
X115697000Y-120650000D01*
X116205000Y-120650000D01*
X116205000Y-121158000D01*
X116205000Y-121158000D01*
G37*
X116205000Y-121158000D02*
X115697000Y-121158000D01*
X115697000Y-120650000D01*
X116205000Y-120650000D01*
X116205000Y-121158000D01*
G36*
X120523000Y-121158000D02*
X120015000Y-121158000D01*
X120015000Y-120650000D01*
X120523000Y-120650000D01*
X120523000Y-121158000D01*
X120523000Y-121158000D01*
G37*
X120523000Y-121158000D02*
X120015000Y-121158000D01*
X120015000Y-120650000D01*
X120523000Y-120650000D01*
X120523000Y-121158000D01*
G36*
X116205000Y-128397000D02*
X115697000Y-128397000D01*
X115697000Y-127889000D01*
X116205000Y-127889000D01*
X116205000Y-128397000D01*
X116205000Y-128397000D01*
G37*
X116205000Y-128397000D02*
X115697000Y-128397000D01*
X115697000Y-127889000D01*
X116205000Y-127889000D01*
X116205000Y-128397000D01*
G36*
X120523000Y-128397000D02*
X120015000Y-128397000D01*
X120015000Y-127889000D01*
X120523000Y-127889000D01*
X120523000Y-128397000D01*
X120523000Y-128397000D01*
G37*
X120523000Y-128397000D02*
X120015000Y-128397000D01*
X120015000Y-127889000D01*
X120523000Y-127889000D01*
X120523000Y-128397000D01*
G36*
X118364000Y-122682000D02*
X117856000Y-122682000D01*
X117856000Y-122174000D01*
X118364000Y-122174000D01*
X118364000Y-122682000D01*
X118364000Y-122682000D01*
G37*
X118364000Y-122682000D02*
X117856000Y-122682000D01*
X117856000Y-122174000D01*
X118364000Y-122174000D01*
X118364000Y-122682000D01*
G36*
X118364000Y-126746000D02*
X117856000Y-126746000D01*
X117856000Y-126238000D01*
X118364000Y-126238000D01*
X118364000Y-126746000D01*
X118364000Y-126746000D01*
G37*
X118364000Y-126746000D02*
X117856000Y-126746000D01*
X117856000Y-126238000D01*
X118364000Y-126238000D01*
X118364000Y-126746000D01*
G36*
X128905000Y-121158000D02*
X128397000Y-121158000D01*
X128397000Y-120650000D01*
X128905000Y-120650000D01*
X128905000Y-121158000D01*
X128905000Y-121158000D01*
G37*
X128905000Y-121158000D02*
X128397000Y-121158000D01*
X128397000Y-120650000D01*
X128905000Y-120650000D01*
X128905000Y-121158000D01*
G36*
X133223000Y-121158000D02*
X132715000Y-121158000D01*
X132715000Y-120650000D01*
X133223000Y-120650000D01*
X133223000Y-121158000D01*
X133223000Y-121158000D01*
G37*
X133223000Y-121158000D02*
X132715000Y-121158000D01*
X132715000Y-120650000D01*
X133223000Y-120650000D01*
X133223000Y-121158000D01*
G36*
X128905000Y-128397000D02*
X128397000Y-128397000D01*
X128397000Y-127889000D01*
X128905000Y-127889000D01*
X128905000Y-128397000D01*
X128905000Y-128397000D01*
G37*
X128905000Y-128397000D02*
X128397000Y-128397000D01*
X128397000Y-127889000D01*
X128905000Y-127889000D01*
X128905000Y-128397000D01*
G36*
X133223000Y-128397000D02*
X132715000Y-128397000D01*
X132715000Y-127889000D01*
X133223000Y-127889000D01*
X133223000Y-128397000D01*
X133223000Y-128397000D01*
G37*
X133223000Y-128397000D02*
X132715000Y-128397000D01*
X132715000Y-127889000D01*
X133223000Y-127889000D01*
X133223000Y-128397000D01*
G36*
X131064000Y-122682000D02*
X130556000Y-122682000D01*
X130556000Y-122174000D01*
X131064000Y-122174000D01*
X131064000Y-122682000D01*
X131064000Y-122682000D01*
G37*
X131064000Y-122682000D02*
X130556000Y-122682000D01*
X130556000Y-122174000D01*
X131064000Y-122174000D01*
X131064000Y-122682000D01*
G36*
X131064000Y-126746000D02*
X130556000Y-126746000D01*
X130556000Y-126238000D01*
X131064000Y-126238000D01*
X131064000Y-126746000D01*
X131064000Y-126746000D01*
G37*
X131064000Y-126746000D02*
X130556000Y-126746000D01*
X130556000Y-126238000D01*
X131064000Y-126238000D01*
X131064000Y-126746000D01*
G36*
X141605000Y-121158000D02*
X141097000Y-121158000D01*
X141097000Y-120650000D01*
X141605000Y-120650000D01*
X141605000Y-121158000D01*
X141605000Y-121158000D01*
G37*
X141605000Y-121158000D02*
X141097000Y-121158000D01*
X141097000Y-120650000D01*
X141605000Y-120650000D01*
X141605000Y-121158000D01*
G36*
X145923000Y-121158000D02*
X145415000Y-121158000D01*
X145415000Y-120650000D01*
X145923000Y-120650000D01*
X145923000Y-121158000D01*
X145923000Y-121158000D01*
G37*
X145923000Y-121158000D02*
X145415000Y-121158000D01*
X145415000Y-120650000D01*
X145923000Y-120650000D01*
X145923000Y-121158000D01*
G36*
X141605000Y-128397000D02*
X141097000Y-128397000D01*
X141097000Y-127889000D01*
X141605000Y-127889000D01*
X141605000Y-128397000D01*
X141605000Y-128397000D01*
G37*
X141605000Y-128397000D02*
X141097000Y-128397000D01*
X141097000Y-127889000D01*
X141605000Y-127889000D01*
X141605000Y-128397000D01*
G36*
X145923000Y-128397000D02*
X145415000Y-128397000D01*
X145415000Y-127889000D01*
X145923000Y-127889000D01*
X145923000Y-128397000D01*
X145923000Y-128397000D01*
G37*
X145923000Y-128397000D02*
X145415000Y-128397000D01*
X145415000Y-127889000D01*
X145923000Y-127889000D01*
X145923000Y-128397000D01*
G36*
X143764000Y-122682000D02*
X143256000Y-122682000D01*
X143256000Y-122174000D01*
X143764000Y-122174000D01*
X143764000Y-122682000D01*
X143764000Y-122682000D01*
G37*
X143764000Y-122682000D02*
X143256000Y-122682000D01*
X143256000Y-122174000D01*
X143764000Y-122174000D01*
X143764000Y-122682000D01*
G36*
X143764000Y-126746000D02*
X143256000Y-126746000D01*
X143256000Y-126238000D01*
X143764000Y-126238000D01*
X143764000Y-126746000D01*
X143764000Y-126746000D01*
G37*
X143764000Y-126746000D02*
X143256000Y-126746000D01*
X143256000Y-126238000D01*
X143764000Y-126238000D01*
X143764000Y-126746000D01*
G36*
X103505000Y-131318000D02*
X102997000Y-131318000D01*
X102997000Y-130810000D01*
X103505000Y-130810000D01*
X103505000Y-131318000D01*
X103505000Y-131318000D01*
G37*
X103505000Y-131318000D02*
X102997000Y-131318000D01*
X102997000Y-130810000D01*
X103505000Y-130810000D01*
X103505000Y-131318000D01*
G36*
X107823000Y-131318000D02*
X107315000Y-131318000D01*
X107315000Y-130810000D01*
X107823000Y-130810000D01*
X107823000Y-131318000D01*
X107823000Y-131318000D01*
G37*
X107823000Y-131318000D02*
X107315000Y-131318000D01*
X107315000Y-130810000D01*
X107823000Y-130810000D01*
X107823000Y-131318000D01*
G36*
X103505000Y-138557000D02*
X102997000Y-138557000D01*
X102997000Y-138049000D01*
X103505000Y-138049000D01*
X103505000Y-138557000D01*
X103505000Y-138557000D01*
G37*
X103505000Y-138557000D02*
X102997000Y-138557000D01*
X102997000Y-138049000D01*
X103505000Y-138049000D01*
X103505000Y-138557000D01*
G36*
X107823000Y-138557000D02*
X107315000Y-138557000D01*
X107315000Y-138049000D01*
X107823000Y-138049000D01*
X107823000Y-138557000D01*
X107823000Y-138557000D01*
G37*
X107823000Y-138557000D02*
X107315000Y-138557000D01*
X107315000Y-138049000D01*
X107823000Y-138049000D01*
X107823000Y-138557000D01*
G36*
X105664000Y-132842000D02*
X105156000Y-132842000D01*
X105156000Y-132334000D01*
X105664000Y-132334000D01*
X105664000Y-132842000D01*
X105664000Y-132842000D01*
G37*
X105664000Y-132842000D02*
X105156000Y-132842000D01*
X105156000Y-132334000D01*
X105664000Y-132334000D01*
X105664000Y-132842000D01*
G36*
X105664000Y-136906000D02*
X105156000Y-136906000D01*
X105156000Y-136398000D01*
X105664000Y-136398000D01*
X105664000Y-136906000D01*
X105664000Y-136906000D01*
G37*
X105664000Y-136906000D02*
X105156000Y-136906000D01*
X105156000Y-136398000D01*
X105664000Y-136398000D01*
X105664000Y-136906000D01*
G36*
X116205000Y-131318000D02*
X115697000Y-131318000D01*
X115697000Y-130810000D01*
X116205000Y-130810000D01*
X116205000Y-131318000D01*
X116205000Y-131318000D01*
G37*
X116205000Y-131318000D02*
X115697000Y-131318000D01*
X115697000Y-130810000D01*
X116205000Y-130810000D01*
X116205000Y-131318000D01*
G36*
X120523000Y-131318000D02*
X120015000Y-131318000D01*
X120015000Y-130810000D01*
X120523000Y-130810000D01*
X120523000Y-131318000D01*
X120523000Y-131318000D01*
G37*
X120523000Y-131318000D02*
X120015000Y-131318000D01*
X120015000Y-130810000D01*
X120523000Y-130810000D01*
X120523000Y-131318000D01*
G36*
X116205000Y-138557000D02*
X115697000Y-138557000D01*
X115697000Y-138049000D01*
X116205000Y-138049000D01*
X116205000Y-138557000D01*
X116205000Y-138557000D01*
G37*
X116205000Y-138557000D02*
X115697000Y-138557000D01*
X115697000Y-138049000D01*
X116205000Y-138049000D01*
X116205000Y-138557000D01*
G36*
X120523000Y-138557000D02*
X120015000Y-138557000D01*
X120015000Y-138049000D01*
X120523000Y-138049000D01*
X120523000Y-138557000D01*
X120523000Y-138557000D01*
G37*
X120523000Y-138557000D02*
X120015000Y-138557000D01*
X120015000Y-138049000D01*
X120523000Y-138049000D01*
X120523000Y-138557000D01*
G36*
X118364000Y-132842000D02*
X117856000Y-132842000D01*
X117856000Y-132334000D01*
X118364000Y-132334000D01*
X118364000Y-132842000D01*
X118364000Y-132842000D01*
G37*
X118364000Y-132842000D02*
X117856000Y-132842000D01*
X117856000Y-132334000D01*
X118364000Y-132334000D01*
X118364000Y-132842000D01*
G36*
X118364000Y-136906000D02*
X117856000Y-136906000D01*
X117856000Y-136398000D01*
X118364000Y-136398000D01*
X118364000Y-136906000D01*
X118364000Y-136906000D01*
G37*
X118364000Y-136906000D02*
X117856000Y-136906000D01*
X117856000Y-136398000D01*
X118364000Y-136398000D01*
X118364000Y-136906000D01*
G36*
X128905000Y-131318000D02*
X128397000Y-131318000D01*
X128397000Y-130810000D01*
X128905000Y-130810000D01*
X128905000Y-131318000D01*
X128905000Y-131318000D01*
G37*
X128905000Y-131318000D02*
X128397000Y-131318000D01*
X128397000Y-130810000D01*
X128905000Y-130810000D01*
X128905000Y-131318000D01*
G36*
X133223000Y-131318000D02*
X132715000Y-131318000D01*
X132715000Y-130810000D01*
X133223000Y-130810000D01*
X133223000Y-131318000D01*
X133223000Y-131318000D01*
G37*
X133223000Y-131318000D02*
X132715000Y-131318000D01*
X132715000Y-130810000D01*
X133223000Y-130810000D01*
X133223000Y-131318000D01*
G36*
X128905000Y-138557000D02*
X128397000Y-138557000D01*
X128397000Y-138049000D01*
X128905000Y-138049000D01*
X128905000Y-138557000D01*
X128905000Y-138557000D01*
G37*
X128905000Y-138557000D02*
X128397000Y-138557000D01*
X128397000Y-138049000D01*
X128905000Y-138049000D01*
X128905000Y-138557000D01*
G36*
X133223000Y-138557000D02*
X132715000Y-138557000D01*
X132715000Y-138049000D01*
X133223000Y-138049000D01*
X133223000Y-138557000D01*
X133223000Y-138557000D01*
G37*
X133223000Y-138557000D02*
X132715000Y-138557000D01*
X132715000Y-138049000D01*
X133223000Y-138049000D01*
X133223000Y-138557000D01*
G36*
X131064000Y-132842000D02*
X130556000Y-132842000D01*
X130556000Y-132334000D01*
X131064000Y-132334000D01*
X131064000Y-132842000D01*
X131064000Y-132842000D01*
G37*
X131064000Y-132842000D02*
X130556000Y-132842000D01*
X130556000Y-132334000D01*
X131064000Y-132334000D01*
X131064000Y-132842000D01*
G36*
X131064000Y-136906000D02*
X130556000Y-136906000D01*
X130556000Y-136398000D01*
X131064000Y-136398000D01*
X131064000Y-136906000D01*
X131064000Y-136906000D01*
G37*
X131064000Y-136906000D02*
X130556000Y-136906000D01*
X130556000Y-136398000D01*
X131064000Y-136398000D01*
X131064000Y-136906000D01*
G36*
X141605000Y-131318000D02*
X141097000Y-131318000D01*
X141097000Y-130810000D01*
X141605000Y-130810000D01*
X141605000Y-131318000D01*
X141605000Y-131318000D01*
G37*
X141605000Y-131318000D02*
X141097000Y-131318000D01*
X141097000Y-130810000D01*
X141605000Y-130810000D01*
X141605000Y-131318000D01*
G36*
X145923000Y-131318000D02*
X145415000Y-131318000D01*
X145415000Y-130810000D01*
X145923000Y-130810000D01*
X145923000Y-131318000D01*
X145923000Y-131318000D01*
G37*
X145923000Y-131318000D02*
X145415000Y-131318000D01*
X145415000Y-130810000D01*
X145923000Y-130810000D01*
X145923000Y-131318000D01*
G36*
X141605000Y-138557000D02*
X141097000Y-138557000D01*
X141097000Y-138049000D01*
X141605000Y-138049000D01*
X141605000Y-138557000D01*
X141605000Y-138557000D01*
G37*
X141605000Y-138557000D02*
X141097000Y-138557000D01*
X141097000Y-138049000D01*
X141605000Y-138049000D01*
X141605000Y-138557000D01*
G36*
X145923000Y-138557000D02*
X145415000Y-138557000D01*
X145415000Y-138049000D01*
X145923000Y-138049000D01*
X145923000Y-138557000D01*
X145923000Y-138557000D01*
G37*
X145923000Y-138557000D02*
X145415000Y-138557000D01*
X145415000Y-138049000D01*
X145923000Y-138049000D01*
X145923000Y-138557000D01*
G36*
X143764000Y-132842000D02*
X143256000Y-132842000D01*
X143256000Y-132334000D01*
X143764000Y-132334000D01*
X143764000Y-132842000D01*
X143764000Y-132842000D01*
G37*
X143764000Y-132842000D02*
X143256000Y-132842000D01*
X143256000Y-132334000D01*
X143764000Y-132334000D01*
X143764000Y-132842000D01*
G36*
X143764000Y-136906000D02*
X143256000Y-136906000D01*
X143256000Y-136398000D01*
X143764000Y-136398000D01*
X143764000Y-136906000D01*
X143764000Y-136906000D01*
G37*
X143764000Y-136906000D02*
X143256000Y-136906000D01*
X143256000Y-136398000D01*
X143764000Y-136398000D01*
X143764000Y-136906000D01*
G36*
X103505000Y-141478000D02*
X102997000Y-141478000D01*
X102997000Y-140970000D01*
X103505000Y-140970000D01*
X103505000Y-141478000D01*
X103505000Y-141478000D01*
G37*
X103505000Y-141478000D02*
X102997000Y-141478000D01*
X102997000Y-140970000D01*
X103505000Y-140970000D01*
X103505000Y-141478000D01*
G36*
X107823000Y-141478000D02*
X107315000Y-141478000D01*
X107315000Y-140970000D01*
X107823000Y-140970000D01*
X107823000Y-141478000D01*
X107823000Y-141478000D01*
G37*
X107823000Y-141478000D02*
X107315000Y-141478000D01*
X107315000Y-140970000D01*
X107823000Y-140970000D01*
X107823000Y-141478000D01*
G36*
X103505000Y-148717000D02*
X102997000Y-148717000D01*
X102997000Y-148209000D01*
X103505000Y-148209000D01*
X103505000Y-148717000D01*
X103505000Y-148717000D01*
G37*
X103505000Y-148717000D02*
X102997000Y-148717000D01*
X102997000Y-148209000D01*
X103505000Y-148209000D01*
X103505000Y-148717000D01*
G36*
X107823000Y-148717000D02*
X107315000Y-148717000D01*
X107315000Y-148209000D01*
X107823000Y-148209000D01*
X107823000Y-148717000D01*
X107823000Y-148717000D01*
G37*
X107823000Y-148717000D02*
X107315000Y-148717000D01*
X107315000Y-148209000D01*
X107823000Y-148209000D01*
X107823000Y-148717000D01*
G36*
X105664000Y-143002000D02*
X105156000Y-143002000D01*
X105156000Y-142494000D01*
X105664000Y-142494000D01*
X105664000Y-143002000D01*
X105664000Y-143002000D01*
G37*
X105664000Y-143002000D02*
X105156000Y-143002000D01*
X105156000Y-142494000D01*
X105664000Y-142494000D01*
X105664000Y-143002000D01*
G36*
X105664000Y-147066000D02*
X105156000Y-147066000D01*
X105156000Y-146558000D01*
X105664000Y-146558000D01*
X105664000Y-147066000D01*
X105664000Y-147066000D01*
G37*
X105664000Y-147066000D02*
X105156000Y-147066000D01*
X105156000Y-146558000D01*
X105664000Y-146558000D01*
X105664000Y-147066000D01*
G36*
X116205000Y-141478000D02*
X115697000Y-141478000D01*
X115697000Y-140970000D01*
X116205000Y-140970000D01*
X116205000Y-141478000D01*
X116205000Y-141478000D01*
G37*
X116205000Y-141478000D02*
X115697000Y-141478000D01*
X115697000Y-140970000D01*
X116205000Y-140970000D01*
X116205000Y-141478000D01*
G36*
X120523000Y-141478000D02*
X120015000Y-141478000D01*
X120015000Y-140970000D01*
X120523000Y-140970000D01*
X120523000Y-141478000D01*
X120523000Y-141478000D01*
G37*
X120523000Y-141478000D02*
X120015000Y-141478000D01*
X120015000Y-140970000D01*
X120523000Y-140970000D01*
X120523000Y-141478000D01*
G36*
X116205000Y-148717000D02*
X115697000Y-148717000D01*
X115697000Y-148209000D01*
X116205000Y-148209000D01*
X116205000Y-148717000D01*
X116205000Y-148717000D01*
G37*
X116205000Y-148717000D02*
X115697000Y-148717000D01*
X115697000Y-148209000D01*
X116205000Y-148209000D01*
X116205000Y-148717000D01*
G36*
X120523000Y-148717000D02*
X120015000Y-148717000D01*
X120015000Y-148209000D01*
X120523000Y-148209000D01*
X120523000Y-148717000D01*
X120523000Y-148717000D01*
G37*
X120523000Y-148717000D02*
X120015000Y-148717000D01*
X120015000Y-148209000D01*
X120523000Y-148209000D01*
X120523000Y-148717000D01*
G36*
X118364000Y-143002000D02*
X117856000Y-143002000D01*
X117856000Y-142494000D01*
X118364000Y-142494000D01*
X118364000Y-143002000D01*
X118364000Y-143002000D01*
G37*
X118364000Y-143002000D02*
X117856000Y-143002000D01*
X117856000Y-142494000D01*
X118364000Y-142494000D01*
X118364000Y-143002000D01*
G36*
X118364000Y-147066000D02*
X117856000Y-147066000D01*
X117856000Y-146558000D01*
X118364000Y-146558000D01*
X118364000Y-147066000D01*
X118364000Y-147066000D01*
G37*
X118364000Y-147066000D02*
X117856000Y-147066000D01*
X117856000Y-146558000D01*
X118364000Y-146558000D01*
X118364000Y-147066000D01*
G36*
X128905000Y-141478000D02*
X128397000Y-141478000D01*
X128397000Y-140970000D01*
X128905000Y-140970000D01*
X128905000Y-141478000D01*
X128905000Y-141478000D01*
G37*
X128905000Y-141478000D02*
X128397000Y-141478000D01*
X128397000Y-140970000D01*
X128905000Y-140970000D01*
X128905000Y-141478000D01*
G36*
X133223000Y-141478000D02*
X132715000Y-141478000D01*
X132715000Y-140970000D01*
X133223000Y-140970000D01*
X133223000Y-141478000D01*
X133223000Y-141478000D01*
G37*
X133223000Y-141478000D02*
X132715000Y-141478000D01*
X132715000Y-140970000D01*
X133223000Y-140970000D01*
X133223000Y-141478000D01*
G36*
X128905000Y-148717000D02*
X128397000Y-148717000D01*
X128397000Y-148209000D01*
X128905000Y-148209000D01*
X128905000Y-148717000D01*
X128905000Y-148717000D01*
G37*
X128905000Y-148717000D02*
X128397000Y-148717000D01*
X128397000Y-148209000D01*
X128905000Y-148209000D01*
X128905000Y-148717000D01*
G36*
X133223000Y-148717000D02*
X132715000Y-148717000D01*
X132715000Y-148209000D01*
X133223000Y-148209000D01*
X133223000Y-148717000D01*
X133223000Y-148717000D01*
G37*
X133223000Y-148717000D02*
X132715000Y-148717000D01*
X132715000Y-148209000D01*
X133223000Y-148209000D01*
X133223000Y-148717000D01*
G36*
X131064000Y-143002000D02*
X130556000Y-143002000D01*
X130556000Y-142494000D01*
X131064000Y-142494000D01*
X131064000Y-143002000D01*
X131064000Y-143002000D01*
G37*
X131064000Y-143002000D02*
X130556000Y-143002000D01*
X130556000Y-142494000D01*
X131064000Y-142494000D01*
X131064000Y-143002000D01*
G36*
X131064000Y-147066000D02*
X130556000Y-147066000D01*
X130556000Y-146558000D01*
X131064000Y-146558000D01*
X131064000Y-147066000D01*
X131064000Y-147066000D01*
G37*
X131064000Y-147066000D02*
X130556000Y-147066000D01*
X130556000Y-146558000D01*
X131064000Y-146558000D01*
X131064000Y-147066000D01*
G36*
X141605000Y-141478000D02*
X141097000Y-141478000D01*
X141097000Y-140970000D01*
X141605000Y-140970000D01*
X141605000Y-141478000D01*
X141605000Y-141478000D01*
G37*
X141605000Y-141478000D02*
X141097000Y-141478000D01*
X141097000Y-140970000D01*
X141605000Y-140970000D01*
X141605000Y-141478000D01*
G36*
X145923000Y-141478000D02*
X145415000Y-141478000D01*
X145415000Y-140970000D01*
X145923000Y-140970000D01*
X145923000Y-141478000D01*
X145923000Y-141478000D01*
G37*
X145923000Y-141478000D02*
X145415000Y-141478000D01*
X145415000Y-140970000D01*
X145923000Y-140970000D01*
X145923000Y-141478000D01*
G36*
X141605000Y-148717000D02*
X141097000Y-148717000D01*
X141097000Y-148209000D01*
X141605000Y-148209000D01*
X141605000Y-148717000D01*
X141605000Y-148717000D01*
G37*
X141605000Y-148717000D02*
X141097000Y-148717000D01*
X141097000Y-148209000D01*
X141605000Y-148209000D01*
X141605000Y-148717000D01*
G36*
X145923000Y-148717000D02*
X145415000Y-148717000D01*
X145415000Y-148209000D01*
X145923000Y-148209000D01*
X145923000Y-148717000D01*
X145923000Y-148717000D01*
G37*
X145923000Y-148717000D02*
X145415000Y-148717000D01*
X145415000Y-148209000D01*
X145923000Y-148209000D01*
X145923000Y-148717000D01*
G36*
X143764000Y-143002000D02*
X143256000Y-143002000D01*
X143256000Y-142494000D01*
X143764000Y-142494000D01*
X143764000Y-143002000D01*
X143764000Y-143002000D01*
G37*
X143764000Y-143002000D02*
X143256000Y-143002000D01*
X143256000Y-142494000D01*
X143764000Y-142494000D01*
X143764000Y-143002000D01*
G36*
X143764000Y-147066000D02*
X143256000Y-147066000D01*
X143256000Y-146558000D01*
X143764000Y-146558000D01*
X143764000Y-147066000D01*
X143764000Y-147066000D01*
G37*
X143764000Y-147066000D02*
X143256000Y-147066000D01*
X143256000Y-146558000D01*
X143764000Y-146558000D01*
X143764000Y-147066000D01*
M02*
