M48
INCH,TZ
T1C0.039
T2C0.040
%
G90
G05
T2
X20315Y-20315
X20315Y-21315
X20315Y-22315
X20315Y-24315
X20315Y-25315
X20315Y-26315
X20315Y-40207
X20315Y-41207
X20315Y-42207
X20315Y-44000
X20315Y-45000
X20315Y-46000
X20339Y-47937
X20339Y-48937
X20339Y-49937
X20339Y-50937
X20358Y-28154
X20358Y-29154
X20358Y-30154
X20358Y-31154
X20864Y-32763
X20864Y-38763
X20864Y-52448
X20864Y-58448
X21864Y-32763
X21864Y-38763
X21864Y-52448
X21864Y-58448
X22864Y-32763
X22864Y-38763
X22864Y-52448
X22864Y-58448
X23315Y-20315
X23315Y-21315
X23315Y-22315
X23315Y-24315
X23315Y-25315
X23315Y-26315
X23315Y-40207
X23315Y-41207
X23315Y-42207
X23315Y-44000
X23315Y-45000
X23315Y-46000
X23339Y-47937
X23339Y-48937
X23339Y-49937
X23339Y-50937
X23358Y-28154
X23358Y-29154
X23358Y-30154
X23358Y-31154
X25197Y-20315
X25197Y-21315
X25197Y-22315
X25197Y-24315
X25197Y-25315
X25197Y-26315
X25197Y-28163
X25197Y-29163
X25197Y-30163
X25197Y-31163
X25197Y-40207
X25197Y-41207
X25197Y-42207
X25197Y-44000
X25197Y-45000
X25197Y-46000
X25197Y-47947
X25197Y-48947
X25197Y-49947
X25197Y-50947
X25597Y-32815
X25597Y-33815
X25597Y-52500
X25597Y-53500
X26597Y-32815
X26597Y-33815
X26597Y-52500
X26597Y-53500
X28197Y-20315
X28197Y-21315
X28197Y-22315
X28197Y-24315
X28197Y-25315
X28197Y-26315
X28197Y-28163
X28197Y-29163
X28197Y-30163
X28197Y-31163
X28197Y-40207
X28197Y-41207
X28197Y-42207
X28197Y-44000
X28197Y-45000
X28197Y-46000
X28197Y-47947
X28197Y-48947
X28197Y-49947
X28197Y-50947
X30315Y-28163
X30315Y-29163
X30315Y-30163
X30315Y-31163
X30315Y-47947
X30315Y-48947
X30315Y-49947
X30315Y-50947
X30339Y-20315
X30339Y-21315
X30339Y-22315
X30339Y-24315
X30339Y-25315
X30339Y-26315
X30339Y-40207
X30339Y-41207
X30339Y-42207
X30339Y-44000
X30339Y-45000
X30339Y-46000
X30548Y-52500
X30548Y-53500
X30784Y-32795
X30784Y-33795
X31548Y-52500
X31548Y-53500
X31784Y-32795
X31784Y-33795
X33315Y-28163
X33315Y-29163
X33315Y-30163
X33315Y-31163
X33315Y-47947
X33315Y-48947
X33315Y-49947
X33315Y-50947
X33339Y-20315
X33339Y-21315
X33339Y-22315
X33339Y-24315
X33339Y-25315
X33339Y-26315
X33339Y-40207
X33339Y-41207
X33339Y-42207
X33339Y-44000
X33339Y-45000
X33339Y-46000
X35315Y-28173
X35315Y-29173
X35315Y-30173
X35315Y-31173
X35315Y-47957
X35315Y-48957
X35315Y-49957
X35315Y-50957
X35339Y-20315
X35339Y-21315
X35339Y-22315
X35339Y-24315
X35339Y-25315
X35339Y-26315
X35339Y-40207
X35339Y-41207
X35339Y-42207
X35339Y-44000
X35339Y-45000
X35339Y-46000
X35799Y-32767
X35799Y-38767
X35799Y-52452
X35799Y-58452
X36799Y-32767
X36799Y-38767
X36799Y-52452
X36799Y-58452
X37799Y-32767
X37799Y-38767
X37799Y-52452
X37799Y-58452
X38315Y-28173
X38315Y-29173
X38315Y-30173
X38315Y-31173
X38315Y-47957
X38315Y-48957
X38315Y-49957
X38315Y-50957
X38339Y-20315
X38339Y-21315
X38339Y-22315
X38339Y-24315
X38339Y-25315
X38339Y-26315
X38339Y-40207
X38339Y-41207
X38339Y-42207
X38339Y-44000
X38339Y-45000
X38339Y-46000
X40236Y-20315
X40236Y-21315
X40236Y-22315
X40236Y-24315
X40236Y-25315
X40236Y-26315
X40236Y-28163
X40236Y-29163
X40236Y-30163
X40236Y-31163
X40236Y-40207
X40236Y-41207
X40236Y-42207
X40236Y-44000
X40236Y-45000
X40236Y-46000
X40236Y-47947
X40236Y-48947
X40236Y-49947
X40236Y-50947
X40785Y-32763
X40785Y-38763
X40785Y-52448
X40785Y-58448
X41785Y-32763
X41785Y-38763
X41785Y-52448
X41785Y-58448
X42785Y-32763
X42785Y-38763
X42785Y-52448
X42785Y-58448
X43236Y-20315
X43236Y-21315
X43236Y-22315
X43236Y-24315
X43236Y-25315
X43236Y-26315
X43236Y-28163
X43236Y-29163
X43236Y-30163
X43236Y-31163
X43236Y-40207
X43236Y-41207
X43236Y-42207
X43236Y-44000
X43236Y-45000
X43236Y-46000
X43236Y-47947
X43236Y-48947
X43236Y-49947
X43236Y-50947
X45197Y-20315
X45197Y-21315
X45197Y-22315
X45197Y-24315
X45197Y-25315
X45197Y-26315
X45197Y-28173
X45197Y-29173
X45197Y-30173
X45197Y-31173
X45197Y-40207
X45197Y-41207
X45197Y-42207
X45197Y-44000
X45197Y-45000
X45197Y-46000
X45197Y-47957
X45197Y-48957
X45197Y-49957
X45197Y-50957
X45597Y-32815
X45597Y-33815
X45597Y-52500
X45597Y-53500
X46597Y-32815
X46597Y-33815
X46597Y-52500
X46597Y-53500
X48197Y-20315
X48197Y-21315
X48197Y-22315
X48197Y-24315
X48197Y-25315
X48197Y-26315
X48197Y-28173
X48197Y-29173
X48197Y-30173
X48197Y-31173
X48197Y-40207
X48197Y-41207
X48197Y-42207
X48197Y-44000
X48197Y-45000
X48197Y-46000
X48197Y-47957
X48197Y-48957
X48197Y-49957
X48197Y-50957
X50276Y-28173
X50276Y-29173
X50276Y-30173
X50276Y-31173
X50276Y-47957
X50276Y-48957
X50276Y-49957
X50276Y-50957
X50300Y-20315
X50300Y-21315
X50300Y-22315
X50300Y-24315
X50300Y-25315
X50300Y-26315
X50300Y-40207
X50300Y-41207
X50300Y-42207
X50300Y-44000
X50300Y-45000
X50300Y-46000
X50528Y-32815
X50528Y-33815
X50528Y-52500
X50528Y-53500
X51528Y-32815
X51528Y-33815
X51528Y-52500
X51528Y-53500
X53276Y-28173
X53276Y-29173
X53276Y-30173
X53276Y-31173
X53276Y-47957
X53276Y-48957
X53276Y-49957
X53276Y-50957
X53300Y-20315
X53300Y-21315
X53300Y-22315
X53300Y-24315
X53300Y-25315
X53300Y-26315
X53300Y-40207
X53300Y-41207
X53300Y-42207
X53300Y-44000
X53300Y-45000
X53300Y-46000
X55276Y-28183
X55276Y-29183
X55276Y-30183
X55276Y-31183
X55276Y-47967
X55276Y-48967
X55276Y-49967
X55276Y-50967
X55300Y-20315
X55300Y-21315
X55300Y-22315
X55300Y-24315
X55300Y-25315
X55300Y-26315
X55300Y-40207
X55300Y-41207
X55300Y-42207
X55300Y-44000
X55300Y-45000
X55300Y-46000
X55759Y-32767
X55759Y-38767
X55759Y-52452
X55759Y-58452
X56759Y-32767
X56759Y-38767
X56759Y-52452
X56759Y-58452
X57759Y-32767
X57759Y-38767
X57759Y-52452
X57759Y-58452
X58276Y-28183
X58276Y-29183
X58276Y-30183
X58276Y-31183
X58276Y-47967
X58276Y-48967
X58276Y-49967
X58276Y-50967
X58300Y-20315
X58300Y-21315
X58300Y-22315
X58300Y-24315
X58300Y-25315
X58300Y-26315
X58300Y-40207
X58300Y-41207
X58300Y-42207
X58300Y-44000
X58300Y-45000
X58300Y-46000
T1
X25675Y-35379G85X26462Y-35379
G05
X25675Y-37741G85X26462Y-37741
G05
X25675Y-55064G85X26462Y-55064
G05
X25675Y-57426G85X26462Y-57426
G05
X27918Y-36954G85X27918Y-36167
G05
X27918Y-56639G85X27918Y-55852
G05
X30625Y-55064G85X31412Y-55064
G05
X30625Y-57426G85X31412Y-57426
G05
X30862Y-35359G85X31649Y-35359
G05
X30862Y-37721G85X31649Y-37721
G05
X32869Y-56639G85X32869Y-55852
G05
X33105Y-36934G85X33105Y-36147
G05
X45675Y-35379G85X46462Y-35379
G05
X45675Y-37741G85X46462Y-37741
G05
X45675Y-55064G85X46462Y-55064
G05
X45675Y-57426G85X46462Y-57426
G05
X47918Y-36954G85X47918Y-36167
G05
X47918Y-56639G85X47918Y-55852
G05
X50606Y-35379G85X51393Y-35379
G05
X50606Y-37741G85X51393Y-37741
G05
X50606Y-55064G85X51393Y-55064
G05
X50606Y-57426G85X51393Y-57426
G05
X52849Y-36954G85X52849Y-36167
G05
X52849Y-56639G85X52849Y-55852
G05
T0
M30
