G04 #@! TF.FileFunction,Soldermask,Bot*
%FSLAX46Y46*%
G04 Gerber Fmt 4.6, Leading zero omitted, Abs format (unit mm)*
G04 Created by KiCad (PCBNEW 4.0.7+dfsg1-1) date Mon Nov 20 21:48:08 2017*
%MOMM*%
%LPD*%
G01*
G04 APERTURE LIST*
%ADD10C,0.100000*%
%ADD11R,0.850000X1.850000*%
%ADD12O,2.432000X2.127200*%
%ADD13R,3.900120X3.900120*%
%ADD14R,1.100000X1.700000*%
%ADD15R,1.460000X1.050000*%
%ADD16R,2.051000X3.448000*%
%ADD17R,6.496000X6.496000*%
%ADD18O,2.127200X2.432000*%
%ADD19C,0.254000*%
G04 APERTURE END LIST*
D10*
D11*
X105025000Y-72525000D03*
X105675000Y-72525000D03*
X106325000Y-72525000D03*
X106975000Y-72525000D03*
X106975000Y-78425000D03*
X106325000Y-78425000D03*
X105675000Y-78425000D03*
X105025000Y-78425000D03*
X117625000Y-72550000D03*
X118275000Y-72550000D03*
X118925000Y-72550000D03*
X119575000Y-72550000D03*
X119575000Y-78450000D03*
X118925000Y-78450000D03*
X118275000Y-78450000D03*
X117625000Y-78450000D03*
X130525000Y-72550000D03*
X131175000Y-72550000D03*
X131825000Y-72550000D03*
X132475000Y-72550000D03*
X132475000Y-78450000D03*
X131825000Y-78450000D03*
X131175000Y-78450000D03*
X130525000Y-78450000D03*
X143225000Y-72575000D03*
X143875000Y-72575000D03*
X144525000Y-72575000D03*
X145175000Y-72575000D03*
X145175000Y-78475000D03*
X144525000Y-78475000D03*
X143875000Y-78475000D03*
X143225000Y-78475000D03*
X79825000Y-72525000D03*
X80475000Y-72525000D03*
X81125000Y-72525000D03*
X81775000Y-72525000D03*
X81775000Y-78425000D03*
X81125000Y-78425000D03*
X80475000Y-78425000D03*
X79825000Y-78425000D03*
X92525000Y-72550000D03*
X93175000Y-72550000D03*
X93825000Y-72550000D03*
X94475000Y-72550000D03*
X94475000Y-78450000D03*
X93825000Y-78450000D03*
X93175000Y-78450000D03*
X92525000Y-78450000D03*
X54535000Y-72500000D03*
X55185000Y-72500000D03*
X55835000Y-72500000D03*
X56485000Y-72500000D03*
X56485000Y-78400000D03*
X55835000Y-78400000D03*
X55185000Y-78400000D03*
X54535000Y-78400000D03*
X66825000Y-72525000D03*
X67475000Y-72525000D03*
X68125000Y-72525000D03*
X68775000Y-72525000D03*
X68775000Y-78425000D03*
X68125000Y-78425000D03*
X67475000Y-78425000D03*
X66825000Y-78425000D03*
D12*
X102200000Y-71535000D03*
X102200000Y-74075000D03*
X102200000Y-76615000D03*
X102200000Y-79155000D03*
X114800000Y-71560000D03*
X114800000Y-74100000D03*
X114800000Y-76640000D03*
X114800000Y-79180000D03*
X109820000Y-71535000D03*
X109820000Y-74075000D03*
X109820000Y-76615000D03*
X109820000Y-79155000D03*
X122420000Y-71560000D03*
X122420000Y-74100000D03*
X122420000Y-76640000D03*
X122420000Y-79180000D03*
X84620000Y-71535000D03*
X84620000Y-74075000D03*
X84620000Y-76615000D03*
X84620000Y-79155000D03*
X89700000Y-71560000D03*
X89700000Y-74100000D03*
X89700000Y-76640000D03*
X89700000Y-79180000D03*
X97320000Y-71560000D03*
X97320000Y-74100000D03*
X97320000Y-76640000D03*
X97320000Y-79180000D03*
X71620000Y-71535000D03*
X71620000Y-74075000D03*
X71620000Y-76615000D03*
X71620000Y-79155000D03*
X77000000Y-71535000D03*
X77000000Y-74075000D03*
X77000000Y-76615000D03*
X77000000Y-79155000D03*
X64000000Y-71535000D03*
X64000000Y-74075000D03*
X64000000Y-76615000D03*
X64000000Y-79155000D03*
X59330000Y-71510000D03*
X59330000Y-74050000D03*
X59330000Y-76590000D03*
X59330000Y-79130000D03*
X51710000Y-71510000D03*
X51710000Y-74050000D03*
X51710000Y-76590000D03*
X51710000Y-79130000D03*
X148020000Y-71585000D03*
X148020000Y-74125000D03*
X148020000Y-76665000D03*
X148020000Y-79205000D03*
X140400000Y-71585000D03*
X140400000Y-74125000D03*
X140400000Y-76665000D03*
X140400000Y-79205000D03*
X135320000Y-71560000D03*
X135320000Y-74100000D03*
X135320000Y-76640000D03*
X135320000Y-79180000D03*
X127700000Y-71560000D03*
X127700000Y-74100000D03*
X127700000Y-76640000D03*
X127700000Y-79180000D03*
D11*
X143225000Y-122825000D03*
X143875000Y-122825000D03*
X144525000Y-122825000D03*
X145175000Y-122825000D03*
X145175000Y-128725000D03*
X144525000Y-128725000D03*
X143875000Y-128725000D03*
X143225000Y-128725000D03*
X130525000Y-122800000D03*
X131175000Y-122800000D03*
X131825000Y-122800000D03*
X132475000Y-122800000D03*
X132475000Y-128700000D03*
X131825000Y-128700000D03*
X131175000Y-128700000D03*
X130525000Y-128700000D03*
X105025000Y-122775000D03*
X105675000Y-122775000D03*
X106325000Y-122775000D03*
X106975000Y-122775000D03*
X106975000Y-128675000D03*
X106325000Y-128675000D03*
X105675000Y-128675000D03*
X105025000Y-128675000D03*
X117625000Y-122800000D03*
X118275000Y-122800000D03*
X118925000Y-122800000D03*
X119575000Y-122800000D03*
X119575000Y-128700000D03*
X118925000Y-128700000D03*
X118275000Y-128700000D03*
X117625000Y-128700000D03*
D12*
X135320000Y-121810000D03*
X135320000Y-124350000D03*
X135320000Y-126890000D03*
X135320000Y-129430000D03*
X148020000Y-121835000D03*
X148020000Y-124375000D03*
X148020000Y-126915000D03*
X148020000Y-129455000D03*
X140400000Y-121835000D03*
X140400000Y-124375000D03*
X140400000Y-126915000D03*
X140400000Y-129455000D03*
X127700000Y-121810000D03*
X127700000Y-124350000D03*
X127700000Y-126890000D03*
X127700000Y-129430000D03*
X122420000Y-121810000D03*
X122420000Y-124350000D03*
X122420000Y-126890000D03*
X122420000Y-129430000D03*
X114800000Y-121810000D03*
X114800000Y-124350000D03*
X114800000Y-126890000D03*
X114800000Y-129430000D03*
X109820000Y-121785000D03*
X109820000Y-124325000D03*
X109820000Y-126865000D03*
X109820000Y-129405000D03*
X102200000Y-121785000D03*
X102200000Y-124325000D03*
X102200000Y-126865000D03*
X102200000Y-129405000D03*
D11*
X92525000Y-122800000D03*
X93175000Y-122800000D03*
X93825000Y-122800000D03*
X94475000Y-122800000D03*
X94475000Y-128700000D03*
X93825000Y-128700000D03*
X93175000Y-128700000D03*
X92525000Y-128700000D03*
X79825000Y-122775000D03*
X80475000Y-122775000D03*
X81125000Y-122775000D03*
X81775000Y-122775000D03*
X81775000Y-128675000D03*
X81125000Y-128675000D03*
X80475000Y-128675000D03*
X79825000Y-128675000D03*
D12*
X97320000Y-121810000D03*
X97320000Y-124350000D03*
X97320000Y-126890000D03*
X97320000Y-129430000D03*
X77000000Y-121785000D03*
X77000000Y-124325000D03*
X77000000Y-126865000D03*
X77000000Y-129405000D03*
X89700000Y-121810000D03*
X89700000Y-124350000D03*
X89700000Y-126890000D03*
X89700000Y-129430000D03*
X84620000Y-121785000D03*
X84620000Y-124325000D03*
X84620000Y-126865000D03*
X84620000Y-129405000D03*
D11*
X66825000Y-122775000D03*
X67475000Y-122775000D03*
X68125000Y-122775000D03*
X68775000Y-122775000D03*
X68775000Y-128675000D03*
X68125000Y-128675000D03*
X67475000Y-128675000D03*
X66825000Y-128675000D03*
D12*
X71620000Y-121785000D03*
X71620000Y-124325000D03*
X71620000Y-126865000D03*
X71620000Y-129405000D03*
X64000000Y-121785000D03*
X64000000Y-124325000D03*
X64000000Y-126865000D03*
X64000000Y-129405000D03*
D13*
X129538000Y-139862860D03*
X129538000Y-145862340D03*
X134237000Y-142862600D03*
X117013000Y-139862860D03*
X117013000Y-145862340D03*
X121712000Y-142862600D03*
X78788000Y-139862860D03*
X78788000Y-145862340D03*
X83487000Y-142862600D03*
X66213000Y-139862860D03*
X66213000Y-145862340D03*
X70912000Y-142862600D03*
X129538000Y-89862860D03*
X129538000Y-95862340D03*
X134237000Y-92862600D03*
X117013000Y-89862860D03*
X117013000Y-95862340D03*
X121712000Y-92862600D03*
X79388000Y-89812860D03*
X79388000Y-95812340D03*
X84087000Y-92812600D03*
X66213000Y-89862860D03*
X66213000Y-95862340D03*
X70912000Y-92862600D03*
D14*
X66860000Y-107840000D03*
X68760000Y-107840000D03*
X66860000Y-101617000D03*
X68760000Y-101617000D03*
D15*
X54310000Y-105615000D03*
X54310000Y-104665000D03*
X54310000Y-103715000D03*
X56510000Y-103715000D03*
X56510000Y-105615000D03*
X56510000Y-104665000D03*
X66710000Y-105615000D03*
X66710000Y-104665000D03*
X66710000Y-103715000D03*
X68910000Y-103715000D03*
X68910000Y-105615000D03*
X68910000Y-104665000D03*
D14*
X54460000Y-101617000D03*
X56360000Y-101617000D03*
X54460000Y-107840000D03*
X56360000Y-107840000D03*
D11*
X54485000Y-122750000D03*
X55135000Y-122750000D03*
X55785000Y-122750000D03*
X56435000Y-122750000D03*
X56435000Y-128650000D03*
X55785000Y-128650000D03*
X55135000Y-128650000D03*
X54485000Y-128650000D03*
D14*
X54460000Y-111252000D03*
X56360000Y-111252000D03*
D15*
X54310000Y-115250000D03*
X54310000Y-114300000D03*
X54310000Y-113350000D03*
X56510000Y-113350000D03*
X56510000Y-115250000D03*
X56510000Y-114300000D03*
D16*
X57820000Y-144648000D03*
D17*
X55534000Y-138298000D03*
D16*
X53248000Y-144648000D03*
D14*
X54460000Y-117475000D03*
X56360000Y-117475000D03*
D15*
X66710000Y-115250000D03*
X66710000Y-114300000D03*
X66710000Y-113350000D03*
X68910000Y-113350000D03*
X68910000Y-115250000D03*
X68910000Y-114300000D03*
D14*
X66860000Y-117475000D03*
X68760000Y-117475000D03*
X66860000Y-111252000D03*
X68760000Y-111252000D03*
X92622000Y-101617000D03*
X94522000Y-101617000D03*
X92622000Y-107840000D03*
X94522000Y-107840000D03*
D15*
X92472000Y-115250000D03*
X92472000Y-114300000D03*
X92472000Y-113350000D03*
X94672000Y-113350000D03*
X94672000Y-115250000D03*
X94672000Y-114300000D03*
X92472000Y-105615000D03*
X92472000Y-104665000D03*
X92472000Y-103715000D03*
X94672000Y-103715000D03*
X94672000Y-105615000D03*
X94672000Y-104665000D03*
D14*
X92622000Y-111252000D03*
X94522000Y-111252000D03*
X79922000Y-107840000D03*
X81822000Y-107840000D03*
X79922000Y-101617000D03*
X81822000Y-101617000D03*
X79922000Y-111252000D03*
X81822000Y-111252000D03*
D15*
X79772000Y-115250000D03*
X79772000Y-114300000D03*
X79772000Y-113350000D03*
X81972000Y-113350000D03*
X81972000Y-115250000D03*
X81972000Y-114300000D03*
X79772000Y-105615000D03*
X79772000Y-104665000D03*
X79772000Y-103715000D03*
X81972000Y-103715000D03*
X81972000Y-105615000D03*
X81972000Y-104665000D03*
D16*
X146455000Y-144658000D03*
D17*
X144169000Y-138308000D03*
D16*
X141883000Y-144658000D03*
D14*
X143322000Y-117475000D03*
X145222000Y-117475000D03*
X130622000Y-101617000D03*
X132522000Y-101617000D03*
X130622000Y-117475000D03*
X132522000Y-117475000D03*
D15*
X130472000Y-105615000D03*
X130472000Y-104665000D03*
X130472000Y-103715000D03*
X132672000Y-103715000D03*
X132672000Y-105615000D03*
X132672000Y-104665000D03*
D14*
X130622000Y-107840000D03*
X132522000Y-107840000D03*
X130622000Y-111252000D03*
X132522000Y-111252000D03*
D15*
X130472000Y-115250000D03*
X130472000Y-114300000D03*
X130472000Y-113350000D03*
X132672000Y-113350000D03*
X132672000Y-115250000D03*
X132672000Y-114300000D03*
D14*
X117660000Y-111252000D03*
X119560000Y-111252000D03*
X117660000Y-107840000D03*
X119560000Y-107840000D03*
X105060000Y-101617000D03*
X106960000Y-101617000D03*
D15*
X117510000Y-105615000D03*
X117510000Y-104665000D03*
X117510000Y-103715000D03*
X119710000Y-103715000D03*
X119710000Y-105615000D03*
X119710000Y-104665000D03*
D14*
X105060000Y-111252000D03*
X106960000Y-111252000D03*
D15*
X104910000Y-105615000D03*
X104910000Y-104665000D03*
X104910000Y-103715000D03*
X107110000Y-103715000D03*
X107110000Y-105615000D03*
X107110000Y-104665000D03*
D14*
X117660000Y-101617000D03*
X119560000Y-101617000D03*
X105060000Y-107840000D03*
X106960000Y-107840000D03*
X143322000Y-111252000D03*
X145222000Y-111252000D03*
D15*
X143172000Y-115250000D03*
X143172000Y-114300000D03*
X143172000Y-113350000D03*
X145372000Y-113350000D03*
X145372000Y-115250000D03*
X145372000Y-114300000D03*
D14*
X143322000Y-107840000D03*
X145222000Y-107840000D03*
X143322000Y-101617000D03*
X145222000Y-101617000D03*
D15*
X143172000Y-105615000D03*
X143172000Y-104665000D03*
X143172000Y-103715000D03*
X145372000Y-103715000D03*
X145372000Y-105615000D03*
X145372000Y-104665000D03*
D14*
X105060000Y-117475000D03*
X106960000Y-117475000D03*
D15*
X104910000Y-115250000D03*
X104910000Y-114300000D03*
X104910000Y-113350000D03*
X107110000Y-113350000D03*
X107110000Y-115250000D03*
X107110000Y-114300000D03*
D14*
X117660000Y-117475000D03*
X119560000Y-117475000D03*
D15*
X117510000Y-115250000D03*
X117510000Y-114300000D03*
X117510000Y-113350000D03*
X119710000Y-113350000D03*
X119710000Y-115250000D03*
X119710000Y-114300000D03*
D16*
X108420000Y-144648000D03*
D17*
X106134000Y-138298000D03*
D16*
X103848000Y-144648000D03*
D14*
X92622000Y-117475000D03*
X94522000Y-117475000D03*
X79922000Y-117475000D03*
X81822000Y-117475000D03*
D16*
X95755000Y-144658000D03*
D17*
X93469000Y-138308000D03*
D16*
X91183000Y-144658000D03*
D12*
X109820000Y-102125000D03*
X109820000Y-104665000D03*
X109820000Y-107205000D03*
X102200000Y-102125000D03*
X102200000Y-104665000D03*
X102200000Y-107205000D03*
X114800000Y-102125000D03*
X114800000Y-104665000D03*
X114800000Y-107205000D03*
X114800000Y-111760000D03*
X114800000Y-114300000D03*
X114800000Y-116840000D03*
X109820000Y-111760000D03*
X109820000Y-114300000D03*
X109820000Y-116840000D03*
X102200000Y-111760000D03*
X102200000Y-114300000D03*
X102200000Y-116840000D03*
D18*
X141629000Y-148468000D03*
X144169000Y-148468000D03*
X146709000Y-148468000D03*
X128341000Y-135890000D03*
X130881000Y-135890000D03*
X141629000Y-133228000D03*
X144169000Y-133228000D03*
X146709000Y-133228000D03*
X128341000Y-133350000D03*
X130881000Y-133350000D03*
X103594000Y-148458000D03*
X106134000Y-148458000D03*
X108674000Y-148458000D03*
X103594000Y-133218000D03*
X106134000Y-133218000D03*
X108674000Y-133218000D03*
X115816000Y-133350000D03*
X118356000Y-133350000D03*
X115816000Y-135890000D03*
X118356000Y-135890000D03*
X77591000Y-135890000D03*
X80131000Y-135890000D03*
X77591000Y-133350000D03*
X80131000Y-133350000D03*
D12*
X89762000Y-102125000D03*
X89762000Y-104665000D03*
X89762000Y-107205000D03*
X97382000Y-102125000D03*
X97382000Y-104665000D03*
X97382000Y-107205000D03*
X77062000Y-111760000D03*
X77062000Y-114300000D03*
X77062000Y-116840000D03*
X77062000Y-102125000D03*
X77062000Y-104665000D03*
X77062000Y-107205000D03*
X84682000Y-102125000D03*
X84682000Y-104665000D03*
X84682000Y-107205000D03*
X89762000Y-111760000D03*
X89762000Y-114300000D03*
X89762000Y-116840000D03*
X97382000Y-111760000D03*
X97382000Y-114300000D03*
X97382000Y-116840000D03*
X84682000Y-111760000D03*
X84682000Y-114300000D03*
X84682000Y-116840000D03*
D18*
X90929000Y-133228000D03*
X93469000Y-133228000D03*
X96009000Y-133228000D03*
X90929000Y-148468000D03*
X93469000Y-148468000D03*
X96009000Y-148468000D03*
D12*
X71620000Y-102125000D03*
X71620000Y-104665000D03*
X71620000Y-107205000D03*
X64000000Y-102125000D03*
X64000000Y-104665000D03*
X64000000Y-107205000D03*
D18*
X65016000Y-133350000D03*
X67556000Y-133350000D03*
X52994000Y-148458000D03*
X55534000Y-148458000D03*
X58074000Y-148458000D03*
X65016000Y-135890000D03*
X67556000Y-135890000D03*
X52994000Y-133218000D03*
X55534000Y-133218000D03*
X58074000Y-133218000D03*
D12*
X51600000Y-102125000D03*
X51600000Y-104665000D03*
X51600000Y-107205000D03*
X59220000Y-102125000D03*
X59220000Y-104665000D03*
X59220000Y-107205000D03*
X59280000Y-121760000D03*
X59280000Y-124300000D03*
X59280000Y-126840000D03*
X59280000Y-129380000D03*
X51660000Y-121760000D03*
X51660000Y-124300000D03*
X51660000Y-126840000D03*
X51660000Y-129380000D03*
X64000000Y-111760000D03*
X64000000Y-114300000D03*
X64000000Y-116840000D03*
X71620000Y-111760000D03*
X71620000Y-114300000D03*
X71620000Y-116840000D03*
X51600000Y-111760000D03*
X51600000Y-114300000D03*
X51600000Y-116840000D03*
X59220000Y-111760000D03*
X59220000Y-114300000D03*
X59220000Y-116840000D03*
X122420000Y-102125000D03*
X122420000Y-104665000D03*
X122420000Y-107205000D03*
X127762000Y-102125000D03*
X127762000Y-104665000D03*
X127762000Y-107205000D03*
X127762000Y-111760000D03*
X127762000Y-114300000D03*
X127762000Y-116840000D03*
X122420000Y-111760000D03*
X122420000Y-114300000D03*
X122420000Y-116840000D03*
X135382000Y-102125000D03*
X135382000Y-104665000D03*
X135382000Y-107205000D03*
X140462000Y-102125000D03*
X140462000Y-104665000D03*
X140462000Y-107205000D03*
X148082000Y-102125000D03*
X148082000Y-104665000D03*
X148082000Y-107205000D03*
X140462000Y-111760000D03*
X140462000Y-114300000D03*
X140462000Y-116840000D03*
X148082000Y-111760000D03*
X148082000Y-114300000D03*
X148082000Y-116840000D03*
X135382000Y-111760000D03*
X135382000Y-114300000D03*
X135382000Y-116840000D03*
D16*
X146455000Y-94658000D03*
D17*
X144169000Y-88308000D03*
D16*
X141883000Y-94658000D03*
D14*
X143322000Y-67475000D03*
X145222000Y-67475000D03*
D15*
X104910000Y-55090000D03*
X104910000Y-54140000D03*
X104910000Y-53190000D03*
X107110000Y-53190000D03*
X107110000Y-55090000D03*
X107110000Y-54140000D03*
D14*
X105060000Y-57315000D03*
X106960000Y-57315000D03*
X117660000Y-51092000D03*
X119560000Y-51092000D03*
X105060000Y-51092000D03*
X106960000Y-51092000D03*
X143322000Y-61252000D03*
X145222000Y-61252000D03*
X143322000Y-57315000D03*
X145222000Y-57315000D03*
X143322000Y-51092000D03*
X145222000Y-51092000D03*
D15*
X143172000Y-55090000D03*
X143172000Y-54140000D03*
X143172000Y-53190000D03*
X145372000Y-53190000D03*
X145372000Y-55090000D03*
X145372000Y-54140000D03*
X143172000Y-65250000D03*
X143172000Y-64300000D03*
X143172000Y-63350000D03*
X145372000Y-63350000D03*
X145372000Y-65250000D03*
X145372000Y-64300000D03*
D14*
X105060000Y-67475000D03*
X106960000Y-67475000D03*
D16*
X108420000Y-94648000D03*
D17*
X106134000Y-88298000D03*
D16*
X103848000Y-94648000D03*
D15*
X104910000Y-65250000D03*
X104910000Y-64300000D03*
X104910000Y-63350000D03*
X107110000Y-63350000D03*
X107110000Y-65250000D03*
X107110000Y-64300000D03*
D14*
X105060000Y-61252000D03*
X106960000Y-61252000D03*
X117660000Y-57315000D03*
X119560000Y-57315000D03*
X117660000Y-67475000D03*
X119560000Y-67475000D03*
D15*
X117510000Y-55090000D03*
X117510000Y-54140000D03*
X117510000Y-53190000D03*
X119710000Y-53190000D03*
X119710000Y-55090000D03*
X119710000Y-54140000D03*
X117510000Y-65250000D03*
X117510000Y-64300000D03*
X117510000Y-63350000D03*
X119710000Y-63350000D03*
X119710000Y-65250000D03*
X119710000Y-64300000D03*
D14*
X117660000Y-61252000D03*
X119560000Y-61252000D03*
D15*
X130472000Y-55090000D03*
X130472000Y-54140000D03*
X130472000Y-53190000D03*
X132672000Y-53190000D03*
X132672000Y-55090000D03*
X132672000Y-54140000D03*
D14*
X130622000Y-57315000D03*
X132522000Y-57315000D03*
D15*
X130472000Y-65250000D03*
X130472000Y-64300000D03*
X130472000Y-63350000D03*
X132672000Y-63350000D03*
X132672000Y-65250000D03*
X132672000Y-64300000D03*
D14*
X130622000Y-67475000D03*
X132522000Y-67475000D03*
X130622000Y-61252000D03*
X132522000Y-61252000D03*
X130622000Y-51092000D03*
X132522000Y-51092000D03*
D12*
X109820000Y-61760000D03*
X109820000Y-64300000D03*
X109820000Y-66840000D03*
X102200000Y-61760000D03*
X102200000Y-64300000D03*
X102200000Y-66840000D03*
X114800000Y-61760000D03*
X114800000Y-64300000D03*
X114800000Y-66840000D03*
X122420000Y-61760000D03*
X122420000Y-64300000D03*
X122420000Y-66840000D03*
X102200000Y-51600000D03*
X102200000Y-54140000D03*
X102200000Y-56680000D03*
X109820000Y-51600000D03*
X109820000Y-54140000D03*
X109820000Y-56680000D03*
X114800000Y-51600000D03*
X114800000Y-54140000D03*
X114800000Y-56680000D03*
X127762000Y-51600000D03*
X127762000Y-54140000D03*
X127762000Y-56680000D03*
X122420000Y-51600000D03*
X122420000Y-54140000D03*
X122420000Y-56680000D03*
X135382000Y-51600000D03*
X135382000Y-54140000D03*
X135382000Y-56680000D03*
X148082000Y-61760000D03*
X148082000Y-64300000D03*
X148082000Y-66840000D03*
X148082000Y-51600000D03*
X148082000Y-54140000D03*
X148082000Y-56680000D03*
X140462000Y-51600000D03*
X140462000Y-54140000D03*
X140462000Y-56680000D03*
X140462000Y-61760000D03*
X140462000Y-64300000D03*
X140462000Y-66840000D03*
X135382000Y-61760000D03*
X135382000Y-64300000D03*
X135382000Y-66840000D03*
X127762000Y-61760000D03*
X127762000Y-64300000D03*
X127762000Y-66840000D03*
D18*
X128341000Y-83350000D03*
X130881000Y-83350000D03*
X128341000Y-85890000D03*
X130881000Y-85890000D03*
X141629000Y-83228000D03*
X144169000Y-83228000D03*
X146709000Y-83228000D03*
X141629000Y-98468000D03*
X144169000Y-98468000D03*
X146709000Y-98468000D03*
X115816000Y-85890000D03*
X118356000Y-85890000D03*
X103594000Y-83218000D03*
X106134000Y-83218000D03*
X108674000Y-83218000D03*
X115816000Y-83350000D03*
X118356000Y-83350000D03*
X103594000Y-98458000D03*
X106134000Y-98458000D03*
X108674000Y-98458000D03*
D16*
X95755000Y-94658000D03*
D17*
X93469000Y-88308000D03*
D16*
X91183000Y-94658000D03*
D18*
X90929000Y-98468000D03*
X93469000Y-98468000D03*
X96009000Y-98468000D03*
X90929000Y-83228000D03*
X93469000Y-83228000D03*
X96009000Y-83228000D03*
X78191000Y-85840000D03*
X80731000Y-85840000D03*
X78191000Y-83300000D03*
X80731000Y-83300000D03*
X65016000Y-83350000D03*
X67556000Y-83350000D03*
X65016000Y-85890000D03*
X67556000Y-85890000D03*
X52994000Y-83218000D03*
X55534000Y-83218000D03*
X58074000Y-83218000D03*
X52994000Y-98458000D03*
X55534000Y-98458000D03*
X58074000Y-98458000D03*
D15*
X54310000Y-65250000D03*
X54310000Y-64300000D03*
X54310000Y-63350000D03*
X56510000Y-63350000D03*
X56510000Y-65250000D03*
X56510000Y-64300000D03*
D12*
X51600000Y-61760000D03*
X51600000Y-64300000D03*
X51600000Y-66840000D03*
X59220000Y-61760000D03*
X59220000Y-64300000D03*
X59220000Y-66840000D03*
D14*
X54460000Y-61252000D03*
X56360000Y-61252000D03*
X54460000Y-67475000D03*
X56360000Y-67475000D03*
X66860000Y-67475000D03*
X68760000Y-67475000D03*
X66860000Y-61252000D03*
X68760000Y-61252000D03*
D12*
X71620000Y-61760000D03*
X71620000Y-64300000D03*
X71620000Y-66840000D03*
X64000000Y-61760000D03*
X64000000Y-64300000D03*
X64000000Y-66840000D03*
D15*
X66710000Y-65250000D03*
X66710000Y-64300000D03*
X66710000Y-63350000D03*
X68910000Y-63350000D03*
X68910000Y-65250000D03*
X68910000Y-64300000D03*
X79772000Y-65250000D03*
X79772000Y-64300000D03*
X79772000Y-63350000D03*
X81972000Y-63350000D03*
X81972000Y-65250000D03*
X81972000Y-64300000D03*
D12*
X77062000Y-61760000D03*
X77062000Y-64300000D03*
X77062000Y-66840000D03*
X84682000Y-61760000D03*
X84682000Y-64300000D03*
X84682000Y-66840000D03*
D14*
X79922000Y-61252000D03*
X81822000Y-61252000D03*
X79922000Y-67475000D03*
X81822000Y-67475000D03*
X92622000Y-67475000D03*
X94522000Y-67475000D03*
X92622000Y-61252000D03*
X94522000Y-61252000D03*
D12*
X97382000Y-61760000D03*
X97382000Y-64300000D03*
X97382000Y-66840000D03*
X89762000Y-61760000D03*
X89762000Y-64300000D03*
X89762000Y-66840000D03*
D15*
X92472000Y-65250000D03*
X92472000Y-64300000D03*
X92472000Y-63350000D03*
X94672000Y-63350000D03*
X94672000Y-65250000D03*
X94672000Y-64300000D03*
X92472000Y-55090000D03*
X92472000Y-54140000D03*
X92472000Y-53190000D03*
X94672000Y-53190000D03*
X94672000Y-55090000D03*
X94672000Y-54140000D03*
D12*
X89762000Y-51600000D03*
X89762000Y-54140000D03*
X89762000Y-56680000D03*
X97382000Y-51600000D03*
X97382000Y-54140000D03*
X97382000Y-56680000D03*
D14*
X92622000Y-51092000D03*
X94522000Y-51092000D03*
X92622000Y-57315000D03*
X94522000Y-57315000D03*
X79922000Y-57315000D03*
X81822000Y-57315000D03*
X79922000Y-51092000D03*
X81822000Y-51092000D03*
D12*
X84682000Y-51600000D03*
X84682000Y-54140000D03*
X84682000Y-56680000D03*
X77062000Y-51600000D03*
X77062000Y-54140000D03*
X77062000Y-56680000D03*
D15*
X79772000Y-55090000D03*
X79772000Y-54140000D03*
X79772000Y-53190000D03*
X81972000Y-53190000D03*
X81972000Y-55090000D03*
X81972000Y-54140000D03*
X66710000Y-55090000D03*
X66710000Y-54140000D03*
X66710000Y-53190000D03*
X68910000Y-53190000D03*
X68910000Y-55090000D03*
X68910000Y-54140000D03*
D12*
X64000000Y-51600000D03*
X64000000Y-54140000D03*
X64000000Y-56680000D03*
X71620000Y-51600000D03*
X71620000Y-54140000D03*
X71620000Y-56680000D03*
D14*
X66860000Y-51092000D03*
X68760000Y-51092000D03*
X66860000Y-57315000D03*
X68760000Y-57315000D03*
X54460000Y-57315000D03*
X56360000Y-57315000D03*
X54460000Y-51092000D03*
X56360000Y-51092000D03*
D12*
X59220000Y-51600000D03*
X59220000Y-54140000D03*
X59220000Y-56680000D03*
X51600000Y-51600000D03*
X51600000Y-54140000D03*
X51600000Y-56680000D03*
D15*
X54310000Y-55090000D03*
X54310000Y-54140000D03*
X54310000Y-53190000D03*
X56510000Y-53190000D03*
X56510000Y-55090000D03*
X56510000Y-54140000D03*
D16*
X57820000Y-94648000D03*
D17*
X55534000Y-88298000D03*
D16*
X53248000Y-94648000D03*
D19*
G36*
X118864000Y-112522000D02*
X118356000Y-112522000D01*
X118356000Y-112014000D01*
X118864000Y-112014000D01*
X118864000Y-112522000D01*
X118864000Y-112522000D01*
G37*
X118864000Y-112522000D02*
X118356000Y-112522000D01*
X118356000Y-112014000D01*
X118864000Y-112014000D01*
X118864000Y-112522000D01*
G36*
X116705000Y-110998000D02*
X116197000Y-110998000D01*
X116197000Y-110490000D01*
X116705000Y-110490000D01*
X116705000Y-110998000D01*
X116705000Y-110998000D01*
G37*
X116705000Y-110998000D02*
X116197000Y-110998000D01*
X116197000Y-110490000D01*
X116705000Y-110490000D01*
X116705000Y-110998000D01*
G36*
X116705000Y-118237000D02*
X116197000Y-118237000D01*
X116197000Y-117729000D01*
X116705000Y-117729000D01*
X116705000Y-118237000D01*
X116705000Y-118237000D01*
G37*
X116705000Y-118237000D02*
X116197000Y-118237000D01*
X116197000Y-117729000D01*
X116705000Y-117729000D01*
X116705000Y-118237000D01*
G36*
X118864000Y-106951000D02*
X118356000Y-106951000D01*
X118356000Y-106443000D01*
X118864000Y-106443000D01*
X118864000Y-106951000D01*
X118864000Y-106951000D01*
G37*
X118864000Y-106951000D02*
X118356000Y-106951000D01*
X118356000Y-106443000D01*
X118864000Y-106443000D01*
X118864000Y-106951000D01*
G36*
X116705000Y-108602000D02*
X116197000Y-108602000D01*
X116197000Y-108094000D01*
X116705000Y-108094000D01*
X116705000Y-108602000D01*
X116705000Y-108602000D01*
G37*
X116705000Y-108602000D02*
X116197000Y-108602000D01*
X116197000Y-108094000D01*
X116705000Y-108094000D01*
X116705000Y-108602000D01*
G36*
X116705000Y-101363000D02*
X116197000Y-101363000D01*
X116197000Y-100855000D01*
X116705000Y-100855000D01*
X116705000Y-101363000D01*
X116705000Y-101363000D01*
G37*
X116705000Y-101363000D02*
X116197000Y-101363000D01*
X116197000Y-100855000D01*
X116705000Y-100855000D01*
X116705000Y-101363000D01*
G36*
X118864000Y-102887000D02*
X118356000Y-102887000D01*
X118356000Y-102379000D01*
X118864000Y-102379000D01*
X118864000Y-102887000D01*
X118864000Y-102887000D01*
G37*
X118864000Y-102887000D02*
X118356000Y-102887000D01*
X118356000Y-102379000D01*
X118864000Y-102379000D01*
X118864000Y-102887000D01*
G36*
X106264000Y-112522000D02*
X105756000Y-112522000D01*
X105756000Y-112014000D01*
X106264000Y-112014000D01*
X106264000Y-112522000D01*
X106264000Y-112522000D01*
G37*
X106264000Y-112522000D02*
X105756000Y-112522000D01*
X105756000Y-112014000D01*
X106264000Y-112014000D01*
X106264000Y-112522000D01*
G36*
X118864000Y-116586000D02*
X118356000Y-116586000D01*
X118356000Y-116078000D01*
X118864000Y-116078000D01*
X118864000Y-116586000D01*
X118864000Y-116586000D01*
G37*
X118864000Y-116586000D02*
X118356000Y-116586000D01*
X118356000Y-116078000D01*
X118864000Y-116078000D01*
X118864000Y-116586000D01*
G36*
X131826000Y-106951000D02*
X131318000Y-106951000D01*
X131318000Y-106443000D01*
X131826000Y-106443000D01*
X131826000Y-106951000D01*
X131826000Y-106951000D01*
G37*
X131826000Y-106951000D02*
X131318000Y-106951000D01*
X131318000Y-106443000D01*
X131826000Y-106443000D01*
X131826000Y-106951000D01*
G36*
X129667000Y-101363000D02*
X129159000Y-101363000D01*
X129159000Y-100855000D01*
X129667000Y-100855000D01*
X129667000Y-101363000D01*
X129667000Y-101363000D01*
G37*
X129667000Y-101363000D02*
X129159000Y-101363000D01*
X129159000Y-100855000D01*
X129667000Y-100855000D01*
X129667000Y-101363000D01*
G36*
X121023000Y-101363000D02*
X120515000Y-101363000D01*
X120515000Y-100855000D01*
X121023000Y-100855000D01*
X121023000Y-101363000D01*
X121023000Y-101363000D01*
G37*
X121023000Y-101363000D02*
X120515000Y-101363000D01*
X120515000Y-100855000D01*
X121023000Y-100855000D01*
X121023000Y-101363000D01*
G36*
X133985000Y-110998000D02*
X133477000Y-110998000D01*
X133477000Y-110490000D01*
X133985000Y-110490000D01*
X133985000Y-110998000D01*
X133985000Y-110998000D01*
G37*
X133985000Y-110998000D02*
X133477000Y-110998000D01*
X133477000Y-110490000D01*
X133985000Y-110490000D01*
X133985000Y-110998000D01*
G36*
X129667000Y-110998000D02*
X129159000Y-110998000D01*
X129159000Y-110490000D01*
X129667000Y-110490000D01*
X129667000Y-110998000D01*
X129667000Y-110998000D01*
G37*
X129667000Y-110998000D02*
X129159000Y-110998000D01*
X129159000Y-110490000D01*
X129667000Y-110490000D01*
X129667000Y-110998000D01*
G36*
X133985000Y-108602000D02*
X133477000Y-108602000D01*
X133477000Y-108094000D01*
X133985000Y-108094000D01*
X133985000Y-108602000D01*
X133985000Y-108602000D01*
G37*
X133985000Y-108602000D02*
X133477000Y-108602000D01*
X133477000Y-108094000D01*
X133985000Y-108094000D01*
X133985000Y-108602000D01*
G36*
X129667000Y-108602000D02*
X129159000Y-108602000D01*
X129159000Y-108094000D01*
X129667000Y-108094000D01*
X129667000Y-108602000D01*
X129667000Y-108602000D01*
G37*
X129667000Y-108602000D02*
X129159000Y-108602000D01*
X129159000Y-108094000D01*
X129667000Y-108094000D01*
X129667000Y-108602000D01*
G36*
X133985000Y-101363000D02*
X133477000Y-101363000D01*
X133477000Y-100855000D01*
X133985000Y-100855000D01*
X133985000Y-101363000D01*
X133985000Y-101363000D01*
G37*
X133985000Y-101363000D02*
X133477000Y-101363000D01*
X133477000Y-100855000D01*
X133985000Y-100855000D01*
X133985000Y-101363000D01*
G36*
X131826000Y-102887000D02*
X131318000Y-102887000D01*
X131318000Y-102379000D01*
X131826000Y-102379000D01*
X131826000Y-102887000D01*
X131826000Y-102887000D01*
G37*
X131826000Y-102887000D02*
X131318000Y-102887000D01*
X131318000Y-102379000D01*
X131826000Y-102379000D01*
X131826000Y-102887000D01*
G36*
X121023000Y-110998000D02*
X120515000Y-110998000D01*
X120515000Y-110490000D01*
X121023000Y-110490000D01*
X121023000Y-110998000D01*
X121023000Y-110998000D01*
G37*
X121023000Y-110998000D02*
X120515000Y-110998000D01*
X120515000Y-110490000D01*
X121023000Y-110490000D01*
X121023000Y-110998000D01*
G36*
X121023000Y-108602000D02*
X120515000Y-108602000D01*
X120515000Y-108094000D01*
X121023000Y-108094000D01*
X121023000Y-108602000D01*
X121023000Y-108602000D01*
G37*
X121023000Y-108602000D02*
X120515000Y-108602000D01*
X120515000Y-108094000D01*
X121023000Y-108094000D01*
X121023000Y-108602000D01*
G36*
X142367000Y-108602000D02*
X141859000Y-108602000D01*
X141859000Y-108094000D01*
X142367000Y-108094000D01*
X142367000Y-108602000D01*
X142367000Y-108602000D01*
G37*
X142367000Y-108602000D02*
X141859000Y-108602000D01*
X141859000Y-108094000D01*
X142367000Y-108094000D01*
X142367000Y-108602000D01*
G36*
X144526000Y-112522000D02*
X144018000Y-112522000D01*
X144018000Y-112014000D01*
X144526000Y-112014000D01*
X144526000Y-112522000D01*
X144526000Y-112522000D01*
G37*
X144526000Y-112522000D02*
X144018000Y-112522000D01*
X144018000Y-112014000D01*
X144526000Y-112014000D01*
X144526000Y-112522000D01*
G36*
X146685000Y-110998000D02*
X146177000Y-110998000D01*
X146177000Y-110490000D01*
X146685000Y-110490000D01*
X146685000Y-110998000D01*
X146685000Y-110998000D01*
G37*
X146685000Y-110998000D02*
X146177000Y-110998000D01*
X146177000Y-110490000D01*
X146685000Y-110490000D01*
X146685000Y-110998000D01*
G36*
X142367000Y-118237000D02*
X141859000Y-118237000D01*
X141859000Y-117729000D01*
X142367000Y-117729000D01*
X142367000Y-118237000D01*
X142367000Y-118237000D01*
G37*
X142367000Y-118237000D02*
X141859000Y-118237000D01*
X141859000Y-117729000D01*
X142367000Y-117729000D01*
X142367000Y-118237000D01*
G36*
X146685000Y-118237000D02*
X146177000Y-118237000D01*
X146177000Y-117729000D01*
X146685000Y-117729000D01*
X146685000Y-118237000D01*
X146685000Y-118237000D01*
G37*
X146685000Y-118237000D02*
X146177000Y-118237000D01*
X146177000Y-117729000D01*
X146685000Y-117729000D01*
X146685000Y-118237000D01*
G36*
X144526000Y-116586000D02*
X144018000Y-116586000D01*
X144018000Y-116078000D01*
X144526000Y-116078000D01*
X144526000Y-116586000D01*
X144526000Y-116586000D01*
G37*
X144526000Y-116586000D02*
X144018000Y-116586000D01*
X144018000Y-116078000D01*
X144526000Y-116078000D01*
X144526000Y-116586000D01*
G36*
X146685000Y-108602000D02*
X146177000Y-108602000D01*
X146177000Y-108094000D01*
X146685000Y-108094000D01*
X146685000Y-108602000D01*
X146685000Y-108602000D01*
G37*
X146685000Y-108602000D02*
X146177000Y-108602000D01*
X146177000Y-108094000D01*
X146685000Y-108094000D01*
X146685000Y-108602000D01*
G36*
X144526000Y-106951000D02*
X144018000Y-106951000D01*
X144018000Y-106443000D01*
X144526000Y-106443000D01*
X144526000Y-106951000D01*
X144526000Y-106951000D01*
G37*
X144526000Y-106951000D02*
X144018000Y-106951000D01*
X144018000Y-106443000D01*
X144526000Y-106443000D01*
X144526000Y-106951000D01*
G36*
X142367000Y-110998000D02*
X141859000Y-110998000D01*
X141859000Y-110490000D01*
X142367000Y-110490000D01*
X142367000Y-110998000D01*
X142367000Y-110998000D01*
G37*
X142367000Y-110998000D02*
X141859000Y-110998000D01*
X141859000Y-110490000D01*
X142367000Y-110490000D01*
X142367000Y-110998000D01*
G36*
X146685000Y-101363000D02*
X146177000Y-101363000D01*
X146177000Y-100855000D01*
X146685000Y-100855000D01*
X146685000Y-101363000D01*
X146685000Y-101363000D01*
G37*
X146685000Y-101363000D02*
X146177000Y-101363000D01*
X146177000Y-100855000D01*
X146685000Y-100855000D01*
X146685000Y-101363000D01*
G36*
X144526000Y-102887000D02*
X144018000Y-102887000D01*
X144018000Y-102379000D01*
X144526000Y-102379000D01*
X144526000Y-102887000D01*
X144526000Y-102887000D01*
G37*
X144526000Y-102887000D02*
X144018000Y-102887000D01*
X144018000Y-102379000D01*
X144526000Y-102379000D01*
X144526000Y-102887000D01*
G36*
X142367000Y-101363000D02*
X141859000Y-101363000D01*
X141859000Y-100855000D01*
X142367000Y-100855000D01*
X142367000Y-101363000D01*
X142367000Y-101363000D01*
G37*
X142367000Y-101363000D02*
X141859000Y-101363000D01*
X141859000Y-100855000D01*
X142367000Y-100855000D01*
X142367000Y-101363000D01*
G36*
X133985000Y-118237000D02*
X133477000Y-118237000D01*
X133477000Y-117729000D01*
X133985000Y-117729000D01*
X133985000Y-118237000D01*
X133985000Y-118237000D01*
G37*
X133985000Y-118237000D02*
X133477000Y-118237000D01*
X133477000Y-117729000D01*
X133985000Y-117729000D01*
X133985000Y-118237000D01*
G36*
X129667000Y-118237000D02*
X129159000Y-118237000D01*
X129159000Y-117729000D01*
X129667000Y-117729000D01*
X129667000Y-118237000D01*
X129667000Y-118237000D01*
G37*
X129667000Y-118237000D02*
X129159000Y-118237000D01*
X129159000Y-117729000D01*
X129667000Y-117729000D01*
X129667000Y-118237000D01*
G36*
X131826000Y-112522000D02*
X131318000Y-112522000D01*
X131318000Y-112014000D01*
X131826000Y-112014000D01*
X131826000Y-112522000D01*
X131826000Y-112522000D01*
G37*
X131826000Y-112522000D02*
X131318000Y-112522000D01*
X131318000Y-112014000D01*
X131826000Y-112014000D01*
X131826000Y-112522000D01*
G36*
X131826000Y-116586000D02*
X131318000Y-116586000D01*
X131318000Y-116078000D01*
X131826000Y-116078000D01*
X131826000Y-116586000D01*
X131826000Y-116586000D01*
G37*
X131826000Y-116586000D02*
X131318000Y-116586000D01*
X131318000Y-116078000D01*
X131826000Y-116078000D01*
X131826000Y-116586000D01*
G36*
X121023000Y-118237000D02*
X120515000Y-118237000D01*
X120515000Y-117729000D01*
X121023000Y-117729000D01*
X121023000Y-118237000D01*
X121023000Y-118237000D01*
G37*
X121023000Y-118237000D02*
X120515000Y-118237000D01*
X120515000Y-117729000D01*
X121023000Y-117729000D01*
X121023000Y-118237000D01*
G36*
X106264000Y-116586000D02*
X105756000Y-116586000D01*
X105756000Y-116078000D01*
X106264000Y-116078000D01*
X106264000Y-116586000D01*
X106264000Y-116586000D01*
G37*
X106264000Y-116586000D02*
X105756000Y-116586000D01*
X105756000Y-116078000D01*
X106264000Y-116078000D01*
X106264000Y-116586000D01*
G36*
X108423000Y-118237000D02*
X107915000Y-118237000D01*
X107915000Y-117729000D01*
X108423000Y-117729000D01*
X108423000Y-118237000D01*
X108423000Y-118237000D01*
G37*
X108423000Y-118237000D02*
X107915000Y-118237000D01*
X107915000Y-117729000D01*
X108423000Y-117729000D01*
X108423000Y-118237000D01*
G36*
X108423000Y-110998000D02*
X107915000Y-110998000D01*
X107915000Y-110490000D01*
X108423000Y-110490000D01*
X108423000Y-110998000D01*
X108423000Y-110998000D01*
G37*
X108423000Y-110998000D02*
X107915000Y-110998000D01*
X107915000Y-110490000D01*
X108423000Y-110490000D01*
X108423000Y-110998000D01*
G36*
X104105000Y-118237000D02*
X103597000Y-118237000D01*
X103597000Y-117729000D01*
X104105000Y-117729000D01*
X104105000Y-118237000D01*
X104105000Y-118237000D01*
G37*
X104105000Y-118237000D02*
X103597000Y-118237000D01*
X103597000Y-117729000D01*
X104105000Y-117729000D01*
X104105000Y-118237000D01*
G36*
X104105000Y-110998000D02*
X103597000Y-110998000D01*
X103597000Y-110490000D01*
X104105000Y-110490000D01*
X104105000Y-110998000D01*
X104105000Y-110998000D01*
G37*
X104105000Y-110998000D02*
X103597000Y-110998000D01*
X103597000Y-110490000D01*
X104105000Y-110490000D01*
X104105000Y-110998000D01*
G36*
X108423000Y-101363000D02*
X107915000Y-101363000D01*
X107915000Y-100855000D01*
X108423000Y-100855000D01*
X108423000Y-101363000D01*
X108423000Y-101363000D01*
G37*
X108423000Y-101363000D02*
X107915000Y-101363000D01*
X107915000Y-100855000D01*
X108423000Y-100855000D01*
X108423000Y-101363000D01*
G36*
X106264000Y-102887000D02*
X105756000Y-102887000D01*
X105756000Y-102379000D01*
X106264000Y-102379000D01*
X106264000Y-102887000D01*
X106264000Y-102887000D01*
G37*
X106264000Y-102887000D02*
X105756000Y-102887000D01*
X105756000Y-102379000D01*
X106264000Y-102379000D01*
X106264000Y-102887000D01*
G36*
X104105000Y-101363000D02*
X103597000Y-101363000D01*
X103597000Y-100855000D01*
X104105000Y-100855000D01*
X104105000Y-101363000D01*
X104105000Y-101363000D01*
G37*
X104105000Y-101363000D02*
X103597000Y-101363000D01*
X103597000Y-100855000D01*
X104105000Y-100855000D01*
X104105000Y-101363000D01*
G36*
X104105000Y-108602000D02*
X103597000Y-108602000D01*
X103597000Y-108094000D01*
X104105000Y-108094000D01*
X104105000Y-108602000D01*
X104105000Y-108602000D01*
G37*
X104105000Y-108602000D02*
X103597000Y-108602000D01*
X103597000Y-108094000D01*
X104105000Y-108094000D01*
X104105000Y-108602000D01*
G36*
X108423000Y-108602000D02*
X107915000Y-108602000D01*
X107915000Y-108094000D01*
X108423000Y-108094000D01*
X108423000Y-108602000D01*
X108423000Y-108602000D01*
G37*
X108423000Y-108602000D02*
X107915000Y-108602000D01*
X107915000Y-108094000D01*
X108423000Y-108094000D01*
X108423000Y-108602000D01*
G36*
X106264000Y-106951000D02*
X105756000Y-106951000D01*
X105756000Y-106443000D01*
X106264000Y-106443000D01*
X106264000Y-106951000D01*
X106264000Y-106951000D01*
G37*
X106264000Y-106951000D02*
X105756000Y-106951000D01*
X105756000Y-106443000D01*
X106264000Y-106443000D01*
X106264000Y-106951000D01*
G36*
X95985000Y-101363000D02*
X95477000Y-101363000D01*
X95477000Y-100855000D01*
X95985000Y-100855000D01*
X95985000Y-101363000D01*
X95985000Y-101363000D01*
G37*
X95985000Y-101363000D02*
X95477000Y-101363000D01*
X95477000Y-100855000D01*
X95985000Y-100855000D01*
X95985000Y-101363000D01*
G36*
X95985000Y-108602000D02*
X95477000Y-108602000D01*
X95477000Y-108094000D01*
X95985000Y-108094000D01*
X95985000Y-108602000D01*
X95985000Y-108602000D01*
G37*
X95985000Y-108602000D02*
X95477000Y-108602000D01*
X95477000Y-108094000D01*
X95985000Y-108094000D01*
X95985000Y-108602000D01*
G36*
X78967000Y-110998000D02*
X78459000Y-110998000D01*
X78459000Y-110490000D01*
X78967000Y-110490000D01*
X78967000Y-110998000D01*
X78967000Y-110998000D01*
G37*
X78967000Y-110998000D02*
X78459000Y-110998000D01*
X78459000Y-110490000D01*
X78967000Y-110490000D01*
X78967000Y-110998000D01*
G36*
X81126000Y-112522000D02*
X80618000Y-112522000D01*
X80618000Y-112014000D01*
X81126000Y-112014000D01*
X81126000Y-112522000D01*
X81126000Y-112522000D01*
G37*
X81126000Y-112522000D02*
X80618000Y-112522000D01*
X80618000Y-112014000D01*
X81126000Y-112014000D01*
X81126000Y-112522000D01*
G36*
X83285000Y-110998000D02*
X82777000Y-110998000D01*
X82777000Y-110490000D01*
X83285000Y-110490000D01*
X83285000Y-110998000D01*
X83285000Y-110998000D01*
G37*
X83285000Y-110998000D02*
X82777000Y-110998000D01*
X82777000Y-110490000D01*
X83285000Y-110490000D01*
X83285000Y-110998000D01*
G36*
X81126000Y-106951000D02*
X80618000Y-106951000D01*
X80618000Y-106443000D01*
X81126000Y-106443000D01*
X81126000Y-106951000D01*
X81126000Y-106951000D01*
G37*
X81126000Y-106951000D02*
X80618000Y-106951000D01*
X80618000Y-106443000D01*
X81126000Y-106443000D01*
X81126000Y-106951000D01*
G36*
X78967000Y-108602000D02*
X78459000Y-108602000D01*
X78459000Y-108094000D01*
X78967000Y-108094000D01*
X78967000Y-108602000D01*
X78967000Y-108602000D01*
G37*
X78967000Y-108602000D02*
X78459000Y-108602000D01*
X78459000Y-108094000D01*
X78967000Y-108094000D01*
X78967000Y-108602000D01*
G36*
X83285000Y-108602000D02*
X82777000Y-108602000D01*
X82777000Y-108094000D01*
X83285000Y-108094000D01*
X83285000Y-108602000D01*
X83285000Y-108602000D01*
G37*
X83285000Y-108602000D02*
X82777000Y-108602000D01*
X82777000Y-108094000D01*
X83285000Y-108094000D01*
X83285000Y-108602000D01*
G36*
X78967000Y-118237000D02*
X78459000Y-118237000D01*
X78459000Y-117729000D01*
X78967000Y-117729000D01*
X78967000Y-118237000D01*
X78967000Y-118237000D01*
G37*
X78967000Y-118237000D02*
X78459000Y-118237000D01*
X78459000Y-117729000D01*
X78967000Y-117729000D01*
X78967000Y-118237000D01*
G36*
X81126000Y-116586000D02*
X80618000Y-116586000D01*
X80618000Y-116078000D01*
X81126000Y-116078000D01*
X81126000Y-116586000D01*
X81126000Y-116586000D01*
G37*
X81126000Y-116586000D02*
X80618000Y-116586000D01*
X80618000Y-116078000D01*
X81126000Y-116078000D01*
X81126000Y-116586000D01*
G36*
X83285000Y-118237000D02*
X82777000Y-118237000D01*
X82777000Y-117729000D01*
X83285000Y-117729000D01*
X83285000Y-118237000D01*
X83285000Y-118237000D01*
G37*
X83285000Y-118237000D02*
X82777000Y-118237000D01*
X82777000Y-117729000D01*
X83285000Y-117729000D01*
X83285000Y-118237000D01*
G36*
X93826000Y-112522000D02*
X93318000Y-112522000D01*
X93318000Y-112014000D01*
X93826000Y-112014000D01*
X93826000Y-112522000D01*
X93826000Y-112522000D01*
G37*
X93826000Y-112522000D02*
X93318000Y-112522000D01*
X93318000Y-112014000D01*
X93826000Y-112014000D01*
X93826000Y-112522000D01*
G36*
X95985000Y-118237000D02*
X95477000Y-118237000D01*
X95477000Y-117729000D01*
X95985000Y-117729000D01*
X95985000Y-118237000D01*
X95985000Y-118237000D01*
G37*
X95985000Y-118237000D02*
X95477000Y-118237000D01*
X95477000Y-117729000D01*
X95985000Y-117729000D01*
X95985000Y-118237000D01*
G36*
X93826000Y-116586000D02*
X93318000Y-116586000D01*
X93318000Y-116078000D01*
X93826000Y-116078000D01*
X93826000Y-116586000D01*
X93826000Y-116586000D01*
G37*
X93826000Y-116586000D02*
X93318000Y-116586000D01*
X93318000Y-116078000D01*
X93826000Y-116078000D01*
X93826000Y-116586000D01*
G36*
X91667000Y-118237000D02*
X91159000Y-118237000D01*
X91159000Y-117729000D01*
X91667000Y-117729000D01*
X91667000Y-118237000D01*
X91667000Y-118237000D01*
G37*
X91667000Y-118237000D02*
X91159000Y-118237000D01*
X91159000Y-117729000D01*
X91667000Y-117729000D01*
X91667000Y-118237000D01*
G36*
X81126000Y-102887000D02*
X80618000Y-102887000D01*
X80618000Y-102379000D01*
X81126000Y-102379000D01*
X81126000Y-102887000D01*
X81126000Y-102887000D01*
G37*
X81126000Y-102887000D02*
X80618000Y-102887000D01*
X80618000Y-102379000D01*
X81126000Y-102379000D01*
X81126000Y-102887000D01*
G36*
X78967000Y-101363000D02*
X78459000Y-101363000D01*
X78459000Y-100855000D01*
X78967000Y-100855000D01*
X78967000Y-101363000D01*
X78967000Y-101363000D01*
G37*
X78967000Y-101363000D02*
X78459000Y-101363000D01*
X78459000Y-100855000D01*
X78967000Y-100855000D01*
X78967000Y-101363000D01*
G36*
X83285000Y-101363000D02*
X82777000Y-101363000D01*
X82777000Y-100855000D01*
X83285000Y-100855000D01*
X83285000Y-101363000D01*
X83285000Y-101363000D01*
G37*
X83285000Y-101363000D02*
X82777000Y-101363000D01*
X82777000Y-100855000D01*
X83285000Y-100855000D01*
X83285000Y-101363000D01*
G36*
X91667000Y-110998000D02*
X91159000Y-110998000D01*
X91159000Y-110490000D01*
X91667000Y-110490000D01*
X91667000Y-110998000D01*
X91667000Y-110998000D01*
G37*
X91667000Y-110998000D02*
X91159000Y-110998000D01*
X91159000Y-110490000D01*
X91667000Y-110490000D01*
X91667000Y-110998000D01*
G36*
X95985000Y-110998000D02*
X95477000Y-110998000D01*
X95477000Y-110490000D01*
X95985000Y-110490000D01*
X95985000Y-110998000D01*
X95985000Y-110998000D01*
G37*
X95985000Y-110998000D02*
X95477000Y-110998000D01*
X95477000Y-110490000D01*
X95985000Y-110490000D01*
X95985000Y-110998000D01*
G36*
X91667000Y-101363000D02*
X91159000Y-101363000D01*
X91159000Y-100855000D01*
X91667000Y-100855000D01*
X91667000Y-101363000D01*
X91667000Y-101363000D01*
G37*
X91667000Y-101363000D02*
X91159000Y-101363000D01*
X91159000Y-100855000D01*
X91667000Y-100855000D01*
X91667000Y-101363000D01*
G36*
X93826000Y-102887000D02*
X93318000Y-102887000D01*
X93318000Y-102379000D01*
X93826000Y-102379000D01*
X93826000Y-102887000D01*
X93826000Y-102887000D01*
G37*
X93826000Y-102887000D02*
X93318000Y-102887000D01*
X93318000Y-102379000D01*
X93826000Y-102379000D01*
X93826000Y-102887000D01*
G36*
X93826000Y-106951000D02*
X93318000Y-106951000D01*
X93318000Y-106443000D01*
X93826000Y-106443000D01*
X93826000Y-106951000D01*
X93826000Y-106951000D01*
G37*
X93826000Y-106951000D02*
X93318000Y-106951000D01*
X93318000Y-106443000D01*
X93826000Y-106443000D01*
X93826000Y-106951000D01*
G36*
X91667000Y-108602000D02*
X91159000Y-108602000D01*
X91159000Y-108094000D01*
X91667000Y-108094000D01*
X91667000Y-108602000D01*
X91667000Y-108602000D01*
G37*
X91667000Y-108602000D02*
X91159000Y-108602000D01*
X91159000Y-108094000D01*
X91667000Y-108094000D01*
X91667000Y-108602000D01*
G36*
X68064000Y-112522000D02*
X67556000Y-112522000D01*
X67556000Y-112014000D01*
X68064000Y-112014000D01*
X68064000Y-112522000D01*
X68064000Y-112522000D01*
G37*
X68064000Y-112522000D02*
X67556000Y-112522000D01*
X67556000Y-112014000D01*
X68064000Y-112014000D01*
X68064000Y-112522000D01*
G36*
X70223000Y-110998000D02*
X69715000Y-110998000D01*
X69715000Y-110490000D01*
X70223000Y-110490000D01*
X70223000Y-110998000D01*
X70223000Y-110998000D01*
G37*
X70223000Y-110998000D02*
X69715000Y-110998000D01*
X69715000Y-110490000D01*
X70223000Y-110490000D01*
X70223000Y-110998000D01*
G36*
X65905000Y-110998000D02*
X65397000Y-110998000D01*
X65397000Y-110490000D01*
X65905000Y-110490000D01*
X65905000Y-110998000D01*
X65905000Y-110998000D01*
G37*
X65905000Y-110998000D02*
X65397000Y-110998000D01*
X65397000Y-110490000D01*
X65905000Y-110490000D01*
X65905000Y-110998000D01*
G36*
X68064000Y-116586000D02*
X67556000Y-116586000D01*
X67556000Y-116078000D01*
X68064000Y-116078000D01*
X68064000Y-116586000D01*
X68064000Y-116586000D01*
G37*
X68064000Y-116586000D02*
X67556000Y-116586000D01*
X67556000Y-116078000D01*
X68064000Y-116078000D01*
X68064000Y-116586000D01*
G36*
X65905000Y-118237000D02*
X65397000Y-118237000D01*
X65397000Y-117729000D01*
X65905000Y-117729000D01*
X65905000Y-118237000D01*
X65905000Y-118237000D01*
G37*
X65905000Y-118237000D02*
X65397000Y-118237000D01*
X65397000Y-117729000D01*
X65905000Y-117729000D01*
X65905000Y-118237000D01*
G36*
X70223000Y-118237000D02*
X69715000Y-118237000D01*
X69715000Y-117729000D01*
X70223000Y-117729000D01*
X70223000Y-118237000D01*
X70223000Y-118237000D01*
G37*
X70223000Y-118237000D02*
X69715000Y-118237000D01*
X69715000Y-117729000D01*
X70223000Y-117729000D01*
X70223000Y-118237000D01*
G36*
X68064000Y-106951000D02*
X67556000Y-106951000D01*
X67556000Y-106443000D01*
X68064000Y-106443000D01*
X68064000Y-106951000D01*
X68064000Y-106951000D01*
G37*
X68064000Y-106951000D02*
X67556000Y-106951000D01*
X67556000Y-106443000D01*
X68064000Y-106443000D01*
X68064000Y-106951000D01*
G36*
X65905000Y-108602000D02*
X65397000Y-108602000D01*
X65397000Y-108094000D01*
X65905000Y-108094000D01*
X65905000Y-108602000D01*
X65905000Y-108602000D01*
G37*
X65905000Y-108602000D02*
X65397000Y-108602000D01*
X65397000Y-108094000D01*
X65905000Y-108094000D01*
X65905000Y-108602000D01*
G36*
X65905000Y-101363000D02*
X65397000Y-101363000D01*
X65397000Y-100855000D01*
X65905000Y-100855000D01*
X65905000Y-101363000D01*
X65905000Y-101363000D01*
G37*
X65905000Y-101363000D02*
X65397000Y-101363000D01*
X65397000Y-100855000D01*
X65905000Y-100855000D01*
X65905000Y-101363000D01*
G36*
X70223000Y-101363000D02*
X69715000Y-101363000D01*
X69715000Y-100855000D01*
X70223000Y-100855000D01*
X70223000Y-101363000D01*
X70223000Y-101363000D01*
G37*
X70223000Y-101363000D02*
X69715000Y-101363000D01*
X69715000Y-100855000D01*
X70223000Y-100855000D01*
X70223000Y-101363000D01*
G36*
X68064000Y-102887000D02*
X67556000Y-102887000D01*
X67556000Y-102379000D01*
X68064000Y-102379000D01*
X68064000Y-102887000D01*
X68064000Y-102887000D01*
G37*
X68064000Y-102887000D02*
X67556000Y-102887000D01*
X67556000Y-102379000D01*
X68064000Y-102379000D01*
X68064000Y-102887000D01*
G36*
X70223000Y-108602000D02*
X69715000Y-108602000D01*
X69715000Y-108094000D01*
X70223000Y-108094000D01*
X70223000Y-108602000D01*
X70223000Y-108602000D01*
G37*
X70223000Y-108602000D02*
X69715000Y-108602000D01*
X69715000Y-108094000D01*
X70223000Y-108094000D01*
X70223000Y-108602000D01*
G36*
X57823000Y-108602000D02*
X57315000Y-108602000D01*
X57315000Y-108094000D01*
X57823000Y-108094000D01*
X57823000Y-108602000D01*
X57823000Y-108602000D01*
G37*
X57823000Y-108602000D02*
X57315000Y-108602000D01*
X57315000Y-108094000D01*
X57823000Y-108094000D01*
X57823000Y-108602000D01*
G36*
X55664000Y-106951000D02*
X55156000Y-106951000D01*
X55156000Y-106443000D01*
X55664000Y-106443000D01*
X55664000Y-106951000D01*
X55664000Y-106951000D01*
G37*
X55664000Y-106951000D02*
X55156000Y-106951000D01*
X55156000Y-106443000D01*
X55664000Y-106443000D01*
X55664000Y-106951000D01*
G36*
X53505000Y-101363000D02*
X52997000Y-101363000D01*
X52997000Y-100855000D01*
X53505000Y-100855000D01*
X53505000Y-101363000D01*
X53505000Y-101363000D01*
G37*
X53505000Y-101363000D02*
X52997000Y-101363000D01*
X52997000Y-100855000D01*
X53505000Y-100855000D01*
X53505000Y-101363000D01*
G36*
X55664000Y-102887000D02*
X55156000Y-102887000D01*
X55156000Y-102379000D01*
X55664000Y-102379000D01*
X55664000Y-102887000D01*
X55664000Y-102887000D01*
G37*
X55664000Y-102887000D02*
X55156000Y-102887000D01*
X55156000Y-102379000D01*
X55664000Y-102379000D01*
X55664000Y-102887000D01*
G36*
X57823000Y-101363000D02*
X57315000Y-101363000D01*
X57315000Y-100855000D01*
X57823000Y-100855000D01*
X57823000Y-101363000D01*
X57823000Y-101363000D01*
G37*
X57823000Y-101363000D02*
X57315000Y-101363000D01*
X57315000Y-100855000D01*
X57823000Y-100855000D01*
X57823000Y-101363000D01*
G36*
X53505000Y-108602000D02*
X52997000Y-108602000D01*
X52997000Y-108094000D01*
X53505000Y-108094000D01*
X53505000Y-108602000D01*
X53505000Y-108602000D01*
G37*
X53505000Y-108602000D02*
X52997000Y-108602000D01*
X52997000Y-108094000D01*
X53505000Y-108094000D01*
X53505000Y-108602000D01*
G36*
X53505000Y-118237000D02*
X52997000Y-118237000D01*
X52997000Y-117729000D01*
X53505000Y-117729000D01*
X53505000Y-118237000D01*
X53505000Y-118237000D01*
G37*
X53505000Y-118237000D02*
X52997000Y-118237000D01*
X52997000Y-117729000D01*
X53505000Y-117729000D01*
X53505000Y-118237000D01*
G36*
X53505000Y-110998000D02*
X52997000Y-110998000D01*
X52997000Y-110490000D01*
X53505000Y-110490000D01*
X53505000Y-110998000D01*
X53505000Y-110998000D01*
G37*
X53505000Y-110998000D02*
X52997000Y-110998000D01*
X52997000Y-110490000D01*
X53505000Y-110490000D01*
X53505000Y-110998000D01*
G36*
X55664000Y-116586000D02*
X55156000Y-116586000D01*
X55156000Y-116078000D01*
X55664000Y-116078000D01*
X55664000Y-116586000D01*
X55664000Y-116586000D01*
G37*
X55664000Y-116586000D02*
X55156000Y-116586000D01*
X55156000Y-116078000D01*
X55664000Y-116078000D01*
X55664000Y-116586000D01*
G36*
X57823000Y-118237000D02*
X57315000Y-118237000D01*
X57315000Y-117729000D01*
X57823000Y-117729000D01*
X57823000Y-118237000D01*
X57823000Y-118237000D01*
G37*
X57823000Y-118237000D02*
X57315000Y-118237000D01*
X57315000Y-117729000D01*
X57823000Y-117729000D01*
X57823000Y-118237000D01*
G36*
X57823000Y-110998000D02*
X57315000Y-110998000D01*
X57315000Y-110490000D01*
X57823000Y-110490000D01*
X57823000Y-110998000D01*
X57823000Y-110998000D01*
G37*
X57823000Y-110998000D02*
X57315000Y-110998000D01*
X57315000Y-110490000D01*
X57823000Y-110490000D01*
X57823000Y-110998000D01*
G36*
X55664000Y-112522000D02*
X55156000Y-112522000D01*
X55156000Y-112014000D01*
X55664000Y-112014000D01*
X55664000Y-112522000D01*
X55664000Y-112522000D01*
G37*
X55664000Y-112522000D02*
X55156000Y-112522000D01*
X55156000Y-112014000D01*
X55664000Y-112014000D01*
X55664000Y-112522000D01*
G36*
X121023000Y-68237000D02*
X120515000Y-68237000D01*
X120515000Y-67729000D01*
X121023000Y-67729000D01*
X121023000Y-68237000D01*
X121023000Y-68237000D01*
G37*
X121023000Y-68237000D02*
X120515000Y-68237000D01*
X120515000Y-67729000D01*
X121023000Y-67729000D01*
X121023000Y-68237000D01*
G36*
X133985000Y-60998000D02*
X133477000Y-60998000D01*
X133477000Y-60490000D01*
X133985000Y-60490000D01*
X133985000Y-60998000D01*
X133985000Y-60998000D01*
G37*
X133985000Y-60998000D02*
X133477000Y-60998000D01*
X133477000Y-60490000D01*
X133985000Y-60490000D01*
X133985000Y-60998000D01*
G36*
X131826000Y-66586000D02*
X131318000Y-66586000D01*
X131318000Y-66078000D01*
X131826000Y-66078000D01*
X131826000Y-66586000D01*
X131826000Y-66586000D01*
G37*
X131826000Y-66586000D02*
X131318000Y-66586000D01*
X131318000Y-66078000D01*
X131826000Y-66078000D01*
X131826000Y-66586000D01*
G36*
X133985000Y-68237000D02*
X133477000Y-68237000D01*
X133477000Y-67729000D01*
X133985000Y-67729000D01*
X133985000Y-68237000D01*
X133985000Y-68237000D01*
G37*
X133985000Y-68237000D02*
X133477000Y-68237000D01*
X133477000Y-67729000D01*
X133985000Y-67729000D01*
X133985000Y-68237000D01*
G36*
X129667000Y-68237000D02*
X129159000Y-68237000D01*
X129159000Y-67729000D01*
X129667000Y-67729000D01*
X129667000Y-68237000D01*
X129667000Y-68237000D01*
G37*
X129667000Y-68237000D02*
X129159000Y-68237000D01*
X129159000Y-67729000D01*
X129667000Y-67729000D01*
X129667000Y-68237000D01*
G36*
X131826000Y-62522000D02*
X131318000Y-62522000D01*
X131318000Y-62014000D01*
X131826000Y-62014000D01*
X131826000Y-62522000D01*
X131826000Y-62522000D01*
G37*
X131826000Y-62522000D02*
X131318000Y-62522000D01*
X131318000Y-62014000D01*
X131826000Y-62014000D01*
X131826000Y-62522000D01*
G36*
X129667000Y-60998000D02*
X129159000Y-60998000D01*
X129159000Y-60490000D01*
X129667000Y-60490000D01*
X129667000Y-60998000D01*
X129667000Y-60998000D01*
G37*
X129667000Y-60998000D02*
X129159000Y-60998000D01*
X129159000Y-60490000D01*
X129667000Y-60490000D01*
X129667000Y-60998000D01*
G36*
X146685000Y-58077000D02*
X146177000Y-58077000D01*
X146177000Y-57569000D01*
X146685000Y-57569000D01*
X146685000Y-58077000D01*
X146685000Y-58077000D01*
G37*
X146685000Y-58077000D02*
X146177000Y-58077000D01*
X146177000Y-57569000D01*
X146685000Y-57569000D01*
X146685000Y-58077000D01*
G36*
X146685000Y-68237000D02*
X146177000Y-68237000D01*
X146177000Y-67729000D01*
X146685000Y-67729000D01*
X146685000Y-68237000D01*
X146685000Y-68237000D01*
G37*
X146685000Y-68237000D02*
X146177000Y-68237000D01*
X146177000Y-67729000D01*
X146685000Y-67729000D01*
X146685000Y-68237000D01*
G36*
X144526000Y-66586000D02*
X144018000Y-66586000D01*
X144018000Y-66078000D01*
X144526000Y-66078000D01*
X144526000Y-66586000D01*
X144526000Y-66586000D01*
G37*
X144526000Y-66586000D02*
X144018000Y-66586000D01*
X144018000Y-66078000D01*
X144526000Y-66078000D01*
X144526000Y-66586000D01*
G36*
X142367000Y-68237000D02*
X141859000Y-68237000D01*
X141859000Y-67729000D01*
X142367000Y-67729000D01*
X142367000Y-68237000D01*
X142367000Y-68237000D01*
G37*
X142367000Y-68237000D02*
X141859000Y-68237000D01*
X141859000Y-67729000D01*
X142367000Y-67729000D01*
X142367000Y-68237000D01*
G36*
X142367000Y-50838000D02*
X141859000Y-50838000D01*
X141859000Y-50330000D01*
X142367000Y-50330000D01*
X142367000Y-50838000D01*
X142367000Y-50838000D01*
G37*
X142367000Y-50838000D02*
X141859000Y-50838000D01*
X141859000Y-50330000D01*
X142367000Y-50330000D01*
X142367000Y-50838000D01*
G36*
X142367000Y-58077000D02*
X141859000Y-58077000D01*
X141859000Y-57569000D01*
X142367000Y-57569000D01*
X142367000Y-58077000D01*
X142367000Y-58077000D01*
G37*
X142367000Y-58077000D02*
X141859000Y-58077000D01*
X141859000Y-57569000D01*
X142367000Y-57569000D01*
X142367000Y-58077000D01*
G36*
X146685000Y-50838000D02*
X146177000Y-50838000D01*
X146177000Y-50330000D01*
X146685000Y-50330000D01*
X146685000Y-50838000D01*
X146685000Y-50838000D01*
G37*
X146685000Y-50838000D02*
X146177000Y-50838000D01*
X146177000Y-50330000D01*
X146685000Y-50330000D01*
X146685000Y-50838000D01*
G36*
X144526000Y-52362000D02*
X144018000Y-52362000D01*
X144018000Y-51854000D01*
X144526000Y-51854000D01*
X144526000Y-52362000D01*
X144526000Y-52362000D01*
G37*
X144526000Y-52362000D02*
X144018000Y-52362000D01*
X144018000Y-51854000D01*
X144526000Y-51854000D01*
X144526000Y-52362000D01*
G36*
X146685000Y-60998000D02*
X146177000Y-60998000D01*
X146177000Y-60490000D01*
X146685000Y-60490000D01*
X146685000Y-60998000D01*
X146685000Y-60998000D01*
G37*
X146685000Y-60998000D02*
X146177000Y-60998000D01*
X146177000Y-60490000D01*
X146685000Y-60490000D01*
X146685000Y-60998000D01*
G36*
X142367000Y-60998000D02*
X141859000Y-60998000D01*
X141859000Y-60490000D01*
X142367000Y-60490000D01*
X142367000Y-60998000D01*
X142367000Y-60998000D01*
G37*
X142367000Y-60998000D02*
X141859000Y-60998000D01*
X141859000Y-60490000D01*
X142367000Y-60490000D01*
X142367000Y-60998000D01*
G36*
X144526000Y-62522000D02*
X144018000Y-62522000D01*
X144018000Y-62014000D01*
X144526000Y-62014000D01*
X144526000Y-62522000D01*
X144526000Y-62522000D01*
G37*
X144526000Y-62522000D02*
X144018000Y-62522000D01*
X144018000Y-62014000D01*
X144526000Y-62014000D01*
X144526000Y-62522000D01*
G36*
X144526000Y-56426000D02*
X144018000Y-56426000D01*
X144018000Y-55918000D01*
X144526000Y-55918000D01*
X144526000Y-56426000D01*
X144526000Y-56426000D01*
G37*
X144526000Y-56426000D02*
X144018000Y-56426000D01*
X144018000Y-55918000D01*
X144526000Y-55918000D01*
X144526000Y-56426000D01*
G36*
X133985000Y-58077000D02*
X133477000Y-58077000D01*
X133477000Y-57569000D01*
X133985000Y-57569000D01*
X133985000Y-58077000D01*
X133985000Y-58077000D01*
G37*
X133985000Y-58077000D02*
X133477000Y-58077000D01*
X133477000Y-57569000D01*
X133985000Y-57569000D01*
X133985000Y-58077000D01*
G36*
X129667000Y-58077000D02*
X129159000Y-58077000D01*
X129159000Y-57569000D01*
X129667000Y-57569000D01*
X129667000Y-58077000D01*
X129667000Y-58077000D01*
G37*
X129667000Y-58077000D02*
X129159000Y-58077000D01*
X129159000Y-57569000D01*
X129667000Y-57569000D01*
X129667000Y-58077000D01*
G36*
X131826000Y-56426000D02*
X131318000Y-56426000D01*
X131318000Y-55918000D01*
X131826000Y-55918000D01*
X131826000Y-56426000D01*
X131826000Y-56426000D01*
G37*
X131826000Y-56426000D02*
X131318000Y-56426000D01*
X131318000Y-55918000D01*
X131826000Y-55918000D01*
X131826000Y-56426000D01*
G36*
X133985000Y-50838000D02*
X133477000Y-50838000D01*
X133477000Y-50330000D01*
X133985000Y-50330000D01*
X133985000Y-50838000D01*
X133985000Y-50838000D01*
G37*
X133985000Y-50838000D02*
X133477000Y-50838000D01*
X133477000Y-50330000D01*
X133985000Y-50330000D01*
X133985000Y-50838000D01*
G36*
X131826000Y-52362000D02*
X131318000Y-52362000D01*
X131318000Y-51854000D01*
X131826000Y-51854000D01*
X131826000Y-52362000D01*
X131826000Y-52362000D01*
G37*
X131826000Y-52362000D02*
X131318000Y-52362000D01*
X131318000Y-51854000D01*
X131826000Y-51854000D01*
X131826000Y-52362000D01*
G36*
X129667000Y-50838000D02*
X129159000Y-50838000D01*
X129159000Y-50330000D01*
X129667000Y-50330000D01*
X129667000Y-50838000D01*
X129667000Y-50838000D01*
G37*
X129667000Y-50838000D02*
X129159000Y-50838000D01*
X129159000Y-50330000D01*
X129667000Y-50330000D01*
X129667000Y-50838000D01*
G36*
X116705000Y-68237000D02*
X116197000Y-68237000D01*
X116197000Y-67729000D01*
X116705000Y-67729000D01*
X116705000Y-68237000D01*
X116705000Y-68237000D01*
G37*
X116705000Y-68237000D02*
X116197000Y-68237000D01*
X116197000Y-67729000D01*
X116705000Y-67729000D01*
X116705000Y-68237000D01*
G36*
X116705000Y-60998000D02*
X116197000Y-60998000D01*
X116197000Y-60490000D01*
X116705000Y-60490000D01*
X116705000Y-60998000D01*
X116705000Y-60998000D01*
G37*
X116705000Y-60998000D02*
X116197000Y-60998000D01*
X116197000Y-60490000D01*
X116705000Y-60490000D01*
X116705000Y-60998000D01*
G36*
X118864000Y-62522000D02*
X118356000Y-62522000D01*
X118356000Y-62014000D01*
X118864000Y-62014000D01*
X118864000Y-62522000D01*
X118864000Y-62522000D01*
G37*
X118864000Y-62522000D02*
X118356000Y-62522000D01*
X118356000Y-62014000D01*
X118864000Y-62014000D01*
X118864000Y-62522000D01*
G36*
X121023000Y-60998000D02*
X120515000Y-60998000D01*
X120515000Y-60490000D01*
X121023000Y-60490000D01*
X121023000Y-60998000D01*
X121023000Y-60998000D01*
G37*
X121023000Y-60998000D02*
X120515000Y-60998000D01*
X120515000Y-60490000D01*
X121023000Y-60490000D01*
X121023000Y-60998000D01*
G36*
X118864000Y-66586000D02*
X118356000Y-66586000D01*
X118356000Y-66078000D01*
X118864000Y-66078000D01*
X118864000Y-66586000D01*
X118864000Y-66586000D01*
G37*
X118864000Y-66586000D02*
X118356000Y-66586000D01*
X118356000Y-66078000D01*
X118864000Y-66078000D01*
X118864000Y-66586000D01*
G36*
X121023000Y-50838000D02*
X120515000Y-50838000D01*
X120515000Y-50330000D01*
X121023000Y-50330000D01*
X121023000Y-50838000D01*
X121023000Y-50838000D01*
G37*
X121023000Y-50838000D02*
X120515000Y-50838000D01*
X120515000Y-50330000D01*
X121023000Y-50330000D01*
X121023000Y-50838000D01*
G36*
X118864000Y-52362000D02*
X118356000Y-52362000D01*
X118356000Y-51854000D01*
X118864000Y-51854000D01*
X118864000Y-52362000D01*
X118864000Y-52362000D01*
G37*
X118864000Y-52362000D02*
X118356000Y-52362000D01*
X118356000Y-51854000D01*
X118864000Y-51854000D01*
X118864000Y-52362000D01*
G36*
X121023000Y-58077000D02*
X120515000Y-58077000D01*
X120515000Y-57569000D01*
X121023000Y-57569000D01*
X121023000Y-58077000D01*
X121023000Y-58077000D01*
G37*
X121023000Y-58077000D02*
X120515000Y-58077000D01*
X120515000Y-57569000D01*
X121023000Y-57569000D01*
X121023000Y-58077000D01*
G36*
X118864000Y-56426000D02*
X118356000Y-56426000D01*
X118356000Y-55918000D01*
X118864000Y-55918000D01*
X118864000Y-56426000D01*
X118864000Y-56426000D01*
G37*
X118864000Y-56426000D02*
X118356000Y-56426000D01*
X118356000Y-55918000D01*
X118864000Y-55918000D01*
X118864000Y-56426000D01*
G36*
X116705000Y-58077000D02*
X116197000Y-58077000D01*
X116197000Y-57569000D01*
X116705000Y-57569000D01*
X116705000Y-58077000D01*
X116705000Y-58077000D01*
G37*
X116705000Y-58077000D02*
X116197000Y-58077000D01*
X116197000Y-57569000D01*
X116705000Y-57569000D01*
X116705000Y-58077000D01*
G36*
X116705000Y-50838000D02*
X116197000Y-50838000D01*
X116197000Y-50330000D01*
X116705000Y-50330000D01*
X116705000Y-50838000D01*
X116705000Y-50838000D01*
G37*
X116705000Y-50838000D02*
X116197000Y-50838000D01*
X116197000Y-50330000D01*
X116705000Y-50330000D01*
X116705000Y-50838000D01*
G36*
X108423000Y-58077000D02*
X107915000Y-58077000D01*
X107915000Y-57569000D01*
X108423000Y-57569000D01*
X108423000Y-58077000D01*
X108423000Y-58077000D01*
G37*
X108423000Y-58077000D02*
X107915000Y-58077000D01*
X107915000Y-57569000D01*
X108423000Y-57569000D01*
X108423000Y-58077000D01*
G36*
X106264000Y-56426000D02*
X105756000Y-56426000D01*
X105756000Y-55918000D01*
X106264000Y-55918000D01*
X106264000Y-56426000D01*
X106264000Y-56426000D01*
G37*
X106264000Y-56426000D02*
X105756000Y-56426000D01*
X105756000Y-55918000D01*
X106264000Y-55918000D01*
X106264000Y-56426000D01*
G36*
X104105000Y-58077000D02*
X103597000Y-58077000D01*
X103597000Y-57569000D01*
X104105000Y-57569000D01*
X104105000Y-58077000D01*
X104105000Y-58077000D01*
G37*
X104105000Y-58077000D02*
X103597000Y-58077000D01*
X103597000Y-57569000D01*
X104105000Y-57569000D01*
X104105000Y-58077000D01*
G36*
X104105000Y-68237000D02*
X103597000Y-68237000D01*
X103597000Y-67729000D01*
X104105000Y-67729000D01*
X104105000Y-68237000D01*
X104105000Y-68237000D01*
G37*
X104105000Y-68237000D02*
X103597000Y-68237000D01*
X103597000Y-67729000D01*
X104105000Y-67729000D01*
X104105000Y-68237000D01*
G36*
X106264000Y-66586000D02*
X105756000Y-66586000D01*
X105756000Y-66078000D01*
X106264000Y-66078000D01*
X106264000Y-66586000D01*
X106264000Y-66586000D01*
G37*
X106264000Y-66586000D02*
X105756000Y-66586000D01*
X105756000Y-66078000D01*
X106264000Y-66078000D01*
X106264000Y-66586000D01*
G36*
X108423000Y-68237000D02*
X107915000Y-68237000D01*
X107915000Y-67729000D01*
X108423000Y-67729000D01*
X108423000Y-68237000D01*
X108423000Y-68237000D01*
G37*
X108423000Y-68237000D02*
X107915000Y-68237000D01*
X107915000Y-67729000D01*
X108423000Y-67729000D01*
X108423000Y-68237000D01*
G36*
X108423000Y-60998000D02*
X107915000Y-60998000D01*
X107915000Y-60490000D01*
X108423000Y-60490000D01*
X108423000Y-60998000D01*
X108423000Y-60998000D01*
G37*
X108423000Y-60998000D02*
X107915000Y-60998000D01*
X107915000Y-60490000D01*
X108423000Y-60490000D01*
X108423000Y-60998000D01*
G36*
X106264000Y-62522000D02*
X105756000Y-62522000D01*
X105756000Y-62014000D01*
X106264000Y-62014000D01*
X106264000Y-62522000D01*
X106264000Y-62522000D01*
G37*
X106264000Y-62522000D02*
X105756000Y-62522000D01*
X105756000Y-62014000D01*
X106264000Y-62014000D01*
X106264000Y-62522000D01*
G36*
X104105000Y-60998000D02*
X103597000Y-60998000D01*
X103597000Y-60490000D01*
X104105000Y-60490000D01*
X104105000Y-60998000D01*
X104105000Y-60998000D01*
G37*
X104105000Y-60998000D02*
X103597000Y-60998000D01*
X103597000Y-60490000D01*
X104105000Y-60490000D01*
X104105000Y-60998000D01*
G36*
X104105000Y-50838000D02*
X103597000Y-50838000D01*
X103597000Y-50330000D01*
X104105000Y-50330000D01*
X104105000Y-50838000D01*
X104105000Y-50838000D01*
G37*
X104105000Y-50838000D02*
X103597000Y-50838000D01*
X103597000Y-50330000D01*
X104105000Y-50330000D01*
X104105000Y-50838000D01*
G36*
X106264000Y-52362000D02*
X105756000Y-52362000D01*
X105756000Y-51854000D01*
X106264000Y-51854000D01*
X106264000Y-52362000D01*
X106264000Y-52362000D01*
G37*
X106264000Y-52362000D02*
X105756000Y-52362000D01*
X105756000Y-51854000D01*
X106264000Y-51854000D01*
X106264000Y-52362000D01*
G36*
X108423000Y-50838000D02*
X107915000Y-50838000D01*
X107915000Y-50330000D01*
X108423000Y-50330000D01*
X108423000Y-50838000D01*
X108423000Y-50838000D01*
G37*
X108423000Y-50838000D02*
X107915000Y-50838000D01*
X107915000Y-50330000D01*
X108423000Y-50330000D01*
X108423000Y-50838000D01*
G36*
X93826000Y-66586000D02*
X93318000Y-66586000D01*
X93318000Y-66078000D01*
X93826000Y-66078000D01*
X93826000Y-66586000D01*
X93826000Y-66586000D01*
G37*
X93826000Y-66586000D02*
X93318000Y-66586000D01*
X93318000Y-66078000D01*
X93826000Y-66078000D01*
X93826000Y-66586000D01*
G36*
X93826000Y-62522000D02*
X93318000Y-62522000D01*
X93318000Y-62014000D01*
X93826000Y-62014000D01*
X93826000Y-62522000D01*
X93826000Y-62522000D01*
G37*
X93826000Y-62522000D02*
X93318000Y-62522000D01*
X93318000Y-62014000D01*
X93826000Y-62014000D01*
X93826000Y-62522000D01*
G36*
X95985000Y-68237000D02*
X95477000Y-68237000D01*
X95477000Y-67729000D01*
X95985000Y-67729000D01*
X95985000Y-68237000D01*
X95985000Y-68237000D01*
G37*
X95985000Y-68237000D02*
X95477000Y-68237000D01*
X95477000Y-67729000D01*
X95985000Y-67729000D01*
X95985000Y-68237000D01*
G36*
X91667000Y-68237000D02*
X91159000Y-68237000D01*
X91159000Y-67729000D01*
X91667000Y-67729000D01*
X91667000Y-68237000D01*
X91667000Y-68237000D01*
G37*
X91667000Y-68237000D02*
X91159000Y-68237000D01*
X91159000Y-67729000D01*
X91667000Y-67729000D01*
X91667000Y-68237000D01*
G36*
X95985000Y-60998000D02*
X95477000Y-60998000D01*
X95477000Y-60490000D01*
X95985000Y-60490000D01*
X95985000Y-60998000D01*
X95985000Y-60998000D01*
G37*
X95985000Y-60998000D02*
X95477000Y-60998000D01*
X95477000Y-60490000D01*
X95985000Y-60490000D01*
X95985000Y-60998000D01*
G36*
X91667000Y-60998000D02*
X91159000Y-60998000D01*
X91159000Y-60490000D01*
X91667000Y-60490000D01*
X91667000Y-60998000D01*
X91667000Y-60998000D01*
G37*
X91667000Y-60998000D02*
X91159000Y-60998000D01*
X91159000Y-60490000D01*
X91667000Y-60490000D01*
X91667000Y-60998000D01*
G36*
X81126000Y-66586000D02*
X80618000Y-66586000D01*
X80618000Y-66078000D01*
X81126000Y-66078000D01*
X81126000Y-66586000D01*
X81126000Y-66586000D01*
G37*
X81126000Y-66586000D02*
X80618000Y-66586000D01*
X80618000Y-66078000D01*
X81126000Y-66078000D01*
X81126000Y-66586000D01*
G36*
X81126000Y-62522000D02*
X80618000Y-62522000D01*
X80618000Y-62014000D01*
X81126000Y-62014000D01*
X81126000Y-62522000D01*
X81126000Y-62522000D01*
G37*
X81126000Y-62522000D02*
X80618000Y-62522000D01*
X80618000Y-62014000D01*
X81126000Y-62014000D01*
X81126000Y-62522000D01*
G36*
X83285000Y-68237000D02*
X82777000Y-68237000D01*
X82777000Y-67729000D01*
X83285000Y-67729000D01*
X83285000Y-68237000D01*
X83285000Y-68237000D01*
G37*
X83285000Y-68237000D02*
X82777000Y-68237000D01*
X82777000Y-67729000D01*
X83285000Y-67729000D01*
X83285000Y-68237000D01*
G36*
X78967000Y-68237000D02*
X78459000Y-68237000D01*
X78459000Y-67729000D01*
X78967000Y-67729000D01*
X78967000Y-68237000D01*
X78967000Y-68237000D01*
G37*
X78967000Y-68237000D02*
X78459000Y-68237000D01*
X78459000Y-67729000D01*
X78967000Y-67729000D01*
X78967000Y-68237000D01*
G36*
X83285000Y-60998000D02*
X82777000Y-60998000D01*
X82777000Y-60490000D01*
X83285000Y-60490000D01*
X83285000Y-60998000D01*
X83285000Y-60998000D01*
G37*
X83285000Y-60998000D02*
X82777000Y-60998000D01*
X82777000Y-60490000D01*
X83285000Y-60490000D01*
X83285000Y-60998000D01*
G36*
X78967000Y-60998000D02*
X78459000Y-60998000D01*
X78459000Y-60490000D01*
X78967000Y-60490000D01*
X78967000Y-60998000D01*
X78967000Y-60998000D01*
G37*
X78967000Y-60998000D02*
X78459000Y-60998000D01*
X78459000Y-60490000D01*
X78967000Y-60490000D01*
X78967000Y-60998000D01*
G36*
X68064000Y-66586000D02*
X67556000Y-66586000D01*
X67556000Y-66078000D01*
X68064000Y-66078000D01*
X68064000Y-66586000D01*
X68064000Y-66586000D01*
G37*
X68064000Y-66586000D02*
X67556000Y-66586000D01*
X67556000Y-66078000D01*
X68064000Y-66078000D01*
X68064000Y-66586000D01*
G36*
X68064000Y-62522000D02*
X67556000Y-62522000D01*
X67556000Y-62014000D01*
X68064000Y-62014000D01*
X68064000Y-62522000D01*
X68064000Y-62522000D01*
G37*
X68064000Y-62522000D02*
X67556000Y-62522000D01*
X67556000Y-62014000D01*
X68064000Y-62014000D01*
X68064000Y-62522000D01*
G36*
X70223000Y-68237000D02*
X69715000Y-68237000D01*
X69715000Y-67729000D01*
X70223000Y-67729000D01*
X70223000Y-68237000D01*
X70223000Y-68237000D01*
G37*
X70223000Y-68237000D02*
X69715000Y-68237000D01*
X69715000Y-67729000D01*
X70223000Y-67729000D01*
X70223000Y-68237000D01*
G36*
X65905000Y-68237000D02*
X65397000Y-68237000D01*
X65397000Y-67729000D01*
X65905000Y-67729000D01*
X65905000Y-68237000D01*
X65905000Y-68237000D01*
G37*
X65905000Y-68237000D02*
X65397000Y-68237000D01*
X65397000Y-67729000D01*
X65905000Y-67729000D01*
X65905000Y-68237000D01*
G36*
X70223000Y-60998000D02*
X69715000Y-60998000D01*
X69715000Y-60490000D01*
X70223000Y-60490000D01*
X70223000Y-60998000D01*
X70223000Y-60998000D01*
G37*
X70223000Y-60998000D02*
X69715000Y-60998000D01*
X69715000Y-60490000D01*
X70223000Y-60490000D01*
X70223000Y-60998000D01*
G36*
X65905000Y-60998000D02*
X65397000Y-60998000D01*
X65397000Y-60490000D01*
X65905000Y-60490000D01*
X65905000Y-60998000D01*
X65905000Y-60998000D01*
G37*
X65905000Y-60998000D02*
X65397000Y-60998000D01*
X65397000Y-60490000D01*
X65905000Y-60490000D01*
X65905000Y-60998000D01*
G36*
X55664000Y-66586000D02*
X55156000Y-66586000D01*
X55156000Y-66078000D01*
X55664000Y-66078000D01*
X55664000Y-66586000D01*
X55664000Y-66586000D01*
G37*
X55664000Y-66586000D02*
X55156000Y-66586000D01*
X55156000Y-66078000D01*
X55664000Y-66078000D01*
X55664000Y-66586000D01*
G36*
X55664000Y-62522000D02*
X55156000Y-62522000D01*
X55156000Y-62014000D01*
X55664000Y-62014000D01*
X55664000Y-62522000D01*
X55664000Y-62522000D01*
G37*
X55664000Y-62522000D02*
X55156000Y-62522000D01*
X55156000Y-62014000D01*
X55664000Y-62014000D01*
X55664000Y-62522000D01*
G36*
X57823000Y-68237000D02*
X57315000Y-68237000D01*
X57315000Y-67729000D01*
X57823000Y-67729000D01*
X57823000Y-68237000D01*
X57823000Y-68237000D01*
G37*
X57823000Y-68237000D02*
X57315000Y-68237000D01*
X57315000Y-67729000D01*
X57823000Y-67729000D01*
X57823000Y-68237000D01*
G36*
X53505000Y-68237000D02*
X52997000Y-68237000D01*
X52997000Y-67729000D01*
X53505000Y-67729000D01*
X53505000Y-68237000D01*
X53505000Y-68237000D01*
G37*
X53505000Y-68237000D02*
X52997000Y-68237000D01*
X52997000Y-67729000D01*
X53505000Y-67729000D01*
X53505000Y-68237000D01*
G36*
X57823000Y-60998000D02*
X57315000Y-60998000D01*
X57315000Y-60490000D01*
X57823000Y-60490000D01*
X57823000Y-60998000D01*
X57823000Y-60998000D01*
G37*
X57823000Y-60998000D02*
X57315000Y-60998000D01*
X57315000Y-60490000D01*
X57823000Y-60490000D01*
X57823000Y-60998000D01*
G36*
X53505000Y-60998000D02*
X52997000Y-60998000D01*
X52997000Y-60490000D01*
X53505000Y-60490000D01*
X53505000Y-60998000D01*
X53505000Y-60998000D01*
G37*
X53505000Y-60998000D02*
X52997000Y-60998000D01*
X52997000Y-60490000D01*
X53505000Y-60490000D01*
X53505000Y-60998000D01*
G36*
X93826000Y-56426000D02*
X93318000Y-56426000D01*
X93318000Y-55918000D01*
X93826000Y-55918000D01*
X93826000Y-56426000D01*
X93826000Y-56426000D01*
G37*
X93826000Y-56426000D02*
X93318000Y-56426000D01*
X93318000Y-55918000D01*
X93826000Y-55918000D01*
X93826000Y-56426000D01*
G36*
X93826000Y-52362000D02*
X93318000Y-52362000D01*
X93318000Y-51854000D01*
X93826000Y-51854000D01*
X93826000Y-52362000D01*
X93826000Y-52362000D01*
G37*
X93826000Y-52362000D02*
X93318000Y-52362000D01*
X93318000Y-51854000D01*
X93826000Y-51854000D01*
X93826000Y-52362000D01*
G36*
X95985000Y-58077000D02*
X95477000Y-58077000D01*
X95477000Y-57569000D01*
X95985000Y-57569000D01*
X95985000Y-58077000D01*
X95985000Y-58077000D01*
G37*
X95985000Y-58077000D02*
X95477000Y-58077000D01*
X95477000Y-57569000D01*
X95985000Y-57569000D01*
X95985000Y-58077000D01*
G36*
X91667000Y-58077000D02*
X91159000Y-58077000D01*
X91159000Y-57569000D01*
X91667000Y-57569000D01*
X91667000Y-58077000D01*
X91667000Y-58077000D01*
G37*
X91667000Y-58077000D02*
X91159000Y-58077000D01*
X91159000Y-57569000D01*
X91667000Y-57569000D01*
X91667000Y-58077000D01*
G36*
X95985000Y-50838000D02*
X95477000Y-50838000D01*
X95477000Y-50330000D01*
X95985000Y-50330000D01*
X95985000Y-50838000D01*
X95985000Y-50838000D01*
G37*
X95985000Y-50838000D02*
X95477000Y-50838000D01*
X95477000Y-50330000D01*
X95985000Y-50330000D01*
X95985000Y-50838000D01*
G36*
X91667000Y-50838000D02*
X91159000Y-50838000D01*
X91159000Y-50330000D01*
X91667000Y-50330000D01*
X91667000Y-50838000D01*
X91667000Y-50838000D01*
G37*
X91667000Y-50838000D02*
X91159000Y-50838000D01*
X91159000Y-50330000D01*
X91667000Y-50330000D01*
X91667000Y-50838000D01*
G36*
X81126000Y-56426000D02*
X80618000Y-56426000D01*
X80618000Y-55918000D01*
X81126000Y-55918000D01*
X81126000Y-56426000D01*
X81126000Y-56426000D01*
G37*
X81126000Y-56426000D02*
X80618000Y-56426000D01*
X80618000Y-55918000D01*
X81126000Y-55918000D01*
X81126000Y-56426000D01*
G36*
X81126000Y-52362000D02*
X80618000Y-52362000D01*
X80618000Y-51854000D01*
X81126000Y-51854000D01*
X81126000Y-52362000D01*
X81126000Y-52362000D01*
G37*
X81126000Y-52362000D02*
X80618000Y-52362000D01*
X80618000Y-51854000D01*
X81126000Y-51854000D01*
X81126000Y-52362000D01*
G36*
X83285000Y-58077000D02*
X82777000Y-58077000D01*
X82777000Y-57569000D01*
X83285000Y-57569000D01*
X83285000Y-58077000D01*
X83285000Y-58077000D01*
G37*
X83285000Y-58077000D02*
X82777000Y-58077000D01*
X82777000Y-57569000D01*
X83285000Y-57569000D01*
X83285000Y-58077000D01*
G36*
X78967000Y-58077000D02*
X78459000Y-58077000D01*
X78459000Y-57569000D01*
X78967000Y-57569000D01*
X78967000Y-58077000D01*
X78967000Y-58077000D01*
G37*
X78967000Y-58077000D02*
X78459000Y-58077000D01*
X78459000Y-57569000D01*
X78967000Y-57569000D01*
X78967000Y-58077000D01*
G36*
X83285000Y-50838000D02*
X82777000Y-50838000D01*
X82777000Y-50330000D01*
X83285000Y-50330000D01*
X83285000Y-50838000D01*
X83285000Y-50838000D01*
G37*
X83285000Y-50838000D02*
X82777000Y-50838000D01*
X82777000Y-50330000D01*
X83285000Y-50330000D01*
X83285000Y-50838000D01*
G36*
X78967000Y-50838000D02*
X78459000Y-50838000D01*
X78459000Y-50330000D01*
X78967000Y-50330000D01*
X78967000Y-50838000D01*
X78967000Y-50838000D01*
G37*
X78967000Y-50838000D02*
X78459000Y-50838000D01*
X78459000Y-50330000D01*
X78967000Y-50330000D01*
X78967000Y-50838000D01*
G36*
X68064000Y-56426000D02*
X67556000Y-56426000D01*
X67556000Y-55918000D01*
X68064000Y-55918000D01*
X68064000Y-56426000D01*
X68064000Y-56426000D01*
G37*
X68064000Y-56426000D02*
X67556000Y-56426000D01*
X67556000Y-55918000D01*
X68064000Y-55918000D01*
X68064000Y-56426000D01*
G36*
X68064000Y-52362000D02*
X67556000Y-52362000D01*
X67556000Y-51854000D01*
X68064000Y-51854000D01*
X68064000Y-52362000D01*
X68064000Y-52362000D01*
G37*
X68064000Y-52362000D02*
X67556000Y-52362000D01*
X67556000Y-51854000D01*
X68064000Y-51854000D01*
X68064000Y-52362000D01*
G36*
X70223000Y-58077000D02*
X69715000Y-58077000D01*
X69715000Y-57569000D01*
X70223000Y-57569000D01*
X70223000Y-58077000D01*
X70223000Y-58077000D01*
G37*
X70223000Y-58077000D02*
X69715000Y-58077000D01*
X69715000Y-57569000D01*
X70223000Y-57569000D01*
X70223000Y-58077000D01*
G36*
X65905000Y-58077000D02*
X65397000Y-58077000D01*
X65397000Y-57569000D01*
X65905000Y-57569000D01*
X65905000Y-58077000D01*
X65905000Y-58077000D01*
G37*
X65905000Y-58077000D02*
X65397000Y-58077000D01*
X65397000Y-57569000D01*
X65905000Y-57569000D01*
X65905000Y-58077000D01*
G36*
X70223000Y-50838000D02*
X69715000Y-50838000D01*
X69715000Y-50330000D01*
X70223000Y-50330000D01*
X70223000Y-50838000D01*
X70223000Y-50838000D01*
G37*
X70223000Y-50838000D02*
X69715000Y-50838000D01*
X69715000Y-50330000D01*
X70223000Y-50330000D01*
X70223000Y-50838000D01*
G36*
X65905000Y-50838000D02*
X65397000Y-50838000D01*
X65397000Y-50330000D01*
X65905000Y-50330000D01*
X65905000Y-50838000D01*
X65905000Y-50838000D01*
G37*
X65905000Y-50838000D02*
X65397000Y-50838000D01*
X65397000Y-50330000D01*
X65905000Y-50330000D01*
X65905000Y-50838000D01*
G36*
X55664000Y-56426000D02*
X55156000Y-56426000D01*
X55156000Y-55918000D01*
X55664000Y-55918000D01*
X55664000Y-56426000D01*
X55664000Y-56426000D01*
G37*
X55664000Y-56426000D02*
X55156000Y-56426000D01*
X55156000Y-55918000D01*
X55664000Y-55918000D01*
X55664000Y-56426000D01*
G36*
X55664000Y-52362000D02*
X55156000Y-52362000D01*
X55156000Y-51854000D01*
X55664000Y-51854000D01*
X55664000Y-52362000D01*
X55664000Y-52362000D01*
G37*
X55664000Y-52362000D02*
X55156000Y-52362000D01*
X55156000Y-51854000D01*
X55664000Y-51854000D01*
X55664000Y-52362000D01*
G36*
X57823000Y-58077000D02*
X57315000Y-58077000D01*
X57315000Y-57569000D01*
X57823000Y-57569000D01*
X57823000Y-58077000D01*
X57823000Y-58077000D01*
G37*
X57823000Y-58077000D02*
X57315000Y-58077000D01*
X57315000Y-57569000D01*
X57823000Y-57569000D01*
X57823000Y-58077000D01*
G36*
X53505000Y-58077000D02*
X52997000Y-58077000D01*
X52997000Y-57569000D01*
X53505000Y-57569000D01*
X53505000Y-58077000D01*
X53505000Y-58077000D01*
G37*
X53505000Y-58077000D02*
X52997000Y-58077000D01*
X52997000Y-57569000D01*
X53505000Y-57569000D01*
X53505000Y-58077000D01*
G36*
X57823000Y-50838000D02*
X57315000Y-50838000D01*
X57315000Y-50330000D01*
X57823000Y-50330000D01*
X57823000Y-50838000D01*
X57823000Y-50838000D01*
G37*
X57823000Y-50838000D02*
X57315000Y-50838000D01*
X57315000Y-50330000D01*
X57823000Y-50330000D01*
X57823000Y-50838000D01*
G36*
X53505000Y-50838000D02*
X52997000Y-50838000D01*
X52997000Y-50330000D01*
X53505000Y-50330000D01*
X53505000Y-50838000D01*
X53505000Y-50838000D01*
G37*
X53505000Y-50838000D02*
X52997000Y-50838000D01*
X52997000Y-50330000D01*
X53505000Y-50330000D01*
X53505000Y-50838000D01*
M02*
