G04 #@! TF.FileFunction,Copper,L2,Bot,Signal*
%FSLAX46Y46*%
G04 Gerber Fmt 4.6, Leading zero omitted, Abs format (unit mm)*
G04 Created by KiCad (PCBNEW 4.0.2+dfsg1-stable) date Sun 30 Oct 2016 14:39:10 AEDT*
%MOMM*%
G01*
G04 APERTURE LIST*
%ADD10C,0.100000*%
%ADD11R,1.060000X0.650000*%
%ADD12O,2.032000X1.727200*%
%ADD13R,0.700000X1.300000*%
%ADD14C,0.304800*%
G04 APERTURE END LIST*
D10*
D11*
X104310000Y-145730000D03*
X104310000Y-144780000D03*
X104310000Y-143830000D03*
X106510000Y-143830000D03*
X106510000Y-145730000D03*
X106510000Y-144780000D03*
D12*
X101600000Y-142240000D03*
X101600000Y-144780000D03*
X101600000Y-147320000D03*
X109220000Y-142240000D03*
X109220000Y-144780000D03*
X109220000Y-147320000D03*
D13*
X104460000Y-141732000D03*
X106360000Y-141732000D03*
X104460000Y-147955000D03*
X106360000Y-147955000D03*
X117160000Y-147955000D03*
X119060000Y-147955000D03*
X117160000Y-141732000D03*
X119060000Y-141732000D03*
D12*
X121920000Y-142240000D03*
X121920000Y-144780000D03*
X121920000Y-147320000D03*
X114300000Y-142240000D03*
X114300000Y-144780000D03*
X114300000Y-147320000D03*
D11*
X117010000Y-145730000D03*
X117010000Y-144780000D03*
X117010000Y-143830000D03*
X119210000Y-143830000D03*
X119210000Y-145730000D03*
X119210000Y-144780000D03*
X129710000Y-145730000D03*
X129710000Y-144780000D03*
X129710000Y-143830000D03*
X131910000Y-143830000D03*
X131910000Y-145730000D03*
X131910000Y-144780000D03*
D12*
X127000000Y-142240000D03*
X127000000Y-144780000D03*
X127000000Y-147320000D03*
X134620000Y-142240000D03*
X134620000Y-144780000D03*
X134620000Y-147320000D03*
D13*
X129860000Y-141732000D03*
X131760000Y-141732000D03*
X129860000Y-147955000D03*
X131760000Y-147955000D03*
X142560000Y-147955000D03*
X144460000Y-147955000D03*
X142560000Y-141732000D03*
X144460000Y-141732000D03*
D12*
X147320000Y-142240000D03*
X147320000Y-144780000D03*
X147320000Y-147320000D03*
X139700000Y-142240000D03*
X139700000Y-144780000D03*
X139700000Y-147320000D03*
D11*
X142410000Y-145730000D03*
X142410000Y-144780000D03*
X142410000Y-143830000D03*
X144610000Y-143830000D03*
X144610000Y-145730000D03*
X144610000Y-144780000D03*
X104310000Y-125410000D03*
X104310000Y-124460000D03*
X104310000Y-123510000D03*
X106510000Y-123510000D03*
X106510000Y-125410000D03*
X106510000Y-124460000D03*
D12*
X101600000Y-121920000D03*
X101600000Y-124460000D03*
X101600000Y-127000000D03*
X109220000Y-121920000D03*
X109220000Y-124460000D03*
X109220000Y-127000000D03*
D13*
X104460000Y-121412000D03*
X106360000Y-121412000D03*
X104460000Y-127635000D03*
X106360000Y-127635000D03*
X117160000Y-127635000D03*
X119060000Y-127635000D03*
X117160000Y-121412000D03*
X119060000Y-121412000D03*
D12*
X121920000Y-121920000D03*
X121920000Y-124460000D03*
X121920000Y-127000000D03*
X114300000Y-121920000D03*
X114300000Y-124460000D03*
X114300000Y-127000000D03*
D11*
X117010000Y-125410000D03*
X117010000Y-124460000D03*
X117010000Y-123510000D03*
X119210000Y-123510000D03*
X119210000Y-125410000D03*
X119210000Y-124460000D03*
X129710000Y-125410000D03*
X129710000Y-124460000D03*
X129710000Y-123510000D03*
X131910000Y-123510000D03*
X131910000Y-125410000D03*
X131910000Y-124460000D03*
D12*
X127000000Y-121920000D03*
X127000000Y-124460000D03*
X127000000Y-127000000D03*
X134620000Y-121920000D03*
X134620000Y-124460000D03*
X134620000Y-127000000D03*
D13*
X129860000Y-121412000D03*
X131760000Y-121412000D03*
X129860000Y-127635000D03*
X131760000Y-127635000D03*
X142560000Y-127635000D03*
X144460000Y-127635000D03*
X142560000Y-121412000D03*
X144460000Y-121412000D03*
D12*
X147320000Y-121920000D03*
X147320000Y-124460000D03*
X147320000Y-127000000D03*
X139700000Y-121920000D03*
X139700000Y-124460000D03*
X139700000Y-127000000D03*
D11*
X142410000Y-125410000D03*
X142410000Y-124460000D03*
X142410000Y-123510000D03*
X144610000Y-123510000D03*
X144610000Y-125410000D03*
X144610000Y-124460000D03*
X142410000Y-135570000D03*
X142410000Y-134620000D03*
X142410000Y-133670000D03*
X144610000Y-133670000D03*
X144610000Y-135570000D03*
X144610000Y-134620000D03*
D12*
X139700000Y-132080000D03*
X139700000Y-134620000D03*
X139700000Y-137160000D03*
X147320000Y-132080000D03*
X147320000Y-134620000D03*
X147320000Y-137160000D03*
D13*
X142560000Y-131572000D03*
X144460000Y-131572000D03*
X142560000Y-137795000D03*
X144460000Y-137795000D03*
X129860000Y-137795000D03*
X131760000Y-137795000D03*
X129860000Y-131572000D03*
X131760000Y-131572000D03*
D12*
X134620000Y-132080000D03*
X134620000Y-134620000D03*
X134620000Y-137160000D03*
X127000000Y-132080000D03*
X127000000Y-134620000D03*
X127000000Y-137160000D03*
D11*
X129710000Y-135570000D03*
X129710000Y-134620000D03*
X129710000Y-133670000D03*
X131910000Y-133670000D03*
X131910000Y-135570000D03*
X131910000Y-134620000D03*
X117010000Y-135570000D03*
X117010000Y-134620000D03*
X117010000Y-133670000D03*
X119210000Y-133670000D03*
X119210000Y-135570000D03*
X119210000Y-134620000D03*
D12*
X114300000Y-132080000D03*
X114300000Y-134620000D03*
X114300000Y-137160000D03*
X121920000Y-132080000D03*
X121920000Y-134620000D03*
X121920000Y-137160000D03*
D13*
X117160000Y-131572000D03*
X119060000Y-131572000D03*
X117160000Y-137795000D03*
X119060000Y-137795000D03*
X104460000Y-137795000D03*
X106360000Y-137795000D03*
X104460000Y-131572000D03*
X106360000Y-131572000D03*
D12*
X109220000Y-132080000D03*
X109220000Y-134620000D03*
X109220000Y-137160000D03*
X101600000Y-132080000D03*
X101600000Y-134620000D03*
X101600000Y-137160000D03*
D11*
X104310000Y-135570000D03*
X104310000Y-134620000D03*
X104310000Y-133670000D03*
X106510000Y-133670000D03*
X106510000Y-135570000D03*
X106510000Y-134620000D03*
X104310000Y-115250000D03*
X104310000Y-114300000D03*
X104310000Y-113350000D03*
X106510000Y-113350000D03*
X106510000Y-115250000D03*
X106510000Y-114300000D03*
D12*
X101600000Y-111760000D03*
X101600000Y-114300000D03*
X101600000Y-116840000D03*
X109220000Y-111760000D03*
X109220000Y-114300000D03*
X109220000Y-116840000D03*
D13*
X104460000Y-111252000D03*
X106360000Y-111252000D03*
X104460000Y-117475000D03*
X106360000Y-117475000D03*
X117160000Y-117475000D03*
X119060000Y-117475000D03*
X117160000Y-111252000D03*
X119060000Y-111252000D03*
D12*
X121920000Y-111760000D03*
X121920000Y-114300000D03*
X121920000Y-116840000D03*
X114300000Y-111760000D03*
X114300000Y-114300000D03*
X114300000Y-116840000D03*
D11*
X117010000Y-115250000D03*
X117010000Y-114300000D03*
X117010000Y-113350000D03*
X119210000Y-113350000D03*
X119210000Y-115250000D03*
X119210000Y-114300000D03*
X129710000Y-115250000D03*
X129710000Y-114300000D03*
X129710000Y-113350000D03*
X131910000Y-113350000D03*
X131910000Y-115250000D03*
X131910000Y-114300000D03*
D12*
X127000000Y-111760000D03*
X127000000Y-114300000D03*
X127000000Y-116840000D03*
X134620000Y-111760000D03*
X134620000Y-114300000D03*
X134620000Y-116840000D03*
D13*
X129860000Y-111252000D03*
X131760000Y-111252000D03*
X129860000Y-117475000D03*
X131760000Y-117475000D03*
X142560000Y-117475000D03*
X144460000Y-117475000D03*
X142560000Y-111252000D03*
X144460000Y-111252000D03*
D12*
X147320000Y-111760000D03*
X147320000Y-114300000D03*
X147320000Y-116840000D03*
X139700000Y-111760000D03*
X139700000Y-114300000D03*
X139700000Y-116840000D03*
D11*
X142410000Y-115250000D03*
X142410000Y-114300000D03*
X142410000Y-113350000D03*
X144610000Y-113350000D03*
X144610000Y-115250000D03*
X144610000Y-114300000D03*
X142410000Y-105090000D03*
X142410000Y-104140000D03*
X142410000Y-103190000D03*
X144610000Y-103190000D03*
X144610000Y-105090000D03*
X144610000Y-104140000D03*
D12*
X139700000Y-101600000D03*
X139700000Y-104140000D03*
X139700000Y-106680000D03*
X147320000Y-101600000D03*
X147320000Y-104140000D03*
X147320000Y-106680000D03*
D13*
X142560000Y-101092000D03*
X144460000Y-101092000D03*
X142560000Y-107315000D03*
X144460000Y-107315000D03*
X129860000Y-107315000D03*
X131760000Y-107315000D03*
X129860000Y-101092000D03*
X131760000Y-101092000D03*
D12*
X134620000Y-101600000D03*
X134620000Y-104140000D03*
X134620000Y-106680000D03*
X127000000Y-101600000D03*
X127000000Y-104140000D03*
X127000000Y-106680000D03*
D11*
X129710000Y-105090000D03*
X129710000Y-104140000D03*
X129710000Y-103190000D03*
X131910000Y-103190000D03*
X131910000Y-105090000D03*
X131910000Y-104140000D03*
X117010000Y-105090000D03*
X117010000Y-104140000D03*
X117010000Y-103190000D03*
X119210000Y-103190000D03*
X119210000Y-105090000D03*
X119210000Y-104140000D03*
D12*
X114300000Y-101600000D03*
X114300000Y-104140000D03*
X114300000Y-106680000D03*
X121920000Y-101600000D03*
X121920000Y-104140000D03*
X121920000Y-106680000D03*
D13*
X117160000Y-101092000D03*
X119060000Y-101092000D03*
X117160000Y-107315000D03*
X119060000Y-107315000D03*
X104460000Y-107315000D03*
X106360000Y-107315000D03*
X104460000Y-101092000D03*
X106360000Y-101092000D03*
D12*
X109220000Y-101600000D03*
X109220000Y-104140000D03*
X109220000Y-106680000D03*
X101600000Y-101600000D03*
X101600000Y-104140000D03*
X101600000Y-106680000D03*
D11*
X104310000Y-105090000D03*
X104310000Y-104140000D03*
X104310000Y-103190000D03*
X106510000Y-103190000D03*
X106510000Y-105090000D03*
X106510000Y-104140000D03*
D14*
X104310000Y-144780000D02*
X101600000Y-144780000D01*
X108712000Y-142748000D02*
X109220000Y-142240000D01*
X106807000Y-142748000D02*
X108712000Y-142748000D01*
X106510000Y-143045000D02*
X106807000Y-142748000D01*
X106510000Y-143830000D02*
X106510000Y-143045000D01*
X102100380Y-142740380D02*
X101600000Y-142240000D01*
X103993950Y-142740380D02*
X102100380Y-142740380D01*
X104310000Y-143056430D02*
X103993950Y-142740380D01*
X104310000Y-143830000D02*
X104310000Y-143056430D01*
X106510000Y-145793500D02*
X106510000Y-146567070D01*
X106510000Y-146567070D02*
X106826050Y-146883120D01*
X106826050Y-146883120D02*
X108719620Y-146883120D01*
X108719620Y-146883120D02*
X109220000Y-147383500D01*
X104310000Y-145793500D02*
X104310000Y-146578500D01*
X104310000Y-146578500D02*
X104013000Y-146875500D01*
X104013000Y-146875500D02*
X102108000Y-146875500D01*
X106510000Y-144780000D02*
X109220000Y-144780000D01*
X102235000Y-141224000D02*
X102997000Y-141224000D01*
X101600000Y-141859000D02*
X102235000Y-141224000D01*
X101600000Y-142240000D02*
X101600000Y-141859000D01*
X103886000Y-141224000D02*
X103505000Y-141224000D01*
X104394000Y-141732000D02*
X103886000Y-141224000D01*
X104460000Y-141732000D02*
X104394000Y-141732000D01*
X106360000Y-141732000D02*
X106426000Y-141732000D01*
X108458000Y-141224000D02*
X107823000Y-141224000D01*
X109220000Y-141986000D02*
X108458000Y-141224000D01*
X109220000Y-142240000D02*
X109220000Y-141986000D01*
X106934000Y-141224000D02*
X107315000Y-141224000D01*
X106426000Y-141732000D02*
X106934000Y-141224000D01*
X106360000Y-141732000D02*
X106426000Y-141732000D01*
X103886000Y-148463000D02*
X103505000Y-148463000D01*
X104394000Y-147955000D02*
X103886000Y-148463000D01*
X104460000Y-147955000D02*
X104394000Y-147955000D01*
X102108000Y-146875500D02*
X101600000Y-147383500D01*
X102108000Y-148463000D02*
X102997000Y-148463000D01*
X101600000Y-147955000D02*
X102108000Y-148463000D01*
X101600000Y-147320000D02*
X101600000Y-147955000D01*
X106934000Y-148463000D02*
X107315000Y-148463000D01*
X106426000Y-147955000D02*
X106934000Y-148463000D01*
X106360000Y-147955000D02*
X106426000Y-147955000D01*
X108458000Y-148463000D02*
X107823000Y-148463000D01*
X109220000Y-147701000D02*
X108458000Y-148463000D01*
X109220000Y-147320000D02*
X109220000Y-147701000D01*
X105410000Y-145321020D02*
X105410000Y-146558000D01*
X105951020Y-144780000D02*
X105410000Y-145321020D01*
X106510000Y-144780000D02*
X105951020Y-144780000D01*
X105410000Y-144311370D02*
X105410000Y-143002000D01*
X104941370Y-144780000D02*
X105410000Y-144311370D01*
X104310000Y-144780000D02*
X104941370Y-144780000D01*
X105410000Y-141859000D02*
X105410000Y-142494000D01*
X105283000Y-141732000D02*
X105410000Y-141859000D01*
X104460000Y-141732000D02*
X105283000Y-141732000D01*
X105410000Y-147828000D02*
X105410000Y-147066000D01*
X105537000Y-147955000D02*
X105410000Y-147828000D01*
X106360000Y-147955000D02*
X105537000Y-147955000D01*
X119060000Y-147955000D02*
X118237000Y-147955000D01*
X118237000Y-147955000D02*
X118110000Y-147828000D01*
X118110000Y-147828000D02*
X118110000Y-147066000D01*
X117160000Y-141732000D02*
X117983000Y-141732000D01*
X117983000Y-141732000D02*
X118110000Y-141859000D01*
X118110000Y-141859000D02*
X118110000Y-142494000D01*
X117010000Y-144780000D02*
X117641370Y-144780000D01*
X117641370Y-144780000D02*
X118110000Y-144311370D01*
X118110000Y-144311370D02*
X118110000Y-143002000D01*
X119210000Y-144780000D02*
X118651020Y-144780000D01*
X118651020Y-144780000D02*
X118110000Y-145321020D01*
X118110000Y-145321020D02*
X118110000Y-146558000D01*
X121920000Y-147320000D02*
X121920000Y-147701000D01*
X121920000Y-147701000D02*
X121158000Y-148463000D01*
X121158000Y-148463000D02*
X120523000Y-148463000D01*
X119060000Y-147955000D02*
X119126000Y-147955000D01*
X119126000Y-147955000D02*
X119634000Y-148463000D01*
X119634000Y-148463000D02*
X120015000Y-148463000D01*
X114300000Y-147320000D02*
X114300000Y-147955000D01*
X114300000Y-147955000D02*
X114808000Y-148463000D01*
X114808000Y-148463000D02*
X115697000Y-148463000D01*
X114808000Y-146875500D02*
X114300000Y-147383500D01*
X117160000Y-147955000D02*
X117094000Y-147955000D01*
X117094000Y-147955000D02*
X116586000Y-148463000D01*
X116586000Y-148463000D02*
X116205000Y-148463000D01*
X119060000Y-141732000D02*
X119126000Y-141732000D01*
X119126000Y-141732000D02*
X119634000Y-141224000D01*
X119634000Y-141224000D02*
X120015000Y-141224000D01*
X121920000Y-142240000D02*
X121920000Y-141986000D01*
X121920000Y-141986000D02*
X121158000Y-141224000D01*
X121158000Y-141224000D02*
X120523000Y-141224000D01*
X119060000Y-141732000D02*
X119126000Y-141732000D01*
X117160000Y-141732000D02*
X117094000Y-141732000D01*
X117094000Y-141732000D02*
X116586000Y-141224000D01*
X116586000Y-141224000D02*
X116205000Y-141224000D01*
X114300000Y-142240000D02*
X114300000Y-141859000D01*
X114300000Y-141859000D02*
X114935000Y-141224000D01*
X114935000Y-141224000D02*
X115697000Y-141224000D01*
X119210000Y-144780000D02*
X121920000Y-144780000D01*
X116713000Y-146875500D02*
X114808000Y-146875500D01*
X117010000Y-146578500D02*
X116713000Y-146875500D01*
X117010000Y-145793500D02*
X117010000Y-146578500D01*
X121419620Y-146883120D02*
X121920000Y-147383500D01*
X119526050Y-146883120D02*
X121419620Y-146883120D01*
X119210000Y-146567070D02*
X119526050Y-146883120D01*
X119210000Y-145793500D02*
X119210000Y-146567070D01*
X117010000Y-143830000D02*
X117010000Y-143056430D01*
X117010000Y-143056430D02*
X116693950Y-142740380D01*
X116693950Y-142740380D02*
X114800380Y-142740380D01*
X114800380Y-142740380D02*
X114300000Y-142240000D01*
X119210000Y-143830000D02*
X119210000Y-143045000D01*
X119210000Y-143045000D02*
X119507000Y-142748000D01*
X119507000Y-142748000D02*
X121412000Y-142748000D01*
X121412000Y-142748000D02*
X121920000Y-142240000D01*
X117010000Y-144780000D02*
X114300000Y-144780000D01*
X129710000Y-144780000D02*
X127000000Y-144780000D01*
X134112000Y-142748000D02*
X134620000Y-142240000D01*
X132207000Y-142748000D02*
X134112000Y-142748000D01*
X131910000Y-143045000D02*
X132207000Y-142748000D01*
X131910000Y-143830000D02*
X131910000Y-143045000D01*
X127500380Y-142740380D02*
X127000000Y-142240000D01*
X129393950Y-142740380D02*
X127500380Y-142740380D01*
X129710000Y-143056430D02*
X129393950Y-142740380D01*
X129710000Y-143830000D02*
X129710000Y-143056430D01*
X131910000Y-145793500D02*
X131910000Y-146567070D01*
X131910000Y-146567070D02*
X132226050Y-146883120D01*
X132226050Y-146883120D02*
X134119620Y-146883120D01*
X134119620Y-146883120D02*
X134620000Y-147383500D01*
X129710000Y-145793500D02*
X129710000Y-146578500D01*
X129710000Y-146578500D02*
X129413000Y-146875500D01*
X129413000Y-146875500D02*
X127508000Y-146875500D01*
X131910000Y-144780000D02*
X134620000Y-144780000D01*
X127635000Y-141224000D02*
X128397000Y-141224000D01*
X127000000Y-141859000D02*
X127635000Y-141224000D01*
X127000000Y-142240000D02*
X127000000Y-141859000D01*
X129286000Y-141224000D02*
X128905000Y-141224000D01*
X129794000Y-141732000D02*
X129286000Y-141224000D01*
X129860000Y-141732000D02*
X129794000Y-141732000D01*
X131760000Y-141732000D02*
X131826000Y-141732000D01*
X133858000Y-141224000D02*
X133223000Y-141224000D01*
X134620000Y-141986000D02*
X133858000Y-141224000D01*
X134620000Y-142240000D02*
X134620000Y-141986000D01*
X132334000Y-141224000D02*
X132715000Y-141224000D01*
X131826000Y-141732000D02*
X132334000Y-141224000D01*
X131760000Y-141732000D02*
X131826000Y-141732000D01*
X129286000Y-148463000D02*
X128905000Y-148463000D01*
X129794000Y-147955000D02*
X129286000Y-148463000D01*
X129860000Y-147955000D02*
X129794000Y-147955000D01*
X127508000Y-146875500D02*
X127000000Y-147383500D01*
X127508000Y-148463000D02*
X128397000Y-148463000D01*
X127000000Y-147955000D02*
X127508000Y-148463000D01*
X127000000Y-147320000D02*
X127000000Y-147955000D01*
X132334000Y-148463000D02*
X132715000Y-148463000D01*
X131826000Y-147955000D02*
X132334000Y-148463000D01*
X131760000Y-147955000D02*
X131826000Y-147955000D01*
X133858000Y-148463000D02*
X133223000Y-148463000D01*
X134620000Y-147701000D02*
X133858000Y-148463000D01*
X134620000Y-147320000D02*
X134620000Y-147701000D01*
X130810000Y-145321020D02*
X130810000Y-146558000D01*
X131351020Y-144780000D02*
X130810000Y-145321020D01*
X131910000Y-144780000D02*
X131351020Y-144780000D01*
X130810000Y-144311370D02*
X130810000Y-143002000D01*
X130341370Y-144780000D02*
X130810000Y-144311370D01*
X129710000Y-144780000D02*
X130341370Y-144780000D01*
X130810000Y-141859000D02*
X130810000Y-142494000D01*
X130683000Y-141732000D02*
X130810000Y-141859000D01*
X129860000Y-141732000D02*
X130683000Y-141732000D01*
X130810000Y-147828000D02*
X130810000Y-147066000D01*
X130937000Y-147955000D02*
X130810000Y-147828000D01*
X131760000Y-147955000D02*
X130937000Y-147955000D01*
X144460000Y-147955000D02*
X143637000Y-147955000D01*
X143637000Y-147955000D02*
X143510000Y-147828000D01*
X143510000Y-147828000D02*
X143510000Y-147066000D01*
X142560000Y-141732000D02*
X143383000Y-141732000D01*
X143383000Y-141732000D02*
X143510000Y-141859000D01*
X143510000Y-141859000D02*
X143510000Y-142494000D01*
X142410000Y-144780000D02*
X143041370Y-144780000D01*
X143041370Y-144780000D02*
X143510000Y-144311370D01*
X143510000Y-144311370D02*
X143510000Y-143002000D01*
X144610000Y-144780000D02*
X144051020Y-144780000D01*
X144051020Y-144780000D02*
X143510000Y-145321020D01*
X143510000Y-145321020D02*
X143510000Y-146558000D01*
X147320000Y-147320000D02*
X147320000Y-147701000D01*
X147320000Y-147701000D02*
X146558000Y-148463000D01*
X146558000Y-148463000D02*
X145923000Y-148463000D01*
X144460000Y-147955000D02*
X144526000Y-147955000D01*
X144526000Y-147955000D02*
X145034000Y-148463000D01*
X145034000Y-148463000D02*
X145415000Y-148463000D01*
X139700000Y-147320000D02*
X139700000Y-147955000D01*
X139700000Y-147955000D02*
X140208000Y-148463000D01*
X140208000Y-148463000D02*
X141097000Y-148463000D01*
X140208000Y-146875500D02*
X139700000Y-147383500D01*
X142560000Y-147955000D02*
X142494000Y-147955000D01*
X142494000Y-147955000D02*
X141986000Y-148463000D01*
X141986000Y-148463000D02*
X141605000Y-148463000D01*
X144460000Y-141732000D02*
X144526000Y-141732000D01*
X144526000Y-141732000D02*
X145034000Y-141224000D01*
X145034000Y-141224000D02*
X145415000Y-141224000D01*
X147320000Y-142240000D02*
X147320000Y-141986000D01*
X147320000Y-141986000D02*
X146558000Y-141224000D01*
X146558000Y-141224000D02*
X145923000Y-141224000D01*
X144460000Y-141732000D02*
X144526000Y-141732000D01*
X142560000Y-141732000D02*
X142494000Y-141732000D01*
X142494000Y-141732000D02*
X141986000Y-141224000D01*
X141986000Y-141224000D02*
X141605000Y-141224000D01*
X139700000Y-142240000D02*
X139700000Y-141859000D01*
X139700000Y-141859000D02*
X140335000Y-141224000D01*
X140335000Y-141224000D02*
X141097000Y-141224000D01*
X144610000Y-144780000D02*
X147320000Y-144780000D01*
X142113000Y-146875500D02*
X140208000Y-146875500D01*
X142410000Y-146578500D02*
X142113000Y-146875500D01*
X142410000Y-145793500D02*
X142410000Y-146578500D01*
X146819620Y-146883120D02*
X147320000Y-147383500D01*
X144926050Y-146883120D02*
X146819620Y-146883120D01*
X144610000Y-146567070D02*
X144926050Y-146883120D01*
X144610000Y-145793500D02*
X144610000Y-146567070D01*
X142410000Y-143830000D02*
X142410000Y-143056430D01*
X142410000Y-143056430D02*
X142093950Y-142740380D01*
X142093950Y-142740380D02*
X140200380Y-142740380D01*
X140200380Y-142740380D02*
X139700000Y-142240000D01*
X144610000Y-143830000D02*
X144610000Y-143045000D01*
X144610000Y-143045000D02*
X144907000Y-142748000D01*
X144907000Y-142748000D02*
X146812000Y-142748000D01*
X146812000Y-142748000D02*
X147320000Y-142240000D01*
X142410000Y-144780000D02*
X139700000Y-144780000D01*
X104310000Y-124460000D02*
X101600000Y-124460000D01*
X108712000Y-122428000D02*
X109220000Y-121920000D01*
X106807000Y-122428000D02*
X108712000Y-122428000D01*
X106510000Y-122725000D02*
X106807000Y-122428000D01*
X106510000Y-123510000D02*
X106510000Y-122725000D01*
X102100380Y-122420380D02*
X101600000Y-121920000D01*
X103993950Y-122420380D02*
X102100380Y-122420380D01*
X104310000Y-122736430D02*
X103993950Y-122420380D01*
X104310000Y-123510000D02*
X104310000Y-122736430D01*
X106510000Y-125473500D02*
X106510000Y-126247070D01*
X106510000Y-126247070D02*
X106826050Y-126563120D01*
X106826050Y-126563120D02*
X108719620Y-126563120D01*
X108719620Y-126563120D02*
X109220000Y-127063500D01*
X104310000Y-125473500D02*
X104310000Y-126258500D01*
X104310000Y-126258500D02*
X104013000Y-126555500D01*
X104013000Y-126555500D02*
X102108000Y-126555500D01*
X106510000Y-124460000D02*
X109220000Y-124460000D01*
X102235000Y-120904000D02*
X102997000Y-120904000D01*
X101600000Y-121539000D02*
X102235000Y-120904000D01*
X101600000Y-121920000D02*
X101600000Y-121539000D01*
X103886000Y-120904000D02*
X103505000Y-120904000D01*
X104394000Y-121412000D02*
X103886000Y-120904000D01*
X104460000Y-121412000D02*
X104394000Y-121412000D01*
X106360000Y-121412000D02*
X106426000Y-121412000D01*
X108458000Y-120904000D02*
X107823000Y-120904000D01*
X109220000Y-121666000D02*
X108458000Y-120904000D01*
X109220000Y-121920000D02*
X109220000Y-121666000D01*
X106934000Y-120904000D02*
X107315000Y-120904000D01*
X106426000Y-121412000D02*
X106934000Y-120904000D01*
X106360000Y-121412000D02*
X106426000Y-121412000D01*
X103886000Y-128143000D02*
X103505000Y-128143000D01*
X104394000Y-127635000D02*
X103886000Y-128143000D01*
X104460000Y-127635000D02*
X104394000Y-127635000D01*
X102108000Y-126555500D02*
X101600000Y-127063500D01*
X102108000Y-128143000D02*
X102997000Y-128143000D01*
X101600000Y-127635000D02*
X102108000Y-128143000D01*
X101600000Y-127000000D02*
X101600000Y-127635000D01*
X106934000Y-128143000D02*
X107315000Y-128143000D01*
X106426000Y-127635000D02*
X106934000Y-128143000D01*
X106360000Y-127635000D02*
X106426000Y-127635000D01*
X108458000Y-128143000D02*
X107823000Y-128143000D01*
X109220000Y-127381000D02*
X108458000Y-128143000D01*
X109220000Y-127000000D02*
X109220000Y-127381000D01*
X105410000Y-125001020D02*
X105410000Y-126238000D01*
X105951020Y-124460000D02*
X105410000Y-125001020D01*
X106510000Y-124460000D02*
X105951020Y-124460000D01*
X105410000Y-123991370D02*
X105410000Y-122682000D01*
X104941370Y-124460000D02*
X105410000Y-123991370D01*
X104310000Y-124460000D02*
X104941370Y-124460000D01*
X105410000Y-121539000D02*
X105410000Y-122174000D01*
X105283000Y-121412000D02*
X105410000Y-121539000D01*
X104460000Y-121412000D02*
X105283000Y-121412000D01*
X105410000Y-127508000D02*
X105410000Y-126746000D01*
X105537000Y-127635000D02*
X105410000Y-127508000D01*
X106360000Y-127635000D02*
X105537000Y-127635000D01*
X119060000Y-127635000D02*
X118237000Y-127635000D01*
X118237000Y-127635000D02*
X118110000Y-127508000D01*
X118110000Y-127508000D02*
X118110000Y-126746000D01*
X117160000Y-121412000D02*
X117983000Y-121412000D01*
X117983000Y-121412000D02*
X118110000Y-121539000D01*
X118110000Y-121539000D02*
X118110000Y-122174000D01*
X117010000Y-124460000D02*
X117641370Y-124460000D01*
X117641370Y-124460000D02*
X118110000Y-123991370D01*
X118110000Y-123991370D02*
X118110000Y-122682000D01*
X119210000Y-124460000D02*
X118651020Y-124460000D01*
X118651020Y-124460000D02*
X118110000Y-125001020D01*
X118110000Y-125001020D02*
X118110000Y-126238000D01*
X121920000Y-127000000D02*
X121920000Y-127381000D01*
X121920000Y-127381000D02*
X121158000Y-128143000D01*
X121158000Y-128143000D02*
X120523000Y-128143000D01*
X119060000Y-127635000D02*
X119126000Y-127635000D01*
X119126000Y-127635000D02*
X119634000Y-128143000D01*
X119634000Y-128143000D02*
X120015000Y-128143000D01*
X114300000Y-127000000D02*
X114300000Y-127635000D01*
X114300000Y-127635000D02*
X114808000Y-128143000D01*
X114808000Y-128143000D02*
X115697000Y-128143000D01*
X114808000Y-126555500D02*
X114300000Y-127063500D01*
X117160000Y-127635000D02*
X117094000Y-127635000D01*
X117094000Y-127635000D02*
X116586000Y-128143000D01*
X116586000Y-128143000D02*
X116205000Y-128143000D01*
X119060000Y-121412000D02*
X119126000Y-121412000D01*
X119126000Y-121412000D02*
X119634000Y-120904000D01*
X119634000Y-120904000D02*
X120015000Y-120904000D01*
X121920000Y-121920000D02*
X121920000Y-121666000D01*
X121920000Y-121666000D02*
X121158000Y-120904000D01*
X121158000Y-120904000D02*
X120523000Y-120904000D01*
X119060000Y-121412000D02*
X119126000Y-121412000D01*
X117160000Y-121412000D02*
X117094000Y-121412000D01*
X117094000Y-121412000D02*
X116586000Y-120904000D01*
X116586000Y-120904000D02*
X116205000Y-120904000D01*
X114300000Y-121920000D02*
X114300000Y-121539000D01*
X114300000Y-121539000D02*
X114935000Y-120904000D01*
X114935000Y-120904000D02*
X115697000Y-120904000D01*
X119210000Y-124460000D02*
X121920000Y-124460000D01*
X116713000Y-126555500D02*
X114808000Y-126555500D01*
X117010000Y-126258500D02*
X116713000Y-126555500D01*
X117010000Y-125473500D02*
X117010000Y-126258500D01*
X121419620Y-126563120D02*
X121920000Y-127063500D01*
X119526050Y-126563120D02*
X121419620Y-126563120D01*
X119210000Y-126247070D02*
X119526050Y-126563120D01*
X119210000Y-125473500D02*
X119210000Y-126247070D01*
X117010000Y-123510000D02*
X117010000Y-122736430D01*
X117010000Y-122736430D02*
X116693950Y-122420380D01*
X116693950Y-122420380D02*
X114800380Y-122420380D01*
X114800380Y-122420380D02*
X114300000Y-121920000D01*
X119210000Y-123510000D02*
X119210000Y-122725000D01*
X119210000Y-122725000D02*
X119507000Y-122428000D01*
X119507000Y-122428000D02*
X121412000Y-122428000D01*
X121412000Y-122428000D02*
X121920000Y-121920000D01*
X117010000Y-124460000D02*
X114300000Y-124460000D01*
X129710000Y-124460000D02*
X127000000Y-124460000D01*
X134112000Y-122428000D02*
X134620000Y-121920000D01*
X132207000Y-122428000D02*
X134112000Y-122428000D01*
X131910000Y-122725000D02*
X132207000Y-122428000D01*
X131910000Y-123510000D02*
X131910000Y-122725000D01*
X127500380Y-122420380D02*
X127000000Y-121920000D01*
X129393950Y-122420380D02*
X127500380Y-122420380D01*
X129710000Y-122736430D02*
X129393950Y-122420380D01*
X129710000Y-123510000D02*
X129710000Y-122736430D01*
X131910000Y-125473500D02*
X131910000Y-126247070D01*
X131910000Y-126247070D02*
X132226050Y-126563120D01*
X132226050Y-126563120D02*
X134119620Y-126563120D01*
X134119620Y-126563120D02*
X134620000Y-127063500D01*
X129710000Y-125473500D02*
X129710000Y-126258500D01*
X129710000Y-126258500D02*
X129413000Y-126555500D01*
X129413000Y-126555500D02*
X127508000Y-126555500D01*
X131910000Y-124460000D02*
X134620000Y-124460000D01*
X127635000Y-120904000D02*
X128397000Y-120904000D01*
X127000000Y-121539000D02*
X127635000Y-120904000D01*
X127000000Y-121920000D02*
X127000000Y-121539000D01*
X129286000Y-120904000D02*
X128905000Y-120904000D01*
X129794000Y-121412000D02*
X129286000Y-120904000D01*
X129860000Y-121412000D02*
X129794000Y-121412000D01*
X131760000Y-121412000D02*
X131826000Y-121412000D01*
X133858000Y-120904000D02*
X133223000Y-120904000D01*
X134620000Y-121666000D02*
X133858000Y-120904000D01*
X134620000Y-121920000D02*
X134620000Y-121666000D01*
X132334000Y-120904000D02*
X132715000Y-120904000D01*
X131826000Y-121412000D02*
X132334000Y-120904000D01*
X131760000Y-121412000D02*
X131826000Y-121412000D01*
X129286000Y-128143000D02*
X128905000Y-128143000D01*
X129794000Y-127635000D02*
X129286000Y-128143000D01*
X129860000Y-127635000D02*
X129794000Y-127635000D01*
X127508000Y-126555500D02*
X127000000Y-127063500D01*
X127508000Y-128143000D02*
X128397000Y-128143000D01*
X127000000Y-127635000D02*
X127508000Y-128143000D01*
X127000000Y-127000000D02*
X127000000Y-127635000D01*
X132334000Y-128143000D02*
X132715000Y-128143000D01*
X131826000Y-127635000D02*
X132334000Y-128143000D01*
X131760000Y-127635000D02*
X131826000Y-127635000D01*
X133858000Y-128143000D02*
X133223000Y-128143000D01*
X134620000Y-127381000D02*
X133858000Y-128143000D01*
X134620000Y-127000000D02*
X134620000Y-127381000D01*
X130810000Y-125001020D02*
X130810000Y-126238000D01*
X131351020Y-124460000D02*
X130810000Y-125001020D01*
X131910000Y-124460000D02*
X131351020Y-124460000D01*
X130810000Y-123991370D02*
X130810000Y-122682000D01*
X130341370Y-124460000D02*
X130810000Y-123991370D01*
X129710000Y-124460000D02*
X130341370Y-124460000D01*
X130810000Y-121539000D02*
X130810000Y-122174000D01*
X130683000Y-121412000D02*
X130810000Y-121539000D01*
X129860000Y-121412000D02*
X130683000Y-121412000D01*
X130810000Y-127508000D02*
X130810000Y-126746000D01*
X130937000Y-127635000D02*
X130810000Y-127508000D01*
X131760000Y-127635000D02*
X130937000Y-127635000D01*
X144460000Y-127635000D02*
X143637000Y-127635000D01*
X143637000Y-127635000D02*
X143510000Y-127508000D01*
X143510000Y-127508000D02*
X143510000Y-126746000D01*
X142560000Y-121412000D02*
X143383000Y-121412000D01*
X143383000Y-121412000D02*
X143510000Y-121539000D01*
X143510000Y-121539000D02*
X143510000Y-122174000D01*
X142410000Y-124460000D02*
X143041370Y-124460000D01*
X143041370Y-124460000D02*
X143510000Y-123991370D01*
X143510000Y-123991370D02*
X143510000Y-122682000D01*
X144610000Y-124460000D02*
X144051020Y-124460000D01*
X144051020Y-124460000D02*
X143510000Y-125001020D01*
X143510000Y-125001020D02*
X143510000Y-126238000D01*
X147320000Y-127000000D02*
X147320000Y-127381000D01*
X147320000Y-127381000D02*
X146558000Y-128143000D01*
X146558000Y-128143000D02*
X145923000Y-128143000D01*
X144460000Y-127635000D02*
X144526000Y-127635000D01*
X144526000Y-127635000D02*
X145034000Y-128143000D01*
X145034000Y-128143000D02*
X145415000Y-128143000D01*
X139700000Y-127000000D02*
X139700000Y-127635000D01*
X139700000Y-127635000D02*
X140208000Y-128143000D01*
X140208000Y-128143000D02*
X141097000Y-128143000D01*
X140208000Y-126555500D02*
X139700000Y-127063500D01*
X142560000Y-127635000D02*
X142494000Y-127635000D01*
X142494000Y-127635000D02*
X141986000Y-128143000D01*
X141986000Y-128143000D02*
X141605000Y-128143000D01*
X144460000Y-121412000D02*
X144526000Y-121412000D01*
X144526000Y-121412000D02*
X145034000Y-120904000D01*
X145034000Y-120904000D02*
X145415000Y-120904000D01*
X147320000Y-121920000D02*
X147320000Y-121666000D01*
X147320000Y-121666000D02*
X146558000Y-120904000D01*
X146558000Y-120904000D02*
X145923000Y-120904000D01*
X144460000Y-121412000D02*
X144526000Y-121412000D01*
X142560000Y-121412000D02*
X142494000Y-121412000D01*
X142494000Y-121412000D02*
X141986000Y-120904000D01*
X141986000Y-120904000D02*
X141605000Y-120904000D01*
X139700000Y-121920000D02*
X139700000Y-121539000D01*
X139700000Y-121539000D02*
X140335000Y-120904000D01*
X140335000Y-120904000D02*
X141097000Y-120904000D01*
X144610000Y-124460000D02*
X147320000Y-124460000D01*
X142113000Y-126555500D02*
X140208000Y-126555500D01*
X142410000Y-126258500D02*
X142113000Y-126555500D01*
X142410000Y-125473500D02*
X142410000Y-126258500D01*
X146819620Y-126563120D02*
X147320000Y-127063500D01*
X144926050Y-126563120D02*
X146819620Y-126563120D01*
X144610000Y-126247070D02*
X144926050Y-126563120D01*
X144610000Y-125473500D02*
X144610000Y-126247070D01*
X142410000Y-123510000D02*
X142410000Y-122736430D01*
X142410000Y-122736430D02*
X142093950Y-122420380D01*
X142093950Y-122420380D02*
X140200380Y-122420380D01*
X140200380Y-122420380D02*
X139700000Y-121920000D01*
X144610000Y-123510000D02*
X144610000Y-122725000D01*
X144610000Y-122725000D02*
X144907000Y-122428000D01*
X144907000Y-122428000D02*
X146812000Y-122428000D01*
X146812000Y-122428000D02*
X147320000Y-121920000D01*
X142410000Y-124460000D02*
X139700000Y-124460000D01*
X142410000Y-134620000D02*
X139700000Y-134620000D01*
X146812000Y-132588000D02*
X147320000Y-132080000D01*
X144907000Y-132588000D02*
X146812000Y-132588000D01*
X144610000Y-132885000D02*
X144907000Y-132588000D01*
X144610000Y-133670000D02*
X144610000Y-132885000D01*
X140200380Y-132580380D02*
X139700000Y-132080000D01*
X142093950Y-132580380D02*
X140200380Y-132580380D01*
X142410000Y-132896430D02*
X142093950Y-132580380D01*
X142410000Y-133670000D02*
X142410000Y-132896430D01*
X144610000Y-135633500D02*
X144610000Y-136407070D01*
X144610000Y-136407070D02*
X144926050Y-136723120D01*
X144926050Y-136723120D02*
X146819620Y-136723120D01*
X146819620Y-136723120D02*
X147320000Y-137223500D01*
X142410000Y-135633500D02*
X142410000Y-136418500D01*
X142410000Y-136418500D02*
X142113000Y-136715500D01*
X142113000Y-136715500D02*
X140208000Y-136715500D01*
X144610000Y-134620000D02*
X147320000Y-134620000D01*
X140335000Y-131064000D02*
X141097000Y-131064000D01*
X139700000Y-131699000D02*
X140335000Y-131064000D01*
X139700000Y-132080000D02*
X139700000Y-131699000D01*
X141986000Y-131064000D02*
X141605000Y-131064000D01*
X142494000Y-131572000D02*
X141986000Y-131064000D01*
X142560000Y-131572000D02*
X142494000Y-131572000D01*
X144460000Y-131572000D02*
X144526000Y-131572000D01*
X146558000Y-131064000D02*
X145923000Y-131064000D01*
X147320000Y-131826000D02*
X146558000Y-131064000D01*
X147320000Y-132080000D02*
X147320000Y-131826000D01*
X145034000Y-131064000D02*
X145415000Y-131064000D01*
X144526000Y-131572000D02*
X145034000Y-131064000D01*
X144460000Y-131572000D02*
X144526000Y-131572000D01*
X141986000Y-138303000D02*
X141605000Y-138303000D01*
X142494000Y-137795000D02*
X141986000Y-138303000D01*
X142560000Y-137795000D02*
X142494000Y-137795000D01*
X140208000Y-136715500D02*
X139700000Y-137223500D01*
X140208000Y-138303000D02*
X141097000Y-138303000D01*
X139700000Y-137795000D02*
X140208000Y-138303000D01*
X139700000Y-137160000D02*
X139700000Y-137795000D01*
X145034000Y-138303000D02*
X145415000Y-138303000D01*
X144526000Y-137795000D02*
X145034000Y-138303000D01*
X144460000Y-137795000D02*
X144526000Y-137795000D01*
X146558000Y-138303000D02*
X145923000Y-138303000D01*
X147320000Y-137541000D02*
X146558000Y-138303000D01*
X147320000Y-137160000D02*
X147320000Y-137541000D01*
X143510000Y-135161020D02*
X143510000Y-136398000D01*
X144051020Y-134620000D02*
X143510000Y-135161020D01*
X144610000Y-134620000D02*
X144051020Y-134620000D01*
X143510000Y-134151370D02*
X143510000Y-132842000D01*
X143041370Y-134620000D02*
X143510000Y-134151370D01*
X142410000Y-134620000D02*
X143041370Y-134620000D01*
X143510000Y-131699000D02*
X143510000Y-132334000D01*
X143383000Y-131572000D02*
X143510000Y-131699000D01*
X142560000Y-131572000D02*
X143383000Y-131572000D01*
X143510000Y-137668000D02*
X143510000Y-136906000D01*
X143637000Y-137795000D02*
X143510000Y-137668000D01*
X144460000Y-137795000D02*
X143637000Y-137795000D01*
X131760000Y-137795000D02*
X130937000Y-137795000D01*
X130937000Y-137795000D02*
X130810000Y-137668000D01*
X130810000Y-137668000D02*
X130810000Y-136906000D01*
X129860000Y-131572000D02*
X130683000Y-131572000D01*
X130683000Y-131572000D02*
X130810000Y-131699000D01*
X130810000Y-131699000D02*
X130810000Y-132334000D01*
X129710000Y-134620000D02*
X130341370Y-134620000D01*
X130341370Y-134620000D02*
X130810000Y-134151370D01*
X130810000Y-134151370D02*
X130810000Y-132842000D01*
X131910000Y-134620000D02*
X131351020Y-134620000D01*
X131351020Y-134620000D02*
X130810000Y-135161020D01*
X130810000Y-135161020D02*
X130810000Y-136398000D01*
X134620000Y-137160000D02*
X134620000Y-137541000D01*
X134620000Y-137541000D02*
X133858000Y-138303000D01*
X133858000Y-138303000D02*
X133223000Y-138303000D01*
X131760000Y-137795000D02*
X131826000Y-137795000D01*
X131826000Y-137795000D02*
X132334000Y-138303000D01*
X132334000Y-138303000D02*
X132715000Y-138303000D01*
X127000000Y-137160000D02*
X127000000Y-137795000D01*
X127000000Y-137795000D02*
X127508000Y-138303000D01*
X127508000Y-138303000D02*
X128397000Y-138303000D01*
X127508000Y-136715500D02*
X127000000Y-137223500D01*
X129860000Y-137795000D02*
X129794000Y-137795000D01*
X129794000Y-137795000D02*
X129286000Y-138303000D01*
X129286000Y-138303000D02*
X128905000Y-138303000D01*
X131760000Y-131572000D02*
X131826000Y-131572000D01*
X131826000Y-131572000D02*
X132334000Y-131064000D01*
X132334000Y-131064000D02*
X132715000Y-131064000D01*
X134620000Y-132080000D02*
X134620000Y-131826000D01*
X134620000Y-131826000D02*
X133858000Y-131064000D01*
X133858000Y-131064000D02*
X133223000Y-131064000D01*
X131760000Y-131572000D02*
X131826000Y-131572000D01*
X129860000Y-131572000D02*
X129794000Y-131572000D01*
X129794000Y-131572000D02*
X129286000Y-131064000D01*
X129286000Y-131064000D02*
X128905000Y-131064000D01*
X127000000Y-132080000D02*
X127000000Y-131699000D01*
X127000000Y-131699000D02*
X127635000Y-131064000D01*
X127635000Y-131064000D02*
X128397000Y-131064000D01*
X131910000Y-134620000D02*
X134620000Y-134620000D01*
X129413000Y-136715500D02*
X127508000Y-136715500D01*
X129710000Y-136418500D02*
X129413000Y-136715500D01*
X129710000Y-135633500D02*
X129710000Y-136418500D01*
X134119620Y-136723120D02*
X134620000Y-137223500D01*
X132226050Y-136723120D02*
X134119620Y-136723120D01*
X131910000Y-136407070D02*
X132226050Y-136723120D01*
X131910000Y-135633500D02*
X131910000Y-136407070D01*
X129710000Y-133670000D02*
X129710000Y-132896430D01*
X129710000Y-132896430D02*
X129393950Y-132580380D01*
X129393950Y-132580380D02*
X127500380Y-132580380D01*
X127500380Y-132580380D02*
X127000000Y-132080000D01*
X131910000Y-133670000D02*
X131910000Y-132885000D01*
X131910000Y-132885000D02*
X132207000Y-132588000D01*
X132207000Y-132588000D02*
X134112000Y-132588000D01*
X134112000Y-132588000D02*
X134620000Y-132080000D01*
X129710000Y-134620000D02*
X127000000Y-134620000D01*
X117010000Y-134620000D02*
X114300000Y-134620000D01*
X121412000Y-132588000D02*
X121920000Y-132080000D01*
X119507000Y-132588000D02*
X121412000Y-132588000D01*
X119210000Y-132885000D02*
X119507000Y-132588000D01*
X119210000Y-133670000D02*
X119210000Y-132885000D01*
X114800380Y-132580380D02*
X114300000Y-132080000D01*
X116693950Y-132580380D02*
X114800380Y-132580380D01*
X117010000Y-132896430D02*
X116693950Y-132580380D01*
X117010000Y-133670000D02*
X117010000Y-132896430D01*
X119210000Y-135633500D02*
X119210000Y-136407070D01*
X119210000Y-136407070D02*
X119526050Y-136723120D01*
X119526050Y-136723120D02*
X121419620Y-136723120D01*
X121419620Y-136723120D02*
X121920000Y-137223500D01*
X117010000Y-135633500D02*
X117010000Y-136418500D01*
X117010000Y-136418500D02*
X116713000Y-136715500D01*
X116713000Y-136715500D02*
X114808000Y-136715500D01*
X119210000Y-134620000D02*
X121920000Y-134620000D01*
X114935000Y-131064000D02*
X115697000Y-131064000D01*
X114300000Y-131699000D02*
X114935000Y-131064000D01*
X114300000Y-132080000D02*
X114300000Y-131699000D01*
X116586000Y-131064000D02*
X116205000Y-131064000D01*
X117094000Y-131572000D02*
X116586000Y-131064000D01*
X117160000Y-131572000D02*
X117094000Y-131572000D01*
X119060000Y-131572000D02*
X119126000Y-131572000D01*
X121158000Y-131064000D02*
X120523000Y-131064000D01*
X121920000Y-131826000D02*
X121158000Y-131064000D01*
X121920000Y-132080000D02*
X121920000Y-131826000D01*
X119634000Y-131064000D02*
X120015000Y-131064000D01*
X119126000Y-131572000D02*
X119634000Y-131064000D01*
X119060000Y-131572000D02*
X119126000Y-131572000D01*
X116586000Y-138303000D02*
X116205000Y-138303000D01*
X117094000Y-137795000D02*
X116586000Y-138303000D01*
X117160000Y-137795000D02*
X117094000Y-137795000D01*
X114808000Y-136715500D02*
X114300000Y-137223500D01*
X114808000Y-138303000D02*
X115697000Y-138303000D01*
X114300000Y-137795000D02*
X114808000Y-138303000D01*
X114300000Y-137160000D02*
X114300000Y-137795000D01*
X119634000Y-138303000D02*
X120015000Y-138303000D01*
X119126000Y-137795000D02*
X119634000Y-138303000D01*
X119060000Y-137795000D02*
X119126000Y-137795000D01*
X121158000Y-138303000D02*
X120523000Y-138303000D01*
X121920000Y-137541000D02*
X121158000Y-138303000D01*
X121920000Y-137160000D02*
X121920000Y-137541000D01*
X118110000Y-135161020D02*
X118110000Y-136398000D01*
X118651020Y-134620000D02*
X118110000Y-135161020D01*
X119210000Y-134620000D02*
X118651020Y-134620000D01*
X118110000Y-134151370D02*
X118110000Y-132842000D01*
X117641370Y-134620000D02*
X118110000Y-134151370D01*
X117010000Y-134620000D02*
X117641370Y-134620000D01*
X118110000Y-131699000D02*
X118110000Y-132334000D01*
X117983000Y-131572000D02*
X118110000Y-131699000D01*
X117160000Y-131572000D02*
X117983000Y-131572000D01*
X118110000Y-137668000D02*
X118110000Y-136906000D01*
X118237000Y-137795000D02*
X118110000Y-137668000D01*
X119060000Y-137795000D02*
X118237000Y-137795000D01*
X106360000Y-137795000D02*
X105537000Y-137795000D01*
X105537000Y-137795000D02*
X105410000Y-137668000D01*
X105410000Y-137668000D02*
X105410000Y-136906000D01*
X104460000Y-131572000D02*
X105283000Y-131572000D01*
X105283000Y-131572000D02*
X105410000Y-131699000D01*
X105410000Y-131699000D02*
X105410000Y-132334000D01*
X104310000Y-134620000D02*
X104941370Y-134620000D01*
X104941370Y-134620000D02*
X105410000Y-134151370D01*
X105410000Y-134151370D02*
X105410000Y-132842000D01*
X106510000Y-134620000D02*
X105951020Y-134620000D01*
X105951020Y-134620000D02*
X105410000Y-135161020D01*
X105410000Y-135161020D02*
X105410000Y-136398000D01*
X109220000Y-137160000D02*
X109220000Y-137541000D01*
X109220000Y-137541000D02*
X108458000Y-138303000D01*
X108458000Y-138303000D02*
X107823000Y-138303000D01*
X106360000Y-137795000D02*
X106426000Y-137795000D01*
X106426000Y-137795000D02*
X106934000Y-138303000D01*
X106934000Y-138303000D02*
X107315000Y-138303000D01*
X101600000Y-137160000D02*
X101600000Y-137795000D01*
X101600000Y-137795000D02*
X102108000Y-138303000D01*
X102108000Y-138303000D02*
X102997000Y-138303000D01*
X102108000Y-136715500D02*
X101600000Y-137223500D01*
X104460000Y-137795000D02*
X104394000Y-137795000D01*
X104394000Y-137795000D02*
X103886000Y-138303000D01*
X103886000Y-138303000D02*
X103505000Y-138303000D01*
X106360000Y-131572000D02*
X106426000Y-131572000D01*
X106426000Y-131572000D02*
X106934000Y-131064000D01*
X106934000Y-131064000D02*
X107315000Y-131064000D01*
X109220000Y-132080000D02*
X109220000Y-131826000D01*
X109220000Y-131826000D02*
X108458000Y-131064000D01*
X108458000Y-131064000D02*
X107823000Y-131064000D01*
X106360000Y-131572000D02*
X106426000Y-131572000D01*
X104460000Y-131572000D02*
X104394000Y-131572000D01*
X104394000Y-131572000D02*
X103886000Y-131064000D01*
X103886000Y-131064000D02*
X103505000Y-131064000D01*
X101600000Y-132080000D02*
X101600000Y-131699000D01*
X101600000Y-131699000D02*
X102235000Y-131064000D01*
X102235000Y-131064000D02*
X102997000Y-131064000D01*
X106510000Y-134620000D02*
X109220000Y-134620000D01*
X104013000Y-136715500D02*
X102108000Y-136715500D01*
X104310000Y-136418500D02*
X104013000Y-136715500D01*
X104310000Y-135633500D02*
X104310000Y-136418500D01*
X108719620Y-136723120D02*
X109220000Y-137223500D01*
X106826050Y-136723120D02*
X108719620Y-136723120D01*
X106510000Y-136407070D02*
X106826050Y-136723120D01*
X106510000Y-135633500D02*
X106510000Y-136407070D01*
X104310000Y-133670000D02*
X104310000Y-132896430D01*
X104310000Y-132896430D02*
X103993950Y-132580380D01*
X103993950Y-132580380D02*
X102100380Y-132580380D01*
X102100380Y-132580380D02*
X101600000Y-132080000D01*
X106510000Y-133670000D02*
X106510000Y-132885000D01*
X106510000Y-132885000D02*
X106807000Y-132588000D01*
X106807000Y-132588000D02*
X108712000Y-132588000D01*
X108712000Y-132588000D02*
X109220000Y-132080000D01*
X104310000Y-134620000D02*
X101600000Y-134620000D01*
X104310000Y-114300000D02*
X101600000Y-114300000D01*
X108712000Y-112268000D02*
X109220000Y-111760000D01*
X106807000Y-112268000D02*
X108712000Y-112268000D01*
X106510000Y-112565000D02*
X106807000Y-112268000D01*
X106510000Y-113350000D02*
X106510000Y-112565000D01*
X102100380Y-112260380D02*
X101600000Y-111760000D01*
X103993950Y-112260380D02*
X102100380Y-112260380D01*
X104310000Y-112576430D02*
X103993950Y-112260380D01*
X104310000Y-113350000D02*
X104310000Y-112576430D01*
X106510000Y-115313500D02*
X106510000Y-116087070D01*
X106510000Y-116087070D02*
X106826050Y-116403120D01*
X106826050Y-116403120D02*
X108719620Y-116403120D01*
X108719620Y-116403120D02*
X109220000Y-116903500D01*
X104310000Y-115313500D02*
X104310000Y-116098500D01*
X104310000Y-116098500D02*
X104013000Y-116395500D01*
X104013000Y-116395500D02*
X102108000Y-116395500D01*
X106510000Y-114300000D02*
X109220000Y-114300000D01*
X102235000Y-110744000D02*
X102997000Y-110744000D01*
X101600000Y-111379000D02*
X102235000Y-110744000D01*
X101600000Y-111760000D02*
X101600000Y-111379000D01*
X103886000Y-110744000D02*
X103505000Y-110744000D01*
X104394000Y-111252000D02*
X103886000Y-110744000D01*
X104460000Y-111252000D02*
X104394000Y-111252000D01*
X106360000Y-111252000D02*
X106426000Y-111252000D01*
X108458000Y-110744000D02*
X107823000Y-110744000D01*
X109220000Y-111506000D02*
X108458000Y-110744000D01*
X109220000Y-111760000D02*
X109220000Y-111506000D01*
X106934000Y-110744000D02*
X107315000Y-110744000D01*
X106426000Y-111252000D02*
X106934000Y-110744000D01*
X106360000Y-111252000D02*
X106426000Y-111252000D01*
X103886000Y-117983000D02*
X103505000Y-117983000D01*
X104394000Y-117475000D02*
X103886000Y-117983000D01*
X104460000Y-117475000D02*
X104394000Y-117475000D01*
X102108000Y-116395500D02*
X101600000Y-116903500D01*
X102108000Y-117983000D02*
X102997000Y-117983000D01*
X101600000Y-117475000D02*
X102108000Y-117983000D01*
X101600000Y-116840000D02*
X101600000Y-117475000D01*
X106934000Y-117983000D02*
X107315000Y-117983000D01*
X106426000Y-117475000D02*
X106934000Y-117983000D01*
X106360000Y-117475000D02*
X106426000Y-117475000D01*
X108458000Y-117983000D02*
X107823000Y-117983000D01*
X109220000Y-117221000D02*
X108458000Y-117983000D01*
X109220000Y-116840000D02*
X109220000Y-117221000D01*
X105410000Y-114841020D02*
X105410000Y-116078000D01*
X105951020Y-114300000D02*
X105410000Y-114841020D01*
X106510000Y-114300000D02*
X105951020Y-114300000D01*
X105410000Y-113831370D02*
X105410000Y-112522000D01*
X104941370Y-114300000D02*
X105410000Y-113831370D01*
X104310000Y-114300000D02*
X104941370Y-114300000D01*
X105410000Y-111379000D02*
X105410000Y-112014000D01*
X105283000Y-111252000D02*
X105410000Y-111379000D01*
X104460000Y-111252000D02*
X105283000Y-111252000D01*
X105410000Y-117348000D02*
X105410000Y-116586000D01*
X105537000Y-117475000D02*
X105410000Y-117348000D01*
X106360000Y-117475000D02*
X105537000Y-117475000D01*
X119060000Y-117475000D02*
X118237000Y-117475000D01*
X118237000Y-117475000D02*
X118110000Y-117348000D01*
X118110000Y-117348000D02*
X118110000Y-116586000D01*
X117160000Y-111252000D02*
X117983000Y-111252000D01*
X117983000Y-111252000D02*
X118110000Y-111379000D01*
X118110000Y-111379000D02*
X118110000Y-112014000D01*
X117010000Y-114300000D02*
X117641370Y-114300000D01*
X117641370Y-114300000D02*
X118110000Y-113831370D01*
X118110000Y-113831370D02*
X118110000Y-112522000D01*
X119210000Y-114300000D02*
X118651020Y-114300000D01*
X118651020Y-114300000D02*
X118110000Y-114841020D01*
X118110000Y-114841020D02*
X118110000Y-116078000D01*
X121920000Y-116840000D02*
X121920000Y-117221000D01*
X121920000Y-117221000D02*
X121158000Y-117983000D01*
X121158000Y-117983000D02*
X120523000Y-117983000D01*
X119060000Y-117475000D02*
X119126000Y-117475000D01*
X119126000Y-117475000D02*
X119634000Y-117983000D01*
X119634000Y-117983000D02*
X120015000Y-117983000D01*
X114300000Y-116840000D02*
X114300000Y-117475000D01*
X114300000Y-117475000D02*
X114808000Y-117983000D01*
X114808000Y-117983000D02*
X115697000Y-117983000D01*
X114808000Y-116395500D02*
X114300000Y-116903500D01*
X117160000Y-117475000D02*
X117094000Y-117475000D01*
X117094000Y-117475000D02*
X116586000Y-117983000D01*
X116586000Y-117983000D02*
X116205000Y-117983000D01*
X119060000Y-111252000D02*
X119126000Y-111252000D01*
X119126000Y-111252000D02*
X119634000Y-110744000D01*
X119634000Y-110744000D02*
X120015000Y-110744000D01*
X121920000Y-111760000D02*
X121920000Y-111506000D01*
X121920000Y-111506000D02*
X121158000Y-110744000D01*
X121158000Y-110744000D02*
X120523000Y-110744000D01*
X119060000Y-111252000D02*
X119126000Y-111252000D01*
X117160000Y-111252000D02*
X117094000Y-111252000D01*
X117094000Y-111252000D02*
X116586000Y-110744000D01*
X116586000Y-110744000D02*
X116205000Y-110744000D01*
X114300000Y-111760000D02*
X114300000Y-111379000D01*
X114300000Y-111379000D02*
X114935000Y-110744000D01*
X114935000Y-110744000D02*
X115697000Y-110744000D01*
X119210000Y-114300000D02*
X121920000Y-114300000D01*
X116713000Y-116395500D02*
X114808000Y-116395500D01*
X117010000Y-116098500D02*
X116713000Y-116395500D01*
X117010000Y-115313500D02*
X117010000Y-116098500D01*
X121419620Y-116403120D02*
X121920000Y-116903500D01*
X119526050Y-116403120D02*
X121419620Y-116403120D01*
X119210000Y-116087070D02*
X119526050Y-116403120D01*
X119210000Y-115313500D02*
X119210000Y-116087070D01*
X117010000Y-113350000D02*
X117010000Y-112576430D01*
X117010000Y-112576430D02*
X116693950Y-112260380D01*
X116693950Y-112260380D02*
X114800380Y-112260380D01*
X114800380Y-112260380D02*
X114300000Y-111760000D01*
X119210000Y-113350000D02*
X119210000Y-112565000D01*
X119210000Y-112565000D02*
X119507000Y-112268000D01*
X119507000Y-112268000D02*
X121412000Y-112268000D01*
X121412000Y-112268000D02*
X121920000Y-111760000D01*
X117010000Y-114300000D02*
X114300000Y-114300000D01*
X129710000Y-114300000D02*
X127000000Y-114300000D01*
X134112000Y-112268000D02*
X134620000Y-111760000D01*
X132207000Y-112268000D02*
X134112000Y-112268000D01*
X131910000Y-112565000D02*
X132207000Y-112268000D01*
X131910000Y-113350000D02*
X131910000Y-112565000D01*
X127500380Y-112260380D02*
X127000000Y-111760000D01*
X129393950Y-112260380D02*
X127500380Y-112260380D01*
X129710000Y-112576430D02*
X129393950Y-112260380D01*
X129710000Y-113350000D02*
X129710000Y-112576430D01*
X131910000Y-115313500D02*
X131910000Y-116087070D01*
X131910000Y-116087070D02*
X132226050Y-116403120D01*
X132226050Y-116403120D02*
X134119620Y-116403120D01*
X134119620Y-116403120D02*
X134620000Y-116903500D01*
X129710000Y-115313500D02*
X129710000Y-116098500D01*
X129710000Y-116098500D02*
X129413000Y-116395500D01*
X129413000Y-116395500D02*
X127508000Y-116395500D01*
X131910000Y-114300000D02*
X134620000Y-114300000D01*
X127635000Y-110744000D02*
X128397000Y-110744000D01*
X127000000Y-111379000D02*
X127635000Y-110744000D01*
X127000000Y-111760000D02*
X127000000Y-111379000D01*
X129286000Y-110744000D02*
X128905000Y-110744000D01*
X129794000Y-111252000D02*
X129286000Y-110744000D01*
X129860000Y-111252000D02*
X129794000Y-111252000D01*
X131760000Y-111252000D02*
X131826000Y-111252000D01*
X133858000Y-110744000D02*
X133223000Y-110744000D01*
X134620000Y-111506000D02*
X133858000Y-110744000D01*
X134620000Y-111760000D02*
X134620000Y-111506000D01*
X132334000Y-110744000D02*
X132715000Y-110744000D01*
X131826000Y-111252000D02*
X132334000Y-110744000D01*
X131760000Y-111252000D02*
X131826000Y-111252000D01*
X129286000Y-117983000D02*
X128905000Y-117983000D01*
X129794000Y-117475000D02*
X129286000Y-117983000D01*
X129860000Y-117475000D02*
X129794000Y-117475000D01*
X127508000Y-116395500D02*
X127000000Y-116903500D01*
X127508000Y-117983000D02*
X128397000Y-117983000D01*
X127000000Y-117475000D02*
X127508000Y-117983000D01*
X127000000Y-116840000D02*
X127000000Y-117475000D01*
X132334000Y-117983000D02*
X132715000Y-117983000D01*
X131826000Y-117475000D02*
X132334000Y-117983000D01*
X131760000Y-117475000D02*
X131826000Y-117475000D01*
X133858000Y-117983000D02*
X133223000Y-117983000D01*
X134620000Y-117221000D02*
X133858000Y-117983000D01*
X134620000Y-116840000D02*
X134620000Y-117221000D01*
X130810000Y-114841020D02*
X130810000Y-116078000D01*
X131351020Y-114300000D02*
X130810000Y-114841020D01*
X131910000Y-114300000D02*
X131351020Y-114300000D01*
X130810000Y-113831370D02*
X130810000Y-112522000D01*
X130341370Y-114300000D02*
X130810000Y-113831370D01*
X129710000Y-114300000D02*
X130341370Y-114300000D01*
X130810000Y-111379000D02*
X130810000Y-112014000D01*
X130683000Y-111252000D02*
X130810000Y-111379000D01*
X129860000Y-111252000D02*
X130683000Y-111252000D01*
X130810000Y-117348000D02*
X130810000Y-116586000D01*
X130937000Y-117475000D02*
X130810000Y-117348000D01*
X131760000Y-117475000D02*
X130937000Y-117475000D01*
X144460000Y-117475000D02*
X143637000Y-117475000D01*
X143637000Y-117475000D02*
X143510000Y-117348000D01*
X143510000Y-117348000D02*
X143510000Y-116586000D01*
X142560000Y-111252000D02*
X143383000Y-111252000D01*
X143383000Y-111252000D02*
X143510000Y-111379000D01*
X143510000Y-111379000D02*
X143510000Y-112014000D01*
X142410000Y-114300000D02*
X143041370Y-114300000D01*
X143041370Y-114300000D02*
X143510000Y-113831370D01*
X143510000Y-113831370D02*
X143510000Y-112522000D01*
X144610000Y-114300000D02*
X144051020Y-114300000D01*
X144051020Y-114300000D02*
X143510000Y-114841020D01*
X143510000Y-114841020D02*
X143510000Y-116078000D01*
X147320000Y-116840000D02*
X147320000Y-117221000D01*
X147320000Y-117221000D02*
X146558000Y-117983000D01*
X146558000Y-117983000D02*
X145923000Y-117983000D01*
X144460000Y-117475000D02*
X144526000Y-117475000D01*
X144526000Y-117475000D02*
X145034000Y-117983000D01*
X145034000Y-117983000D02*
X145415000Y-117983000D01*
X139700000Y-116840000D02*
X139700000Y-117475000D01*
X139700000Y-117475000D02*
X140208000Y-117983000D01*
X140208000Y-117983000D02*
X141097000Y-117983000D01*
X140208000Y-116395500D02*
X139700000Y-116903500D01*
X142560000Y-117475000D02*
X142494000Y-117475000D01*
X142494000Y-117475000D02*
X141986000Y-117983000D01*
X141986000Y-117983000D02*
X141605000Y-117983000D01*
X144460000Y-111252000D02*
X144526000Y-111252000D01*
X144526000Y-111252000D02*
X145034000Y-110744000D01*
X145034000Y-110744000D02*
X145415000Y-110744000D01*
X147320000Y-111760000D02*
X147320000Y-111506000D01*
X147320000Y-111506000D02*
X146558000Y-110744000D01*
X146558000Y-110744000D02*
X145923000Y-110744000D01*
X144460000Y-111252000D02*
X144526000Y-111252000D01*
X142560000Y-111252000D02*
X142494000Y-111252000D01*
X142494000Y-111252000D02*
X141986000Y-110744000D01*
X141986000Y-110744000D02*
X141605000Y-110744000D01*
X139700000Y-111760000D02*
X139700000Y-111379000D01*
X139700000Y-111379000D02*
X140335000Y-110744000D01*
X140335000Y-110744000D02*
X141097000Y-110744000D01*
X144610000Y-114300000D02*
X147320000Y-114300000D01*
X142113000Y-116395500D02*
X140208000Y-116395500D01*
X142410000Y-116098500D02*
X142113000Y-116395500D01*
X142410000Y-115313500D02*
X142410000Y-116098500D01*
X146819620Y-116403120D02*
X147320000Y-116903500D01*
X144926050Y-116403120D02*
X146819620Y-116403120D01*
X144610000Y-116087070D02*
X144926050Y-116403120D01*
X144610000Y-115313500D02*
X144610000Y-116087070D01*
X142410000Y-113350000D02*
X142410000Y-112576430D01*
X142410000Y-112576430D02*
X142093950Y-112260380D01*
X142093950Y-112260380D02*
X140200380Y-112260380D01*
X140200380Y-112260380D02*
X139700000Y-111760000D01*
X144610000Y-113350000D02*
X144610000Y-112565000D01*
X144610000Y-112565000D02*
X144907000Y-112268000D01*
X144907000Y-112268000D02*
X146812000Y-112268000D01*
X146812000Y-112268000D02*
X147320000Y-111760000D01*
X142410000Y-114300000D02*
X139700000Y-114300000D01*
X142410000Y-104140000D02*
X139700000Y-104140000D01*
X146812000Y-102108000D02*
X147320000Y-101600000D01*
X144907000Y-102108000D02*
X146812000Y-102108000D01*
X144610000Y-102405000D02*
X144907000Y-102108000D01*
X144610000Y-103190000D02*
X144610000Y-102405000D01*
X140200380Y-102100380D02*
X139700000Y-101600000D01*
X142093950Y-102100380D02*
X140200380Y-102100380D01*
X142410000Y-102416430D02*
X142093950Y-102100380D01*
X142410000Y-103190000D02*
X142410000Y-102416430D01*
X144610000Y-105153500D02*
X144610000Y-105927070D01*
X144610000Y-105927070D02*
X144926050Y-106243120D01*
X144926050Y-106243120D02*
X146819620Y-106243120D01*
X146819620Y-106243120D02*
X147320000Y-106743500D01*
X142410000Y-105153500D02*
X142410000Y-105938500D01*
X142410000Y-105938500D02*
X142113000Y-106235500D01*
X142113000Y-106235500D02*
X140208000Y-106235500D01*
X144610000Y-104140000D02*
X147320000Y-104140000D01*
X140335000Y-100584000D02*
X141097000Y-100584000D01*
X139700000Y-101219000D02*
X140335000Y-100584000D01*
X139700000Y-101600000D02*
X139700000Y-101219000D01*
X141986000Y-100584000D02*
X141605000Y-100584000D01*
X142494000Y-101092000D02*
X141986000Y-100584000D01*
X142560000Y-101092000D02*
X142494000Y-101092000D01*
X144460000Y-101092000D02*
X144526000Y-101092000D01*
X146558000Y-100584000D02*
X145923000Y-100584000D01*
X147320000Y-101346000D02*
X146558000Y-100584000D01*
X147320000Y-101600000D02*
X147320000Y-101346000D01*
X145034000Y-100584000D02*
X145415000Y-100584000D01*
X144526000Y-101092000D02*
X145034000Y-100584000D01*
X144460000Y-101092000D02*
X144526000Y-101092000D01*
X141986000Y-107823000D02*
X141605000Y-107823000D01*
X142494000Y-107315000D02*
X141986000Y-107823000D01*
X142560000Y-107315000D02*
X142494000Y-107315000D01*
X140208000Y-106235500D02*
X139700000Y-106743500D01*
X140208000Y-107823000D02*
X141097000Y-107823000D01*
X139700000Y-107315000D02*
X140208000Y-107823000D01*
X139700000Y-106680000D02*
X139700000Y-107315000D01*
X145034000Y-107823000D02*
X145415000Y-107823000D01*
X144526000Y-107315000D02*
X145034000Y-107823000D01*
X144460000Y-107315000D02*
X144526000Y-107315000D01*
X146558000Y-107823000D02*
X145923000Y-107823000D01*
X147320000Y-107061000D02*
X146558000Y-107823000D01*
X147320000Y-106680000D02*
X147320000Y-107061000D01*
X143510000Y-104681020D02*
X143510000Y-105918000D01*
X144051020Y-104140000D02*
X143510000Y-104681020D01*
X144610000Y-104140000D02*
X144051020Y-104140000D01*
X143510000Y-103671370D02*
X143510000Y-102362000D01*
X143041370Y-104140000D02*
X143510000Y-103671370D01*
X142410000Y-104140000D02*
X143041370Y-104140000D01*
X143510000Y-101219000D02*
X143510000Y-101854000D01*
X143383000Y-101092000D02*
X143510000Y-101219000D01*
X142560000Y-101092000D02*
X143383000Y-101092000D01*
X143510000Y-107188000D02*
X143510000Y-106426000D01*
X143637000Y-107315000D02*
X143510000Y-107188000D01*
X144460000Y-107315000D02*
X143637000Y-107315000D01*
X131760000Y-107315000D02*
X130937000Y-107315000D01*
X130937000Y-107315000D02*
X130810000Y-107188000D01*
X130810000Y-107188000D02*
X130810000Y-106426000D01*
X129860000Y-101092000D02*
X130683000Y-101092000D01*
X130683000Y-101092000D02*
X130810000Y-101219000D01*
X130810000Y-101219000D02*
X130810000Y-101854000D01*
X129710000Y-104140000D02*
X130341370Y-104140000D01*
X130341370Y-104140000D02*
X130810000Y-103671370D01*
X130810000Y-103671370D02*
X130810000Y-102362000D01*
X131910000Y-104140000D02*
X131351020Y-104140000D01*
X131351020Y-104140000D02*
X130810000Y-104681020D01*
X130810000Y-104681020D02*
X130810000Y-105918000D01*
X134620000Y-106680000D02*
X134620000Y-107061000D01*
X134620000Y-107061000D02*
X133858000Y-107823000D01*
X133858000Y-107823000D02*
X133223000Y-107823000D01*
X131760000Y-107315000D02*
X131826000Y-107315000D01*
X131826000Y-107315000D02*
X132334000Y-107823000D01*
X132334000Y-107823000D02*
X132715000Y-107823000D01*
X127000000Y-106680000D02*
X127000000Y-107315000D01*
X127000000Y-107315000D02*
X127508000Y-107823000D01*
X127508000Y-107823000D02*
X128397000Y-107823000D01*
X127508000Y-106235500D02*
X127000000Y-106743500D01*
X129860000Y-107315000D02*
X129794000Y-107315000D01*
X129794000Y-107315000D02*
X129286000Y-107823000D01*
X129286000Y-107823000D02*
X128905000Y-107823000D01*
X131760000Y-101092000D02*
X131826000Y-101092000D01*
X131826000Y-101092000D02*
X132334000Y-100584000D01*
X132334000Y-100584000D02*
X132715000Y-100584000D01*
X134620000Y-101600000D02*
X134620000Y-101346000D01*
X134620000Y-101346000D02*
X133858000Y-100584000D01*
X133858000Y-100584000D02*
X133223000Y-100584000D01*
X131760000Y-101092000D02*
X131826000Y-101092000D01*
X129860000Y-101092000D02*
X129794000Y-101092000D01*
X129794000Y-101092000D02*
X129286000Y-100584000D01*
X129286000Y-100584000D02*
X128905000Y-100584000D01*
X127000000Y-101600000D02*
X127000000Y-101219000D01*
X127000000Y-101219000D02*
X127635000Y-100584000D01*
X127635000Y-100584000D02*
X128397000Y-100584000D01*
X131910000Y-104140000D02*
X134620000Y-104140000D01*
X129413000Y-106235500D02*
X127508000Y-106235500D01*
X129710000Y-105938500D02*
X129413000Y-106235500D01*
X129710000Y-105153500D02*
X129710000Y-105938500D01*
X134119620Y-106243120D02*
X134620000Y-106743500D01*
X132226050Y-106243120D02*
X134119620Y-106243120D01*
X131910000Y-105927070D02*
X132226050Y-106243120D01*
X131910000Y-105153500D02*
X131910000Y-105927070D01*
X129710000Y-103190000D02*
X129710000Y-102416430D01*
X129710000Y-102416430D02*
X129393950Y-102100380D01*
X129393950Y-102100380D02*
X127500380Y-102100380D01*
X127500380Y-102100380D02*
X127000000Y-101600000D01*
X131910000Y-103190000D02*
X131910000Y-102405000D01*
X131910000Y-102405000D02*
X132207000Y-102108000D01*
X132207000Y-102108000D02*
X134112000Y-102108000D01*
X134112000Y-102108000D02*
X134620000Y-101600000D01*
X129710000Y-104140000D02*
X127000000Y-104140000D01*
X117010000Y-104140000D02*
X114300000Y-104140000D01*
X121412000Y-102108000D02*
X121920000Y-101600000D01*
X119507000Y-102108000D02*
X121412000Y-102108000D01*
X119210000Y-102405000D02*
X119507000Y-102108000D01*
X119210000Y-103190000D02*
X119210000Y-102405000D01*
X114800380Y-102100380D02*
X114300000Y-101600000D01*
X116693950Y-102100380D02*
X114800380Y-102100380D01*
X117010000Y-102416430D02*
X116693950Y-102100380D01*
X117010000Y-103190000D02*
X117010000Y-102416430D01*
X119210000Y-105153500D02*
X119210000Y-105927070D01*
X119210000Y-105927070D02*
X119526050Y-106243120D01*
X119526050Y-106243120D02*
X121419620Y-106243120D01*
X121419620Y-106243120D02*
X121920000Y-106743500D01*
X117010000Y-105153500D02*
X117010000Y-105938500D01*
X117010000Y-105938500D02*
X116713000Y-106235500D01*
X116713000Y-106235500D02*
X114808000Y-106235500D01*
X119210000Y-104140000D02*
X121920000Y-104140000D01*
X114935000Y-100584000D02*
X115697000Y-100584000D01*
X114300000Y-101219000D02*
X114935000Y-100584000D01*
X114300000Y-101600000D02*
X114300000Y-101219000D01*
X116586000Y-100584000D02*
X116205000Y-100584000D01*
X117094000Y-101092000D02*
X116586000Y-100584000D01*
X117160000Y-101092000D02*
X117094000Y-101092000D01*
X119060000Y-101092000D02*
X119126000Y-101092000D01*
X121158000Y-100584000D02*
X120523000Y-100584000D01*
X121920000Y-101346000D02*
X121158000Y-100584000D01*
X121920000Y-101600000D02*
X121920000Y-101346000D01*
X119634000Y-100584000D02*
X120015000Y-100584000D01*
X119126000Y-101092000D02*
X119634000Y-100584000D01*
X119060000Y-101092000D02*
X119126000Y-101092000D01*
X116586000Y-107823000D02*
X116205000Y-107823000D01*
X117094000Y-107315000D02*
X116586000Y-107823000D01*
X117160000Y-107315000D02*
X117094000Y-107315000D01*
X114808000Y-106235500D02*
X114300000Y-106743500D01*
X114808000Y-107823000D02*
X115697000Y-107823000D01*
X114300000Y-107315000D02*
X114808000Y-107823000D01*
X114300000Y-106680000D02*
X114300000Y-107315000D01*
X119634000Y-107823000D02*
X120015000Y-107823000D01*
X119126000Y-107315000D02*
X119634000Y-107823000D01*
X119060000Y-107315000D02*
X119126000Y-107315000D01*
X121158000Y-107823000D02*
X120523000Y-107823000D01*
X121920000Y-107061000D02*
X121158000Y-107823000D01*
X121920000Y-106680000D02*
X121920000Y-107061000D01*
X118110000Y-104681020D02*
X118110000Y-105918000D01*
X118651020Y-104140000D02*
X118110000Y-104681020D01*
X119210000Y-104140000D02*
X118651020Y-104140000D01*
X118110000Y-103671370D02*
X118110000Y-102362000D01*
X117641370Y-104140000D02*
X118110000Y-103671370D01*
X117010000Y-104140000D02*
X117641370Y-104140000D01*
X118110000Y-101219000D02*
X118110000Y-101854000D01*
X117983000Y-101092000D02*
X118110000Y-101219000D01*
X117160000Y-101092000D02*
X117983000Y-101092000D01*
X118110000Y-107188000D02*
X118110000Y-106426000D01*
X118237000Y-107315000D02*
X118110000Y-107188000D01*
X119060000Y-107315000D02*
X118237000Y-107315000D01*
X106360000Y-107315000D02*
X105537000Y-107315000D01*
X105537000Y-107315000D02*
X105410000Y-107188000D01*
X105410000Y-107188000D02*
X105410000Y-106426000D01*
X104460000Y-101092000D02*
X105283000Y-101092000D01*
X105283000Y-101092000D02*
X105410000Y-101219000D01*
X105410000Y-101219000D02*
X105410000Y-101854000D01*
X104310000Y-104140000D02*
X104941370Y-104140000D01*
X104941370Y-104140000D02*
X105410000Y-103671370D01*
X105410000Y-103671370D02*
X105410000Y-102362000D01*
X106510000Y-104140000D02*
X105951020Y-104140000D01*
X105951020Y-104140000D02*
X105410000Y-104681020D01*
X105410000Y-104681020D02*
X105410000Y-105918000D01*
X109220000Y-106680000D02*
X109220000Y-107061000D01*
X109220000Y-107061000D02*
X108458000Y-107823000D01*
X108458000Y-107823000D02*
X107823000Y-107823000D01*
X106360000Y-107315000D02*
X106426000Y-107315000D01*
X106426000Y-107315000D02*
X106934000Y-107823000D01*
X106934000Y-107823000D02*
X107315000Y-107823000D01*
X101600000Y-106680000D02*
X101600000Y-107315000D01*
X101600000Y-107315000D02*
X102108000Y-107823000D01*
X102108000Y-107823000D02*
X102997000Y-107823000D01*
X102108000Y-106235500D02*
X101600000Y-106743500D01*
X104460000Y-107315000D02*
X104394000Y-107315000D01*
X104394000Y-107315000D02*
X103886000Y-107823000D01*
X103886000Y-107823000D02*
X103505000Y-107823000D01*
X106360000Y-101092000D02*
X106426000Y-101092000D01*
X106426000Y-101092000D02*
X106934000Y-100584000D01*
X106934000Y-100584000D02*
X107315000Y-100584000D01*
X109220000Y-101600000D02*
X109220000Y-101346000D01*
X109220000Y-101346000D02*
X108458000Y-100584000D01*
X108458000Y-100584000D02*
X107823000Y-100584000D01*
X106360000Y-101092000D02*
X106426000Y-101092000D01*
X104460000Y-101092000D02*
X104394000Y-101092000D01*
X104394000Y-101092000D02*
X103886000Y-100584000D01*
X103886000Y-100584000D02*
X103505000Y-100584000D01*
X101600000Y-101600000D02*
X101600000Y-101219000D01*
X101600000Y-101219000D02*
X102235000Y-100584000D01*
X102235000Y-100584000D02*
X102997000Y-100584000D01*
X106510000Y-104140000D02*
X109220000Y-104140000D01*
X104013000Y-106235500D02*
X102108000Y-106235500D01*
X104310000Y-105938500D02*
X104013000Y-106235500D01*
X104310000Y-105153500D02*
X104310000Y-105938500D01*
X108719620Y-106243120D02*
X109220000Y-106743500D01*
X106826050Y-106243120D02*
X108719620Y-106243120D01*
X106510000Y-105927070D02*
X106826050Y-106243120D01*
X106510000Y-105153500D02*
X106510000Y-105927070D01*
X104310000Y-103190000D02*
X104310000Y-102416430D01*
X104310000Y-102416430D02*
X103993950Y-102100380D01*
X103993950Y-102100380D02*
X102100380Y-102100380D01*
X102100380Y-102100380D02*
X101600000Y-101600000D01*
X106510000Y-103190000D02*
X106510000Y-102405000D01*
X106510000Y-102405000D02*
X106807000Y-102108000D01*
X106807000Y-102108000D02*
X108712000Y-102108000D01*
X108712000Y-102108000D02*
X109220000Y-101600000D01*
X104310000Y-104140000D02*
X101600000Y-104140000D01*
M02*
