G04 #@! TF.FileFunction,Copper,L1,Top,Signal*
%FSLAX46Y46*%
G04 Gerber Fmt 4.6, Leading zero omitted, Abs format (unit mm)*
G04 Created by KiCad (PCBNEW 4.0.4+dfsg1-stable) date Tue Nov  1 20:37:28 2016*
%MOMM*%
%LPD*%
G01*
G04 APERTURE LIST*
%ADD10C,0.100000*%
%ADD11R,3.657600X2.032000*%
%ADD12R,1.016000X2.032000*%
%ADD13O,1.727200X2.032000*%
%ADD14R,3.500120X3.500120*%
%ADD15R,0.800100X0.800100*%
%ADD16O,2.032000X1.727200*%
%ADD17C,0.406400*%
%ADD18C,0.762000*%
%ADD19C,0.304800*%
G04 APERTURE END LIST*
D10*
D11*
X145669000Y-136906000D03*
D12*
X145669000Y-143510000D03*
X147955000Y-143510000D03*
X143383000Y-143510000D03*
D13*
X143129000Y-147828000D03*
X145669000Y-147828000D03*
X148209000Y-147828000D03*
X143129000Y-132588000D03*
X145669000Y-132588000D03*
X148209000Y-132588000D03*
D14*
X132388000Y-139862860D03*
X132388000Y-145862340D03*
X137087000Y-142862600D03*
D13*
X131191000Y-135890000D03*
X133731000Y-135890000D03*
X131191000Y-133350000D03*
X133731000Y-133350000D03*
X115316000Y-133350000D03*
X117856000Y-133350000D03*
X115316000Y-135890000D03*
X117856000Y-135890000D03*
X101854000Y-132588000D03*
X104394000Y-132588000D03*
X106934000Y-132588000D03*
X101854000Y-147828000D03*
X104394000Y-147828000D03*
X106934000Y-147828000D03*
D11*
X104394000Y-136906000D03*
D12*
X104394000Y-143510000D03*
X106680000Y-143510000D03*
X102108000Y-143510000D03*
D15*
X104409240Y-121605000D03*
X104409240Y-123505000D03*
X106408220Y-122555000D03*
X106410760Y-127315000D03*
X106410760Y-125415000D03*
X104411780Y-126365000D03*
D16*
X101600000Y-121920000D03*
X101600000Y-124460000D03*
X101600000Y-127000000D03*
X109220000Y-121920000D03*
X109220000Y-124460000D03*
X109220000Y-127000000D03*
X121920000Y-121920000D03*
X121920000Y-124460000D03*
X121920000Y-127000000D03*
X114300000Y-121920000D03*
X114300000Y-124460000D03*
X114300000Y-127000000D03*
D15*
X119110760Y-127315000D03*
X119110760Y-125415000D03*
X117111780Y-126365000D03*
X117109240Y-121605000D03*
X117109240Y-123505000D03*
X119108220Y-122555000D03*
X130571240Y-121605000D03*
X130571240Y-123505000D03*
X132570220Y-122555000D03*
X132572760Y-127315000D03*
X132572760Y-125415000D03*
X130573780Y-126365000D03*
D16*
X127762000Y-121920000D03*
X127762000Y-124460000D03*
X127762000Y-127000000D03*
X135382000Y-121920000D03*
X135382000Y-124460000D03*
X135382000Y-127000000D03*
X148082000Y-121920000D03*
X148082000Y-124460000D03*
X148082000Y-127000000D03*
X140462000Y-121920000D03*
X140462000Y-124460000D03*
X140462000Y-127000000D03*
D15*
X145272760Y-127315000D03*
X145272760Y-125415000D03*
X143273780Y-126365000D03*
X143271240Y-121605000D03*
X143271240Y-123505000D03*
X145270220Y-122555000D03*
X104409240Y-111445000D03*
X104409240Y-113345000D03*
X106408220Y-112395000D03*
X106410760Y-117155000D03*
X106410760Y-115255000D03*
X104411780Y-116205000D03*
D16*
X101600000Y-111760000D03*
X101600000Y-114300000D03*
X101600000Y-116840000D03*
X109220000Y-111760000D03*
X109220000Y-114300000D03*
X109220000Y-116840000D03*
X121920000Y-111760000D03*
X121920000Y-114300000D03*
X121920000Y-116840000D03*
X114300000Y-111760000D03*
X114300000Y-114300000D03*
X114300000Y-116840000D03*
D15*
X119110760Y-117155000D03*
X119110760Y-115255000D03*
X117111780Y-116205000D03*
X117109240Y-111445000D03*
X117109240Y-113345000D03*
X119108220Y-112395000D03*
X130571240Y-111445000D03*
X130571240Y-113345000D03*
X132570220Y-112395000D03*
X132572760Y-117155000D03*
X132572760Y-115255000D03*
X130573780Y-116205000D03*
D16*
X127762000Y-111760000D03*
X127762000Y-114300000D03*
X127762000Y-116840000D03*
X135382000Y-111760000D03*
X135382000Y-114300000D03*
X135382000Y-116840000D03*
X148082000Y-111760000D03*
X148082000Y-114300000D03*
X148082000Y-116840000D03*
X140462000Y-111760000D03*
X140462000Y-114300000D03*
X140462000Y-116840000D03*
D15*
X145272760Y-117155000D03*
X145272760Y-115255000D03*
X143273780Y-116205000D03*
X143271240Y-111445000D03*
X143271240Y-113345000D03*
X145270220Y-112395000D03*
X143271240Y-101285000D03*
X143271240Y-103185000D03*
X145270220Y-102235000D03*
X145272760Y-106995000D03*
X145272760Y-105095000D03*
X143273780Y-106045000D03*
D16*
X140462000Y-101600000D03*
X140462000Y-104140000D03*
X140462000Y-106680000D03*
X148082000Y-101600000D03*
X148082000Y-104140000D03*
X148082000Y-106680000D03*
X135382000Y-101600000D03*
X135382000Y-104140000D03*
X135382000Y-106680000D03*
X127762000Y-101600000D03*
X127762000Y-104140000D03*
X127762000Y-106680000D03*
D15*
X132572760Y-106995000D03*
X132572760Y-105095000D03*
X130573780Y-106045000D03*
X130571240Y-101285000D03*
X130571240Y-103185000D03*
X132570220Y-102235000D03*
X117109240Y-101285000D03*
X117109240Y-103185000D03*
X119108220Y-102235000D03*
X119110760Y-106995000D03*
X119110760Y-105095000D03*
X117111780Y-106045000D03*
D16*
X114300000Y-101600000D03*
X114300000Y-104140000D03*
X114300000Y-106680000D03*
X121920000Y-101600000D03*
X121920000Y-104140000D03*
X121920000Y-106680000D03*
X109220000Y-101600000D03*
X109220000Y-104140000D03*
X109220000Y-106680000D03*
X101600000Y-101600000D03*
X101600000Y-104140000D03*
X101600000Y-106680000D03*
D15*
X106410760Y-106995000D03*
X106410760Y-105095000D03*
X104411780Y-106045000D03*
X104409240Y-101285000D03*
X104409240Y-103185000D03*
X106408220Y-102235000D03*
D14*
X116513000Y-139862860D03*
X116513000Y-145862340D03*
X121212000Y-142862600D03*
D17*
X143383000Y-147574000D02*
X143129000Y-147828000D01*
X143383000Y-143510000D02*
X143383000Y-147574000D01*
X145669000Y-143510000D02*
X145669000Y-147828000D01*
X147955000Y-147574000D02*
X148209000Y-147828000D01*
X147955000Y-143510000D02*
X147955000Y-147574000D01*
X143129000Y-135128000D02*
X143129000Y-132588000D01*
X144907000Y-136906000D02*
X143129000Y-135128000D01*
X145669000Y-136906000D02*
X144907000Y-136906000D01*
X145669000Y-136906000D02*
X145669000Y-132588000D01*
X148209000Y-135128000D02*
X148209000Y-132588000D01*
X146431000Y-136906000D02*
X148209000Y-135128000D01*
X145669000Y-136906000D02*
X146431000Y-136906000D01*
D18*
X132388000Y-145862340D02*
X132388000Y-145063000D01*
X133731000Y-137160000D02*
X133731000Y-135890000D01*
X132388000Y-138503000D02*
X133731000Y-137160000D01*
X132388000Y-139862860D02*
X132388000Y-138503000D01*
X133731000Y-135890000D02*
X133731000Y-133350000D01*
X129286000Y-137795000D02*
X131191000Y-135890000D01*
X129286000Y-142875000D02*
X129286000Y-137795000D01*
X132273340Y-145862340D02*
X129286000Y-142875000D01*
X132388000Y-145862340D02*
X132273340Y-145862340D01*
X131191000Y-135890000D02*
X131191000Y-133350000D01*
X115316000Y-135890000D02*
X115316000Y-133350000D01*
X116513000Y-145862340D02*
X116398340Y-145862340D01*
X116398340Y-145862340D02*
X113411000Y-142875000D01*
X113411000Y-142875000D02*
X113411000Y-137795000D01*
X113411000Y-137795000D02*
X115316000Y-135890000D01*
X117856000Y-135890000D02*
X117856000Y-133350000D01*
X116513000Y-139862860D02*
X116513000Y-138503000D01*
X116513000Y-138503000D02*
X117856000Y-137160000D01*
X117856000Y-137160000D02*
X117856000Y-135890000D01*
X116513000Y-145862340D02*
X116513000Y-145063000D01*
D17*
X104394000Y-136906000D02*
X105156000Y-136906000D01*
X105156000Y-136906000D02*
X106934000Y-135128000D01*
X106934000Y-135128000D02*
X106934000Y-132588000D01*
X104394000Y-136906000D02*
X104394000Y-132588000D01*
X104394000Y-136906000D02*
X103632000Y-136906000D01*
X103632000Y-136906000D02*
X101854000Y-135128000D01*
X101854000Y-135128000D02*
X101854000Y-132588000D01*
X106680000Y-143510000D02*
X106680000Y-147574000D01*
X106680000Y-147574000D02*
X106934000Y-147828000D01*
X104394000Y-143510000D02*
X104394000Y-147828000D01*
X102108000Y-143510000D02*
X102108000Y-147574000D01*
X102108000Y-147574000D02*
X101854000Y-147828000D01*
D19*
X108458000Y-121920000D02*
X109982000Y-121920000D01*
X107823000Y-122555000D02*
X108458000Y-121920000D01*
X106408220Y-122555000D02*
X107823000Y-122555000D01*
X101915000Y-121605000D02*
X101600000Y-121920000D01*
X104409240Y-121605000D02*
X101915000Y-121605000D01*
X104140000Y-124460000D02*
X101600000Y-124460000D01*
X104409240Y-124190760D02*
X104140000Y-124460000D01*
X104409240Y-123505000D02*
X104409240Y-124190760D01*
X106680000Y-124460000D02*
X109982000Y-124460000D01*
X106410760Y-124729240D02*
X106680000Y-124460000D01*
X106410760Y-125415000D02*
X106410760Y-124729240D01*
X103124000Y-127000000D02*
X101600000Y-127000000D01*
X103759000Y-126365000D02*
X103124000Y-127000000D01*
X104411780Y-126365000D02*
X103759000Y-126365000D01*
X109667000Y-127315000D02*
X109982000Y-127000000D01*
X106410760Y-127315000D02*
X109667000Y-127315000D01*
X119110760Y-127315000D02*
X122367000Y-127315000D01*
X122367000Y-127315000D02*
X122682000Y-127000000D01*
X117111780Y-126365000D02*
X116459000Y-126365000D01*
X116459000Y-126365000D02*
X115824000Y-127000000D01*
X115824000Y-127000000D02*
X114300000Y-127000000D01*
X119110760Y-125415000D02*
X119110760Y-124729240D01*
X119110760Y-124729240D02*
X119380000Y-124460000D01*
X119380000Y-124460000D02*
X122682000Y-124460000D01*
X117109240Y-123505000D02*
X117109240Y-124190760D01*
X117109240Y-124190760D02*
X116840000Y-124460000D01*
X116840000Y-124460000D02*
X114300000Y-124460000D01*
X117109240Y-121605000D02*
X114615000Y-121605000D01*
X114615000Y-121605000D02*
X114300000Y-121920000D01*
X119108220Y-122555000D02*
X120523000Y-122555000D01*
X120523000Y-122555000D02*
X121158000Y-121920000D01*
X121158000Y-121920000D02*
X122682000Y-121920000D01*
X134620000Y-121920000D02*
X136144000Y-121920000D01*
X133985000Y-122555000D02*
X134620000Y-121920000D01*
X132570220Y-122555000D02*
X133985000Y-122555000D01*
X128077000Y-121605000D02*
X127762000Y-121920000D01*
X130571240Y-121605000D02*
X128077000Y-121605000D01*
X130302000Y-124460000D02*
X127762000Y-124460000D01*
X130571240Y-124190760D02*
X130302000Y-124460000D01*
X130571240Y-123505000D02*
X130571240Y-124190760D01*
X132842000Y-124460000D02*
X136144000Y-124460000D01*
X132572760Y-124729240D02*
X132842000Y-124460000D01*
X132572760Y-125415000D02*
X132572760Y-124729240D01*
X129286000Y-127000000D02*
X127762000Y-127000000D01*
X129921000Y-126365000D02*
X129286000Y-127000000D01*
X130573780Y-126365000D02*
X129921000Y-126365000D01*
X135829000Y-127315000D02*
X136144000Y-127000000D01*
X132572760Y-127315000D02*
X135829000Y-127315000D01*
X145272760Y-127315000D02*
X148529000Y-127315000D01*
X148529000Y-127315000D02*
X148844000Y-127000000D01*
X143273780Y-126365000D02*
X142621000Y-126365000D01*
X142621000Y-126365000D02*
X141986000Y-127000000D01*
X141986000Y-127000000D02*
X140462000Y-127000000D01*
X145272760Y-125415000D02*
X145272760Y-124729240D01*
X145272760Y-124729240D02*
X145542000Y-124460000D01*
X145542000Y-124460000D02*
X148844000Y-124460000D01*
X143271240Y-123505000D02*
X143271240Y-124190760D01*
X143271240Y-124190760D02*
X143002000Y-124460000D01*
X143002000Y-124460000D02*
X140462000Y-124460000D01*
X143271240Y-121605000D02*
X140777000Y-121605000D01*
X140777000Y-121605000D02*
X140462000Y-121920000D01*
X145270220Y-122555000D02*
X146685000Y-122555000D01*
X146685000Y-122555000D02*
X147320000Y-121920000D01*
X147320000Y-121920000D02*
X148844000Y-121920000D01*
X108458000Y-111760000D02*
X109982000Y-111760000D01*
X107823000Y-112395000D02*
X108458000Y-111760000D01*
X106408220Y-112395000D02*
X107823000Y-112395000D01*
X101915000Y-111445000D02*
X101600000Y-111760000D01*
X104409240Y-111445000D02*
X101915000Y-111445000D01*
X104140000Y-114300000D02*
X101600000Y-114300000D01*
X104409240Y-114030760D02*
X104140000Y-114300000D01*
X104409240Y-113345000D02*
X104409240Y-114030760D01*
X106680000Y-114300000D02*
X109982000Y-114300000D01*
X106410760Y-114569240D02*
X106680000Y-114300000D01*
X106410760Y-115255000D02*
X106410760Y-114569240D01*
X103124000Y-116840000D02*
X101600000Y-116840000D01*
X103759000Y-116205000D02*
X103124000Y-116840000D01*
X104411780Y-116205000D02*
X103759000Y-116205000D01*
X109667000Y-117155000D02*
X109982000Y-116840000D01*
X106410760Y-117155000D02*
X109667000Y-117155000D01*
X119110760Y-117155000D02*
X122367000Y-117155000D01*
X122367000Y-117155000D02*
X122682000Y-116840000D01*
X117111780Y-116205000D02*
X116459000Y-116205000D01*
X116459000Y-116205000D02*
X115824000Y-116840000D01*
X115824000Y-116840000D02*
X114300000Y-116840000D01*
X119110760Y-115255000D02*
X119110760Y-114569240D01*
X119110760Y-114569240D02*
X119380000Y-114300000D01*
X119380000Y-114300000D02*
X122682000Y-114300000D01*
X117109240Y-113345000D02*
X117109240Y-114030760D01*
X117109240Y-114030760D02*
X116840000Y-114300000D01*
X116840000Y-114300000D02*
X114300000Y-114300000D01*
X117109240Y-111445000D02*
X114615000Y-111445000D01*
X114615000Y-111445000D02*
X114300000Y-111760000D01*
X119108220Y-112395000D02*
X120523000Y-112395000D01*
X120523000Y-112395000D02*
X121158000Y-111760000D01*
X121158000Y-111760000D02*
X122682000Y-111760000D01*
X134620000Y-111760000D02*
X136144000Y-111760000D01*
X133985000Y-112395000D02*
X134620000Y-111760000D01*
X132570220Y-112395000D02*
X133985000Y-112395000D01*
X128077000Y-111445000D02*
X127762000Y-111760000D01*
X130571240Y-111445000D02*
X128077000Y-111445000D01*
X130302000Y-114300000D02*
X127762000Y-114300000D01*
X130571240Y-114030760D02*
X130302000Y-114300000D01*
X130571240Y-113345000D02*
X130571240Y-114030760D01*
X132842000Y-114300000D02*
X136144000Y-114300000D01*
X132572760Y-114569240D02*
X132842000Y-114300000D01*
X132572760Y-115255000D02*
X132572760Y-114569240D01*
X129286000Y-116840000D02*
X127762000Y-116840000D01*
X129921000Y-116205000D02*
X129286000Y-116840000D01*
X130573780Y-116205000D02*
X129921000Y-116205000D01*
X135829000Y-117155000D02*
X136144000Y-116840000D01*
X132572760Y-117155000D02*
X135829000Y-117155000D01*
X145272760Y-117155000D02*
X148529000Y-117155000D01*
X148529000Y-117155000D02*
X148844000Y-116840000D01*
X143273780Y-116205000D02*
X142621000Y-116205000D01*
X142621000Y-116205000D02*
X141986000Y-116840000D01*
X141986000Y-116840000D02*
X140462000Y-116840000D01*
X145272760Y-115255000D02*
X145272760Y-114569240D01*
X145272760Y-114569240D02*
X145542000Y-114300000D01*
X145542000Y-114300000D02*
X148844000Y-114300000D01*
X143271240Y-113345000D02*
X143271240Y-114030760D01*
X143271240Y-114030760D02*
X143002000Y-114300000D01*
X143002000Y-114300000D02*
X140462000Y-114300000D01*
X143271240Y-111445000D02*
X140777000Y-111445000D01*
X140777000Y-111445000D02*
X140462000Y-111760000D01*
X145270220Y-112395000D02*
X146685000Y-112395000D01*
X146685000Y-112395000D02*
X147320000Y-111760000D01*
X147320000Y-111760000D02*
X148844000Y-111760000D01*
X147320000Y-101600000D02*
X148844000Y-101600000D01*
X146685000Y-102235000D02*
X147320000Y-101600000D01*
X145270220Y-102235000D02*
X146685000Y-102235000D01*
X140777000Y-101285000D02*
X140462000Y-101600000D01*
X143271240Y-101285000D02*
X140777000Y-101285000D01*
X143002000Y-104140000D02*
X140462000Y-104140000D01*
X143271240Y-103870760D02*
X143002000Y-104140000D01*
X143271240Y-103185000D02*
X143271240Y-103870760D01*
X145542000Y-104140000D02*
X148844000Y-104140000D01*
X145272760Y-104409240D02*
X145542000Y-104140000D01*
X145272760Y-105095000D02*
X145272760Y-104409240D01*
X141986000Y-106680000D02*
X140462000Y-106680000D01*
X142621000Y-106045000D02*
X141986000Y-106680000D01*
X143273780Y-106045000D02*
X142621000Y-106045000D01*
X148529000Y-106995000D02*
X148844000Y-106680000D01*
X145272760Y-106995000D02*
X148529000Y-106995000D01*
X132572760Y-106995000D02*
X135829000Y-106995000D01*
X135829000Y-106995000D02*
X136144000Y-106680000D01*
X130573780Y-106045000D02*
X129921000Y-106045000D01*
X129921000Y-106045000D02*
X129286000Y-106680000D01*
X129286000Y-106680000D02*
X127762000Y-106680000D01*
X132572760Y-105095000D02*
X132572760Y-104409240D01*
X132572760Y-104409240D02*
X132842000Y-104140000D01*
X132842000Y-104140000D02*
X136144000Y-104140000D01*
X130571240Y-103185000D02*
X130571240Y-103870760D01*
X130571240Y-103870760D02*
X130302000Y-104140000D01*
X130302000Y-104140000D02*
X127762000Y-104140000D01*
X130571240Y-101285000D02*
X128077000Y-101285000D01*
X128077000Y-101285000D02*
X127762000Y-101600000D01*
X132570220Y-102235000D02*
X133985000Y-102235000D01*
X133985000Y-102235000D02*
X134620000Y-101600000D01*
X134620000Y-101600000D02*
X136144000Y-101600000D01*
X121158000Y-101600000D02*
X122682000Y-101600000D01*
X120523000Y-102235000D02*
X121158000Y-101600000D01*
X119108220Y-102235000D02*
X120523000Y-102235000D01*
X114615000Y-101285000D02*
X114300000Y-101600000D01*
X117109240Y-101285000D02*
X114615000Y-101285000D01*
X116840000Y-104140000D02*
X114300000Y-104140000D01*
X117109240Y-103870760D02*
X116840000Y-104140000D01*
X117109240Y-103185000D02*
X117109240Y-103870760D01*
X119380000Y-104140000D02*
X122682000Y-104140000D01*
X119110760Y-104409240D02*
X119380000Y-104140000D01*
X119110760Y-105095000D02*
X119110760Y-104409240D01*
X115824000Y-106680000D02*
X114300000Y-106680000D01*
X116459000Y-106045000D02*
X115824000Y-106680000D01*
X117111780Y-106045000D02*
X116459000Y-106045000D01*
X122367000Y-106995000D02*
X122682000Y-106680000D01*
X119110760Y-106995000D02*
X122367000Y-106995000D01*
X106410760Y-106995000D02*
X109667000Y-106995000D01*
X109667000Y-106995000D02*
X109982000Y-106680000D01*
X104411780Y-106045000D02*
X103759000Y-106045000D01*
X103759000Y-106045000D02*
X103124000Y-106680000D01*
X103124000Y-106680000D02*
X101600000Y-106680000D01*
X106410760Y-105095000D02*
X106410760Y-104409240D01*
X106410760Y-104409240D02*
X106680000Y-104140000D01*
X106680000Y-104140000D02*
X109982000Y-104140000D01*
X104409240Y-103185000D02*
X104409240Y-103870760D01*
X104409240Y-103870760D02*
X104140000Y-104140000D01*
X104140000Y-104140000D02*
X101600000Y-104140000D01*
X104409240Y-101285000D02*
X101915000Y-101285000D01*
X101915000Y-101285000D02*
X101600000Y-101600000D01*
X106408220Y-102235000D02*
X107823000Y-102235000D01*
X107823000Y-102235000D02*
X108458000Y-101600000D01*
X108458000Y-101600000D02*
X109982000Y-101600000D01*
M02*
