G04 #@! TF.FileFunction,Copper,L2,Bot,Signal*
%FSLAX46Y46*%
G04 Gerber Fmt 4.6, Leading zero omitted, Abs format (unit mm)*
G04 Created by KiCad (PCBNEW 4.0.4+dfsg1-stable) date Tue Nov  1 20:37:28 2016*
%MOMM*%
%LPD*%
G01*
G04 APERTURE LIST*
%ADD10C,0.100000*%
%ADD11R,1.651000X3.048000*%
%ADD12R,6.096000X6.096000*%
%ADD13O,1.727200X2.032000*%
%ADD14R,3.500120X3.500120*%
%ADD15R,1.060000X0.650000*%
%ADD16O,2.032000X1.727200*%
%ADD17R,0.700000X1.300000*%
%ADD18C,0.406400*%
%ADD19C,0.762000*%
%ADD20C,0.304800*%
G04 APERTURE END LIST*
D10*
D11*
X147955000Y-144018000D03*
D12*
X145669000Y-137668000D03*
D11*
X143383000Y-144018000D03*
D13*
X143129000Y-147828000D03*
X145669000Y-147828000D03*
X148209000Y-147828000D03*
X143129000Y-132588000D03*
X145669000Y-132588000D03*
X148209000Y-132588000D03*
D14*
X132388000Y-139862860D03*
X132388000Y-145862340D03*
X137087000Y-142862600D03*
D13*
X131191000Y-135890000D03*
X133731000Y-135890000D03*
X131191000Y-133350000D03*
X133731000Y-133350000D03*
X115316000Y-133350000D03*
X117856000Y-133350000D03*
X115316000Y-135890000D03*
X117856000Y-135890000D03*
X101854000Y-132588000D03*
X104394000Y-132588000D03*
X106934000Y-132588000D03*
X101854000Y-147828000D03*
X104394000Y-147828000D03*
X106934000Y-147828000D03*
D15*
X104310000Y-125410000D03*
X104310000Y-124460000D03*
X104310000Y-123510000D03*
X106510000Y-123510000D03*
X106510000Y-125410000D03*
X106510000Y-124460000D03*
D16*
X101600000Y-121920000D03*
X101600000Y-124460000D03*
X101600000Y-127000000D03*
X109220000Y-121920000D03*
X109220000Y-124460000D03*
X109220000Y-127000000D03*
D17*
X104460000Y-121412000D03*
X106360000Y-121412000D03*
X104460000Y-127635000D03*
X106360000Y-127635000D03*
X117160000Y-127635000D03*
X119060000Y-127635000D03*
X117160000Y-121412000D03*
X119060000Y-121412000D03*
D16*
X121920000Y-121920000D03*
X121920000Y-124460000D03*
X121920000Y-127000000D03*
X114300000Y-121920000D03*
X114300000Y-124460000D03*
X114300000Y-127000000D03*
D15*
X117010000Y-125410000D03*
X117010000Y-124460000D03*
X117010000Y-123510000D03*
X119210000Y-123510000D03*
X119210000Y-125410000D03*
X119210000Y-124460000D03*
X130472000Y-125410000D03*
X130472000Y-124460000D03*
X130472000Y-123510000D03*
X132672000Y-123510000D03*
X132672000Y-125410000D03*
X132672000Y-124460000D03*
D16*
X127762000Y-121920000D03*
X127762000Y-124460000D03*
X127762000Y-127000000D03*
X135382000Y-121920000D03*
X135382000Y-124460000D03*
X135382000Y-127000000D03*
D17*
X130622000Y-121412000D03*
X132522000Y-121412000D03*
X130622000Y-127635000D03*
X132522000Y-127635000D03*
X143322000Y-127635000D03*
X145222000Y-127635000D03*
X143322000Y-121412000D03*
X145222000Y-121412000D03*
D16*
X148082000Y-121920000D03*
X148082000Y-124460000D03*
X148082000Y-127000000D03*
X140462000Y-121920000D03*
X140462000Y-124460000D03*
X140462000Y-127000000D03*
D15*
X143172000Y-125410000D03*
X143172000Y-124460000D03*
X143172000Y-123510000D03*
X145372000Y-123510000D03*
X145372000Y-125410000D03*
X145372000Y-124460000D03*
X104310000Y-115250000D03*
X104310000Y-114300000D03*
X104310000Y-113350000D03*
X106510000Y-113350000D03*
X106510000Y-115250000D03*
X106510000Y-114300000D03*
D16*
X101600000Y-111760000D03*
X101600000Y-114300000D03*
X101600000Y-116840000D03*
X109220000Y-111760000D03*
X109220000Y-114300000D03*
X109220000Y-116840000D03*
D17*
X104460000Y-111252000D03*
X106360000Y-111252000D03*
X104460000Y-117475000D03*
X106360000Y-117475000D03*
X117160000Y-117475000D03*
X119060000Y-117475000D03*
X117160000Y-111252000D03*
X119060000Y-111252000D03*
D16*
X121920000Y-111760000D03*
X121920000Y-114300000D03*
X121920000Y-116840000D03*
X114300000Y-111760000D03*
X114300000Y-114300000D03*
X114300000Y-116840000D03*
D15*
X117010000Y-115250000D03*
X117010000Y-114300000D03*
X117010000Y-113350000D03*
X119210000Y-113350000D03*
X119210000Y-115250000D03*
X119210000Y-114300000D03*
X130472000Y-115250000D03*
X130472000Y-114300000D03*
X130472000Y-113350000D03*
X132672000Y-113350000D03*
X132672000Y-115250000D03*
X132672000Y-114300000D03*
D16*
X127762000Y-111760000D03*
X127762000Y-114300000D03*
X127762000Y-116840000D03*
X135382000Y-111760000D03*
X135382000Y-114300000D03*
X135382000Y-116840000D03*
D17*
X130622000Y-111252000D03*
X132522000Y-111252000D03*
X130622000Y-117475000D03*
X132522000Y-117475000D03*
X143322000Y-117475000D03*
X145222000Y-117475000D03*
X143322000Y-111252000D03*
X145222000Y-111252000D03*
D16*
X148082000Y-111760000D03*
X148082000Y-114300000D03*
X148082000Y-116840000D03*
X140462000Y-111760000D03*
X140462000Y-114300000D03*
X140462000Y-116840000D03*
D15*
X143172000Y-115250000D03*
X143172000Y-114300000D03*
X143172000Y-113350000D03*
X145372000Y-113350000D03*
X145372000Y-115250000D03*
X145372000Y-114300000D03*
X143172000Y-105090000D03*
X143172000Y-104140000D03*
X143172000Y-103190000D03*
X145372000Y-103190000D03*
X145372000Y-105090000D03*
X145372000Y-104140000D03*
D16*
X140462000Y-101600000D03*
X140462000Y-104140000D03*
X140462000Y-106680000D03*
X148082000Y-101600000D03*
X148082000Y-104140000D03*
X148082000Y-106680000D03*
D17*
X143322000Y-101092000D03*
X145222000Y-101092000D03*
X143322000Y-107315000D03*
X145222000Y-107315000D03*
X130622000Y-107315000D03*
X132522000Y-107315000D03*
X130622000Y-101092000D03*
X132522000Y-101092000D03*
D16*
X135382000Y-101600000D03*
X135382000Y-104140000D03*
X135382000Y-106680000D03*
X127762000Y-101600000D03*
X127762000Y-104140000D03*
X127762000Y-106680000D03*
D15*
X130472000Y-105090000D03*
X130472000Y-104140000D03*
X130472000Y-103190000D03*
X132672000Y-103190000D03*
X132672000Y-105090000D03*
X132672000Y-104140000D03*
X117010000Y-105090000D03*
X117010000Y-104140000D03*
X117010000Y-103190000D03*
X119210000Y-103190000D03*
X119210000Y-105090000D03*
X119210000Y-104140000D03*
D16*
X114300000Y-101600000D03*
X114300000Y-104140000D03*
X114300000Y-106680000D03*
X121920000Y-101600000D03*
X121920000Y-104140000D03*
X121920000Y-106680000D03*
D17*
X117160000Y-101092000D03*
X119060000Y-101092000D03*
X117160000Y-107315000D03*
X119060000Y-107315000D03*
X104460000Y-107315000D03*
X106360000Y-107315000D03*
X104460000Y-101092000D03*
X106360000Y-101092000D03*
D16*
X109220000Y-101600000D03*
X109220000Y-104140000D03*
X109220000Y-106680000D03*
X101600000Y-101600000D03*
X101600000Y-104140000D03*
X101600000Y-106680000D03*
D15*
X104310000Y-105090000D03*
X104310000Y-104140000D03*
X104310000Y-103190000D03*
X106510000Y-103190000D03*
X106510000Y-105090000D03*
X106510000Y-104140000D03*
D11*
X106680000Y-144018000D03*
D12*
X104394000Y-137668000D03*
D11*
X102108000Y-144018000D03*
D14*
X116513000Y-139862860D03*
X116513000Y-145862340D03*
X121212000Y-142862600D03*
D18*
X143129000Y-144272000D02*
X143383000Y-144018000D01*
D19*
X143383000Y-147574000D02*
X143129000Y-147828000D01*
X143383000Y-144018000D02*
X143383000Y-147574000D01*
X147955000Y-147574000D02*
X148209000Y-147828000D01*
X147955000Y-144018000D02*
X147955000Y-147574000D01*
X145669000Y-137668000D02*
X145669000Y-147828000D01*
X143129000Y-135128000D02*
X145669000Y-137668000D01*
X143129000Y-132588000D02*
X143129000Y-135128000D01*
X145669000Y-132588000D02*
X145669000Y-137668000D01*
X148209000Y-135128000D02*
X145669000Y-137668000D01*
X148209000Y-132588000D02*
X148209000Y-135128000D01*
X106934000Y-132588000D02*
X106934000Y-135128000D01*
X106934000Y-135128000D02*
X104394000Y-137668000D01*
X104394000Y-132588000D02*
X104394000Y-137668000D01*
X101854000Y-132588000D02*
X101854000Y-135128000D01*
X101854000Y-135128000D02*
X104394000Y-137668000D01*
X104394000Y-137668000D02*
X104394000Y-147828000D01*
X106680000Y-144018000D02*
X106680000Y-147574000D01*
X106680000Y-147574000D02*
X106934000Y-147828000D01*
X102108000Y-144018000D02*
X102108000Y-147574000D01*
X102108000Y-147574000D02*
X101854000Y-147828000D01*
D18*
X101854000Y-144272000D02*
X102108000Y-144018000D01*
D20*
X104310000Y-124460000D02*
X101600000Y-124460000D01*
X108712000Y-122428000D02*
X109220000Y-121920000D01*
X106807000Y-122428000D02*
X108712000Y-122428000D01*
X106510000Y-122725000D02*
X106807000Y-122428000D01*
X106510000Y-123510000D02*
X106510000Y-122725000D01*
X102100380Y-122420380D02*
X101600000Y-121920000D01*
X103993950Y-122420380D02*
X102100380Y-122420380D01*
X104310000Y-122736430D02*
X103993950Y-122420380D01*
X104310000Y-123510000D02*
X104310000Y-122736430D01*
X106510000Y-125473500D02*
X106510000Y-126247070D01*
X106510000Y-126247070D02*
X106826050Y-126563120D01*
X106826050Y-126563120D02*
X108719620Y-126563120D01*
X108719620Y-126563120D02*
X109220000Y-127063500D01*
X104310000Y-125473500D02*
X104310000Y-126258500D01*
X104310000Y-126258500D02*
X104013000Y-126555500D01*
X104013000Y-126555500D02*
X102108000Y-126555500D01*
X106510000Y-124460000D02*
X109220000Y-124460000D01*
X102235000Y-120904000D02*
X102997000Y-120904000D01*
X101600000Y-121539000D02*
X102235000Y-120904000D01*
X101600000Y-121920000D02*
X101600000Y-121539000D01*
X103886000Y-120904000D02*
X103505000Y-120904000D01*
X104394000Y-121412000D02*
X103886000Y-120904000D01*
X104460000Y-121412000D02*
X104394000Y-121412000D01*
X106360000Y-121412000D02*
X106426000Y-121412000D01*
X108458000Y-120904000D02*
X107823000Y-120904000D01*
X109220000Y-121666000D02*
X108458000Y-120904000D01*
X109220000Y-121920000D02*
X109220000Y-121666000D01*
X106934000Y-120904000D02*
X107315000Y-120904000D01*
X106426000Y-121412000D02*
X106934000Y-120904000D01*
X106360000Y-121412000D02*
X106426000Y-121412000D01*
X103886000Y-128143000D02*
X103505000Y-128143000D01*
X104394000Y-127635000D02*
X103886000Y-128143000D01*
X104460000Y-127635000D02*
X104394000Y-127635000D01*
X102108000Y-126555500D02*
X101600000Y-127063500D01*
X102108000Y-128143000D02*
X102997000Y-128143000D01*
X101600000Y-127635000D02*
X102108000Y-128143000D01*
X101600000Y-127000000D02*
X101600000Y-127635000D01*
X106934000Y-128143000D02*
X107315000Y-128143000D01*
X106426000Y-127635000D02*
X106934000Y-128143000D01*
X106360000Y-127635000D02*
X106426000Y-127635000D01*
X108458000Y-128143000D02*
X107823000Y-128143000D01*
X109220000Y-127381000D02*
X108458000Y-128143000D01*
X109220000Y-127000000D02*
X109220000Y-127381000D01*
X105410000Y-125001020D02*
X105410000Y-126238000D01*
X105951020Y-124460000D02*
X105410000Y-125001020D01*
X106510000Y-124460000D02*
X105951020Y-124460000D01*
X105410000Y-123991370D02*
X105410000Y-122682000D01*
X104941370Y-124460000D02*
X105410000Y-123991370D01*
X104310000Y-124460000D02*
X104941370Y-124460000D01*
X105410000Y-121539000D02*
X105410000Y-122174000D01*
X105283000Y-121412000D02*
X105410000Y-121539000D01*
X104460000Y-121412000D02*
X105283000Y-121412000D01*
X105410000Y-127508000D02*
X105410000Y-126746000D01*
X105537000Y-127635000D02*
X105410000Y-127508000D01*
X106360000Y-127635000D02*
X105537000Y-127635000D01*
X119060000Y-127635000D02*
X118237000Y-127635000D01*
X118237000Y-127635000D02*
X118110000Y-127508000D01*
X118110000Y-127508000D02*
X118110000Y-126746000D01*
X117160000Y-121412000D02*
X117983000Y-121412000D01*
X117983000Y-121412000D02*
X118110000Y-121539000D01*
X118110000Y-121539000D02*
X118110000Y-122174000D01*
X117010000Y-124460000D02*
X117641370Y-124460000D01*
X117641370Y-124460000D02*
X118110000Y-123991370D01*
X118110000Y-123991370D02*
X118110000Y-122682000D01*
X119210000Y-124460000D02*
X118651020Y-124460000D01*
X118651020Y-124460000D02*
X118110000Y-125001020D01*
X118110000Y-125001020D02*
X118110000Y-126238000D01*
X121920000Y-127000000D02*
X121920000Y-127381000D01*
X121920000Y-127381000D02*
X121158000Y-128143000D01*
X121158000Y-128143000D02*
X120523000Y-128143000D01*
X119060000Y-127635000D02*
X119126000Y-127635000D01*
X119126000Y-127635000D02*
X119634000Y-128143000D01*
X119634000Y-128143000D02*
X120015000Y-128143000D01*
X114300000Y-127000000D02*
X114300000Y-127635000D01*
X114300000Y-127635000D02*
X114808000Y-128143000D01*
X114808000Y-128143000D02*
X115697000Y-128143000D01*
X114808000Y-126555500D02*
X114300000Y-127063500D01*
X117160000Y-127635000D02*
X117094000Y-127635000D01*
X117094000Y-127635000D02*
X116586000Y-128143000D01*
X116586000Y-128143000D02*
X116205000Y-128143000D01*
X119060000Y-121412000D02*
X119126000Y-121412000D01*
X119126000Y-121412000D02*
X119634000Y-120904000D01*
X119634000Y-120904000D02*
X120015000Y-120904000D01*
X121920000Y-121920000D02*
X121920000Y-121666000D01*
X121920000Y-121666000D02*
X121158000Y-120904000D01*
X121158000Y-120904000D02*
X120523000Y-120904000D01*
X119060000Y-121412000D02*
X119126000Y-121412000D01*
X117160000Y-121412000D02*
X117094000Y-121412000D01*
X117094000Y-121412000D02*
X116586000Y-120904000D01*
X116586000Y-120904000D02*
X116205000Y-120904000D01*
X114300000Y-121920000D02*
X114300000Y-121539000D01*
X114300000Y-121539000D02*
X114935000Y-120904000D01*
X114935000Y-120904000D02*
X115697000Y-120904000D01*
X119210000Y-124460000D02*
X121920000Y-124460000D01*
X116713000Y-126555500D02*
X114808000Y-126555500D01*
X117010000Y-126258500D02*
X116713000Y-126555500D01*
X117010000Y-125473500D02*
X117010000Y-126258500D01*
X121419620Y-126563120D02*
X121920000Y-127063500D01*
X119526050Y-126563120D02*
X121419620Y-126563120D01*
X119210000Y-126247070D02*
X119526050Y-126563120D01*
X119210000Y-125473500D02*
X119210000Y-126247070D01*
X117010000Y-123510000D02*
X117010000Y-122736430D01*
X117010000Y-122736430D02*
X116693950Y-122420380D01*
X116693950Y-122420380D02*
X114800380Y-122420380D01*
X114800380Y-122420380D02*
X114300000Y-121920000D01*
X119210000Y-123510000D02*
X119210000Y-122725000D01*
X119210000Y-122725000D02*
X119507000Y-122428000D01*
X119507000Y-122428000D02*
X121412000Y-122428000D01*
X121412000Y-122428000D02*
X121920000Y-121920000D01*
X117010000Y-124460000D02*
X114300000Y-124460000D01*
X130472000Y-124460000D02*
X127762000Y-124460000D01*
X134874000Y-122428000D02*
X135382000Y-121920000D01*
X132969000Y-122428000D02*
X134874000Y-122428000D01*
X132672000Y-122725000D02*
X132969000Y-122428000D01*
X132672000Y-123510000D02*
X132672000Y-122725000D01*
X128262380Y-122420380D02*
X127762000Y-121920000D01*
X130155950Y-122420380D02*
X128262380Y-122420380D01*
X130472000Y-122736430D02*
X130155950Y-122420380D01*
X130472000Y-123510000D02*
X130472000Y-122736430D01*
X132672000Y-125473500D02*
X132672000Y-126247070D01*
X132672000Y-126247070D02*
X132988050Y-126563120D01*
X132988050Y-126563120D02*
X134881620Y-126563120D01*
X134881620Y-126563120D02*
X135382000Y-127063500D01*
X130472000Y-125473500D02*
X130472000Y-126258500D01*
X130472000Y-126258500D02*
X130175000Y-126555500D01*
X130175000Y-126555500D02*
X128270000Y-126555500D01*
X132672000Y-124460000D02*
X135382000Y-124460000D01*
X128397000Y-120904000D02*
X129159000Y-120904000D01*
X127762000Y-121539000D02*
X128397000Y-120904000D01*
X127762000Y-121920000D02*
X127762000Y-121539000D01*
X130048000Y-120904000D02*
X129667000Y-120904000D01*
X130556000Y-121412000D02*
X130048000Y-120904000D01*
X130622000Y-121412000D02*
X130556000Y-121412000D01*
X132522000Y-121412000D02*
X132588000Y-121412000D01*
X134620000Y-120904000D02*
X133985000Y-120904000D01*
X135382000Y-121666000D02*
X134620000Y-120904000D01*
X135382000Y-121920000D02*
X135382000Y-121666000D01*
X133096000Y-120904000D02*
X133477000Y-120904000D01*
X132588000Y-121412000D02*
X133096000Y-120904000D01*
X132522000Y-121412000D02*
X132588000Y-121412000D01*
X130048000Y-128143000D02*
X129667000Y-128143000D01*
X130556000Y-127635000D02*
X130048000Y-128143000D01*
X130622000Y-127635000D02*
X130556000Y-127635000D01*
X128270000Y-126555500D02*
X127762000Y-127063500D01*
X128270000Y-128143000D02*
X129159000Y-128143000D01*
X127762000Y-127635000D02*
X128270000Y-128143000D01*
X127762000Y-127000000D02*
X127762000Y-127635000D01*
X133096000Y-128143000D02*
X133477000Y-128143000D01*
X132588000Y-127635000D02*
X133096000Y-128143000D01*
X132522000Y-127635000D02*
X132588000Y-127635000D01*
X134620000Y-128143000D02*
X133985000Y-128143000D01*
X135382000Y-127381000D02*
X134620000Y-128143000D01*
X135382000Y-127000000D02*
X135382000Y-127381000D01*
X131572000Y-125001020D02*
X131572000Y-126238000D01*
X132113020Y-124460000D02*
X131572000Y-125001020D01*
X132672000Y-124460000D02*
X132113020Y-124460000D01*
X131572000Y-123991370D02*
X131572000Y-122682000D01*
X131103370Y-124460000D02*
X131572000Y-123991370D01*
X130472000Y-124460000D02*
X131103370Y-124460000D01*
X131572000Y-121539000D02*
X131572000Y-122174000D01*
X131445000Y-121412000D02*
X131572000Y-121539000D01*
X130622000Y-121412000D02*
X131445000Y-121412000D01*
X131572000Y-127508000D02*
X131572000Y-126746000D01*
X131699000Y-127635000D02*
X131572000Y-127508000D01*
X132522000Y-127635000D02*
X131699000Y-127635000D01*
X145222000Y-127635000D02*
X144399000Y-127635000D01*
X144399000Y-127635000D02*
X144272000Y-127508000D01*
X144272000Y-127508000D02*
X144272000Y-126746000D01*
X143322000Y-121412000D02*
X144145000Y-121412000D01*
X144145000Y-121412000D02*
X144272000Y-121539000D01*
X144272000Y-121539000D02*
X144272000Y-122174000D01*
X143172000Y-124460000D02*
X143803370Y-124460000D01*
X143803370Y-124460000D02*
X144272000Y-123991370D01*
X144272000Y-123991370D02*
X144272000Y-122682000D01*
X145372000Y-124460000D02*
X144813020Y-124460000D01*
X144813020Y-124460000D02*
X144272000Y-125001020D01*
X144272000Y-125001020D02*
X144272000Y-126238000D01*
X148082000Y-127000000D02*
X148082000Y-127381000D01*
X148082000Y-127381000D02*
X147320000Y-128143000D01*
X147320000Y-128143000D02*
X146685000Y-128143000D01*
X145222000Y-127635000D02*
X145288000Y-127635000D01*
X145288000Y-127635000D02*
X145796000Y-128143000D01*
X145796000Y-128143000D02*
X146177000Y-128143000D01*
X140462000Y-127000000D02*
X140462000Y-127635000D01*
X140462000Y-127635000D02*
X140970000Y-128143000D01*
X140970000Y-128143000D02*
X141859000Y-128143000D01*
X140970000Y-126555500D02*
X140462000Y-127063500D01*
X143322000Y-127635000D02*
X143256000Y-127635000D01*
X143256000Y-127635000D02*
X142748000Y-128143000D01*
X142748000Y-128143000D02*
X142367000Y-128143000D01*
X145222000Y-121412000D02*
X145288000Y-121412000D01*
X145288000Y-121412000D02*
X145796000Y-120904000D01*
X145796000Y-120904000D02*
X146177000Y-120904000D01*
X148082000Y-121920000D02*
X148082000Y-121666000D01*
X148082000Y-121666000D02*
X147320000Y-120904000D01*
X147320000Y-120904000D02*
X146685000Y-120904000D01*
X145222000Y-121412000D02*
X145288000Y-121412000D01*
X143322000Y-121412000D02*
X143256000Y-121412000D01*
X143256000Y-121412000D02*
X142748000Y-120904000D01*
X142748000Y-120904000D02*
X142367000Y-120904000D01*
X140462000Y-121920000D02*
X140462000Y-121539000D01*
X140462000Y-121539000D02*
X141097000Y-120904000D01*
X141097000Y-120904000D02*
X141859000Y-120904000D01*
X145372000Y-124460000D02*
X148082000Y-124460000D01*
X142875000Y-126555500D02*
X140970000Y-126555500D01*
X143172000Y-126258500D02*
X142875000Y-126555500D01*
X143172000Y-125473500D02*
X143172000Y-126258500D01*
X147581620Y-126563120D02*
X148082000Y-127063500D01*
X145688050Y-126563120D02*
X147581620Y-126563120D01*
X145372000Y-126247070D02*
X145688050Y-126563120D01*
X145372000Y-125473500D02*
X145372000Y-126247070D01*
X143172000Y-123510000D02*
X143172000Y-122736430D01*
X143172000Y-122736430D02*
X142855950Y-122420380D01*
X142855950Y-122420380D02*
X140962380Y-122420380D01*
X140962380Y-122420380D02*
X140462000Y-121920000D01*
X145372000Y-123510000D02*
X145372000Y-122725000D01*
X145372000Y-122725000D02*
X145669000Y-122428000D01*
X145669000Y-122428000D02*
X147574000Y-122428000D01*
X147574000Y-122428000D02*
X148082000Y-121920000D01*
X143172000Y-124460000D02*
X140462000Y-124460000D01*
X104310000Y-114300000D02*
X101600000Y-114300000D01*
X108712000Y-112268000D02*
X109220000Y-111760000D01*
X106807000Y-112268000D02*
X108712000Y-112268000D01*
X106510000Y-112565000D02*
X106807000Y-112268000D01*
X106510000Y-113350000D02*
X106510000Y-112565000D01*
X102100380Y-112260380D02*
X101600000Y-111760000D01*
X103993950Y-112260380D02*
X102100380Y-112260380D01*
X104310000Y-112576430D02*
X103993950Y-112260380D01*
X104310000Y-113350000D02*
X104310000Y-112576430D01*
X106510000Y-115313500D02*
X106510000Y-116087070D01*
X106510000Y-116087070D02*
X106826050Y-116403120D01*
X106826050Y-116403120D02*
X108719620Y-116403120D01*
X108719620Y-116403120D02*
X109220000Y-116903500D01*
X104310000Y-115313500D02*
X104310000Y-116098500D01*
X104310000Y-116098500D02*
X104013000Y-116395500D01*
X104013000Y-116395500D02*
X102108000Y-116395500D01*
X106510000Y-114300000D02*
X109220000Y-114300000D01*
X102235000Y-110744000D02*
X102997000Y-110744000D01*
X101600000Y-111379000D02*
X102235000Y-110744000D01*
X101600000Y-111760000D02*
X101600000Y-111379000D01*
X103886000Y-110744000D02*
X103505000Y-110744000D01*
X104394000Y-111252000D02*
X103886000Y-110744000D01*
X104460000Y-111252000D02*
X104394000Y-111252000D01*
X106360000Y-111252000D02*
X106426000Y-111252000D01*
X108458000Y-110744000D02*
X107823000Y-110744000D01*
X109220000Y-111506000D02*
X108458000Y-110744000D01*
X109220000Y-111760000D02*
X109220000Y-111506000D01*
X106934000Y-110744000D02*
X107315000Y-110744000D01*
X106426000Y-111252000D02*
X106934000Y-110744000D01*
X106360000Y-111252000D02*
X106426000Y-111252000D01*
X103886000Y-117983000D02*
X103505000Y-117983000D01*
X104394000Y-117475000D02*
X103886000Y-117983000D01*
X104460000Y-117475000D02*
X104394000Y-117475000D01*
X102108000Y-116395500D02*
X101600000Y-116903500D01*
X102108000Y-117983000D02*
X102997000Y-117983000D01*
X101600000Y-117475000D02*
X102108000Y-117983000D01*
X101600000Y-116840000D02*
X101600000Y-117475000D01*
X106934000Y-117983000D02*
X107315000Y-117983000D01*
X106426000Y-117475000D02*
X106934000Y-117983000D01*
X106360000Y-117475000D02*
X106426000Y-117475000D01*
X108458000Y-117983000D02*
X107823000Y-117983000D01*
X109220000Y-117221000D02*
X108458000Y-117983000D01*
X109220000Y-116840000D02*
X109220000Y-117221000D01*
X105410000Y-114841020D02*
X105410000Y-116078000D01*
X105951020Y-114300000D02*
X105410000Y-114841020D01*
X106510000Y-114300000D02*
X105951020Y-114300000D01*
X105410000Y-113831370D02*
X105410000Y-112522000D01*
X104941370Y-114300000D02*
X105410000Y-113831370D01*
X104310000Y-114300000D02*
X104941370Y-114300000D01*
X105410000Y-111379000D02*
X105410000Y-112014000D01*
X105283000Y-111252000D02*
X105410000Y-111379000D01*
X104460000Y-111252000D02*
X105283000Y-111252000D01*
X105410000Y-117348000D02*
X105410000Y-116586000D01*
X105537000Y-117475000D02*
X105410000Y-117348000D01*
X106360000Y-117475000D02*
X105537000Y-117475000D01*
X119060000Y-117475000D02*
X118237000Y-117475000D01*
X118237000Y-117475000D02*
X118110000Y-117348000D01*
X118110000Y-117348000D02*
X118110000Y-116586000D01*
X117160000Y-111252000D02*
X117983000Y-111252000D01*
X117983000Y-111252000D02*
X118110000Y-111379000D01*
X118110000Y-111379000D02*
X118110000Y-112014000D01*
X117010000Y-114300000D02*
X117641370Y-114300000D01*
X117641370Y-114300000D02*
X118110000Y-113831370D01*
X118110000Y-113831370D02*
X118110000Y-112522000D01*
X119210000Y-114300000D02*
X118651020Y-114300000D01*
X118651020Y-114300000D02*
X118110000Y-114841020D01*
X118110000Y-114841020D02*
X118110000Y-116078000D01*
X121920000Y-116840000D02*
X121920000Y-117221000D01*
X121920000Y-117221000D02*
X121158000Y-117983000D01*
X121158000Y-117983000D02*
X120523000Y-117983000D01*
X119060000Y-117475000D02*
X119126000Y-117475000D01*
X119126000Y-117475000D02*
X119634000Y-117983000D01*
X119634000Y-117983000D02*
X120015000Y-117983000D01*
X114300000Y-116840000D02*
X114300000Y-117475000D01*
X114300000Y-117475000D02*
X114808000Y-117983000D01*
X114808000Y-117983000D02*
X115697000Y-117983000D01*
X114808000Y-116395500D02*
X114300000Y-116903500D01*
X117160000Y-117475000D02*
X117094000Y-117475000D01*
X117094000Y-117475000D02*
X116586000Y-117983000D01*
X116586000Y-117983000D02*
X116205000Y-117983000D01*
X119060000Y-111252000D02*
X119126000Y-111252000D01*
X119126000Y-111252000D02*
X119634000Y-110744000D01*
X119634000Y-110744000D02*
X120015000Y-110744000D01*
X121920000Y-111760000D02*
X121920000Y-111506000D01*
X121920000Y-111506000D02*
X121158000Y-110744000D01*
X121158000Y-110744000D02*
X120523000Y-110744000D01*
X119060000Y-111252000D02*
X119126000Y-111252000D01*
X117160000Y-111252000D02*
X117094000Y-111252000D01*
X117094000Y-111252000D02*
X116586000Y-110744000D01*
X116586000Y-110744000D02*
X116205000Y-110744000D01*
X114300000Y-111760000D02*
X114300000Y-111379000D01*
X114300000Y-111379000D02*
X114935000Y-110744000D01*
X114935000Y-110744000D02*
X115697000Y-110744000D01*
X119210000Y-114300000D02*
X121920000Y-114300000D01*
X116713000Y-116395500D02*
X114808000Y-116395500D01*
X117010000Y-116098500D02*
X116713000Y-116395500D01*
X117010000Y-115313500D02*
X117010000Y-116098500D01*
X121419620Y-116403120D02*
X121920000Y-116903500D01*
X119526050Y-116403120D02*
X121419620Y-116403120D01*
X119210000Y-116087070D02*
X119526050Y-116403120D01*
X119210000Y-115313500D02*
X119210000Y-116087070D01*
X117010000Y-113350000D02*
X117010000Y-112576430D01*
X117010000Y-112576430D02*
X116693950Y-112260380D01*
X116693950Y-112260380D02*
X114800380Y-112260380D01*
X114800380Y-112260380D02*
X114300000Y-111760000D01*
X119210000Y-113350000D02*
X119210000Y-112565000D01*
X119210000Y-112565000D02*
X119507000Y-112268000D01*
X119507000Y-112268000D02*
X121412000Y-112268000D01*
X121412000Y-112268000D02*
X121920000Y-111760000D01*
X117010000Y-114300000D02*
X114300000Y-114300000D01*
X130472000Y-114300000D02*
X127762000Y-114300000D01*
X134874000Y-112268000D02*
X135382000Y-111760000D01*
X132969000Y-112268000D02*
X134874000Y-112268000D01*
X132672000Y-112565000D02*
X132969000Y-112268000D01*
X132672000Y-113350000D02*
X132672000Y-112565000D01*
X128262380Y-112260380D02*
X127762000Y-111760000D01*
X130155950Y-112260380D02*
X128262380Y-112260380D01*
X130472000Y-112576430D02*
X130155950Y-112260380D01*
X130472000Y-113350000D02*
X130472000Y-112576430D01*
X132672000Y-115313500D02*
X132672000Y-116087070D01*
X132672000Y-116087070D02*
X132988050Y-116403120D01*
X132988050Y-116403120D02*
X134881620Y-116403120D01*
X134881620Y-116403120D02*
X135382000Y-116903500D01*
X130472000Y-115313500D02*
X130472000Y-116098500D01*
X130472000Y-116098500D02*
X130175000Y-116395500D01*
X130175000Y-116395500D02*
X128270000Y-116395500D01*
X132672000Y-114300000D02*
X135382000Y-114300000D01*
X128397000Y-110744000D02*
X129159000Y-110744000D01*
X127762000Y-111379000D02*
X128397000Y-110744000D01*
X127762000Y-111760000D02*
X127762000Y-111379000D01*
X130048000Y-110744000D02*
X129667000Y-110744000D01*
X130556000Y-111252000D02*
X130048000Y-110744000D01*
X130622000Y-111252000D02*
X130556000Y-111252000D01*
X132522000Y-111252000D02*
X132588000Y-111252000D01*
X134620000Y-110744000D02*
X133985000Y-110744000D01*
X135382000Y-111506000D02*
X134620000Y-110744000D01*
X135382000Y-111760000D02*
X135382000Y-111506000D01*
X133096000Y-110744000D02*
X133477000Y-110744000D01*
X132588000Y-111252000D02*
X133096000Y-110744000D01*
X132522000Y-111252000D02*
X132588000Y-111252000D01*
X130048000Y-117983000D02*
X129667000Y-117983000D01*
X130556000Y-117475000D02*
X130048000Y-117983000D01*
X130622000Y-117475000D02*
X130556000Y-117475000D01*
X128270000Y-116395500D02*
X127762000Y-116903500D01*
X128270000Y-117983000D02*
X129159000Y-117983000D01*
X127762000Y-117475000D02*
X128270000Y-117983000D01*
X127762000Y-116840000D02*
X127762000Y-117475000D01*
X133096000Y-117983000D02*
X133477000Y-117983000D01*
X132588000Y-117475000D02*
X133096000Y-117983000D01*
X132522000Y-117475000D02*
X132588000Y-117475000D01*
X134620000Y-117983000D02*
X133985000Y-117983000D01*
X135382000Y-117221000D02*
X134620000Y-117983000D01*
X135382000Y-116840000D02*
X135382000Y-117221000D01*
X131572000Y-114841020D02*
X131572000Y-116078000D01*
X132113020Y-114300000D02*
X131572000Y-114841020D01*
X132672000Y-114300000D02*
X132113020Y-114300000D01*
X131572000Y-113831370D02*
X131572000Y-112522000D01*
X131103370Y-114300000D02*
X131572000Y-113831370D01*
X130472000Y-114300000D02*
X131103370Y-114300000D01*
X131572000Y-111379000D02*
X131572000Y-112014000D01*
X131445000Y-111252000D02*
X131572000Y-111379000D01*
X130622000Y-111252000D02*
X131445000Y-111252000D01*
X131572000Y-117348000D02*
X131572000Y-116586000D01*
X131699000Y-117475000D02*
X131572000Y-117348000D01*
X132522000Y-117475000D02*
X131699000Y-117475000D01*
X145222000Y-117475000D02*
X144399000Y-117475000D01*
X144399000Y-117475000D02*
X144272000Y-117348000D01*
X144272000Y-117348000D02*
X144272000Y-116586000D01*
X143322000Y-111252000D02*
X144145000Y-111252000D01*
X144145000Y-111252000D02*
X144272000Y-111379000D01*
X144272000Y-111379000D02*
X144272000Y-112014000D01*
X143172000Y-114300000D02*
X143803370Y-114300000D01*
X143803370Y-114300000D02*
X144272000Y-113831370D01*
X144272000Y-113831370D02*
X144272000Y-112522000D01*
X145372000Y-114300000D02*
X144813020Y-114300000D01*
X144813020Y-114300000D02*
X144272000Y-114841020D01*
X144272000Y-114841020D02*
X144272000Y-116078000D01*
X148082000Y-116840000D02*
X148082000Y-117221000D01*
X148082000Y-117221000D02*
X147320000Y-117983000D01*
X147320000Y-117983000D02*
X146685000Y-117983000D01*
X145222000Y-117475000D02*
X145288000Y-117475000D01*
X145288000Y-117475000D02*
X145796000Y-117983000D01*
X145796000Y-117983000D02*
X146177000Y-117983000D01*
X140462000Y-116840000D02*
X140462000Y-117475000D01*
X140462000Y-117475000D02*
X140970000Y-117983000D01*
X140970000Y-117983000D02*
X141859000Y-117983000D01*
X140970000Y-116395500D02*
X140462000Y-116903500D01*
X143322000Y-117475000D02*
X143256000Y-117475000D01*
X143256000Y-117475000D02*
X142748000Y-117983000D01*
X142748000Y-117983000D02*
X142367000Y-117983000D01*
X145222000Y-111252000D02*
X145288000Y-111252000D01*
X145288000Y-111252000D02*
X145796000Y-110744000D01*
X145796000Y-110744000D02*
X146177000Y-110744000D01*
X148082000Y-111760000D02*
X148082000Y-111506000D01*
X148082000Y-111506000D02*
X147320000Y-110744000D01*
X147320000Y-110744000D02*
X146685000Y-110744000D01*
X145222000Y-111252000D02*
X145288000Y-111252000D01*
X143322000Y-111252000D02*
X143256000Y-111252000D01*
X143256000Y-111252000D02*
X142748000Y-110744000D01*
X142748000Y-110744000D02*
X142367000Y-110744000D01*
X140462000Y-111760000D02*
X140462000Y-111379000D01*
X140462000Y-111379000D02*
X141097000Y-110744000D01*
X141097000Y-110744000D02*
X141859000Y-110744000D01*
X145372000Y-114300000D02*
X148082000Y-114300000D01*
X142875000Y-116395500D02*
X140970000Y-116395500D01*
X143172000Y-116098500D02*
X142875000Y-116395500D01*
X143172000Y-115313500D02*
X143172000Y-116098500D01*
X147581620Y-116403120D02*
X148082000Y-116903500D01*
X145688050Y-116403120D02*
X147581620Y-116403120D01*
X145372000Y-116087070D02*
X145688050Y-116403120D01*
X145372000Y-115313500D02*
X145372000Y-116087070D01*
X143172000Y-113350000D02*
X143172000Y-112576430D01*
X143172000Y-112576430D02*
X142855950Y-112260380D01*
X142855950Y-112260380D02*
X140962380Y-112260380D01*
X140962380Y-112260380D02*
X140462000Y-111760000D01*
X145372000Y-113350000D02*
X145372000Y-112565000D01*
X145372000Y-112565000D02*
X145669000Y-112268000D01*
X145669000Y-112268000D02*
X147574000Y-112268000D01*
X147574000Y-112268000D02*
X148082000Y-111760000D01*
X143172000Y-114300000D02*
X140462000Y-114300000D01*
X143172000Y-104140000D02*
X140462000Y-104140000D01*
X147574000Y-102108000D02*
X148082000Y-101600000D01*
X145669000Y-102108000D02*
X147574000Y-102108000D01*
X145372000Y-102405000D02*
X145669000Y-102108000D01*
X145372000Y-103190000D02*
X145372000Y-102405000D01*
X140962380Y-102100380D02*
X140462000Y-101600000D01*
X142855950Y-102100380D02*
X140962380Y-102100380D01*
X143172000Y-102416430D02*
X142855950Y-102100380D01*
X143172000Y-103190000D02*
X143172000Y-102416430D01*
X145372000Y-105153500D02*
X145372000Y-105927070D01*
X145372000Y-105927070D02*
X145688050Y-106243120D01*
X145688050Y-106243120D02*
X147581620Y-106243120D01*
X147581620Y-106243120D02*
X148082000Y-106743500D01*
X143172000Y-105153500D02*
X143172000Y-105938500D01*
X143172000Y-105938500D02*
X142875000Y-106235500D01*
X142875000Y-106235500D02*
X140970000Y-106235500D01*
X145372000Y-104140000D02*
X148082000Y-104140000D01*
X141097000Y-100584000D02*
X141859000Y-100584000D01*
X140462000Y-101219000D02*
X141097000Y-100584000D01*
X140462000Y-101600000D02*
X140462000Y-101219000D01*
X142748000Y-100584000D02*
X142367000Y-100584000D01*
X143256000Y-101092000D02*
X142748000Y-100584000D01*
X143322000Y-101092000D02*
X143256000Y-101092000D01*
X145222000Y-101092000D02*
X145288000Y-101092000D01*
X147320000Y-100584000D02*
X146685000Y-100584000D01*
X148082000Y-101346000D02*
X147320000Y-100584000D01*
X148082000Y-101600000D02*
X148082000Y-101346000D01*
X145796000Y-100584000D02*
X146177000Y-100584000D01*
X145288000Y-101092000D02*
X145796000Y-100584000D01*
X145222000Y-101092000D02*
X145288000Y-101092000D01*
X142748000Y-107823000D02*
X142367000Y-107823000D01*
X143256000Y-107315000D02*
X142748000Y-107823000D01*
X143322000Y-107315000D02*
X143256000Y-107315000D01*
X140970000Y-106235500D02*
X140462000Y-106743500D01*
X140970000Y-107823000D02*
X141859000Y-107823000D01*
X140462000Y-107315000D02*
X140970000Y-107823000D01*
X140462000Y-106680000D02*
X140462000Y-107315000D01*
X145796000Y-107823000D02*
X146177000Y-107823000D01*
X145288000Y-107315000D02*
X145796000Y-107823000D01*
X145222000Y-107315000D02*
X145288000Y-107315000D01*
X147320000Y-107823000D02*
X146685000Y-107823000D01*
X148082000Y-107061000D02*
X147320000Y-107823000D01*
X148082000Y-106680000D02*
X148082000Y-107061000D01*
X144272000Y-104681020D02*
X144272000Y-105918000D01*
X144813020Y-104140000D02*
X144272000Y-104681020D01*
X145372000Y-104140000D02*
X144813020Y-104140000D01*
X144272000Y-103671370D02*
X144272000Y-102362000D01*
X143803370Y-104140000D02*
X144272000Y-103671370D01*
X143172000Y-104140000D02*
X143803370Y-104140000D01*
X144272000Y-101219000D02*
X144272000Y-101854000D01*
X144145000Y-101092000D02*
X144272000Y-101219000D01*
X143322000Y-101092000D02*
X144145000Y-101092000D01*
X144272000Y-107188000D02*
X144272000Y-106426000D01*
X144399000Y-107315000D02*
X144272000Y-107188000D01*
X145222000Y-107315000D02*
X144399000Y-107315000D01*
X132522000Y-107315000D02*
X131699000Y-107315000D01*
X131699000Y-107315000D02*
X131572000Y-107188000D01*
X131572000Y-107188000D02*
X131572000Y-106426000D01*
X130622000Y-101092000D02*
X131445000Y-101092000D01*
X131445000Y-101092000D02*
X131572000Y-101219000D01*
X131572000Y-101219000D02*
X131572000Y-101854000D01*
X130472000Y-104140000D02*
X131103370Y-104140000D01*
X131103370Y-104140000D02*
X131572000Y-103671370D01*
X131572000Y-103671370D02*
X131572000Y-102362000D01*
X132672000Y-104140000D02*
X132113020Y-104140000D01*
X132113020Y-104140000D02*
X131572000Y-104681020D01*
X131572000Y-104681020D02*
X131572000Y-105918000D01*
X135382000Y-106680000D02*
X135382000Y-107061000D01*
X135382000Y-107061000D02*
X134620000Y-107823000D01*
X134620000Y-107823000D02*
X133985000Y-107823000D01*
X132522000Y-107315000D02*
X132588000Y-107315000D01*
X132588000Y-107315000D02*
X133096000Y-107823000D01*
X133096000Y-107823000D02*
X133477000Y-107823000D01*
X127762000Y-106680000D02*
X127762000Y-107315000D01*
X127762000Y-107315000D02*
X128270000Y-107823000D01*
X128270000Y-107823000D02*
X129159000Y-107823000D01*
X128270000Y-106235500D02*
X127762000Y-106743500D01*
X130622000Y-107315000D02*
X130556000Y-107315000D01*
X130556000Y-107315000D02*
X130048000Y-107823000D01*
X130048000Y-107823000D02*
X129667000Y-107823000D01*
X132522000Y-101092000D02*
X132588000Y-101092000D01*
X132588000Y-101092000D02*
X133096000Y-100584000D01*
X133096000Y-100584000D02*
X133477000Y-100584000D01*
X135382000Y-101600000D02*
X135382000Y-101346000D01*
X135382000Y-101346000D02*
X134620000Y-100584000D01*
X134620000Y-100584000D02*
X133985000Y-100584000D01*
X132522000Y-101092000D02*
X132588000Y-101092000D01*
X130622000Y-101092000D02*
X130556000Y-101092000D01*
X130556000Y-101092000D02*
X130048000Y-100584000D01*
X130048000Y-100584000D02*
X129667000Y-100584000D01*
X127762000Y-101600000D02*
X127762000Y-101219000D01*
X127762000Y-101219000D02*
X128397000Y-100584000D01*
X128397000Y-100584000D02*
X129159000Y-100584000D01*
X132672000Y-104140000D02*
X135382000Y-104140000D01*
X130175000Y-106235500D02*
X128270000Y-106235500D01*
X130472000Y-105938500D02*
X130175000Y-106235500D01*
X130472000Y-105153500D02*
X130472000Y-105938500D01*
X134881620Y-106243120D02*
X135382000Y-106743500D01*
X132988050Y-106243120D02*
X134881620Y-106243120D01*
X132672000Y-105927070D02*
X132988050Y-106243120D01*
X132672000Y-105153500D02*
X132672000Y-105927070D01*
X130472000Y-103190000D02*
X130472000Y-102416430D01*
X130472000Y-102416430D02*
X130155950Y-102100380D01*
X130155950Y-102100380D02*
X128262380Y-102100380D01*
X128262380Y-102100380D02*
X127762000Y-101600000D01*
X132672000Y-103190000D02*
X132672000Y-102405000D01*
X132672000Y-102405000D02*
X132969000Y-102108000D01*
X132969000Y-102108000D02*
X134874000Y-102108000D01*
X134874000Y-102108000D02*
X135382000Y-101600000D01*
X130472000Y-104140000D02*
X127762000Y-104140000D01*
X117010000Y-104140000D02*
X114300000Y-104140000D01*
X121412000Y-102108000D02*
X121920000Y-101600000D01*
X119507000Y-102108000D02*
X121412000Y-102108000D01*
X119210000Y-102405000D02*
X119507000Y-102108000D01*
X119210000Y-103190000D02*
X119210000Y-102405000D01*
X114800380Y-102100380D02*
X114300000Y-101600000D01*
X116693950Y-102100380D02*
X114800380Y-102100380D01*
X117010000Y-102416430D02*
X116693950Y-102100380D01*
X117010000Y-103190000D02*
X117010000Y-102416430D01*
X119210000Y-105153500D02*
X119210000Y-105927070D01*
X119210000Y-105927070D02*
X119526050Y-106243120D01*
X119526050Y-106243120D02*
X121419620Y-106243120D01*
X121419620Y-106243120D02*
X121920000Y-106743500D01*
X117010000Y-105153500D02*
X117010000Y-105938500D01*
X117010000Y-105938500D02*
X116713000Y-106235500D01*
X116713000Y-106235500D02*
X114808000Y-106235500D01*
X119210000Y-104140000D02*
X121920000Y-104140000D01*
X114935000Y-100584000D02*
X115697000Y-100584000D01*
X114300000Y-101219000D02*
X114935000Y-100584000D01*
X114300000Y-101600000D02*
X114300000Y-101219000D01*
X116586000Y-100584000D02*
X116205000Y-100584000D01*
X117094000Y-101092000D02*
X116586000Y-100584000D01*
X117160000Y-101092000D02*
X117094000Y-101092000D01*
X119060000Y-101092000D02*
X119126000Y-101092000D01*
X121158000Y-100584000D02*
X120523000Y-100584000D01*
X121920000Y-101346000D02*
X121158000Y-100584000D01*
X121920000Y-101600000D02*
X121920000Y-101346000D01*
X119634000Y-100584000D02*
X120015000Y-100584000D01*
X119126000Y-101092000D02*
X119634000Y-100584000D01*
X119060000Y-101092000D02*
X119126000Y-101092000D01*
X116586000Y-107823000D02*
X116205000Y-107823000D01*
X117094000Y-107315000D02*
X116586000Y-107823000D01*
X117160000Y-107315000D02*
X117094000Y-107315000D01*
X114808000Y-106235500D02*
X114300000Y-106743500D01*
X114808000Y-107823000D02*
X115697000Y-107823000D01*
X114300000Y-107315000D02*
X114808000Y-107823000D01*
X114300000Y-106680000D02*
X114300000Y-107315000D01*
X119634000Y-107823000D02*
X120015000Y-107823000D01*
X119126000Y-107315000D02*
X119634000Y-107823000D01*
X119060000Y-107315000D02*
X119126000Y-107315000D01*
X121158000Y-107823000D02*
X120523000Y-107823000D01*
X121920000Y-107061000D02*
X121158000Y-107823000D01*
X121920000Y-106680000D02*
X121920000Y-107061000D01*
X118110000Y-104681020D02*
X118110000Y-105918000D01*
X118651020Y-104140000D02*
X118110000Y-104681020D01*
X119210000Y-104140000D02*
X118651020Y-104140000D01*
X118110000Y-103671370D02*
X118110000Y-102362000D01*
X117641370Y-104140000D02*
X118110000Y-103671370D01*
X117010000Y-104140000D02*
X117641370Y-104140000D01*
X118110000Y-101219000D02*
X118110000Y-101854000D01*
X117983000Y-101092000D02*
X118110000Y-101219000D01*
X117160000Y-101092000D02*
X117983000Y-101092000D01*
X118110000Y-107188000D02*
X118110000Y-106426000D01*
X118237000Y-107315000D02*
X118110000Y-107188000D01*
X119060000Y-107315000D02*
X118237000Y-107315000D01*
X106360000Y-107315000D02*
X105537000Y-107315000D01*
X105537000Y-107315000D02*
X105410000Y-107188000D01*
X105410000Y-107188000D02*
X105410000Y-106426000D01*
X104460000Y-101092000D02*
X105283000Y-101092000D01*
X105283000Y-101092000D02*
X105410000Y-101219000D01*
X105410000Y-101219000D02*
X105410000Y-101854000D01*
X104310000Y-104140000D02*
X104941370Y-104140000D01*
X104941370Y-104140000D02*
X105410000Y-103671370D01*
X105410000Y-103671370D02*
X105410000Y-102362000D01*
X106510000Y-104140000D02*
X105951020Y-104140000D01*
X105951020Y-104140000D02*
X105410000Y-104681020D01*
X105410000Y-104681020D02*
X105410000Y-105918000D01*
X109220000Y-106680000D02*
X109220000Y-107061000D01*
X109220000Y-107061000D02*
X108458000Y-107823000D01*
X108458000Y-107823000D02*
X107823000Y-107823000D01*
X106360000Y-107315000D02*
X106426000Y-107315000D01*
X106426000Y-107315000D02*
X106934000Y-107823000D01*
X106934000Y-107823000D02*
X107315000Y-107823000D01*
X101600000Y-106680000D02*
X101600000Y-107315000D01*
X101600000Y-107315000D02*
X102108000Y-107823000D01*
X102108000Y-107823000D02*
X102997000Y-107823000D01*
X102108000Y-106235500D02*
X101600000Y-106743500D01*
X104460000Y-107315000D02*
X104394000Y-107315000D01*
X104394000Y-107315000D02*
X103886000Y-107823000D01*
X103886000Y-107823000D02*
X103505000Y-107823000D01*
X106360000Y-101092000D02*
X106426000Y-101092000D01*
X106426000Y-101092000D02*
X106934000Y-100584000D01*
X106934000Y-100584000D02*
X107315000Y-100584000D01*
X109220000Y-101600000D02*
X109220000Y-101346000D01*
X109220000Y-101346000D02*
X108458000Y-100584000D01*
X108458000Y-100584000D02*
X107823000Y-100584000D01*
X106360000Y-101092000D02*
X106426000Y-101092000D01*
X104460000Y-101092000D02*
X104394000Y-101092000D01*
X104394000Y-101092000D02*
X103886000Y-100584000D01*
X103886000Y-100584000D02*
X103505000Y-100584000D01*
X101600000Y-101600000D02*
X101600000Y-101219000D01*
X101600000Y-101219000D02*
X102235000Y-100584000D01*
X102235000Y-100584000D02*
X102997000Y-100584000D01*
X106510000Y-104140000D02*
X109220000Y-104140000D01*
X104013000Y-106235500D02*
X102108000Y-106235500D01*
X104310000Y-105938500D02*
X104013000Y-106235500D01*
X104310000Y-105153500D02*
X104310000Y-105938500D01*
X108719620Y-106243120D02*
X109220000Y-106743500D01*
X106826050Y-106243120D02*
X108719620Y-106243120D01*
X106510000Y-105927070D02*
X106826050Y-106243120D01*
X106510000Y-105153500D02*
X106510000Y-105927070D01*
X104310000Y-103190000D02*
X104310000Y-102416430D01*
X104310000Y-102416430D02*
X103993950Y-102100380D01*
X103993950Y-102100380D02*
X102100380Y-102100380D01*
X102100380Y-102100380D02*
X101600000Y-101600000D01*
X106510000Y-103190000D02*
X106510000Y-102405000D01*
X106510000Y-102405000D02*
X106807000Y-102108000D01*
X106807000Y-102108000D02*
X108712000Y-102108000D01*
X108712000Y-102108000D02*
X109220000Y-101600000D01*
X104310000Y-104140000D02*
X101600000Y-104140000D01*
M02*
