G04 #@! TF.FileFunction,Soldermask,Bot*
%FSLAX46Y46*%
G04 Gerber Fmt 4.6, Leading zero omitted, Abs format (unit mm)*
G04 Created by KiCad (PCBNEW 4.0.4+dfsg1-stable) date Tue Nov  1 20:37:28 2016*
%MOMM*%
%LPD*%
G01*
G04 APERTURE LIST*
%ADD10C,0.100000*%
%ADD11R,2.051000X3.448000*%
%ADD12R,6.496000X6.496000*%
%ADD13O,2.127200X2.432000*%
%ADD14R,3.900120X3.900120*%
%ADD15R,1.460000X1.050000*%
%ADD16O,2.432000X2.127200*%
%ADD17R,1.100000X1.700000*%
%ADD18C,0.254000*%
G04 APERTURE END LIST*
D10*
D11*
X147955000Y-144018000D03*
D12*
X145669000Y-137668000D03*
D11*
X143383000Y-144018000D03*
D13*
X143129000Y-147828000D03*
X145669000Y-147828000D03*
X148209000Y-147828000D03*
X143129000Y-132588000D03*
X145669000Y-132588000D03*
X148209000Y-132588000D03*
D14*
X132388000Y-139862860D03*
X132388000Y-145862340D03*
X137087000Y-142862600D03*
D13*
X131191000Y-135890000D03*
X133731000Y-135890000D03*
X131191000Y-133350000D03*
X133731000Y-133350000D03*
X115316000Y-133350000D03*
X117856000Y-133350000D03*
X115316000Y-135890000D03*
X117856000Y-135890000D03*
X101854000Y-132588000D03*
X104394000Y-132588000D03*
X106934000Y-132588000D03*
X101854000Y-147828000D03*
X104394000Y-147828000D03*
X106934000Y-147828000D03*
D15*
X104310000Y-125410000D03*
X104310000Y-124460000D03*
X104310000Y-123510000D03*
X106510000Y-123510000D03*
X106510000Y-125410000D03*
X106510000Y-124460000D03*
D16*
X101600000Y-121920000D03*
X101600000Y-124460000D03*
X101600000Y-127000000D03*
X109220000Y-121920000D03*
X109220000Y-124460000D03*
X109220000Y-127000000D03*
D17*
X104460000Y-121412000D03*
X106360000Y-121412000D03*
X104460000Y-127635000D03*
X106360000Y-127635000D03*
X117160000Y-127635000D03*
X119060000Y-127635000D03*
X117160000Y-121412000D03*
X119060000Y-121412000D03*
D16*
X121920000Y-121920000D03*
X121920000Y-124460000D03*
X121920000Y-127000000D03*
X114300000Y-121920000D03*
X114300000Y-124460000D03*
X114300000Y-127000000D03*
D15*
X117010000Y-125410000D03*
X117010000Y-124460000D03*
X117010000Y-123510000D03*
X119210000Y-123510000D03*
X119210000Y-125410000D03*
X119210000Y-124460000D03*
X130472000Y-125410000D03*
X130472000Y-124460000D03*
X130472000Y-123510000D03*
X132672000Y-123510000D03*
X132672000Y-125410000D03*
X132672000Y-124460000D03*
D16*
X127762000Y-121920000D03*
X127762000Y-124460000D03*
X127762000Y-127000000D03*
X135382000Y-121920000D03*
X135382000Y-124460000D03*
X135382000Y-127000000D03*
D17*
X130622000Y-121412000D03*
X132522000Y-121412000D03*
X130622000Y-127635000D03*
X132522000Y-127635000D03*
X143322000Y-127635000D03*
X145222000Y-127635000D03*
X143322000Y-121412000D03*
X145222000Y-121412000D03*
D16*
X148082000Y-121920000D03*
X148082000Y-124460000D03*
X148082000Y-127000000D03*
X140462000Y-121920000D03*
X140462000Y-124460000D03*
X140462000Y-127000000D03*
D15*
X143172000Y-125410000D03*
X143172000Y-124460000D03*
X143172000Y-123510000D03*
X145372000Y-123510000D03*
X145372000Y-125410000D03*
X145372000Y-124460000D03*
X104310000Y-115250000D03*
X104310000Y-114300000D03*
X104310000Y-113350000D03*
X106510000Y-113350000D03*
X106510000Y-115250000D03*
X106510000Y-114300000D03*
D16*
X101600000Y-111760000D03*
X101600000Y-114300000D03*
X101600000Y-116840000D03*
X109220000Y-111760000D03*
X109220000Y-114300000D03*
X109220000Y-116840000D03*
D17*
X104460000Y-111252000D03*
X106360000Y-111252000D03*
X104460000Y-117475000D03*
X106360000Y-117475000D03*
X117160000Y-117475000D03*
X119060000Y-117475000D03*
X117160000Y-111252000D03*
X119060000Y-111252000D03*
D16*
X121920000Y-111760000D03*
X121920000Y-114300000D03*
X121920000Y-116840000D03*
X114300000Y-111760000D03*
X114300000Y-114300000D03*
X114300000Y-116840000D03*
D15*
X117010000Y-115250000D03*
X117010000Y-114300000D03*
X117010000Y-113350000D03*
X119210000Y-113350000D03*
X119210000Y-115250000D03*
X119210000Y-114300000D03*
X130472000Y-115250000D03*
X130472000Y-114300000D03*
X130472000Y-113350000D03*
X132672000Y-113350000D03*
X132672000Y-115250000D03*
X132672000Y-114300000D03*
D16*
X127762000Y-111760000D03*
X127762000Y-114300000D03*
X127762000Y-116840000D03*
X135382000Y-111760000D03*
X135382000Y-114300000D03*
X135382000Y-116840000D03*
D17*
X130622000Y-111252000D03*
X132522000Y-111252000D03*
X130622000Y-117475000D03*
X132522000Y-117475000D03*
X143322000Y-117475000D03*
X145222000Y-117475000D03*
X143322000Y-111252000D03*
X145222000Y-111252000D03*
D16*
X148082000Y-111760000D03*
X148082000Y-114300000D03*
X148082000Y-116840000D03*
X140462000Y-111760000D03*
X140462000Y-114300000D03*
X140462000Y-116840000D03*
D15*
X143172000Y-115250000D03*
X143172000Y-114300000D03*
X143172000Y-113350000D03*
X145372000Y-113350000D03*
X145372000Y-115250000D03*
X145372000Y-114300000D03*
X143172000Y-105090000D03*
X143172000Y-104140000D03*
X143172000Y-103190000D03*
X145372000Y-103190000D03*
X145372000Y-105090000D03*
X145372000Y-104140000D03*
D16*
X140462000Y-101600000D03*
X140462000Y-104140000D03*
X140462000Y-106680000D03*
X148082000Y-101600000D03*
X148082000Y-104140000D03*
X148082000Y-106680000D03*
D17*
X143322000Y-101092000D03*
X145222000Y-101092000D03*
X143322000Y-107315000D03*
X145222000Y-107315000D03*
X130622000Y-107315000D03*
X132522000Y-107315000D03*
X130622000Y-101092000D03*
X132522000Y-101092000D03*
D16*
X135382000Y-101600000D03*
X135382000Y-104140000D03*
X135382000Y-106680000D03*
X127762000Y-101600000D03*
X127762000Y-104140000D03*
X127762000Y-106680000D03*
D15*
X130472000Y-105090000D03*
X130472000Y-104140000D03*
X130472000Y-103190000D03*
X132672000Y-103190000D03*
X132672000Y-105090000D03*
X132672000Y-104140000D03*
X117010000Y-105090000D03*
X117010000Y-104140000D03*
X117010000Y-103190000D03*
X119210000Y-103190000D03*
X119210000Y-105090000D03*
X119210000Y-104140000D03*
D16*
X114300000Y-101600000D03*
X114300000Y-104140000D03*
X114300000Y-106680000D03*
X121920000Y-101600000D03*
X121920000Y-104140000D03*
X121920000Y-106680000D03*
D17*
X117160000Y-101092000D03*
X119060000Y-101092000D03*
X117160000Y-107315000D03*
X119060000Y-107315000D03*
X104460000Y-107315000D03*
X106360000Y-107315000D03*
X104460000Y-101092000D03*
X106360000Y-101092000D03*
D16*
X109220000Y-101600000D03*
X109220000Y-104140000D03*
X109220000Y-106680000D03*
X101600000Y-101600000D03*
X101600000Y-104140000D03*
X101600000Y-106680000D03*
D15*
X104310000Y-105090000D03*
X104310000Y-104140000D03*
X104310000Y-103190000D03*
X106510000Y-103190000D03*
X106510000Y-105090000D03*
X106510000Y-104140000D03*
D11*
X106680000Y-144018000D03*
D12*
X104394000Y-137668000D03*
D11*
X102108000Y-144018000D03*
D14*
X116513000Y-139862860D03*
X116513000Y-145862340D03*
X121212000Y-142862600D03*
D18*
G36*
X103505000Y-100838000D02*
X102997000Y-100838000D01*
X102997000Y-100330000D01*
X103505000Y-100330000D01*
X103505000Y-100838000D01*
X103505000Y-100838000D01*
G37*
X103505000Y-100838000D02*
X102997000Y-100838000D01*
X102997000Y-100330000D01*
X103505000Y-100330000D01*
X103505000Y-100838000D01*
G36*
X107823000Y-100838000D02*
X107315000Y-100838000D01*
X107315000Y-100330000D01*
X107823000Y-100330000D01*
X107823000Y-100838000D01*
X107823000Y-100838000D01*
G37*
X107823000Y-100838000D02*
X107315000Y-100838000D01*
X107315000Y-100330000D01*
X107823000Y-100330000D01*
X107823000Y-100838000D01*
G36*
X103505000Y-108077000D02*
X102997000Y-108077000D01*
X102997000Y-107569000D01*
X103505000Y-107569000D01*
X103505000Y-108077000D01*
X103505000Y-108077000D01*
G37*
X103505000Y-108077000D02*
X102997000Y-108077000D01*
X102997000Y-107569000D01*
X103505000Y-107569000D01*
X103505000Y-108077000D01*
G36*
X107823000Y-108077000D02*
X107315000Y-108077000D01*
X107315000Y-107569000D01*
X107823000Y-107569000D01*
X107823000Y-108077000D01*
X107823000Y-108077000D01*
G37*
X107823000Y-108077000D02*
X107315000Y-108077000D01*
X107315000Y-107569000D01*
X107823000Y-107569000D01*
X107823000Y-108077000D01*
G36*
X105664000Y-102362000D02*
X105156000Y-102362000D01*
X105156000Y-101854000D01*
X105664000Y-101854000D01*
X105664000Y-102362000D01*
X105664000Y-102362000D01*
G37*
X105664000Y-102362000D02*
X105156000Y-102362000D01*
X105156000Y-101854000D01*
X105664000Y-101854000D01*
X105664000Y-102362000D01*
G36*
X105664000Y-106426000D02*
X105156000Y-106426000D01*
X105156000Y-105918000D01*
X105664000Y-105918000D01*
X105664000Y-106426000D01*
X105664000Y-106426000D01*
G37*
X105664000Y-106426000D02*
X105156000Y-106426000D01*
X105156000Y-105918000D01*
X105664000Y-105918000D01*
X105664000Y-106426000D01*
G36*
X116205000Y-100838000D02*
X115697000Y-100838000D01*
X115697000Y-100330000D01*
X116205000Y-100330000D01*
X116205000Y-100838000D01*
X116205000Y-100838000D01*
G37*
X116205000Y-100838000D02*
X115697000Y-100838000D01*
X115697000Y-100330000D01*
X116205000Y-100330000D01*
X116205000Y-100838000D01*
G36*
X120523000Y-100838000D02*
X120015000Y-100838000D01*
X120015000Y-100330000D01*
X120523000Y-100330000D01*
X120523000Y-100838000D01*
X120523000Y-100838000D01*
G37*
X120523000Y-100838000D02*
X120015000Y-100838000D01*
X120015000Y-100330000D01*
X120523000Y-100330000D01*
X120523000Y-100838000D01*
G36*
X116205000Y-108077000D02*
X115697000Y-108077000D01*
X115697000Y-107569000D01*
X116205000Y-107569000D01*
X116205000Y-108077000D01*
X116205000Y-108077000D01*
G37*
X116205000Y-108077000D02*
X115697000Y-108077000D01*
X115697000Y-107569000D01*
X116205000Y-107569000D01*
X116205000Y-108077000D01*
G36*
X120523000Y-108077000D02*
X120015000Y-108077000D01*
X120015000Y-107569000D01*
X120523000Y-107569000D01*
X120523000Y-108077000D01*
X120523000Y-108077000D01*
G37*
X120523000Y-108077000D02*
X120015000Y-108077000D01*
X120015000Y-107569000D01*
X120523000Y-107569000D01*
X120523000Y-108077000D01*
G36*
X118364000Y-102362000D02*
X117856000Y-102362000D01*
X117856000Y-101854000D01*
X118364000Y-101854000D01*
X118364000Y-102362000D01*
X118364000Y-102362000D01*
G37*
X118364000Y-102362000D02*
X117856000Y-102362000D01*
X117856000Y-101854000D01*
X118364000Y-101854000D01*
X118364000Y-102362000D01*
G36*
X118364000Y-106426000D02*
X117856000Y-106426000D01*
X117856000Y-105918000D01*
X118364000Y-105918000D01*
X118364000Y-106426000D01*
X118364000Y-106426000D01*
G37*
X118364000Y-106426000D02*
X117856000Y-106426000D01*
X117856000Y-105918000D01*
X118364000Y-105918000D01*
X118364000Y-106426000D01*
G36*
X129667000Y-100838000D02*
X129159000Y-100838000D01*
X129159000Y-100330000D01*
X129667000Y-100330000D01*
X129667000Y-100838000D01*
X129667000Y-100838000D01*
G37*
X129667000Y-100838000D02*
X129159000Y-100838000D01*
X129159000Y-100330000D01*
X129667000Y-100330000D01*
X129667000Y-100838000D01*
G36*
X133985000Y-100838000D02*
X133477000Y-100838000D01*
X133477000Y-100330000D01*
X133985000Y-100330000D01*
X133985000Y-100838000D01*
X133985000Y-100838000D01*
G37*
X133985000Y-100838000D02*
X133477000Y-100838000D01*
X133477000Y-100330000D01*
X133985000Y-100330000D01*
X133985000Y-100838000D01*
G36*
X129667000Y-108077000D02*
X129159000Y-108077000D01*
X129159000Y-107569000D01*
X129667000Y-107569000D01*
X129667000Y-108077000D01*
X129667000Y-108077000D01*
G37*
X129667000Y-108077000D02*
X129159000Y-108077000D01*
X129159000Y-107569000D01*
X129667000Y-107569000D01*
X129667000Y-108077000D01*
G36*
X133985000Y-108077000D02*
X133477000Y-108077000D01*
X133477000Y-107569000D01*
X133985000Y-107569000D01*
X133985000Y-108077000D01*
X133985000Y-108077000D01*
G37*
X133985000Y-108077000D02*
X133477000Y-108077000D01*
X133477000Y-107569000D01*
X133985000Y-107569000D01*
X133985000Y-108077000D01*
G36*
X131826000Y-102362000D02*
X131318000Y-102362000D01*
X131318000Y-101854000D01*
X131826000Y-101854000D01*
X131826000Y-102362000D01*
X131826000Y-102362000D01*
G37*
X131826000Y-102362000D02*
X131318000Y-102362000D01*
X131318000Y-101854000D01*
X131826000Y-101854000D01*
X131826000Y-102362000D01*
G36*
X131826000Y-106426000D02*
X131318000Y-106426000D01*
X131318000Y-105918000D01*
X131826000Y-105918000D01*
X131826000Y-106426000D01*
X131826000Y-106426000D01*
G37*
X131826000Y-106426000D02*
X131318000Y-106426000D01*
X131318000Y-105918000D01*
X131826000Y-105918000D01*
X131826000Y-106426000D01*
G36*
X142367000Y-100838000D02*
X141859000Y-100838000D01*
X141859000Y-100330000D01*
X142367000Y-100330000D01*
X142367000Y-100838000D01*
X142367000Y-100838000D01*
G37*
X142367000Y-100838000D02*
X141859000Y-100838000D01*
X141859000Y-100330000D01*
X142367000Y-100330000D01*
X142367000Y-100838000D01*
G36*
X146685000Y-100838000D02*
X146177000Y-100838000D01*
X146177000Y-100330000D01*
X146685000Y-100330000D01*
X146685000Y-100838000D01*
X146685000Y-100838000D01*
G37*
X146685000Y-100838000D02*
X146177000Y-100838000D01*
X146177000Y-100330000D01*
X146685000Y-100330000D01*
X146685000Y-100838000D01*
G36*
X142367000Y-108077000D02*
X141859000Y-108077000D01*
X141859000Y-107569000D01*
X142367000Y-107569000D01*
X142367000Y-108077000D01*
X142367000Y-108077000D01*
G37*
X142367000Y-108077000D02*
X141859000Y-108077000D01*
X141859000Y-107569000D01*
X142367000Y-107569000D01*
X142367000Y-108077000D01*
G36*
X146685000Y-108077000D02*
X146177000Y-108077000D01*
X146177000Y-107569000D01*
X146685000Y-107569000D01*
X146685000Y-108077000D01*
X146685000Y-108077000D01*
G37*
X146685000Y-108077000D02*
X146177000Y-108077000D01*
X146177000Y-107569000D01*
X146685000Y-107569000D01*
X146685000Y-108077000D01*
G36*
X144526000Y-102362000D02*
X144018000Y-102362000D01*
X144018000Y-101854000D01*
X144526000Y-101854000D01*
X144526000Y-102362000D01*
X144526000Y-102362000D01*
G37*
X144526000Y-102362000D02*
X144018000Y-102362000D01*
X144018000Y-101854000D01*
X144526000Y-101854000D01*
X144526000Y-102362000D01*
G36*
X144526000Y-106426000D02*
X144018000Y-106426000D01*
X144018000Y-105918000D01*
X144526000Y-105918000D01*
X144526000Y-106426000D01*
X144526000Y-106426000D01*
G37*
X144526000Y-106426000D02*
X144018000Y-106426000D01*
X144018000Y-105918000D01*
X144526000Y-105918000D01*
X144526000Y-106426000D01*
G36*
X103505000Y-110998000D02*
X102997000Y-110998000D01*
X102997000Y-110490000D01*
X103505000Y-110490000D01*
X103505000Y-110998000D01*
X103505000Y-110998000D01*
G37*
X103505000Y-110998000D02*
X102997000Y-110998000D01*
X102997000Y-110490000D01*
X103505000Y-110490000D01*
X103505000Y-110998000D01*
G36*
X107823000Y-110998000D02*
X107315000Y-110998000D01*
X107315000Y-110490000D01*
X107823000Y-110490000D01*
X107823000Y-110998000D01*
X107823000Y-110998000D01*
G37*
X107823000Y-110998000D02*
X107315000Y-110998000D01*
X107315000Y-110490000D01*
X107823000Y-110490000D01*
X107823000Y-110998000D01*
G36*
X103505000Y-118237000D02*
X102997000Y-118237000D01*
X102997000Y-117729000D01*
X103505000Y-117729000D01*
X103505000Y-118237000D01*
X103505000Y-118237000D01*
G37*
X103505000Y-118237000D02*
X102997000Y-118237000D01*
X102997000Y-117729000D01*
X103505000Y-117729000D01*
X103505000Y-118237000D01*
G36*
X107823000Y-118237000D02*
X107315000Y-118237000D01*
X107315000Y-117729000D01*
X107823000Y-117729000D01*
X107823000Y-118237000D01*
X107823000Y-118237000D01*
G37*
X107823000Y-118237000D02*
X107315000Y-118237000D01*
X107315000Y-117729000D01*
X107823000Y-117729000D01*
X107823000Y-118237000D01*
G36*
X105664000Y-112522000D02*
X105156000Y-112522000D01*
X105156000Y-112014000D01*
X105664000Y-112014000D01*
X105664000Y-112522000D01*
X105664000Y-112522000D01*
G37*
X105664000Y-112522000D02*
X105156000Y-112522000D01*
X105156000Y-112014000D01*
X105664000Y-112014000D01*
X105664000Y-112522000D01*
G36*
X105664000Y-116586000D02*
X105156000Y-116586000D01*
X105156000Y-116078000D01*
X105664000Y-116078000D01*
X105664000Y-116586000D01*
X105664000Y-116586000D01*
G37*
X105664000Y-116586000D02*
X105156000Y-116586000D01*
X105156000Y-116078000D01*
X105664000Y-116078000D01*
X105664000Y-116586000D01*
G36*
X116205000Y-110998000D02*
X115697000Y-110998000D01*
X115697000Y-110490000D01*
X116205000Y-110490000D01*
X116205000Y-110998000D01*
X116205000Y-110998000D01*
G37*
X116205000Y-110998000D02*
X115697000Y-110998000D01*
X115697000Y-110490000D01*
X116205000Y-110490000D01*
X116205000Y-110998000D01*
G36*
X120523000Y-110998000D02*
X120015000Y-110998000D01*
X120015000Y-110490000D01*
X120523000Y-110490000D01*
X120523000Y-110998000D01*
X120523000Y-110998000D01*
G37*
X120523000Y-110998000D02*
X120015000Y-110998000D01*
X120015000Y-110490000D01*
X120523000Y-110490000D01*
X120523000Y-110998000D01*
G36*
X116205000Y-118237000D02*
X115697000Y-118237000D01*
X115697000Y-117729000D01*
X116205000Y-117729000D01*
X116205000Y-118237000D01*
X116205000Y-118237000D01*
G37*
X116205000Y-118237000D02*
X115697000Y-118237000D01*
X115697000Y-117729000D01*
X116205000Y-117729000D01*
X116205000Y-118237000D01*
G36*
X120523000Y-118237000D02*
X120015000Y-118237000D01*
X120015000Y-117729000D01*
X120523000Y-117729000D01*
X120523000Y-118237000D01*
X120523000Y-118237000D01*
G37*
X120523000Y-118237000D02*
X120015000Y-118237000D01*
X120015000Y-117729000D01*
X120523000Y-117729000D01*
X120523000Y-118237000D01*
G36*
X118364000Y-112522000D02*
X117856000Y-112522000D01*
X117856000Y-112014000D01*
X118364000Y-112014000D01*
X118364000Y-112522000D01*
X118364000Y-112522000D01*
G37*
X118364000Y-112522000D02*
X117856000Y-112522000D01*
X117856000Y-112014000D01*
X118364000Y-112014000D01*
X118364000Y-112522000D01*
G36*
X118364000Y-116586000D02*
X117856000Y-116586000D01*
X117856000Y-116078000D01*
X118364000Y-116078000D01*
X118364000Y-116586000D01*
X118364000Y-116586000D01*
G37*
X118364000Y-116586000D02*
X117856000Y-116586000D01*
X117856000Y-116078000D01*
X118364000Y-116078000D01*
X118364000Y-116586000D01*
G36*
X129667000Y-110998000D02*
X129159000Y-110998000D01*
X129159000Y-110490000D01*
X129667000Y-110490000D01*
X129667000Y-110998000D01*
X129667000Y-110998000D01*
G37*
X129667000Y-110998000D02*
X129159000Y-110998000D01*
X129159000Y-110490000D01*
X129667000Y-110490000D01*
X129667000Y-110998000D01*
G36*
X133985000Y-110998000D02*
X133477000Y-110998000D01*
X133477000Y-110490000D01*
X133985000Y-110490000D01*
X133985000Y-110998000D01*
X133985000Y-110998000D01*
G37*
X133985000Y-110998000D02*
X133477000Y-110998000D01*
X133477000Y-110490000D01*
X133985000Y-110490000D01*
X133985000Y-110998000D01*
G36*
X129667000Y-118237000D02*
X129159000Y-118237000D01*
X129159000Y-117729000D01*
X129667000Y-117729000D01*
X129667000Y-118237000D01*
X129667000Y-118237000D01*
G37*
X129667000Y-118237000D02*
X129159000Y-118237000D01*
X129159000Y-117729000D01*
X129667000Y-117729000D01*
X129667000Y-118237000D01*
G36*
X133985000Y-118237000D02*
X133477000Y-118237000D01*
X133477000Y-117729000D01*
X133985000Y-117729000D01*
X133985000Y-118237000D01*
X133985000Y-118237000D01*
G37*
X133985000Y-118237000D02*
X133477000Y-118237000D01*
X133477000Y-117729000D01*
X133985000Y-117729000D01*
X133985000Y-118237000D01*
G36*
X131826000Y-112522000D02*
X131318000Y-112522000D01*
X131318000Y-112014000D01*
X131826000Y-112014000D01*
X131826000Y-112522000D01*
X131826000Y-112522000D01*
G37*
X131826000Y-112522000D02*
X131318000Y-112522000D01*
X131318000Y-112014000D01*
X131826000Y-112014000D01*
X131826000Y-112522000D01*
G36*
X131826000Y-116586000D02*
X131318000Y-116586000D01*
X131318000Y-116078000D01*
X131826000Y-116078000D01*
X131826000Y-116586000D01*
X131826000Y-116586000D01*
G37*
X131826000Y-116586000D02*
X131318000Y-116586000D01*
X131318000Y-116078000D01*
X131826000Y-116078000D01*
X131826000Y-116586000D01*
G36*
X142367000Y-110998000D02*
X141859000Y-110998000D01*
X141859000Y-110490000D01*
X142367000Y-110490000D01*
X142367000Y-110998000D01*
X142367000Y-110998000D01*
G37*
X142367000Y-110998000D02*
X141859000Y-110998000D01*
X141859000Y-110490000D01*
X142367000Y-110490000D01*
X142367000Y-110998000D01*
G36*
X146685000Y-110998000D02*
X146177000Y-110998000D01*
X146177000Y-110490000D01*
X146685000Y-110490000D01*
X146685000Y-110998000D01*
X146685000Y-110998000D01*
G37*
X146685000Y-110998000D02*
X146177000Y-110998000D01*
X146177000Y-110490000D01*
X146685000Y-110490000D01*
X146685000Y-110998000D01*
G36*
X142367000Y-118237000D02*
X141859000Y-118237000D01*
X141859000Y-117729000D01*
X142367000Y-117729000D01*
X142367000Y-118237000D01*
X142367000Y-118237000D01*
G37*
X142367000Y-118237000D02*
X141859000Y-118237000D01*
X141859000Y-117729000D01*
X142367000Y-117729000D01*
X142367000Y-118237000D01*
G36*
X146685000Y-118237000D02*
X146177000Y-118237000D01*
X146177000Y-117729000D01*
X146685000Y-117729000D01*
X146685000Y-118237000D01*
X146685000Y-118237000D01*
G37*
X146685000Y-118237000D02*
X146177000Y-118237000D01*
X146177000Y-117729000D01*
X146685000Y-117729000D01*
X146685000Y-118237000D01*
G36*
X144526000Y-112522000D02*
X144018000Y-112522000D01*
X144018000Y-112014000D01*
X144526000Y-112014000D01*
X144526000Y-112522000D01*
X144526000Y-112522000D01*
G37*
X144526000Y-112522000D02*
X144018000Y-112522000D01*
X144018000Y-112014000D01*
X144526000Y-112014000D01*
X144526000Y-112522000D01*
G36*
X144526000Y-116586000D02*
X144018000Y-116586000D01*
X144018000Y-116078000D01*
X144526000Y-116078000D01*
X144526000Y-116586000D01*
X144526000Y-116586000D01*
G37*
X144526000Y-116586000D02*
X144018000Y-116586000D01*
X144018000Y-116078000D01*
X144526000Y-116078000D01*
X144526000Y-116586000D01*
G36*
X103505000Y-121158000D02*
X102997000Y-121158000D01*
X102997000Y-120650000D01*
X103505000Y-120650000D01*
X103505000Y-121158000D01*
X103505000Y-121158000D01*
G37*
X103505000Y-121158000D02*
X102997000Y-121158000D01*
X102997000Y-120650000D01*
X103505000Y-120650000D01*
X103505000Y-121158000D01*
G36*
X107823000Y-121158000D02*
X107315000Y-121158000D01*
X107315000Y-120650000D01*
X107823000Y-120650000D01*
X107823000Y-121158000D01*
X107823000Y-121158000D01*
G37*
X107823000Y-121158000D02*
X107315000Y-121158000D01*
X107315000Y-120650000D01*
X107823000Y-120650000D01*
X107823000Y-121158000D01*
G36*
X103505000Y-128397000D02*
X102997000Y-128397000D01*
X102997000Y-127889000D01*
X103505000Y-127889000D01*
X103505000Y-128397000D01*
X103505000Y-128397000D01*
G37*
X103505000Y-128397000D02*
X102997000Y-128397000D01*
X102997000Y-127889000D01*
X103505000Y-127889000D01*
X103505000Y-128397000D01*
G36*
X107823000Y-128397000D02*
X107315000Y-128397000D01*
X107315000Y-127889000D01*
X107823000Y-127889000D01*
X107823000Y-128397000D01*
X107823000Y-128397000D01*
G37*
X107823000Y-128397000D02*
X107315000Y-128397000D01*
X107315000Y-127889000D01*
X107823000Y-127889000D01*
X107823000Y-128397000D01*
G36*
X105664000Y-122682000D02*
X105156000Y-122682000D01*
X105156000Y-122174000D01*
X105664000Y-122174000D01*
X105664000Y-122682000D01*
X105664000Y-122682000D01*
G37*
X105664000Y-122682000D02*
X105156000Y-122682000D01*
X105156000Y-122174000D01*
X105664000Y-122174000D01*
X105664000Y-122682000D01*
G36*
X105664000Y-126746000D02*
X105156000Y-126746000D01*
X105156000Y-126238000D01*
X105664000Y-126238000D01*
X105664000Y-126746000D01*
X105664000Y-126746000D01*
G37*
X105664000Y-126746000D02*
X105156000Y-126746000D01*
X105156000Y-126238000D01*
X105664000Y-126238000D01*
X105664000Y-126746000D01*
G36*
X116205000Y-121158000D02*
X115697000Y-121158000D01*
X115697000Y-120650000D01*
X116205000Y-120650000D01*
X116205000Y-121158000D01*
X116205000Y-121158000D01*
G37*
X116205000Y-121158000D02*
X115697000Y-121158000D01*
X115697000Y-120650000D01*
X116205000Y-120650000D01*
X116205000Y-121158000D01*
G36*
X120523000Y-121158000D02*
X120015000Y-121158000D01*
X120015000Y-120650000D01*
X120523000Y-120650000D01*
X120523000Y-121158000D01*
X120523000Y-121158000D01*
G37*
X120523000Y-121158000D02*
X120015000Y-121158000D01*
X120015000Y-120650000D01*
X120523000Y-120650000D01*
X120523000Y-121158000D01*
G36*
X116205000Y-128397000D02*
X115697000Y-128397000D01*
X115697000Y-127889000D01*
X116205000Y-127889000D01*
X116205000Y-128397000D01*
X116205000Y-128397000D01*
G37*
X116205000Y-128397000D02*
X115697000Y-128397000D01*
X115697000Y-127889000D01*
X116205000Y-127889000D01*
X116205000Y-128397000D01*
G36*
X120523000Y-128397000D02*
X120015000Y-128397000D01*
X120015000Y-127889000D01*
X120523000Y-127889000D01*
X120523000Y-128397000D01*
X120523000Y-128397000D01*
G37*
X120523000Y-128397000D02*
X120015000Y-128397000D01*
X120015000Y-127889000D01*
X120523000Y-127889000D01*
X120523000Y-128397000D01*
G36*
X118364000Y-122682000D02*
X117856000Y-122682000D01*
X117856000Y-122174000D01*
X118364000Y-122174000D01*
X118364000Y-122682000D01*
X118364000Y-122682000D01*
G37*
X118364000Y-122682000D02*
X117856000Y-122682000D01*
X117856000Y-122174000D01*
X118364000Y-122174000D01*
X118364000Y-122682000D01*
G36*
X118364000Y-126746000D02*
X117856000Y-126746000D01*
X117856000Y-126238000D01*
X118364000Y-126238000D01*
X118364000Y-126746000D01*
X118364000Y-126746000D01*
G37*
X118364000Y-126746000D02*
X117856000Y-126746000D01*
X117856000Y-126238000D01*
X118364000Y-126238000D01*
X118364000Y-126746000D01*
G36*
X129667000Y-121158000D02*
X129159000Y-121158000D01*
X129159000Y-120650000D01*
X129667000Y-120650000D01*
X129667000Y-121158000D01*
X129667000Y-121158000D01*
G37*
X129667000Y-121158000D02*
X129159000Y-121158000D01*
X129159000Y-120650000D01*
X129667000Y-120650000D01*
X129667000Y-121158000D01*
G36*
X133985000Y-121158000D02*
X133477000Y-121158000D01*
X133477000Y-120650000D01*
X133985000Y-120650000D01*
X133985000Y-121158000D01*
X133985000Y-121158000D01*
G37*
X133985000Y-121158000D02*
X133477000Y-121158000D01*
X133477000Y-120650000D01*
X133985000Y-120650000D01*
X133985000Y-121158000D01*
G36*
X129667000Y-128397000D02*
X129159000Y-128397000D01*
X129159000Y-127889000D01*
X129667000Y-127889000D01*
X129667000Y-128397000D01*
X129667000Y-128397000D01*
G37*
X129667000Y-128397000D02*
X129159000Y-128397000D01*
X129159000Y-127889000D01*
X129667000Y-127889000D01*
X129667000Y-128397000D01*
G36*
X133985000Y-128397000D02*
X133477000Y-128397000D01*
X133477000Y-127889000D01*
X133985000Y-127889000D01*
X133985000Y-128397000D01*
X133985000Y-128397000D01*
G37*
X133985000Y-128397000D02*
X133477000Y-128397000D01*
X133477000Y-127889000D01*
X133985000Y-127889000D01*
X133985000Y-128397000D01*
G36*
X131826000Y-122682000D02*
X131318000Y-122682000D01*
X131318000Y-122174000D01*
X131826000Y-122174000D01*
X131826000Y-122682000D01*
X131826000Y-122682000D01*
G37*
X131826000Y-122682000D02*
X131318000Y-122682000D01*
X131318000Y-122174000D01*
X131826000Y-122174000D01*
X131826000Y-122682000D01*
G36*
X131826000Y-126746000D02*
X131318000Y-126746000D01*
X131318000Y-126238000D01*
X131826000Y-126238000D01*
X131826000Y-126746000D01*
X131826000Y-126746000D01*
G37*
X131826000Y-126746000D02*
X131318000Y-126746000D01*
X131318000Y-126238000D01*
X131826000Y-126238000D01*
X131826000Y-126746000D01*
G36*
X142367000Y-121158000D02*
X141859000Y-121158000D01*
X141859000Y-120650000D01*
X142367000Y-120650000D01*
X142367000Y-121158000D01*
X142367000Y-121158000D01*
G37*
X142367000Y-121158000D02*
X141859000Y-121158000D01*
X141859000Y-120650000D01*
X142367000Y-120650000D01*
X142367000Y-121158000D01*
G36*
X146685000Y-121158000D02*
X146177000Y-121158000D01*
X146177000Y-120650000D01*
X146685000Y-120650000D01*
X146685000Y-121158000D01*
X146685000Y-121158000D01*
G37*
X146685000Y-121158000D02*
X146177000Y-121158000D01*
X146177000Y-120650000D01*
X146685000Y-120650000D01*
X146685000Y-121158000D01*
G36*
X142367000Y-128397000D02*
X141859000Y-128397000D01*
X141859000Y-127889000D01*
X142367000Y-127889000D01*
X142367000Y-128397000D01*
X142367000Y-128397000D01*
G37*
X142367000Y-128397000D02*
X141859000Y-128397000D01*
X141859000Y-127889000D01*
X142367000Y-127889000D01*
X142367000Y-128397000D01*
G36*
X146685000Y-128397000D02*
X146177000Y-128397000D01*
X146177000Y-127889000D01*
X146685000Y-127889000D01*
X146685000Y-128397000D01*
X146685000Y-128397000D01*
G37*
X146685000Y-128397000D02*
X146177000Y-128397000D01*
X146177000Y-127889000D01*
X146685000Y-127889000D01*
X146685000Y-128397000D01*
G36*
X144526000Y-122682000D02*
X144018000Y-122682000D01*
X144018000Y-122174000D01*
X144526000Y-122174000D01*
X144526000Y-122682000D01*
X144526000Y-122682000D01*
G37*
X144526000Y-122682000D02*
X144018000Y-122682000D01*
X144018000Y-122174000D01*
X144526000Y-122174000D01*
X144526000Y-122682000D01*
G36*
X144526000Y-126746000D02*
X144018000Y-126746000D01*
X144018000Y-126238000D01*
X144526000Y-126238000D01*
X144526000Y-126746000D01*
X144526000Y-126746000D01*
G37*
X144526000Y-126746000D02*
X144018000Y-126746000D01*
X144018000Y-126238000D01*
X144526000Y-126238000D01*
X144526000Y-126746000D01*
M02*
