G04 #@! TF.FileFunction,Copper,L2,Bot,Signal*
%FSLAX46Y46*%
G04 Gerber Fmt 4.6, Leading zero omitted, Abs format (unit mm)*
G04 Created by KiCad (PCBNEW 4.0.7+dfsg1-1) date Mon Nov 20 21:48:08 2017*
%MOMM*%
%LPD*%
G01*
G04 APERTURE LIST*
%ADD10C,0.100000*%
%ADD11R,0.450000X1.450000*%
%ADD12O,2.032000X1.727200*%
%ADD13R,3.500120X3.500120*%
%ADD14R,0.700000X1.300000*%
%ADD15R,1.060000X0.650000*%
%ADD16R,1.651000X3.048000*%
%ADD17R,6.096000X6.096000*%
%ADD18O,1.727200X2.032000*%
%ADD19C,0.203200*%
%ADD20C,0.304800*%
%ADD21C,0.762000*%
%ADD22C,0.406400*%
G04 APERTURE END LIST*
D10*
D11*
X105025000Y-72525000D03*
X105675000Y-72525000D03*
X106325000Y-72525000D03*
X106975000Y-72525000D03*
X106975000Y-78425000D03*
X106325000Y-78425000D03*
X105675000Y-78425000D03*
X105025000Y-78425000D03*
X117625000Y-72550000D03*
X118275000Y-72550000D03*
X118925000Y-72550000D03*
X119575000Y-72550000D03*
X119575000Y-78450000D03*
X118925000Y-78450000D03*
X118275000Y-78450000D03*
X117625000Y-78450000D03*
X130525000Y-72550000D03*
X131175000Y-72550000D03*
X131825000Y-72550000D03*
X132475000Y-72550000D03*
X132475000Y-78450000D03*
X131825000Y-78450000D03*
X131175000Y-78450000D03*
X130525000Y-78450000D03*
X143225000Y-72575000D03*
X143875000Y-72575000D03*
X144525000Y-72575000D03*
X145175000Y-72575000D03*
X145175000Y-78475000D03*
X144525000Y-78475000D03*
X143875000Y-78475000D03*
X143225000Y-78475000D03*
X79825000Y-72525000D03*
X80475000Y-72525000D03*
X81125000Y-72525000D03*
X81775000Y-72525000D03*
X81775000Y-78425000D03*
X81125000Y-78425000D03*
X80475000Y-78425000D03*
X79825000Y-78425000D03*
X92525000Y-72550000D03*
X93175000Y-72550000D03*
X93825000Y-72550000D03*
X94475000Y-72550000D03*
X94475000Y-78450000D03*
X93825000Y-78450000D03*
X93175000Y-78450000D03*
X92525000Y-78450000D03*
X54535000Y-72500000D03*
X55185000Y-72500000D03*
X55835000Y-72500000D03*
X56485000Y-72500000D03*
X56485000Y-78400000D03*
X55835000Y-78400000D03*
X55185000Y-78400000D03*
X54535000Y-78400000D03*
X66825000Y-72525000D03*
X67475000Y-72525000D03*
X68125000Y-72525000D03*
X68775000Y-72525000D03*
X68775000Y-78425000D03*
X68125000Y-78425000D03*
X67475000Y-78425000D03*
X66825000Y-78425000D03*
D12*
X102200000Y-71535000D03*
X102200000Y-74075000D03*
X102200000Y-76615000D03*
X102200000Y-79155000D03*
X114800000Y-71560000D03*
X114800000Y-74100000D03*
X114800000Y-76640000D03*
X114800000Y-79180000D03*
X109820000Y-71535000D03*
X109820000Y-74075000D03*
X109820000Y-76615000D03*
X109820000Y-79155000D03*
X122420000Y-71560000D03*
X122420000Y-74100000D03*
X122420000Y-76640000D03*
X122420000Y-79180000D03*
X84620000Y-71535000D03*
X84620000Y-74075000D03*
X84620000Y-76615000D03*
X84620000Y-79155000D03*
X89700000Y-71560000D03*
X89700000Y-74100000D03*
X89700000Y-76640000D03*
X89700000Y-79180000D03*
X97320000Y-71560000D03*
X97320000Y-74100000D03*
X97320000Y-76640000D03*
X97320000Y-79180000D03*
X71620000Y-71535000D03*
X71620000Y-74075000D03*
X71620000Y-76615000D03*
X71620000Y-79155000D03*
X77000000Y-71535000D03*
X77000000Y-74075000D03*
X77000000Y-76615000D03*
X77000000Y-79155000D03*
X64000000Y-71535000D03*
X64000000Y-74075000D03*
X64000000Y-76615000D03*
X64000000Y-79155000D03*
X59330000Y-71510000D03*
X59330000Y-74050000D03*
X59330000Y-76590000D03*
X59330000Y-79130000D03*
X51710000Y-71510000D03*
X51710000Y-74050000D03*
X51710000Y-76590000D03*
X51710000Y-79130000D03*
X148020000Y-71585000D03*
X148020000Y-74125000D03*
X148020000Y-76665000D03*
X148020000Y-79205000D03*
X140400000Y-71585000D03*
X140400000Y-74125000D03*
X140400000Y-76665000D03*
X140400000Y-79205000D03*
X135320000Y-71560000D03*
X135320000Y-74100000D03*
X135320000Y-76640000D03*
X135320000Y-79180000D03*
X127700000Y-71560000D03*
X127700000Y-74100000D03*
X127700000Y-76640000D03*
X127700000Y-79180000D03*
D11*
X143225000Y-122825000D03*
X143875000Y-122825000D03*
X144525000Y-122825000D03*
X145175000Y-122825000D03*
X145175000Y-128725000D03*
X144525000Y-128725000D03*
X143875000Y-128725000D03*
X143225000Y-128725000D03*
X130525000Y-122800000D03*
X131175000Y-122800000D03*
X131825000Y-122800000D03*
X132475000Y-122800000D03*
X132475000Y-128700000D03*
X131825000Y-128700000D03*
X131175000Y-128700000D03*
X130525000Y-128700000D03*
X105025000Y-122775000D03*
X105675000Y-122775000D03*
X106325000Y-122775000D03*
X106975000Y-122775000D03*
X106975000Y-128675000D03*
X106325000Y-128675000D03*
X105675000Y-128675000D03*
X105025000Y-128675000D03*
X117625000Y-122800000D03*
X118275000Y-122800000D03*
X118925000Y-122800000D03*
X119575000Y-122800000D03*
X119575000Y-128700000D03*
X118925000Y-128700000D03*
X118275000Y-128700000D03*
X117625000Y-128700000D03*
D12*
X135320000Y-121810000D03*
X135320000Y-124350000D03*
X135320000Y-126890000D03*
X135320000Y-129430000D03*
X148020000Y-121835000D03*
X148020000Y-124375000D03*
X148020000Y-126915000D03*
X148020000Y-129455000D03*
X140400000Y-121835000D03*
X140400000Y-124375000D03*
X140400000Y-126915000D03*
X140400000Y-129455000D03*
X127700000Y-121810000D03*
X127700000Y-124350000D03*
X127700000Y-126890000D03*
X127700000Y-129430000D03*
X122420000Y-121810000D03*
X122420000Y-124350000D03*
X122420000Y-126890000D03*
X122420000Y-129430000D03*
X114800000Y-121810000D03*
X114800000Y-124350000D03*
X114800000Y-126890000D03*
X114800000Y-129430000D03*
X109820000Y-121785000D03*
X109820000Y-124325000D03*
X109820000Y-126865000D03*
X109820000Y-129405000D03*
X102200000Y-121785000D03*
X102200000Y-124325000D03*
X102200000Y-126865000D03*
X102200000Y-129405000D03*
D11*
X92525000Y-122800000D03*
X93175000Y-122800000D03*
X93825000Y-122800000D03*
X94475000Y-122800000D03*
X94475000Y-128700000D03*
X93825000Y-128700000D03*
X93175000Y-128700000D03*
X92525000Y-128700000D03*
X79825000Y-122775000D03*
X80475000Y-122775000D03*
X81125000Y-122775000D03*
X81775000Y-122775000D03*
X81775000Y-128675000D03*
X81125000Y-128675000D03*
X80475000Y-128675000D03*
X79825000Y-128675000D03*
D12*
X97320000Y-121810000D03*
X97320000Y-124350000D03*
X97320000Y-126890000D03*
X97320000Y-129430000D03*
X77000000Y-121785000D03*
X77000000Y-124325000D03*
X77000000Y-126865000D03*
X77000000Y-129405000D03*
X89700000Y-121810000D03*
X89700000Y-124350000D03*
X89700000Y-126890000D03*
X89700000Y-129430000D03*
X84620000Y-121785000D03*
X84620000Y-124325000D03*
X84620000Y-126865000D03*
X84620000Y-129405000D03*
D11*
X66825000Y-122775000D03*
X67475000Y-122775000D03*
X68125000Y-122775000D03*
X68775000Y-122775000D03*
X68775000Y-128675000D03*
X68125000Y-128675000D03*
X67475000Y-128675000D03*
X66825000Y-128675000D03*
D12*
X71620000Y-121785000D03*
X71620000Y-124325000D03*
X71620000Y-126865000D03*
X71620000Y-129405000D03*
X64000000Y-121785000D03*
X64000000Y-124325000D03*
X64000000Y-126865000D03*
X64000000Y-129405000D03*
D13*
X129538000Y-139862860D03*
X129538000Y-145862340D03*
X134237000Y-142862600D03*
X117013000Y-139862860D03*
X117013000Y-145862340D03*
X121712000Y-142862600D03*
X78788000Y-139862860D03*
X78788000Y-145862340D03*
X83487000Y-142862600D03*
X66213000Y-139862860D03*
X66213000Y-145862340D03*
X70912000Y-142862600D03*
X129538000Y-89862860D03*
X129538000Y-95862340D03*
X134237000Y-92862600D03*
X117013000Y-89862860D03*
X117013000Y-95862340D03*
X121712000Y-92862600D03*
X79388000Y-89812860D03*
X79388000Y-95812340D03*
X84087000Y-92812600D03*
X66213000Y-89862860D03*
X66213000Y-95862340D03*
X70912000Y-92862600D03*
D14*
X66860000Y-107840000D03*
X68760000Y-107840000D03*
X66860000Y-101617000D03*
X68760000Y-101617000D03*
D15*
X54310000Y-105615000D03*
X54310000Y-104665000D03*
X54310000Y-103715000D03*
X56510000Y-103715000D03*
X56510000Y-105615000D03*
X56510000Y-104665000D03*
X66710000Y-105615000D03*
X66710000Y-104665000D03*
X66710000Y-103715000D03*
X68910000Y-103715000D03*
X68910000Y-105615000D03*
X68910000Y-104665000D03*
D14*
X54460000Y-101617000D03*
X56360000Y-101617000D03*
X54460000Y-107840000D03*
X56360000Y-107840000D03*
D11*
X54485000Y-122750000D03*
X55135000Y-122750000D03*
X55785000Y-122750000D03*
X56435000Y-122750000D03*
X56435000Y-128650000D03*
X55785000Y-128650000D03*
X55135000Y-128650000D03*
X54485000Y-128650000D03*
D14*
X54460000Y-111252000D03*
X56360000Y-111252000D03*
D15*
X54310000Y-115250000D03*
X54310000Y-114300000D03*
X54310000Y-113350000D03*
X56510000Y-113350000D03*
X56510000Y-115250000D03*
X56510000Y-114300000D03*
D16*
X57820000Y-144648000D03*
D17*
X55534000Y-138298000D03*
D16*
X53248000Y-144648000D03*
D14*
X54460000Y-117475000D03*
X56360000Y-117475000D03*
D15*
X66710000Y-115250000D03*
X66710000Y-114300000D03*
X66710000Y-113350000D03*
X68910000Y-113350000D03*
X68910000Y-115250000D03*
X68910000Y-114300000D03*
D14*
X66860000Y-117475000D03*
X68760000Y-117475000D03*
X66860000Y-111252000D03*
X68760000Y-111252000D03*
X92622000Y-101617000D03*
X94522000Y-101617000D03*
X92622000Y-107840000D03*
X94522000Y-107840000D03*
D15*
X92472000Y-115250000D03*
X92472000Y-114300000D03*
X92472000Y-113350000D03*
X94672000Y-113350000D03*
X94672000Y-115250000D03*
X94672000Y-114300000D03*
X92472000Y-105615000D03*
X92472000Y-104665000D03*
X92472000Y-103715000D03*
X94672000Y-103715000D03*
X94672000Y-105615000D03*
X94672000Y-104665000D03*
D14*
X92622000Y-111252000D03*
X94522000Y-111252000D03*
X79922000Y-107840000D03*
X81822000Y-107840000D03*
X79922000Y-101617000D03*
X81822000Y-101617000D03*
X79922000Y-111252000D03*
X81822000Y-111252000D03*
D15*
X79772000Y-115250000D03*
X79772000Y-114300000D03*
X79772000Y-113350000D03*
X81972000Y-113350000D03*
X81972000Y-115250000D03*
X81972000Y-114300000D03*
X79772000Y-105615000D03*
X79772000Y-104665000D03*
X79772000Y-103715000D03*
X81972000Y-103715000D03*
X81972000Y-105615000D03*
X81972000Y-104665000D03*
D16*
X146455000Y-144658000D03*
D17*
X144169000Y-138308000D03*
D16*
X141883000Y-144658000D03*
D14*
X143322000Y-117475000D03*
X145222000Y-117475000D03*
X130622000Y-101617000D03*
X132522000Y-101617000D03*
X130622000Y-117475000D03*
X132522000Y-117475000D03*
D15*
X130472000Y-105615000D03*
X130472000Y-104665000D03*
X130472000Y-103715000D03*
X132672000Y-103715000D03*
X132672000Y-105615000D03*
X132672000Y-104665000D03*
D14*
X130622000Y-107840000D03*
X132522000Y-107840000D03*
X130622000Y-111252000D03*
X132522000Y-111252000D03*
D15*
X130472000Y-115250000D03*
X130472000Y-114300000D03*
X130472000Y-113350000D03*
X132672000Y-113350000D03*
X132672000Y-115250000D03*
X132672000Y-114300000D03*
D14*
X117660000Y-111252000D03*
X119560000Y-111252000D03*
X117660000Y-107840000D03*
X119560000Y-107840000D03*
X105060000Y-101617000D03*
X106960000Y-101617000D03*
D15*
X117510000Y-105615000D03*
X117510000Y-104665000D03*
X117510000Y-103715000D03*
X119710000Y-103715000D03*
X119710000Y-105615000D03*
X119710000Y-104665000D03*
D14*
X105060000Y-111252000D03*
X106960000Y-111252000D03*
D15*
X104910000Y-105615000D03*
X104910000Y-104665000D03*
X104910000Y-103715000D03*
X107110000Y-103715000D03*
X107110000Y-105615000D03*
X107110000Y-104665000D03*
D14*
X117660000Y-101617000D03*
X119560000Y-101617000D03*
X105060000Y-107840000D03*
X106960000Y-107840000D03*
X143322000Y-111252000D03*
X145222000Y-111252000D03*
D15*
X143172000Y-115250000D03*
X143172000Y-114300000D03*
X143172000Y-113350000D03*
X145372000Y-113350000D03*
X145372000Y-115250000D03*
X145372000Y-114300000D03*
D14*
X143322000Y-107840000D03*
X145222000Y-107840000D03*
X143322000Y-101617000D03*
X145222000Y-101617000D03*
D15*
X143172000Y-105615000D03*
X143172000Y-104665000D03*
X143172000Y-103715000D03*
X145372000Y-103715000D03*
X145372000Y-105615000D03*
X145372000Y-104665000D03*
D14*
X105060000Y-117475000D03*
X106960000Y-117475000D03*
D15*
X104910000Y-115250000D03*
X104910000Y-114300000D03*
X104910000Y-113350000D03*
X107110000Y-113350000D03*
X107110000Y-115250000D03*
X107110000Y-114300000D03*
D14*
X117660000Y-117475000D03*
X119560000Y-117475000D03*
D15*
X117510000Y-115250000D03*
X117510000Y-114300000D03*
X117510000Y-113350000D03*
X119710000Y-113350000D03*
X119710000Y-115250000D03*
X119710000Y-114300000D03*
D16*
X108420000Y-144648000D03*
D17*
X106134000Y-138298000D03*
D16*
X103848000Y-144648000D03*
D14*
X92622000Y-117475000D03*
X94522000Y-117475000D03*
X79922000Y-117475000D03*
X81822000Y-117475000D03*
D16*
X95755000Y-144658000D03*
D17*
X93469000Y-138308000D03*
D16*
X91183000Y-144658000D03*
D12*
X109820000Y-102125000D03*
X109820000Y-104665000D03*
X109820000Y-107205000D03*
X102200000Y-102125000D03*
X102200000Y-104665000D03*
X102200000Y-107205000D03*
X114800000Y-102125000D03*
X114800000Y-104665000D03*
X114800000Y-107205000D03*
X114800000Y-111760000D03*
X114800000Y-114300000D03*
X114800000Y-116840000D03*
X109820000Y-111760000D03*
X109820000Y-114300000D03*
X109820000Y-116840000D03*
X102200000Y-111760000D03*
X102200000Y-114300000D03*
X102200000Y-116840000D03*
D18*
X141629000Y-148468000D03*
X144169000Y-148468000D03*
X146709000Y-148468000D03*
X128341000Y-135890000D03*
X130881000Y-135890000D03*
X141629000Y-133228000D03*
X144169000Y-133228000D03*
X146709000Y-133228000D03*
X128341000Y-133350000D03*
X130881000Y-133350000D03*
X103594000Y-148458000D03*
X106134000Y-148458000D03*
X108674000Y-148458000D03*
X103594000Y-133218000D03*
X106134000Y-133218000D03*
X108674000Y-133218000D03*
X115816000Y-133350000D03*
X118356000Y-133350000D03*
X115816000Y-135890000D03*
X118356000Y-135890000D03*
X77591000Y-135890000D03*
X80131000Y-135890000D03*
X77591000Y-133350000D03*
X80131000Y-133350000D03*
D12*
X89762000Y-102125000D03*
X89762000Y-104665000D03*
X89762000Y-107205000D03*
X97382000Y-102125000D03*
X97382000Y-104665000D03*
X97382000Y-107205000D03*
X77062000Y-111760000D03*
X77062000Y-114300000D03*
X77062000Y-116840000D03*
X77062000Y-102125000D03*
X77062000Y-104665000D03*
X77062000Y-107205000D03*
X84682000Y-102125000D03*
X84682000Y-104665000D03*
X84682000Y-107205000D03*
X89762000Y-111760000D03*
X89762000Y-114300000D03*
X89762000Y-116840000D03*
X97382000Y-111760000D03*
X97382000Y-114300000D03*
X97382000Y-116840000D03*
X84682000Y-111760000D03*
X84682000Y-114300000D03*
X84682000Y-116840000D03*
D18*
X90929000Y-133228000D03*
X93469000Y-133228000D03*
X96009000Y-133228000D03*
X90929000Y-148468000D03*
X93469000Y-148468000D03*
X96009000Y-148468000D03*
D12*
X71620000Y-102125000D03*
X71620000Y-104665000D03*
X71620000Y-107205000D03*
X64000000Y-102125000D03*
X64000000Y-104665000D03*
X64000000Y-107205000D03*
D18*
X65016000Y-133350000D03*
X67556000Y-133350000D03*
X52994000Y-148458000D03*
X55534000Y-148458000D03*
X58074000Y-148458000D03*
X65016000Y-135890000D03*
X67556000Y-135890000D03*
X52994000Y-133218000D03*
X55534000Y-133218000D03*
X58074000Y-133218000D03*
D12*
X51600000Y-102125000D03*
X51600000Y-104665000D03*
X51600000Y-107205000D03*
X59220000Y-102125000D03*
X59220000Y-104665000D03*
X59220000Y-107205000D03*
X59280000Y-121760000D03*
X59280000Y-124300000D03*
X59280000Y-126840000D03*
X59280000Y-129380000D03*
X51660000Y-121760000D03*
X51660000Y-124300000D03*
X51660000Y-126840000D03*
X51660000Y-129380000D03*
X64000000Y-111760000D03*
X64000000Y-114300000D03*
X64000000Y-116840000D03*
X71620000Y-111760000D03*
X71620000Y-114300000D03*
X71620000Y-116840000D03*
X51600000Y-111760000D03*
X51600000Y-114300000D03*
X51600000Y-116840000D03*
X59220000Y-111760000D03*
X59220000Y-114300000D03*
X59220000Y-116840000D03*
X122420000Y-102125000D03*
X122420000Y-104665000D03*
X122420000Y-107205000D03*
X127762000Y-102125000D03*
X127762000Y-104665000D03*
X127762000Y-107205000D03*
X127762000Y-111760000D03*
X127762000Y-114300000D03*
X127762000Y-116840000D03*
X122420000Y-111760000D03*
X122420000Y-114300000D03*
X122420000Y-116840000D03*
X135382000Y-102125000D03*
X135382000Y-104665000D03*
X135382000Y-107205000D03*
X140462000Y-102125000D03*
X140462000Y-104665000D03*
X140462000Y-107205000D03*
X148082000Y-102125000D03*
X148082000Y-104665000D03*
X148082000Y-107205000D03*
X140462000Y-111760000D03*
X140462000Y-114300000D03*
X140462000Y-116840000D03*
X148082000Y-111760000D03*
X148082000Y-114300000D03*
X148082000Y-116840000D03*
X135382000Y-111760000D03*
X135382000Y-114300000D03*
X135382000Y-116840000D03*
D16*
X146455000Y-94658000D03*
D17*
X144169000Y-88308000D03*
D16*
X141883000Y-94658000D03*
D14*
X143322000Y-67475000D03*
X145222000Y-67475000D03*
D15*
X104910000Y-55090000D03*
X104910000Y-54140000D03*
X104910000Y-53190000D03*
X107110000Y-53190000D03*
X107110000Y-55090000D03*
X107110000Y-54140000D03*
D14*
X105060000Y-57315000D03*
X106960000Y-57315000D03*
X117660000Y-51092000D03*
X119560000Y-51092000D03*
X105060000Y-51092000D03*
X106960000Y-51092000D03*
X143322000Y-61252000D03*
X145222000Y-61252000D03*
X143322000Y-57315000D03*
X145222000Y-57315000D03*
X143322000Y-51092000D03*
X145222000Y-51092000D03*
D15*
X143172000Y-55090000D03*
X143172000Y-54140000D03*
X143172000Y-53190000D03*
X145372000Y-53190000D03*
X145372000Y-55090000D03*
X145372000Y-54140000D03*
X143172000Y-65250000D03*
X143172000Y-64300000D03*
X143172000Y-63350000D03*
X145372000Y-63350000D03*
X145372000Y-65250000D03*
X145372000Y-64300000D03*
D14*
X105060000Y-67475000D03*
X106960000Y-67475000D03*
D16*
X108420000Y-94648000D03*
D17*
X106134000Y-88298000D03*
D16*
X103848000Y-94648000D03*
D15*
X104910000Y-65250000D03*
X104910000Y-64300000D03*
X104910000Y-63350000D03*
X107110000Y-63350000D03*
X107110000Y-65250000D03*
X107110000Y-64300000D03*
D14*
X105060000Y-61252000D03*
X106960000Y-61252000D03*
X117660000Y-57315000D03*
X119560000Y-57315000D03*
X117660000Y-67475000D03*
X119560000Y-67475000D03*
D15*
X117510000Y-55090000D03*
X117510000Y-54140000D03*
X117510000Y-53190000D03*
X119710000Y-53190000D03*
X119710000Y-55090000D03*
X119710000Y-54140000D03*
X117510000Y-65250000D03*
X117510000Y-64300000D03*
X117510000Y-63350000D03*
X119710000Y-63350000D03*
X119710000Y-65250000D03*
X119710000Y-64300000D03*
D14*
X117660000Y-61252000D03*
X119560000Y-61252000D03*
D15*
X130472000Y-55090000D03*
X130472000Y-54140000D03*
X130472000Y-53190000D03*
X132672000Y-53190000D03*
X132672000Y-55090000D03*
X132672000Y-54140000D03*
D14*
X130622000Y-57315000D03*
X132522000Y-57315000D03*
D15*
X130472000Y-65250000D03*
X130472000Y-64300000D03*
X130472000Y-63350000D03*
X132672000Y-63350000D03*
X132672000Y-65250000D03*
X132672000Y-64300000D03*
D14*
X130622000Y-67475000D03*
X132522000Y-67475000D03*
X130622000Y-61252000D03*
X132522000Y-61252000D03*
X130622000Y-51092000D03*
X132522000Y-51092000D03*
D12*
X109820000Y-61760000D03*
X109820000Y-64300000D03*
X109820000Y-66840000D03*
X102200000Y-61760000D03*
X102200000Y-64300000D03*
X102200000Y-66840000D03*
X114800000Y-61760000D03*
X114800000Y-64300000D03*
X114800000Y-66840000D03*
X122420000Y-61760000D03*
X122420000Y-64300000D03*
X122420000Y-66840000D03*
X102200000Y-51600000D03*
X102200000Y-54140000D03*
X102200000Y-56680000D03*
X109820000Y-51600000D03*
X109820000Y-54140000D03*
X109820000Y-56680000D03*
X114800000Y-51600000D03*
X114800000Y-54140000D03*
X114800000Y-56680000D03*
X127762000Y-51600000D03*
X127762000Y-54140000D03*
X127762000Y-56680000D03*
X122420000Y-51600000D03*
X122420000Y-54140000D03*
X122420000Y-56680000D03*
X135382000Y-51600000D03*
X135382000Y-54140000D03*
X135382000Y-56680000D03*
X148082000Y-61760000D03*
X148082000Y-64300000D03*
X148082000Y-66840000D03*
X148082000Y-51600000D03*
X148082000Y-54140000D03*
X148082000Y-56680000D03*
X140462000Y-51600000D03*
X140462000Y-54140000D03*
X140462000Y-56680000D03*
X140462000Y-61760000D03*
X140462000Y-64300000D03*
X140462000Y-66840000D03*
X135382000Y-61760000D03*
X135382000Y-64300000D03*
X135382000Y-66840000D03*
X127762000Y-61760000D03*
X127762000Y-64300000D03*
X127762000Y-66840000D03*
D18*
X128341000Y-83350000D03*
X130881000Y-83350000D03*
X128341000Y-85890000D03*
X130881000Y-85890000D03*
X141629000Y-83228000D03*
X144169000Y-83228000D03*
X146709000Y-83228000D03*
X141629000Y-98468000D03*
X144169000Y-98468000D03*
X146709000Y-98468000D03*
X115816000Y-85890000D03*
X118356000Y-85890000D03*
X103594000Y-83218000D03*
X106134000Y-83218000D03*
X108674000Y-83218000D03*
X115816000Y-83350000D03*
X118356000Y-83350000D03*
X103594000Y-98458000D03*
X106134000Y-98458000D03*
X108674000Y-98458000D03*
D16*
X95755000Y-94658000D03*
D17*
X93469000Y-88308000D03*
D16*
X91183000Y-94658000D03*
D18*
X90929000Y-98468000D03*
X93469000Y-98468000D03*
X96009000Y-98468000D03*
X90929000Y-83228000D03*
X93469000Y-83228000D03*
X96009000Y-83228000D03*
X78191000Y-85840000D03*
X80731000Y-85840000D03*
X78191000Y-83300000D03*
X80731000Y-83300000D03*
X65016000Y-83350000D03*
X67556000Y-83350000D03*
X65016000Y-85890000D03*
X67556000Y-85890000D03*
X52994000Y-83218000D03*
X55534000Y-83218000D03*
X58074000Y-83218000D03*
X52994000Y-98458000D03*
X55534000Y-98458000D03*
X58074000Y-98458000D03*
D15*
X54310000Y-65250000D03*
X54310000Y-64300000D03*
X54310000Y-63350000D03*
X56510000Y-63350000D03*
X56510000Y-65250000D03*
X56510000Y-64300000D03*
D12*
X51600000Y-61760000D03*
X51600000Y-64300000D03*
X51600000Y-66840000D03*
X59220000Y-61760000D03*
X59220000Y-64300000D03*
X59220000Y-66840000D03*
D14*
X54460000Y-61252000D03*
X56360000Y-61252000D03*
X54460000Y-67475000D03*
X56360000Y-67475000D03*
X66860000Y-67475000D03*
X68760000Y-67475000D03*
X66860000Y-61252000D03*
X68760000Y-61252000D03*
D12*
X71620000Y-61760000D03*
X71620000Y-64300000D03*
X71620000Y-66840000D03*
X64000000Y-61760000D03*
X64000000Y-64300000D03*
X64000000Y-66840000D03*
D15*
X66710000Y-65250000D03*
X66710000Y-64300000D03*
X66710000Y-63350000D03*
X68910000Y-63350000D03*
X68910000Y-65250000D03*
X68910000Y-64300000D03*
X79772000Y-65250000D03*
X79772000Y-64300000D03*
X79772000Y-63350000D03*
X81972000Y-63350000D03*
X81972000Y-65250000D03*
X81972000Y-64300000D03*
D12*
X77062000Y-61760000D03*
X77062000Y-64300000D03*
X77062000Y-66840000D03*
X84682000Y-61760000D03*
X84682000Y-64300000D03*
X84682000Y-66840000D03*
D14*
X79922000Y-61252000D03*
X81822000Y-61252000D03*
X79922000Y-67475000D03*
X81822000Y-67475000D03*
X92622000Y-67475000D03*
X94522000Y-67475000D03*
X92622000Y-61252000D03*
X94522000Y-61252000D03*
D12*
X97382000Y-61760000D03*
X97382000Y-64300000D03*
X97382000Y-66840000D03*
X89762000Y-61760000D03*
X89762000Y-64300000D03*
X89762000Y-66840000D03*
D15*
X92472000Y-65250000D03*
X92472000Y-64300000D03*
X92472000Y-63350000D03*
X94672000Y-63350000D03*
X94672000Y-65250000D03*
X94672000Y-64300000D03*
X92472000Y-55090000D03*
X92472000Y-54140000D03*
X92472000Y-53190000D03*
X94672000Y-53190000D03*
X94672000Y-55090000D03*
X94672000Y-54140000D03*
D12*
X89762000Y-51600000D03*
X89762000Y-54140000D03*
X89762000Y-56680000D03*
X97382000Y-51600000D03*
X97382000Y-54140000D03*
X97382000Y-56680000D03*
D14*
X92622000Y-51092000D03*
X94522000Y-51092000D03*
X92622000Y-57315000D03*
X94522000Y-57315000D03*
X79922000Y-57315000D03*
X81822000Y-57315000D03*
X79922000Y-51092000D03*
X81822000Y-51092000D03*
D12*
X84682000Y-51600000D03*
X84682000Y-54140000D03*
X84682000Y-56680000D03*
X77062000Y-51600000D03*
X77062000Y-54140000D03*
X77062000Y-56680000D03*
D15*
X79772000Y-55090000D03*
X79772000Y-54140000D03*
X79772000Y-53190000D03*
X81972000Y-53190000D03*
X81972000Y-55090000D03*
X81972000Y-54140000D03*
X66710000Y-55090000D03*
X66710000Y-54140000D03*
X66710000Y-53190000D03*
X68910000Y-53190000D03*
X68910000Y-55090000D03*
X68910000Y-54140000D03*
D12*
X64000000Y-51600000D03*
X64000000Y-54140000D03*
X64000000Y-56680000D03*
X71620000Y-51600000D03*
X71620000Y-54140000D03*
X71620000Y-56680000D03*
D14*
X66860000Y-51092000D03*
X68760000Y-51092000D03*
X66860000Y-57315000D03*
X68760000Y-57315000D03*
X54460000Y-57315000D03*
X56360000Y-57315000D03*
X54460000Y-51092000D03*
X56360000Y-51092000D03*
D12*
X59220000Y-51600000D03*
X59220000Y-54140000D03*
X59220000Y-56680000D03*
X51600000Y-51600000D03*
X51600000Y-54140000D03*
X51600000Y-56680000D03*
D15*
X54310000Y-55090000D03*
X54310000Y-54140000D03*
X54310000Y-53190000D03*
X56510000Y-53190000D03*
X56510000Y-55090000D03*
X56510000Y-54140000D03*
D16*
X57820000Y-94648000D03*
D17*
X55534000Y-88298000D03*
D16*
X53248000Y-94648000D03*
D19*
X86120000Y-78874200D02*
X85839200Y-79155000D01*
X86120000Y-75825000D02*
X86120000Y-78874200D01*
X85839200Y-79155000D02*
X84620000Y-79155000D01*
X89700000Y-79615754D02*
X89700000Y-79180000D01*
X90424246Y-80340000D02*
X89700000Y-79615754D01*
X93513200Y-80340000D02*
X90424246Y-80340000D01*
X91750000Y-79770000D02*
X91210000Y-79230000D01*
X84620000Y-71128941D02*
X84620000Y-71535000D01*
X89047728Y-71560000D02*
X89700000Y-71560000D01*
X88850740Y-75370000D02*
X88350000Y-74869260D01*
X88350000Y-72257728D02*
X89047728Y-71560000D01*
X88350000Y-74869260D02*
X88350000Y-72257728D01*
X85640000Y-75345000D02*
X86120000Y-75825000D01*
X93825000Y-78450000D02*
X93825000Y-79378200D01*
X94475000Y-79378200D02*
X93513200Y-80340000D01*
X94475000Y-78450000D02*
X94475000Y-79378200D01*
X93825000Y-79378200D02*
X93433200Y-79770000D01*
X93433200Y-79770000D02*
X91750000Y-79770000D01*
X92525000Y-78450000D02*
X92525000Y-77521800D01*
X91210000Y-79230000D02*
X91210000Y-76930800D01*
X92525000Y-77521800D02*
X91910000Y-76906800D01*
X93175000Y-78450000D02*
X93175000Y-77521800D01*
X93175000Y-77521800D02*
X93160000Y-77506800D01*
X90900000Y-75370000D02*
X88850740Y-75370000D01*
X90919200Y-76640000D02*
X89700000Y-76640000D01*
X93160000Y-77506800D02*
X93160000Y-75966978D01*
X93160000Y-75966978D02*
X91293022Y-74100000D01*
X91210000Y-76930800D02*
X90919200Y-76640000D01*
X91910000Y-76906800D02*
X91910000Y-76380000D01*
X91293022Y-74100000D02*
X89700000Y-74100000D01*
X91910000Y-76380000D02*
X90900000Y-75370000D01*
X98539200Y-79180000D02*
X97320000Y-79180000D01*
X98340000Y-75370000D02*
X98820000Y-75850000D01*
X98820000Y-75850000D02*
X98820000Y-78899200D01*
X95650000Y-75370000D02*
X98340000Y-75370000D01*
X98820000Y-78899200D02*
X98539200Y-79180000D01*
X96566059Y-70400000D02*
X97320000Y-71153941D01*
D20*
X97320000Y-71560000D02*
X97320000Y-71306000D01*
D19*
X97320000Y-71153941D02*
X97320000Y-71560000D01*
X95230000Y-71100000D02*
X95830000Y-71700000D01*
X93746800Y-70400000D02*
X96566059Y-70400000D01*
X92525000Y-71621800D02*
X93746800Y-70400000D01*
X92525000Y-72550000D02*
X92525000Y-71621800D01*
X93175000Y-72550000D02*
X93175000Y-71621800D01*
X93175000Y-71621800D02*
X93696800Y-71100000D01*
X93696800Y-71100000D02*
X95230000Y-71100000D01*
X94475000Y-73478200D02*
X94470000Y-73483200D01*
X93825000Y-73478200D02*
X93830000Y-73483200D01*
X94475000Y-72550000D02*
X94475000Y-73478200D01*
X94470000Y-73483200D02*
X94470000Y-74190000D01*
X95830000Y-71700000D02*
X95830000Y-73829200D01*
X93825000Y-72550000D02*
X93825000Y-73478200D01*
X93830000Y-73483200D02*
X93830000Y-74400000D01*
X96070000Y-76640000D02*
X97320000Y-76640000D01*
X96100800Y-74100000D02*
X97320000Y-74100000D01*
X95830000Y-73829200D02*
X96100800Y-74100000D01*
X94470000Y-74190000D02*
X95650000Y-75370000D01*
X93830000Y-74400000D02*
X96070000Y-76640000D01*
X105675000Y-72525000D02*
X105675000Y-71596800D01*
X105025000Y-71596800D02*
X106246800Y-70375000D01*
X105675000Y-71596800D02*
X106196800Y-71075000D01*
X106325000Y-72525000D02*
X106325000Y-73453200D01*
X105025000Y-72525000D02*
X105025000Y-71596800D01*
X105025000Y-78425000D02*
X105025000Y-77496800D01*
X103710000Y-79205000D02*
X103710000Y-76905800D01*
X103419200Y-76615000D02*
X102200000Y-76615000D01*
X105675000Y-78425000D02*
X105675000Y-77496800D01*
X102924246Y-80315000D02*
X102200000Y-79590754D01*
X105025000Y-77496800D02*
X104410000Y-76881800D01*
X102200000Y-79590754D02*
X102200000Y-79155000D01*
X105675000Y-77496800D02*
X105660000Y-77481800D01*
X106975000Y-78425000D02*
X106975000Y-79353200D01*
X105933200Y-79745000D02*
X104250000Y-79745000D01*
X106325000Y-78425000D02*
X106325000Y-79353200D01*
X106325000Y-79353200D02*
X105933200Y-79745000D01*
X106013200Y-80315000D02*
X102924246Y-80315000D01*
X104250000Y-79745000D02*
X103710000Y-79205000D01*
X106975000Y-79353200D02*
X106013200Y-80315000D01*
X105660000Y-75941978D02*
X103793022Y-74075000D01*
X104410000Y-76355000D02*
X103400000Y-75345000D01*
X104410000Y-76881800D02*
X104410000Y-76355000D01*
X103710000Y-76905800D02*
X103419200Y-76615000D01*
X105660000Y-77481800D02*
X105660000Y-75941978D01*
X106330000Y-74375000D02*
X108570000Y-76615000D01*
X108600800Y-74075000D02*
X109820000Y-74075000D01*
X111039200Y-79155000D02*
X109820000Y-79155000D01*
X108570000Y-76615000D02*
X109820000Y-76615000D01*
X106970000Y-74165000D02*
X108150000Y-75345000D01*
X108150000Y-75345000D02*
X110840000Y-75345000D01*
D20*
X109820000Y-71535000D02*
X109820000Y-71281000D01*
D19*
X106246800Y-70375000D02*
X109066059Y-70375000D01*
X109820000Y-71128941D02*
X109820000Y-71535000D01*
X109066059Y-70375000D02*
X109820000Y-71128941D01*
X107730000Y-71075000D02*
X108330000Y-71675000D01*
X106196800Y-71075000D02*
X107730000Y-71075000D01*
X106325000Y-73453200D02*
X106330000Y-73458200D01*
X106970000Y-73458200D02*
X106970000Y-74165000D01*
X106975000Y-73453200D02*
X106970000Y-73458200D01*
X108330000Y-73804200D02*
X108600800Y-74075000D01*
X106975000Y-72525000D02*
X106975000Y-73453200D01*
X108330000Y-71675000D02*
X108330000Y-73804200D01*
X106330000Y-73458200D02*
X106330000Y-74375000D01*
X101547728Y-71535000D02*
X102200000Y-71535000D01*
X100850000Y-72232728D02*
X101547728Y-71535000D01*
X101350740Y-75345000D02*
X100850000Y-74844260D01*
X103793022Y-74075000D02*
X102200000Y-74075000D01*
X103400000Y-75345000D02*
X101350740Y-75345000D01*
X100850000Y-74844260D02*
X100850000Y-72232728D01*
X113950740Y-75370000D02*
X113450000Y-74869260D01*
X113450000Y-72257728D02*
X114147728Y-71560000D01*
X116393022Y-74100000D02*
X114800000Y-74100000D01*
X113450000Y-74869260D02*
X113450000Y-72257728D01*
X114147728Y-71560000D02*
X114800000Y-71560000D01*
X116000000Y-75370000D02*
X113950740Y-75370000D01*
X118613200Y-80340000D02*
X115524246Y-80340000D01*
X116850000Y-79770000D02*
X116310000Y-79230000D01*
X115524246Y-80340000D02*
X114800000Y-79615754D01*
X114800000Y-79615754D02*
X114800000Y-79180000D01*
X118533200Y-79770000D02*
X116850000Y-79770000D01*
X118260000Y-75966978D02*
X116393022Y-74100000D01*
X117625000Y-77521800D02*
X117010000Y-76906800D01*
X117010000Y-76380000D02*
X116000000Y-75370000D01*
X116310000Y-76930800D02*
X116019200Y-76640000D01*
X117010000Y-76906800D02*
X117010000Y-76380000D01*
X110840000Y-75345000D02*
X111320000Y-75825000D01*
X116310000Y-79230000D02*
X116310000Y-76930800D01*
X111320000Y-78874200D02*
X111039200Y-79155000D01*
X111320000Y-75825000D02*
X111320000Y-78874200D01*
X116019200Y-76640000D02*
X114800000Y-76640000D01*
X144133200Y-79795000D02*
X142450000Y-79795000D01*
X142450000Y-79795000D02*
X141910000Y-79255000D01*
X140400000Y-79640754D02*
X140400000Y-79205000D01*
X141124246Y-80365000D02*
X140400000Y-79640754D01*
X144213200Y-80365000D02*
X141124246Y-80365000D01*
X145175000Y-79403200D02*
X144213200Y-80365000D01*
X144525000Y-78475000D02*
X144525000Y-79403200D01*
X144525000Y-79403200D02*
X144133200Y-79795000D01*
X145175000Y-78475000D02*
X145175000Y-79403200D01*
X143225000Y-78475000D02*
X143225000Y-77546800D01*
X141910000Y-79255000D02*
X141910000Y-76955800D01*
X143875000Y-77546800D02*
X143860000Y-77531800D01*
X143875000Y-78475000D02*
X143875000Y-77546800D01*
X143225000Y-77546800D02*
X142610000Y-76931800D01*
X146800800Y-74125000D02*
X148020000Y-74125000D01*
X145930000Y-71125000D02*
X146530000Y-71725000D01*
X144446800Y-70425000D02*
X147266059Y-70425000D01*
X147266059Y-70425000D02*
X148020000Y-71178941D01*
D20*
X148020000Y-71585000D02*
X148020000Y-71331000D01*
D19*
X146530000Y-71725000D02*
X146530000Y-73854200D01*
X146530000Y-73854200D02*
X146800800Y-74125000D01*
X148020000Y-71178941D02*
X148020000Y-71585000D01*
X145170000Y-74215000D02*
X146350000Y-75395000D01*
X145170000Y-73508200D02*
X145170000Y-74215000D01*
X144530000Y-73508200D02*
X144530000Y-74425000D01*
X144530000Y-74425000D02*
X146770000Y-76665000D01*
X145175000Y-72575000D02*
X145175000Y-73503200D01*
X144525000Y-72575000D02*
X144525000Y-73503200D01*
X144525000Y-73503200D02*
X144530000Y-73508200D01*
X145175000Y-73503200D02*
X145170000Y-73508200D01*
X143875000Y-72575000D02*
X143875000Y-71646800D01*
X143875000Y-71646800D02*
X144396800Y-71125000D01*
X143225000Y-71646800D02*
X144446800Y-70425000D01*
X143225000Y-72575000D02*
X143225000Y-71646800D01*
X144396800Y-71125000D02*
X145930000Y-71125000D01*
X146350000Y-75395000D02*
X149040000Y-75395000D01*
X149239200Y-79205000D02*
X148020000Y-79205000D01*
X149520000Y-75875000D02*
X149520000Y-78924200D01*
X149040000Y-75395000D02*
X149520000Y-75875000D01*
X149520000Y-78924200D02*
X149239200Y-79205000D01*
X146770000Y-76665000D02*
X148020000Y-76665000D01*
X141600000Y-75395000D02*
X139550740Y-75395000D01*
X141910000Y-76955800D02*
X141619200Y-76665000D01*
X143860000Y-77531800D02*
X143860000Y-75991978D01*
X141993022Y-74125000D02*
X140400000Y-74125000D01*
X141619200Y-76665000D02*
X140400000Y-76665000D01*
X142610000Y-76931800D02*
X142610000Y-76405000D01*
X143860000Y-75991978D02*
X141993022Y-74125000D01*
X142610000Y-76405000D02*
X141600000Y-75395000D01*
X131175000Y-77521800D02*
X131160000Y-77506800D01*
X130525000Y-78450000D02*
X130525000Y-77521800D01*
X131175000Y-78450000D02*
X131175000Y-77521800D01*
X129210000Y-79230000D02*
X129210000Y-76930800D01*
X131513200Y-80340000D02*
X128424246Y-80340000D01*
X131433200Y-79770000D02*
X129750000Y-79770000D01*
X129750000Y-79770000D02*
X129210000Y-79230000D01*
X132475000Y-72550000D02*
X132475000Y-73478200D01*
X132470000Y-73483200D02*
X132470000Y-74190000D01*
X133830000Y-73829200D02*
X134100800Y-74100000D01*
X133830000Y-71700000D02*
X133830000Y-73829200D01*
X132475000Y-73478200D02*
X132470000Y-73483200D01*
X131175000Y-72550000D02*
X131175000Y-71621800D01*
X130525000Y-72550000D02*
X130525000Y-71621800D01*
X131825000Y-73478200D02*
X131830000Y-73483200D01*
X131830000Y-73483200D02*
X131830000Y-74400000D01*
X131825000Y-72550000D02*
X131825000Y-73478200D01*
X129910000Y-76906800D02*
X129910000Y-76380000D01*
X131160000Y-75966978D02*
X129293022Y-74100000D01*
X131160000Y-77506800D02*
X131160000Y-75966978D01*
X129210000Y-76930800D02*
X128919200Y-76640000D01*
X129910000Y-76380000D02*
X128900000Y-75370000D01*
X130525000Y-77521800D02*
X129910000Y-76906800D01*
X132475000Y-79378200D02*
X131513200Y-80340000D01*
X131825000Y-78450000D02*
X131825000Y-79378200D01*
X132475000Y-78450000D02*
X132475000Y-79378200D01*
X131825000Y-79378200D02*
X131433200Y-79770000D01*
X139050000Y-74894260D02*
X139050000Y-72282728D01*
D20*
X135320000Y-71560000D02*
X135320000Y-71306000D01*
D19*
X139050000Y-72282728D02*
X139747728Y-71585000D01*
X139747728Y-71585000D02*
X140400000Y-71585000D01*
X139550740Y-75395000D02*
X139050000Y-74894260D01*
X130525000Y-71621800D02*
X131746800Y-70400000D01*
X131175000Y-71621800D02*
X131696800Y-71100000D01*
X131696800Y-71100000D02*
X133230000Y-71100000D01*
X131746800Y-70400000D02*
X134566059Y-70400000D01*
X134566059Y-70400000D02*
X135320000Y-71153941D01*
X135320000Y-71153941D02*
X135320000Y-71560000D01*
X133230000Y-71100000D02*
X133830000Y-71700000D01*
X136340000Y-75370000D02*
X136820000Y-75850000D01*
X136820000Y-78899200D02*
X136539200Y-79180000D01*
X136820000Y-75850000D02*
X136820000Y-78899200D01*
X136539200Y-79180000D02*
X135320000Y-79180000D01*
X133650000Y-75370000D02*
X136340000Y-75370000D01*
X132470000Y-74190000D02*
X133650000Y-75370000D01*
X134070000Y-76640000D02*
X135320000Y-76640000D01*
X131830000Y-74400000D02*
X134070000Y-76640000D01*
X134100800Y-74100000D02*
X135320000Y-74100000D01*
X118930000Y-73483200D02*
X118930000Y-74400000D01*
X120750000Y-75370000D02*
X123440000Y-75370000D01*
X119570000Y-74190000D02*
X120750000Y-75370000D01*
X118930000Y-74400000D02*
X121170000Y-76640000D01*
X120930000Y-73829200D02*
X121200800Y-74100000D01*
X121170000Y-76640000D02*
X122420000Y-76640000D01*
X121200800Y-74100000D02*
X122420000Y-74100000D01*
X123440000Y-75370000D02*
X123920000Y-75850000D01*
X123920000Y-75850000D02*
X123920000Y-78899200D01*
X123639200Y-79180000D02*
X122420000Y-79180000D01*
X123920000Y-78899200D02*
X123639200Y-79180000D01*
X128919200Y-76640000D02*
X127700000Y-76640000D01*
X127700000Y-79615754D02*
X127700000Y-79180000D01*
X128424246Y-80340000D02*
X127700000Y-79615754D01*
X128900000Y-75370000D02*
X126850740Y-75370000D01*
X129293022Y-74100000D02*
X127700000Y-74100000D01*
X126350000Y-74869260D02*
X126350000Y-72257728D01*
X127047728Y-71560000D02*
X127700000Y-71560000D01*
X126850740Y-75370000D02*
X126350000Y-74869260D01*
X126350000Y-72257728D02*
X127047728Y-71560000D01*
X118925000Y-79378200D02*
X118533200Y-79770000D01*
X118275000Y-77521800D02*
X118260000Y-77506800D01*
X118275000Y-78450000D02*
X118275000Y-77521800D01*
X119575000Y-78450000D02*
X119575000Y-79378200D01*
X118925000Y-78450000D02*
X118925000Y-79378200D01*
X118260000Y-77506800D02*
X118260000Y-75966978D01*
X119575000Y-79378200D02*
X118613200Y-80340000D01*
X117625000Y-78450000D02*
X117625000Y-77521800D01*
X120330000Y-71100000D02*
X120930000Y-71700000D01*
X118846800Y-70400000D02*
X121666059Y-70400000D01*
D20*
X122420000Y-71560000D02*
X122420000Y-71306000D01*
D19*
X122420000Y-71153941D02*
X122420000Y-71560000D01*
X118796800Y-71100000D02*
X120330000Y-71100000D01*
X121666059Y-70400000D02*
X122420000Y-71153941D01*
X120930000Y-71700000D02*
X120930000Y-73829200D01*
X119575000Y-73478200D02*
X119570000Y-73483200D01*
X119575000Y-72550000D02*
X119575000Y-73478200D01*
X119570000Y-73483200D02*
X119570000Y-74190000D01*
X117625000Y-72550000D02*
X117625000Y-71621800D01*
X118275000Y-72550000D02*
X118275000Y-71621800D01*
X118275000Y-71621800D02*
X118796800Y-71100000D01*
X118925000Y-73478200D02*
X118930000Y-73483200D01*
X117625000Y-71621800D02*
X118846800Y-70400000D01*
X118925000Y-72550000D02*
X118925000Y-73478200D01*
X78219200Y-76615000D02*
X77000000Y-76615000D01*
X80460000Y-75941978D02*
X78593022Y-74075000D01*
X78510000Y-76905800D02*
X78219200Y-76615000D01*
X80460000Y-77481800D02*
X80460000Y-75941978D01*
X79210000Y-76881800D02*
X79210000Y-76355000D01*
X79210000Y-76355000D02*
X78200000Y-75345000D01*
X79825000Y-77496800D02*
X79210000Y-76881800D01*
X78593022Y-74075000D02*
X77000000Y-74075000D01*
X79050000Y-79745000D02*
X78510000Y-79205000D01*
X77724246Y-80315000D02*
X77000000Y-79590754D01*
X77000000Y-79590754D02*
X77000000Y-79155000D01*
X80733200Y-79745000D02*
X79050000Y-79745000D01*
X80475000Y-77496800D02*
X80460000Y-77481800D01*
X78510000Y-79205000D02*
X78510000Y-76905800D01*
X79825000Y-78425000D02*
X79825000Y-77496800D01*
X80813200Y-80315000D02*
X77724246Y-80315000D01*
X81125000Y-79353200D02*
X80733200Y-79745000D01*
X81775000Y-79353200D02*
X80813200Y-80315000D01*
X81125000Y-78425000D02*
X81125000Y-79353200D01*
X81775000Y-78425000D02*
X81775000Y-79353200D01*
X80475000Y-78425000D02*
X80475000Y-77496800D01*
X83866059Y-70375000D02*
X84620000Y-71128941D01*
X82530000Y-71075000D02*
X83130000Y-71675000D01*
X81046800Y-70375000D02*
X83866059Y-70375000D01*
D20*
X84620000Y-71535000D02*
X84620000Y-71281000D01*
D19*
X80996800Y-71075000D02*
X82530000Y-71075000D01*
X80475000Y-71596800D02*
X80996800Y-71075000D01*
X79825000Y-71596800D02*
X81046800Y-70375000D01*
X79825000Y-72525000D02*
X79825000Y-71596800D01*
X80475000Y-72525000D02*
X80475000Y-71596800D01*
X81775000Y-72525000D02*
X81775000Y-73453200D01*
X81125000Y-72525000D02*
X81125000Y-73453200D01*
X83130000Y-71675000D02*
X83130000Y-73804200D01*
X81125000Y-73453200D02*
X81130000Y-73458200D01*
X81775000Y-73453200D02*
X81770000Y-73458200D01*
X83130000Y-73804200D02*
X83400800Y-74075000D01*
X83400800Y-74075000D02*
X84620000Y-74075000D01*
X81770000Y-73458200D02*
X81770000Y-74165000D01*
X81130000Y-73458200D02*
X81130000Y-74375000D01*
X81770000Y-74165000D02*
X82950000Y-75345000D01*
X81130000Y-74375000D02*
X83370000Y-76615000D01*
X82950000Y-75345000D02*
X85640000Y-75345000D01*
X83370000Y-76615000D02*
X84620000Y-76615000D01*
X75650000Y-72232728D02*
X76347728Y-71535000D01*
X78200000Y-75345000D02*
X76150740Y-75345000D01*
X76347728Y-71535000D02*
X77000000Y-71535000D01*
X75650000Y-74844260D02*
X75650000Y-72232728D01*
X76150740Y-75345000D02*
X75650000Y-74844260D01*
X51710000Y-71955527D02*
X51710000Y-71510000D01*
X50360000Y-73305527D02*
X51710000Y-71955527D01*
X51088642Y-75320000D02*
X50360000Y-74591358D01*
X50360000Y-74591358D02*
X50360000Y-73305527D01*
X55706800Y-71050000D02*
X57240000Y-71050000D01*
X55185000Y-72500000D02*
X55185000Y-71571800D01*
X55185000Y-71571800D02*
X55706800Y-71050000D01*
X54535000Y-71571800D02*
X55756800Y-70350000D01*
X54535000Y-72500000D02*
X54535000Y-71571800D01*
X55756800Y-70350000D02*
X58576059Y-70350000D01*
X57840000Y-71650000D02*
X57840000Y-73779200D01*
X56485000Y-72500000D02*
X56485000Y-73428200D01*
X56485000Y-73428200D02*
X56480000Y-73433200D01*
X55835000Y-73428200D02*
X55840000Y-73433200D01*
X55835000Y-72500000D02*
X55835000Y-73428200D01*
X53920000Y-76330000D02*
X52910000Y-75320000D01*
X52929200Y-76590000D02*
X51710000Y-76590000D01*
X53303022Y-74050000D02*
X51710000Y-74050000D01*
X52910000Y-75320000D02*
X51088642Y-75320000D01*
X55170000Y-75916978D02*
X53303022Y-74050000D01*
X57240000Y-71050000D02*
X57840000Y-71650000D01*
D20*
X59330000Y-71510000D02*
X59330000Y-71256000D01*
D19*
X59330000Y-71103941D02*
X59330000Y-71510000D01*
X58576059Y-70350000D02*
X59330000Y-71103941D01*
X58110800Y-74050000D02*
X59330000Y-74050000D01*
X56480000Y-74140000D02*
X57660000Y-75320000D01*
X58080000Y-76590000D02*
X59330000Y-76590000D01*
X55840000Y-73433200D02*
X55840000Y-74350000D01*
X56480000Y-73433200D02*
X56480000Y-74140000D01*
X57840000Y-73779200D02*
X58110800Y-74050000D01*
X55840000Y-74350000D02*
X58080000Y-76590000D01*
X55523200Y-80290000D02*
X52434246Y-80290000D01*
X56485000Y-79328200D02*
X55523200Y-80290000D01*
X55835000Y-78400000D02*
X55835000Y-79328200D01*
X56485000Y-78400000D02*
X56485000Y-79328200D01*
X55443200Y-79720000D02*
X53760000Y-79720000D01*
X55835000Y-79328200D02*
X55443200Y-79720000D01*
X51710000Y-79565754D02*
X51710000Y-79130000D01*
X53220000Y-76880800D02*
X52929200Y-76590000D01*
X52434246Y-80290000D02*
X51710000Y-79565754D01*
X53220000Y-79180000D02*
X53220000Y-76880800D01*
X53760000Y-79720000D02*
X53220000Y-79180000D01*
X54535000Y-77471800D02*
X53920000Y-76856800D01*
X53920000Y-76856800D02*
X53920000Y-76330000D01*
X55170000Y-77456800D02*
X55170000Y-75916978D01*
X55185000Y-77471800D02*
X55170000Y-77456800D01*
X54535000Y-78400000D02*
X54535000Y-77471800D01*
X55185000Y-78400000D02*
X55185000Y-77471800D01*
X60695708Y-77718399D02*
X59330000Y-79084107D01*
X57660000Y-75320000D02*
X59928440Y-75320000D01*
X59330000Y-79084107D02*
X59330000Y-79130000D01*
X60695708Y-76087268D02*
X60695708Y-77718399D01*
X59928440Y-75320000D02*
X60695708Y-76087268D01*
X65593022Y-74075000D02*
X64000000Y-74075000D01*
X62650000Y-72232728D02*
X63347728Y-71535000D01*
X63347728Y-71535000D02*
X64000000Y-71535000D01*
X63150740Y-75345000D02*
X62650000Y-74844260D01*
X62650000Y-74844260D02*
X62650000Y-72232728D01*
D20*
X71620000Y-71535000D02*
X71620000Y-71281000D01*
D19*
X71620000Y-71128941D02*
X71620000Y-71535000D01*
X68046800Y-70375000D02*
X70866059Y-70375000D01*
X70866059Y-70375000D02*
X71620000Y-71128941D01*
X67996800Y-71075000D02*
X69530000Y-71075000D01*
X69530000Y-71075000D02*
X70130000Y-71675000D01*
X67475000Y-71596800D02*
X67996800Y-71075000D01*
X66825000Y-71596800D02*
X68046800Y-70375000D01*
X67475000Y-72525000D02*
X67475000Y-71596800D01*
X66825000Y-72525000D02*
X66825000Y-71596800D01*
X70130000Y-71675000D02*
X70130000Y-73804200D01*
X68125000Y-72525000D02*
X68125000Y-73453200D01*
X68775000Y-72525000D02*
X68775000Y-73453200D01*
X68775000Y-73453200D02*
X68770000Y-73458200D01*
X68125000Y-73453200D02*
X68130000Y-73458200D01*
X64000000Y-79590754D02*
X64000000Y-79155000D01*
X64724246Y-80315000D02*
X64000000Y-79590754D01*
X65219200Y-76615000D02*
X64000000Y-76615000D01*
X65200000Y-75345000D02*
X63150740Y-75345000D01*
X68125000Y-78425000D02*
X68125000Y-79353200D01*
X68775000Y-78425000D02*
X68775000Y-79353200D01*
X68125000Y-79353200D02*
X67733200Y-79745000D01*
X68775000Y-79353200D02*
X67813200Y-80315000D01*
X67733200Y-79745000D02*
X66050000Y-79745000D01*
X67813200Y-80315000D02*
X64724246Y-80315000D01*
X65510000Y-79205000D02*
X65510000Y-76905800D01*
X66825000Y-78425000D02*
X66825000Y-77496800D01*
X67475000Y-78425000D02*
X67475000Y-77496800D01*
X67475000Y-77496800D02*
X67460000Y-77481800D01*
X66050000Y-79745000D02*
X65510000Y-79205000D01*
X65510000Y-76905800D02*
X65219200Y-76615000D01*
X66210000Y-76355000D02*
X65200000Y-75345000D01*
X67460000Y-77481800D02*
X67460000Y-75941978D01*
X67460000Y-75941978D02*
X65593022Y-74075000D01*
X66210000Y-76881800D02*
X66210000Y-76355000D01*
X66825000Y-77496800D02*
X66210000Y-76881800D01*
X73120000Y-75825000D02*
X73120000Y-78874200D01*
X72640000Y-75345000D02*
X73120000Y-75825000D01*
X73120000Y-78874200D02*
X72839200Y-79155000D01*
X69950000Y-75345000D02*
X72640000Y-75345000D01*
X72839200Y-79155000D02*
X71620000Y-79155000D01*
X70400800Y-74075000D02*
X71620000Y-74075000D01*
X68130000Y-74375000D02*
X70370000Y-76615000D01*
X70370000Y-76615000D02*
X71620000Y-76615000D01*
X68770000Y-73458200D02*
X68770000Y-74165000D01*
X68770000Y-74165000D02*
X69950000Y-75345000D01*
X70130000Y-73804200D02*
X70400800Y-74075000D01*
X68130000Y-73458200D02*
X68130000Y-74375000D01*
X56435000Y-122750000D02*
X56435000Y-123678200D01*
X60645708Y-127968399D02*
X59280000Y-129334107D01*
X56435000Y-123678200D02*
X56430000Y-123683200D01*
X56430000Y-123683200D02*
X56430000Y-124390000D01*
X56430000Y-124390000D02*
X57610000Y-125570000D01*
X57610000Y-125570000D02*
X59878440Y-125570000D01*
X59878440Y-125570000D02*
X60645708Y-126337268D01*
X60645708Y-126337268D02*
X60645708Y-127968399D01*
X59280000Y-129334107D02*
X59280000Y-129380000D01*
X54485000Y-128650000D02*
X54485000Y-127721800D01*
X52860000Y-125570000D02*
X51038642Y-125570000D01*
X54485000Y-127721800D02*
X53870000Y-127106800D01*
X53870000Y-127106800D02*
X53870000Y-126580000D01*
X50310000Y-124841358D02*
X50310000Y-123555527D01*
X53870000Y-126580000D02*
X52860000Y-125570000D01*
X51038642Y-125570000D02*
X50310000Y-124841358D01*
X50310000Y-123555527D02*
X51660000Y-122205527D01*
X51660000Y-122205527D02*
X51660000Y-121760000D01*
X143225000Y-127796800D02*
X142610000Y-127181800D01*
X142610000Y-126655000D02*
X141600000Y-125645000D01*
X143860000Y-126241978D02*
X141993022Y-124375000D01*
X141910000Y-127205800D02*
X141619200Y-126915000D01*
X141619200Y-126915000D02*
X140400000Y-126915000D01*
X141993022Y-124375000D02*
X140400000Y-124375000D01*
X143860000Y-127781800D02*
X143860000Y-126241978D01*
X142610000Y-127181800D02*
X142610000Y-126655000D01*
X139550740Y-125645000D02*
X139050000Y-125144260D01*
X139747728Y-121835000D02*
X140400000Y-121835000D01*
X139050000Y-122532728D02*
X139747728Y-121835000D01*
X141600000Y-125645000D02*
X139550740Y-125645000D01*
X139050000Y-125144260D02*
X139050000Y-122532728D01*
X144525000Y-128725000D02*
X144525000Y-129653200D01*
X141910000Y-129505000D02*
X141910000Y-127205800D01*
X145175000Y-129653200D02*
X144213200Y-130615000D01*
X143875000Y-128725000D02*
X143875000Y-127796800D01*
X144525000Y-129653200D02*
X144133200Y-130045000D01*
X145175000Y-128725000D02*
X145175000Y-129653200D01*
D20*
X135320000Y-121810000D02*
X135320000Y-121556000D01*
D19*
X134566059Y-120650000D02*
X135320000Y-121403941D01*
X134100800Y-124350000D02*
X135320000Y-124350000D01*
X133830000Y-124079200D02*
X134100800Y-124350000D01*
X135320000Y-121403941D02*
X135320000Y-121810000D01*
X133830000Y-121950000D02*
X133830000Y-124079200D01*
X133230000Y-121350000D02*
X133830000Y-121950000D01*
X131746800Y-120650000D02*
X134566059Y-120650000D01*
X141124246Y-130615000D02*
X140400000Y-129890754D01*
X140400000Y-129890754D02*
X140400000Y-129455000D01*
X144213200Y-130615000D02*
X141124246Y-130615000D01*
X142450000Y-130045000D02*
X141910000Y-129505000D01*
X144133200Y-130045000D02*
X142450000Y-130045000D01*
X134070000Y-126890000D02*
X135320000Y-126890000D01*
X136539200Y-129430000D02*
X135320000Y-129430000D01*
X136820000Y-126100000D02*
X136820000Y-129149200D01*
X132470000Y-124440000D02*
X133650000Y-125620000D01*
X136820000Y-129149200D02*
X136539200Y-129430000D01*
X131830000Y-124650000D02*
X134070000Y-126890000D01*
X136340000Y-125620000D02*
X136820000Y-126100000D01*
X133650000Y-125620000D02*
X136340000Y-125620000D01*
X144525000Y-122825000D02*
X144525000Y-123753200D01*
X145175000Y-122825000D02*
X145175000Y-123753200D01*
X144525000Y-123753200D02*
X144530000Y-123758200D01*
X145175000Y-123753200D02*
X145170000Y-123758200D01*
X146530000Y-121975000D02*
X146530000Y-124104200D01*
X149520000Y-129174200D02*
X149239200Y-129455000D01*
X149040000Y-125645000D02*
X149520000Y-126125000D01*
X149520000Y-126125000D02*
X149520000Y-129174200D01*
X149239200Y-129455000D02*
X148020000Y-129455000D01*
X146770000Y-126915000D02*
X148020000Y-126915000D01*
X144396800Y-121375000D02*
X145930000Y-121375000D01*
D20*
X148020000Y-121835000D02*
X148020000Y-121581000D01*
D19*
X144446800Y-120675000D02*
X147266059Y-120675000D01*
X147266059Y-120675000D02*
X148020000Y-121428941D01*
X148020000Y-121428941D02*
X148020000Y-121835000D01*
X145930000Y-121375000D02*
X146530000Y-121975000D01*
X143875000Y-121896800D02*
X144396800Y-121375000D01*
X143225000Y-121896800D02*
X144446800Y-120675000D01*
X143225000Y-122825000D02*
X143225000Y-121896800D01*
X143875000Y-122825000D02*
X143875000Y-121896800D01*
X144530000Y-123758200D02*
X144530000Y-124675000D01*
X143875000Y-127796800D02*
X143860000Y-127781800D01*
X143225000Y-128725000D02*
X143225000Y-127796800D01*
X145170000Y-123758200D02*
X145170000Y-124465000D01*
X144530000Y-124675000D02*
X146770000Y-126915000D01*
X146350000Y-125645000D02*
X149040000Y-125645000D01*
X146530000Y-124104200D02*
X146800800Y-124375000D01*
X146800800Y-124375000D02*
X148020000Y-124375000D01*
X145170000Y-124465000D02*
X146350000Y-125645000D01*
X102924246Y-130565000D02*
X102200000Y-129840754D01*
X102200000Y-129840754D02*
X102200000Y-129405000D01*
X104250000Y-129995000D02*
X103710000Y-129455000D01*
X106013200Y-130565000D02*
X102924246Y-130565000D01*
X106975000Y-129603200D02*
X106013200Y-130565000D01*
X106325000Y-129603200D02*
X105933200Y-129995000D01*
X105933200Y-129995000D02*
X104250000Y-129995000D01*
X105660000Y-127731800D02*
X105660000Y-126191978D01*
X103419200Y-126865000D02*
X102200000Y-126865000D01*
X104410000Y-127131800D02*
X104410000Y-126605000D01*
X104410000Y-126605000D02*
X103400000Y-125595000D01*
X105660000Y-126191978D02*
X103793022Y-124325000D01*
X103793022Y-124325000D02*
X102200000Y-124325000D01*
X103710000Y-127155800D02*
X103419200Y-126865000D01*
X105675000Y-128675000D02*
X105675000Y-127746800D01*
X103710000Y-129455000D02*
X103710000Y-127155800D01*
X105675000Y-127746800D02*
X105660000Y-127731800D01*
X105025000Y-127746800D02*
X104410000Y-127131800D01*
X105025000Y-128675000D02*
X105025000Y-127746800D01*
X103400000Y-125595000D02*
X101350740Y-125595000D01*
X100850000Y-125094260D02*
X100850000Y-122482728D01*
X101350740Y-125595000D02*
X100850000Y-125094260D01*
X100850000Y-122482728D02*
X101547728Y-121785000D01*
X101547728Y-121785000D02*
X102200000Y-121785000D01*
X105025000Y-121846800D02*
X106246800Y-120625000D01*
X105675000Y-122775000D02*
X105675000Y-121846800D01*
X105675000Y-121846800D02*
X106196800Y-121325000D01*
X105025000Y-122775000D02*
X105025000Y-121846800D01*
X106970000Y-124415000D02*
X108150000Y-125595000D01*
X106330000Y-124625000D02*
X108570000Y-126865000D01*
X106325000Y-128675000D02*
X106325000Y-129603200D01*
X106975000Y-128675000D02*
X106975000Y-129603200D01*
X111320000Y-126075000D02*
X111320000Y-129124200D01*
X111320000Y-129124200D02*
X111039200Y-129405000D01*
X111039200Y-129405000D02*
X109820000Y-129405000D01*
X108570000Y-126865000D02*
X109820000Y-126865000D01*
X108150000Y-125595000D02*
X110840000Y-125595000D01*
X110840000Y-125595000D02*
X111320000Y-126075000D01*
X108600800Y-124325000D02*
X109820000Y-124325000D01*
X106975000Y-123703200D02*
X106970000Y-123708200D01*
X106246800Y-120625000D02*
X109066059Y-120625000D01*
X107730000Y-121325000D02*
X108330000Y-121925000D01*
X108330000Y-124054200D02*
X108600800Y-124325000D01*
X106975000Y-122775000D02*
X106975000Y-123703200D01*
X106196800Y-121325000D02*
X107730000Y-121325000D01*
X108330000Y-121925000D02*
X108330000Y-124054200D01*
X106330000Y-123708200D02*
X106330000Y-124625000D01*
X106325000Y-122775000D02*
X106325000Y-123703200D01*
X106970000Y-123708200D02*
X106970000Y-124415000D01*
X106325000Y-123703200D02*
X106330000Y-123708200D01*
X119570000Y-124440000D02*
X120750000Y-125620000D01*
X121200800Y-124350000D02*
X122420000Y-124350000D01*
X121170000Y-126890000D02*
X122420000Y-126890000D01*
X118930000Y-124650000D02*
X121170000Y-126890000D01*
X120750000Y-125620000D02*
X123440000Y-125620000D01*
X117625000Y-121871800D02*
X118846800Y-120650000D01*
X118275000Y-122800000D02*
X118275000Y-121871800D01*
X118275000Y-121871800D02*
X118796800Y-121350000D01*
X117625000Y-122800000D02*
X117625000Y-121871800D01*
X120930000Y-121950000D02*
X120930000Y-124079200D01*
X118925000Y-122800000D02*
X118925000Y-123728200D01*
X119575000Y-123728200D02*
X119570000Y-123733200D01*
X120930000Y-124079200D02*
X121200800Y-124350000D01*
X118925000Y-123728200D02*
X118930000Y-123733200D01*
X119575000Y-122800000D02*
X119575000Y-123728200D01*
X121666059Y-120650000D02*
X122420000Y-121403941D01*
D20*
X122420000Y-121810000D02*
X122420000Y-121556000D01*
D19*
X118846800Y-120650000D02*
X121666059Y-120650000D01*
X118796800Y-121350000D02*
X120330000Y-121350000D01*
X122420000Y-121403941D02*
X122420000Y-121810000D01*
X120330000Y-121350000D02*
X120930000Y-121950000D01*
X123639200Y-129430000D02*
X122420000Y-129430000D01*
X123920000Y-129149200D02*
X123639200Y-129430000D01*
X123920000Y-126100000D02*
X123920000Y-129149200D01*
X123440000Y-125620000D02*
X123920000Y-126100000D01*
X132470000Y-123733200D02*
X132470000Y-124440000D01*
X131830000Y-123733200D02*
X131830000Y-124650000D01*
X132475000Y-123728200D02*
X132470000Y-123733200D01*
X131825000Y-123728200D02*
X131830000Y-123733200D01*
X131825000Y-122800000D02*
X131825000Y-123728200D01*
X132475000Y-122800000D02*
X132475000Y-123728200D01*
X126850740Y-125620000D02*
X126350000Y-125119260D01*
X127047728Y-121810000D02*
X127700000Y-121810000D01*
X128900000Y-125620000D02*
X126850740Y-125620000D01*
X126350000Y-125119260D02*
X126350000Y-122507728D01*
X126350000Y-122507728D02*
X127047728Y-121810000D01*
X127700000Y-129865754D02*
X127700000Y-129430000D01*
X129750000Y-130020000D02*
X129210000Y-129480000D01*
X131433200Y-130020000D02*
X129750000Y-130020000D01*
X131513200Y-130590000D02*
X128424246Y-130590000D01*
X128424246Y-130590000D02*
X127700000Y-129865754D01*
X131825000Y-129628200D02*
X131433200Y-130020000D01*
X131825000Y-128700000D02*
X131825000Y-129628200D01*
X132475000Y-128700000D02*
X132475000Y-129628200D01*
X132475000Y-129628200D02*
X131513200Y-130590000D01*
X130525000Y-122800000D02*
X130525000Y-121871800D01*
X131175000Y-122800000D02*
X131175000Y-121871800D01*
X131175000Y-121871800D02*
X131696800Y-121350000D01*
X131696800Y-121350000D02*
X133230000Y-121350000D01*
X130525000Y-121871800D02*
X131746800Y-120650000D01*
X129910000Y-126630000D02*
X128900000Y-125620000D01*
X129210000Y-127180800D02*
X128919200Y-126890000D01*
X128919200Y-126890000D02*
X127700000Y-126890000D01*
X129293022Y-124350000D02*
X127700000Y-124350000D01*
X131160000Y-126216978D02*
X129293022Y-124350000D01*
X129210000Y-129480000D02*
X129210000Y-127180800D01*
X131175000Y-128700000D02*
X131175000Y-127771800D01*
X130525000Y-127771800D02*
X129910000Y-127156800D01*
X130525000Y-128700000D02*
X130525000Y-127771800D01*
X131160000Y-127756800D02*
X131160000Y-126216978D01*
X131175000Y-127771800D02*
X131160000Y-127756800D01*
X129910000Y-127156800D02*
X129910000Y-126630000D01*
X116019200Y-126890000D02*
X114800000Y-126890000D01*
X117010000Y-127156800D02*
X117010000Y-126630000D01*
X117010000Y-126630000D02*
X116000000Y-125620000D01*
X116310000Y-127180800D02*
X116019200Y-126890000D01*
X117625000Y-127771800D02*
X117010000Y-127156800D01*
X118275000Y-128700000D02*
X118275000Y-127771800D01*
X116850000Y-130020000D02*
X116310000Y-129480000D01*
X116310000Y-129480000D02*
X116310000Y-127180800D01*
X118275000Y-127771800D02*
X118260000Y-127756800D01*
X117625000Y-128700000D02*
X117625000Y-127771800D01*
X119570000Y-123733200D02*
X119570000Y-124440000D01*
X118260000Y-127756800D02*
X118260000Y-126216978D01*
X118260000Y-126216978D02*
X116393022Y-124350000D01*
X118930000Y-123733200D02*
X118930000Y-124650000D01*
X115524246Y-130590000D02*
X114800000Y-129865754D01*
X114800000Y-129865754D02*
X114800000Y-129430000D01*
X118533200Y-130020000D02*
X116850000Y-130020000D01*
X118613200Y-130590000D02*
X115524246Y-130590000D01*
X113450000Y-125119260D02*
X113450000Y-122507728D01*
X113450000Y-122507728D02*
X114147728Y-121810000D01*
X116000000Y-125620000D02*
X113950740Y-125620000D01*
X116393022Y-124350000D02*
X114800000Y-124350000D01*
X114147728Y-121810000D02*
X114800000Y-121810000D01*
X113950740Y-125620000D02*
X113450000Y-125119260D01*
X119575000Y-129628200D02*
X118613200Y-130590000D01*
X118925000Y-128700000D02*
X118925000Y-129628200D01*
X119575000Y-128700000D02*
X119575000Y-129628200D01*
X118925000Y-129628200D02*
X118533200Y-130020000D01*
X109820000Y-121378941D02*
X109820000Y-121785000D01*
X109066059Y-120625000D02*
X109820000Y-121378941D01*
D20*
X109820000Y-121785000D02*
X109820000Y-121531000D01*
D19*
X95650000Y-125620000D02*
X98340000Y-125620000D01*
X98820000Y-126100000D02*
X98820000Y-129149200D01*
X93830000Y-124650000D02*
X96070000Y-126890000D01*
X98340000Y-125620000D02*
X98820000Y-126100000D01*
X96070000Y-126890000D02*
X97320000Y-126890000D01*
X98820000Y-129149200D02*
X98539200Y-129430000D01*
X98539200Y-129430000D02*
X97320000Y-129430000D01*
X92525000Y-127771800D02*
X91910000Y-127156800D01*
X93160000Y-126216978D02*
X91293022Y-124350000D01*
X91910000Y-127156800D02*
X91910000Y-126630000D01*
X91910000Y-126630000D02*
X90900000Y-125620000D01*
X91210000Y-127180800D02*
X90919200Y-126890000D01*
X93160000Y-127756800D02*
X93160000Y-126216978D01*
X90919200Y-126890000D02*
X89700000Y-126890000D01*
X92525000Y-128700000D02*
X92525000Y-127771800D01*
X93825000Y-129628200D02*
X93433200Y-130020000D01*
X93825000Y-128700000D02*
X93825000Y-129628200D01*
X91210000Y-129480000D02*
X91210000Y-127180800D01*
X94475000Y-128700000D02*
X94475000Y-129628200D01*
X93175000Y-127771800D02*
X93160000Y-127756800D01*
X93175000Y-128700000D02*
X93175000Y-127771800D01*
X94475000Y-129628200D02*
X93513200Y-130590000D01*
X93513200Y-130590000D02*
X90424246Y-130590000D01*
X90424246Y-130590000D02*
X89700000Y-129865754D01*
X89700000Y-129865754D02*
X89700000Y-129430000D01*
X91750000Y-130020000D02*
X91210000Y-129480000D01*
X93433200Y-130020000D02*
X91750000Y-130020000D01*
X88350000Y-122507728D02*
X89047728Y-121810000D01*
X88850740Y-125620000D02*
X88350000Y-125119260D01*
X88350000Y-125119260D02*
X88350000Y-122507728D01*
X91293022Y-124350000D02*
X89700000Y-124350000D01*
X90900000Y-125620000D02*
X88850740Y-125620000D01*
X89047728Y-121810000D02*
X89700000Y-121810000D01*
X92525000Y-122800000D02*
X92525000Y-121871800D01*
X93175000Y-121871800D02*
X93696800Y-121350000D01*
X95230000Y-121350000D02*
X95830000Y-121950000D01*
X93746800Y-120650000D02*
X96566059Y-120650000D01*
X93696800Y-121350000D02*
X95230000Y-121350000D01*
X93175000Y-122800000D02*
X93175000Y-121871800D01*
X92525000Y-121871800D02*
X93746800Y-120650000D01*
D20*
X97320000Y-121810000D02*
X97320000Y-121556000D01*
D19*
X97320000Y-121403941D02*
X97320000Y-121810000D01*
X95830000Y-121950000D02*
X95830000Y-124079200D01*
X96566059Y-120650000D02*
X97320000Y-121403941D01*
X95830000Y-124079200D02*
X96100800Y-124350000D01*
X96100800Y-124350000D02*
X97320000Y-124350000D01*
X94470000Y-124440000D02*
X95650000Y-125620000D01*
X94475000Y-122800000D02*
X94475000Y-123728200D01*
X93825000Y-123728200D02*
X93830000Y-123733200D01*
X94470000Y-123733200D02*
X94470000Y-124440000D01*
X93830000Y-123733200D02*
X93830000Y-124650000D01*
X93825000Y-122800000D02*
X93825000Y-123728200D01*
X94475000Y-123728200D02*
X94470000Y-123733200D01*
X85839200Y-129405000D02*
X84620000Y-129405000D01*
X86120000Y-126075000D02*
X86120000Y-129124200D01*
X85640000Y-125595000D02*
X86120000Y-126075000D01*
X83400800Y-124325000D02*
X84620000Y-124325000D01*
X86120000Y-129124200D02*
X85839200Y-129405000D01*
X83370000Y-126865000D02*
X84620000Y-126865000D01*
X82950000Y-125595000D02*
X85640000Y-125595000D01*
D20*
X84620000Y-121785000D02*
X84620000Y-121531000D01*
D19*
X84620000Y-121378941D02*
X84620000Y-121785000D01*
X82530000Y-121325000D02*
X83130000Y-121925000D01*
X80996800Y-121325000D02*
X82530000Y-121325000D01*
X81046800Y-120625000D02*
X83866059Y-120625000D01*
X83866059Y-120625000D02*
X84620000Y-121378941D01*
X81130000Y-124625000D02*
X83370000Y-126865000D01*
X80460000Y-127731800D02*
X80460000Y-126191978D01*
X81770000Y-124415000D02*
X82950000Y-125595000D01*
X83130000Y-121925000D02*
X83130000Y-124054200D01*
X81775000Y-123703200D02*
X81770000Y-123708200D01*
X81775000Y-122775000D02*
X81775000Y-123703200D01*
X83130000Y-124054200D02*
X83400800Y-124325000D01*
X79210000Y-127131800D02*
X79210000Y-126605000D01*
X79210000Y-126605000D02*
X78200000Y-125595000D01*
X78510000Y-127155800D02*
X78219200Y-126865000D01*
X78593022Y-124325000D02*
X77000000Y-124325000D01*
X80460000Y-126191978D02*
X78593022Y-124325000D01*
X78219200Y-126865000D02*
X77000000Y-126865000D01*
X78200000Y-125595000D02*
X76150740Y-125595000D01*
X76347728Y-121785000D02*
X77000000Y-121785000D01*
X75650000Y-125094260D02*
X75650000Y-122482728D01*
X75650000Y-122482728D02*
X76347728Y-121785000D01*
X76150740Y-125595000D02*
X75650000Y-125094260D01*
X79825000Y-122775000D02*
X79825000Y-121846800D01*
X79825000Y-121846800D02*
X81046800Y-120625000D01*
X80475000Y-121846800D02*
X80996800Y-121325000D01*
X80475000Y-122775000D02*
X80475000Y-121846800D01*
X81125000Y-123703200D02*
X81130000Y-123708200D01*
X81130000Y-123708200D02*
X81130000Y-124625000D01*
X81125000Y-122775000D02*
X81125000Y-123703200D01*
X81770000Y-123708200D02*
X81770000Y-124415000D01*
X77000000Y-129840754D02*
X77000000Y-129405000D01*
X80813200Y-130565000D02*
X77724246Y-130565000D01*
X79050000Y-129995000D02*
X78510000Y-129455000D01*
X77724246Y-130565000D02*
X77000000Y-129840754D01*
X78510000Y-129455000D02*
X78510000Y-127155800D01*
X80475000Y-127746800D02*
X80460000Y-127731800D01*
X79825000Y-127746800D02*
X79210000Y-127131800D01*
X80475000Y-128675000D02*
X80475000Y-127746800D01*
X79825000Y-128675000D02*
X79825000Y-127746800D01*
X81775000Y-129603200D02*
X80813200Y-130565000D01*
X81775000Y-128675000D02*
X81775000Y-129603200D01*
X81125000Y-128675000D02*
X81125000Y-129603200D01*
X81125000Y-129603200D02*
X80733200Y-129995000D01*
X80733200Y-129995000D02*
X79050000Y-129995000D01*
X70866059Y-120625000D02*
X71620000Y-121378941D01*
X71620000Y-121378941D02*
X71620000Y-121785000D01*
D20*
X71620000Y-121785000D02*
X71620000Y-121531000D01*
D19*
X72640000Y-125595000D02*
X73120000Y-126075000D01*
X73120000Y-126075000D02*
X73120000Y-129124200D01*
X73120000Y-129124200D02*
X72839200Y-129405000D01*
X72839200Y-129405000D02*
X71620000Y-129405000D01*
X69950000Y-125595000D02*
X72640000Y-125595000D01*
X68770000Y-124415000D02*
X69950000Y-125595000D01*
X68130000Y-124625000D02*
X70370000Y-126865000D01*
X70370000Y-126865000D02*
X71620000Y-126865000D01*
X70130000Y-124054200D02*
X70400800Y-124325000D01*
X70400800Y-124325000D02*
X71620000Y-124325000D01*
X66825000Y-128675000D02*
X66825000Y-127746800D01*
X66825000Y-127746800D02*
X66210000Y-127131800D01*
X67475000Y-128675000D02*
X67475000Y-127746800D01*
X67460000Y-127731800D02*
X67460000Y-126191978D01*
X67475000Y-127746800D02*
X67460000Y-127731800D01*
X65200000Y-125595000D02*
X63150740Y-125595000D01*
X62650000Y-125094260D02*
X62650000Y-122482728D01*
X62650000Y-122482728D02*
X63347728Y-121785000D01*
X63347728Y-121785000D02*
X64000000Y-121785000D01*
X63150740Y-125595000D02*
X62650000Y-125094260D01*
X65593022Y-124325000D02*
X64000000Y-124325000D01*
X67475000Y-122775000D02*
X67475000Y-121846800D01*
X66210000Y-126605000D02*
X65200000Y-125595000D01*
X66210000Y-127131800D02*
X66210000Y-126605000D01*
X67460000Y-126191978D02*
X65593022Y-124325000D01*
X68770000Y-123708200D02*
X68770000Y-124415000D01*
X68130000Y-123708200D02*
X68130000Y-124625000D01*
X68125000Y-122775000D02*
X68125000Y-123703200D01*
X68125000Y-123703200D02*
X68130000Y-123708200D01*
X67475000Y-121846800D02*
X67996800Y-121325000D01*
X66825000Y-122775000D02*
X66825000Y-121846800D01*
X66825000Y-121846800D02*
X68046800Y-120625000D01*
X67996800Y-121325000D02*
X69530000Y-121325000D01*
X68775000Y-122775000D02*
X68775000Y-123703200D01*
X68775000Y-123703200D02*
X68770000Y-123708200D01*
X69530000Y-121325000D02*
X70130000Y-121925000D01*
X70130000Y-121925000D02*
X70130000Y-124054200D01*
X68046800Y-120625000D02*
X70866059Y-120625000D01*
X65510000Y-129455000D02*
X65510000Y-127155800D01*
X65219200Y-126865000D02*
X64000000Y-126865000D01*
X65510000Y-127155800D02*
X65219200Y-126865000D01*
X64000000Y-129840754D02*
X64000000Y-129405000D01*
X64724246Y-130565000D02*
X64000000Y-129840754D01*
X68125000Y-128675000D02*
X68125000Y-129603200D01*
X67733200Y-129995000D02*
X66050000Y-129995000D01*
X66050000Y-129995000D02*
X65510000Y-129455000D01*
X68125000Y-129603200D02*
X67733200Y-129995000D01*
X67813200Y-130565000D02*
X64724246Y-130565000D01*
X68775000Y-128675000D02*
X68775000Y-129603200D01*
X68775000Y-129603200D02*
X67813200Y-130565000D01*
X55135000Y-128650000D02*
X55135000Y-127721800D01*
X55135000Y-127721800D02*
X55120000Y-127706800D01*
X55120000Y-127706800D02*
X55120000Y-126166978D01*
X55120000Y-126166978D02*
X53253022Y-124300000D01*
X53253022Y-124300000D02*
X51660000Y-124300000D01*
X55785000Y-128650000D02*
X55785000Y-129578200D01*
X55785000Y-129578200D02*
X55393200Y-129970000D01*
X55393200Y-129970000D02*
X53710000Y-129970000D01*
X53710000Y-129970000D02*
X53170000Y-129430000D01*
X53170000Y-129430000D02*
X53170000Y-127130800D01*
X53170000Y-127130800D02*
X52879200Y-126840000D01*
X52879200Y-126840000D02*
X51660000Y-126840000D01*
X56435000Y-128650000D02*
X56435000Y-129578200D01*
X56435000Y-129578200D02*
X55473200Y-130540000D01*
X55473200Y-130540000D02*
X52384246Y-130540000D01*
X52384246Y-130540000D02*
X51660000Y-129815754D01*
X51660000Y-129815754D02*
X51660000Y-129380000D01*
X55790000Y-124600000D02*
X58030000Y-126840000D01*
X58030000Y-126840000D02*
X59280000Y-126840000D01*
X55790000Y-123683200D02*
X55790000Y-124600000D01*
X55785000Y-122750000D02*
X55785000Y-123678200D01*
X55785000Y-123678200D02*
X55790000Y-123683200D01*
X55135000Y-122750000D02*
X55135000Y-121821800D01*
X55135000Y-121821800D02*
X55656800Y-121300000D01*
X55656800Y-121300000D02*
X57190000Y-121300000D01*
X57190000Y-121300000D02*
X57790000Y-121900000D01*
X57790000Y-121900000D02*
X57790000Y-124029200D01*
X57790000Y-124029200D02*
X58060800Y-124300000D01*
X58060800Y-124300000D02*
X59280000Y-124300000D01*
X54485000Y-122750000D02*
X54485000Y-121821800D01*
X54485000Y-121821800D02*
X55706800Y-120600000D01*
X55706800Y-120600000D02*
X58526059Y-120600000D01*
X58526059Y-120600000D02*
X59280000Y-121353941D01*
X59280000Y-121353941D02*
X59280000Y-121760000D01*
D20*
X55537000Y-107840000D02*
X55410000Y-107713000D01*
X56360000Y-107840000D02*
X55537000Y-107840000D01*
X55410000Y-107713000D02*
X55410000Y-106951000D01*
X56360000Y-107840000D02*
X56426000Y-107840000D01*
X55951020Y-104665000D02*
X55410000Y-105206020D01*
X55410000Y-105206020D02*
X55410000Y-106443000D01*
X54310000Y-105678500D02*
X54310000Y-106463500D01*
X54310000Y-106463500D02*
X54013000Y-106760500D01*
X54460000Y-107840000D02*
X54394000Y-107840000D01*
X51600000Y-107205000D02*
X51600000Y-107840000D01*
X51600000Y-107840000D02*
X52108000Y-108348000D01*
X54394000Y-107840000D02*
X53886000Y-108348000D01*
X53886000Y-108348000D02*
X53505000Y-108348000D01*
X52108000Y-108348000D02*
X52997000Y-108348000D01*
X54013000Y-106760500D02*
X52108000Y-106760500D01*
X52108000Y-106760500D02*
X51600000Y-107268500D01*
X59220000Y-107586000D02*
X58458000Y-108348000D01*
X58458000Y-108348000D02*
X57823000Y-108348000D01*
X56934000Y-108348000D02*
X57315000Y-108348000D01*
X56426000Y-107840000D02*
X56934000Y-108348000D01*
X56510000Y-105678500D02*
X56510000Y-106452070D01*
X58719620Y-106768120D02*
X59220000Y-107268500D01*
X56510000Y-104665000D02*
X59220000Y-104665000D01*
X59220000Y-107205000D02*
X59220000Y-107586000D01*
X56510000Y-106452070D02*
X56826050Y-106768120D01*
X56826050Y-106768120D02*
X58719620Y-106768120D01*
X59220000Y-111760000D02*
X59220000Y-111506000D01*
X59220000Y-111506000D02*
X58458000Y-110744000D01*
X58458000Y-110744000D02*
X57823000Y-110744000D01*
X56807000Y-112268000D02*
X58712000Y-112268000D01*
X54310000Y-114300000D02*
X54941370Y-114300000D01*
X54310000Y-112576430D02*
X53993950Y-112260380D01*
X54941370Y-114300000D02*
X55410000Y-113831370D01*
X54310000Y-113350000D02*
X54310000Y-112576430D01*
X55410000Y-113831370D02*
X55410000Y-112522000D01*
X54394000Y-111252000D02*
X53886000Y-110744000D01*
X52235000Y-110744000D02*
X52997000Y-110744000D01*
X51600000Y-111379000D02*
X52235000Y-110744000D01*
X53886000Y-110744000D02*
X53505000Y-110744000D01*
X53993950Y-112260380D02*
X52100380Y-112260380D01*
X54310000Y-114300000D02*
X51600000Y-114300000D01*
X52100380Y-112260380D02*
X51600000Y-111760000D01*
X51600000Y-111760000D02*
X51600000Y-111379000D01*
X58712000Y-112268000D02*
X59220000Y-111760000D01*
X56510000Y-114300000D02*
X55951020Y-114300000D01*
X56510000Y-114300000D02*
X59220000Y-114300000D01*
X56510000Y-113350000D02*
X56510000Y-112565000D01*
X56510000Y-112565000D02*
X56807000Y-112268000D01*
X56360000Y-111252000D02*
X56426000Y-111252000D01*
X56426000Y-111252000D02*
X56934000Y-110744000D01*
X56934000Y-110744000D02*
X57315000Y-110744000D01*
X56360000Y-111252000D02*
X56426000Y-111252000D01*
X55410000Y-111379000D02*
X55410000Y-112014000D01*
X55283000Y-111252000D02*
X55410000Y-111379000D01*
X54460000Y-111252000D02*
X54394000Y-111252000D01*
X54460000Y-111252000D02*
X55283000Y-111252000D01*
X68826000Y-111252000D02*
X69334000Y-110744000D01*
X68760000Y-111252000D02*
X68826000Y-111252000D01*
X68826000Y-107840000D02*
X69334000Y-108348000D01*
X68760000Y-111252000D02*
X68826000Y-111252000D01*
X69334000Y-108348000D02*
X69715000Y-108348000D01*
X70858000Y-101109000D02*
X70223000Y-101109000D01*
X71112000Y-102633000D02*
X71620000Y-102125000D01*
X71620000Y-102125000D02*
X71620000Y-101871000D01*
X71620000Y-101871000D02*
X70858000Y-101109000D01*
X68910000Y-102930000D02*
X69207000Y-102633000D01*
X68910000Y-104665000D02*
X71620000Y-104665000D01*
X69207000Y-102633000D02*
X71112000Y-102633000D01*
X68910000Y-103715000D02*
X68910000Y-102930000D01*
X68826000Y-101617000D02*
X69334000Y-101109000D01*
X68760000Y-101617000D02*
X68826000Y-101617000D01*
X69334000Y-101109000D02*
X69715000Y-101109000D01*
X68760000Y-101617000D02*
X68826000Y-101617000D01*
X71119620Y-106768120D02*
X71620000Y-107268500D01*
X71620000Y-107586000D02*
X70858000Y-108348000D01*
X71620000Y-107205000D02*
X71620000Y-107586000D01*
X69226050Y-106768120D02*
X71119620Y-106768120D01*
X70858000Y-108348000D02*
X70223000Y-108348000D01*
X68910000Y-105678500D02*
X68910000Y-106452070D01*
X68351020Y-104665000D02*
X67810000Y-105206020D01*
X67937000Y-107840000D02*
X67810000Y-107713000D01*
X68910000Y-106452070D02*
X69226050Y-106768120D01*
X68910000Y-104665000D02*
X68351020Y-104665000D01*
X68760000Y-107840000D02*
X67937000Y-107840000D01*
X68760000Y-107840000D02*
X68826000Y-107840000D01*
X54394000Y-101617000D02*
X53886000Y-101109000D01*
X53886000Y-101109000D02*
X53505000Y-101109000D01*
X52235000Y-101109000D02*
X52997000Y-101109000D01*
X51600000Y-102125000D02*
X51600000Y-101744000D01*
X51600000Y-101744000D02*
X52235000Y-101109000D01*
X52100380Y-102625380D02*
X51600000Y-102125000D01*
X54460000Y-101617000D02*
X55283000Y-101617000D01*
X54460000Y-101617000D02*
X54394000Y-101617000D01*
X55283000Y-101617000D02*
X55410000Y-101744000D01*
X55410000Y-101744000D02*
X55410000Y-102379000D01*
X56510000Y-104665000D02*
X55951020Y-104665000D01*
X53993950Y-102625380D02*
X52100380Y-102625380D01*
X54310000Y-104665000D02*
X51600000Y-104665000D01*
X54310000Y-104665000D02*
X54941370Y-104665000D01*
X54310000Y-102941430D02*
X53993950Y-102625380D01*
X54941370Y-104665000D02*
X55410000Y-104196370D01*
X55410000Y-104196370D02*
X55410000Y-102887000D01*
X54310000Y-103715000D02*
X54310000Y-102941430D01*
X56510000Y-103715000D02*
X56510000Y-102930000D01*
X56807000Y-102633000D02*
X58712000Y-102633000D01*
X59220000Y-102125000D02*
X59220000Y-101871000D01*
X56510000Y-102930000D02*
X56807000Y-102633000D01*
X58712000Y-102633000D02*
X59220000Y-102125000D01*
X59220000Y-101871000D02*
X58458000Y-101109000D01*
X58458000Y-101109000D02*
X57823000Y-101109000D01*
X56360000Y-101617000D02*
X56426000Y-101617000D01*
X56934000Y-101109000D02*
X57315000Y-101109000D01*
X56426000Y-101617000D02*
X56934000Y-101109000D01*
X56360000Y-101617000D02*
X56426000Y-101617000D01*
X66413000Y-106760500D02*
X64508000Y-106760500D01*
X66286000Y-108348000D02*
X65905000Y-108348000D01*
X66860000Y-107840000D02*
X66794000Y-107840000D01*
X66794000Y-107840000D02*
X66286000Y-108348000D01*
X67341370Y-104665000D02*
X67810000Y-104196370D01*
X66710000Y-104665000D02*
X67341370Y-104665000D01*
X66710000Y-102941430D02*
X66393950Y-102625380D01*
X67810000Y-104196370D02*
X67810000Y-102887000D01*
X66710000Y-104665000D02*
X64000000Y-104665000D01*
X66393950Y-102625380D02*
X64500380Y-102625380D01*
X66710000Y-103715000D02*
X66710000Y-102941430D01*
X66794000Y-101617000D02*
X66286000Y-101109000D01*
X67810000Y-101744000D02*
X67810000Y-102379000D01*
X66286000Y-101109000D02*
X65905000Y-101109000D01*
X67683000Y-101617000D02*
X67810000Y-101744000D01*
X66860000Y-101617000D02*
X66794000Y-101617000D01*
X66860000Y-101617000D02*
X67683000Y-101617000D01*
X64000000Y-107840000D02*
X64508000Y-108348000D01*
X64508000Y-106760500D02*
X64000000Y-107268500D01*
X64508000Y-108348000D02*
X65397000Y-108348000D01*
X64000000Y-107205000D02*
X64000000Y-107840000D01*
X64000000Y-102125000D02*
X64000000Y-101744000D01*
X64000000Y-101744000D02*
X64635000Y-101109000D01*
X64635000Y-101109000D02*
X65397000Y-101109000D01*
X64500380Y-102625380D02*
X64000000Y-102125000D01*
X67810000Y-105206020D02*
X67810000Y-106443000D01*
X66710000Y-105678500D02*
X66710000Y-106463500D01*
X66710000Y-106463500D02*
X66413000Y-106760500D01*
X67810000Y-107713000D02*
X67810000Y-106951000D01*
X145222000Y-101617000D02*
X145288000Y-101617000D01*
X145796000Y-101109000D02*
X146177000Y-101109000D01*
X145288000Y-101617000D02*
X145796000Y-101109000D01*
X145222000Y-101617000D02*
X145288000Y-101617000D01*
X142855950Y-102625380D02*
X140962380Y-102625380D01*
X140962380Y-102625380D02*
X140462000Y-102125000D01*
X141097000Y-101109000D02*
X141859000Y-101109000D01*
X140462000Y-101744000D02*
X141097000Y-101109000D01*
X140462000Y-102125000D02*
X140462000Y-101744000D01*
X147320000Y-101109000D02*
X146685000Y-101109000D01*
X145669000Y-102633000D02*
X147574000Y-102633000D01*
X148082000Y-101871000D02*
X147320000Y-101109000D01*
X148082000Y-102125000D02*
X148082000Y-101871000D01*
X147574000Y-102633000D02*
X148082000Y-102125000D01*
X144272000Y-101744000D02*
X144272000Y-102379000D01*
X143322000Y-101617000D02*
X143256000Y-101617000D01*
X143322000Y-101617000D02*
X144145000Y-101617000D01*
X144145000Y-101617000D02*
X144272000Y-101744000D01*
X143256000Y-101617000D02*
X142748000Y-101109000D01*
X142748000Y-101109000D02*
X142367000Y-101109000D01*
X143172000Y-102941430D02*
X142855950Y-102625380D01*
X143172000Y-103715000D02*
X143172000Y-102941430D01*
X143172000Y-104665000D02*
X143803370Y-104665000D01*
X144272000Y-104196370D02*
X144272000Y-102887000D01*
X140970000Y-108348000D02*
X141859000Y-108348000D01*
X140462000Y-107840000D02*
X140970000Y-108348000D01*
X142748000Y-108348000D02*
X142367000Y-108348000D01*
X140970000Y-106760500D02*
X140462000Y-107268500D01*
X140462000Y-107205000D02*
X140462000Y-107840000D01*
X148082000Y-107586000D02*
X147320000Y-108348000D01*
X148082000Y-107205000D02*
X148082000Y-107586000D01*
X147320000Y-108348000D02*
X146685000Y-108348000D01*
X145796000Y-108348000D02*
X146177000Y-108348000D01*
X145372000Y-104665000D02*
X148082000Y-104665000D01*
X147581620Y-106768120D02*
X148082000Y-107268500D01*
X145688050Y-106768120D02*
X147581620Y-106768120D01*
X145288000Y-107840000D02*
X145796000Y-108348000D01*
X145372000Y-105678500D02*
X145372000Y-106452070D01*
X144272000Y-105206020D02*
X144272000Y-106443000D01*
X145372000Y-106452070D02*
X145688050Y-106768120D01*
X145222000Y-107840000D02*
X144399000Y-107840000D01*
X144399000Y-107840000D02*
X144272000Y-107713000D01*
X145222000Y-107840000D02*
X145288000Y-107840000D01*
X144272000Y-107713000D02*
X144272000Y-106951000D01*
X143322000Y-107840000D02*
X143256000Y-107840000D01*
X142875000Y-106760500D02*
X140970000Y-106760500D01*
X143172000Y-106463500D02*
X142875000Y-106760500D01*
X143172000Y-105678500D02*
X143172000Y-106463500D01*
X143172000Y-104665000D02*
X140462000Y-104665000D01*
X143256000Y-107840000D02*
X142748000Y-108348000D01*
X143803370Y-104665000D02*
X144272000Y-104196370D01*
X144813020Y-104665000D02*
X144272000Y-105206020D01*
X145372000Y-104665000D02*
X144813020Y-104665000D01*
X145372000Y-102930000D02*
X145669000Y-102633000D01*
X145372000Y-103715000D02*
X145372000Y-102930000D01*
D21*
X146709000Y-135768000D02*
X144169000Y-138308000D01*
D22*
X141629000Y-144912000D02*
X141883000Y-144658000D01*
D21*
X141629000Y-135768000D02*
X144169000Y-138308000D01*
X144169000Y-133228000D02*
X144169000Y-138308000D01*
X141883000Y-148214000D02*
X141629000Y-148468000D01*
X141883000Y-144658000D02*
X141883000Y-148214000D01*
X144169000Y-138308000D02*
X144169000Y-148468000D01*
X146455000Y-148214000D02*
X146709000Y-148468000D01*
X146455000Y-144658000D02*
X146455000Y-148214000D01*
D20*
X145222000Y-117475000D02*
X145288000Y-117475000D01*
X145222000Y-117475000D02*
X144399000Y-117475000D01*
X144399000Y-117475000D02*
X144272000Y-117348000D01*
X145372000Y-116087070D02*
X145688050Y-116403120D01*
X145372000Y-115313500D02*
X145372000Y-116087070D01*
X144272000Y-117348000D02*
X144272000Y-116586000D01*
X143322000Y-117475000D02*
X143256000Y-117475000D01*
X143256000Y-117475000D02*
X142748000Y-117983000D01*
X143172000Y-115313500D02*
X143172000Y-116098500D01*
X142748000Y-117983000D02*
X142367000Y-117983000D01*
X143172000Y-116098500D02*
X142875000Y-116395500D01*
X144813020Y-114300000D02*
X144272000Y-114841020D01*
X144272000Y-114841020D02*
X144272000Y-116078000D01*
X145372000Y-114300000D02*
X144813020Y-114300000D01*
X145372000Y-114300000D02*
X148082000Y-114300000D01*
X145688050Y-116403120D02*
X147581620Y-116403120D01*
X140970000Y-116395500D02*
X140462000Y-116903500D01*
X140462000Y-117475000D02*
X140970000Y-117983000D01*
X143172000Y-114300000D02*
X140462000Y-114300000D01*
X142875000Y-116395500D02*
X140970000Y-116395500D01*
X140462000Y-116840000D02*
X140462000Y-117475000D01*
X140970000Y-117983000D02*
X141859000Y-117983000D01*
X148082000Y-116840000D02*
X148082000Y-117221000D01*
X147320000Y-117983000D02*
X146685000Y-117983000D01*
X145288000Y-117475000D02*
X145796000Y-117983000D01*
X148082000Y-117221000D02*
X147320000Y-117983000D01*
X147581620Y-116403120D02*
X148082000Y-116903500D01*
X145796000Y-117983000D02*
X146177000Y-117983000D01*
X143256000Y-111252000D02*
X142748000Y-110744000D01*
X140462000Y-111379000D02*
X141097000Y-110744000D01*
X142855950Y-112260380D02*
X140962380Y-112260380D01*
X140962380Y-112260380D02*
X140462000Y-111760000D01*
X142748000Y-110744000D02*
X142367000Y-110744000D01*
X140462000Y-111760000D02*
X140462000Y-111379000D01*
X143172000Y-112576430D02*
X142855950Y-112260380D01*
X141097000Y-110744000D02*
X141859000Y-110744000D01*
X145796000Y-110744000D02*
X146177000Y-110744000D01*
X145669000Y-112268000D02*
X147574000Y-112268000D01*
X148082000Y-111760000D02*
X148082000Y-111506000D01*
X147574000Y-112268000D02*
X148082000Y-111760000D01*
X147320000Y-110744000D02*
X146685000Y-110744000D01*
X148082000Y-111506000D02*
X147320000Y-110744000D01*
X145288000Y-111252000D02*
X145796000Y-110744000D01*
X144272000Y-113831370D02*
X144272000Y-112522000D01*
X143803370Y-114300000D02*
X144272000Y-113831370D01*
X143172000Y-113350000D02*
X143172000Y-112576430D01*
X145372000Y-113350000D02*
X145372000Y-112565000D01*
X143172000Y-114300000D02*
X143803370Y-114300000D01*
X143322000Y-111252000D02*
X144145000Y-111252000D01*
X145222000Y-111252000D02*
X145288000Y-111252000D01*
X145222000Y-111252000D02*
X145288000Y-111252000D01*
X143322000Y-111252000D02*
X143256000Y-111252000D01*
X145372000Y-112565000D02*
X145669000Y-112268000D01*
X144145000Y-111252000D02*
X144272000Y-111379000D01*
X144272000Y-111379000D02*
X144272000Y-112014000D01*
D21*
X108674000Y-135758000D02*
X106134000Y-138298000D01*
X108420000Y-148204000D02*
X108674000Y-148458000D01*
X108420000Y-144648000D02*
X108420000Y-148204000D01*
X106134000Y-138298000D02*
X106134000Y-148458000D01*
D22*
X103594000Y-144902000D02*
X103848000Y-144648000D01*
D21*
X103848000Y-144648000D02*
X103848000Y-148204000D01*
X103848000Y-148204000D02*
X103594000Y-148458000D01*
X95755000Y-148214000D02*
X96009000Y-148468000D01*
X95755000Y-144658000D02*
X95755000Y-148214000D01*
X91183000Y-148214000D02*
X90929000Y-148468000D01*
D22*
X90929000Y-144912000D02*
X91183000Y-144658000D01*
D21*
X93469000Y-138308000D02*
X93469000Y-148468000D01*
X91183000Y-144658000D02*
X91183000Y-148214000D01*
X93469000Y-133228000D02*
X93469000Y-138308000D01*
X103594000Y-135758000D02*
X106134000Y-138298000D01*
X106134000Y-133218000D02*
X106134000Y-138298000D01*
X96009000Y-135768000D02*
X93469000Y-138308000D01*
X90929000Y-135768000D02*
X93469000Y-138308000D01*
D20*
X95096000Y-117983000D02*
X95477000Y-117983000D01*
X94588000Y-117475000D02*
X95096000Y-117983000D01*
X97382000Y-117221000D02*
X96620000Y-117983000D01*
X96620000Y-117983000D02*
X95985000Y-117983000D01*
X90270000Y-117983000D02*
X91159000Y-117983000D01*
X92556000Y-117475000D02*
X92048000Y-117983000D01*
X89762000Y-117475000D02*
X90270000Y-117983000D01*
X92048000Y-117983000D02*
X91667000Y-117983000D01*
X81822000Y-117475000D02*
X80999000Y-117475000D01*
X80999000Y-117475000D02*
X80872000Y-117348000D01*
X81822000Y-117475000D02*
X81888000Y-117475000D01*
X84682000Y-117221000D02*
X83920000Y-117983000D01*
X83920000Y-117983000D02*
X83285000Y-117983000D01*
X81888000Y-117475000D02*
X82396000Y-117983000D01*
X82396000Y-117983000D02*
X82777000Y-117983000D01*
X77062000Y-117475000D02*
X77570000Y-117983000D01*
X79856000Y-117475000D02*
X79348000Y-117983000D01*
X79348000Y-117983000D02*
X78967000Y-117983000D01*
X77570000Y-117983000D02*
X78459000Y-117983000D01*
X95096000Y-110744000D02*
X95477000Y-110744000D01*
X96620000Y-110744000D02*
X95985000Y-110744000D01*
X96874000Y-112268000D02*
X97382000Y-111760000D01*
X97382000Y-111760000D02*
X97382000Y-111506000D01*
X97382000Y-111506000D02*
X96620000Y-110744000D01*
X94672000Y-116087070D02*
X94988050Y-116403120D01*
X94672000Y-115313500D02*
X94672000Y-116087070D01*
X94672000Y-114300000D02*
X97382000Y-114300000D01*
X94988050Y-116403120D02*
X96881620Y-116403120D01*
X94522000Y-111252000D02*
X94588000Y-111252000D01*
X94522000Y-111252000D02*
X94588000Y-111252000D01*
X94672000Y-113350000D02*
X94672000Y-112565000D01*
X94672000Y-112565000D02*
X94969000Y-112268000D01*
X96881620Y-116403120D02*
X97382000Y-116903500D01*
X97382000Y-116840000D02*
X97382000Y-117221000D01*
X93699000Y-117475000D02*
X93572000Y-117348000D01*
X94522000Y-117475000D02*
X93699000Y-117475000D01*
X94522000Y-117475000D02*
X94588000Y-117475000D01*
X94588000Y-111252000D02*
X95096000Y-110744000D01*
X94969000Y-112268000D02*
X96874000Y-112268000D01*
X94113020Y-114300000D02*
X93572000Y-114841020D01*
X94672000Y-114300000D02*
X94113020Y-114300000D01*
X82396000Y-110744000D02*
X82777000Y-110744000D01*
X82269000Y-112268000D02*
X84174000Y-112268000D01*
X81888000Y-111252000D02*
X82396000Y-110744000D01*
X83920000Y-110744000D02*
X83285000Y-110744000D01*
X81972000Y-113350000D02*
X81972000Y-112565000D01*
X80872000Y-111379000D02*
X80872000Y-112014000D01*
X81972000Y-112565000D02*
X82269000Y-112268000D01*
X81822000Y-111252000D02*
X81888000Y-111252000D01*
X81822000Y-111252000D02*
X81888000Y-111252000D01*
X81972000Y-114300000D02*
X81413020Y-114300000D01*
X81972000Y-116087070D02*
X82288050Y-116403120D01*
X81972000Y-115313500D02*
X81972000Y-116087070D01*
X81413020Y-114300000D02*
X80872000Y-114841020D01*
X81972000Y-114300000D02*
X84682000Y-114300000D01*
X84682000Y-116840000D02*
X84682000Y-117221000D01*
X84181620Y-116403120D02*
X84682000Y-116903500D01*
X82288050Y-116403120D02*
X84181620Y-116403120D01*
X92622000Y-117475000D02*
X92556000Y-117475000D01*
X93572000Y-117348000D02*
X93572000Y-116586000D01*
X93572000Y-114841020D02*
X93572000Y-116078000D01*
X92472000Y-115313500D02*
X92472000Y-116098500D01*
X92472000Y-116098500D02*
X92175000Y-116395500D01*
X93572000Y-111379000D02*
X93572000Y-112014000D01*
X93445000Y-111252000D02*
X93572000Y-111379000D01*
X92622000Y-111252000D02*
X93445000Y-111252000D01*
X92556000Y-111252000D02*
X92048000Y-110744000D01*
X92472000Y-112576430D02*
X92155950Y-112260380D01*
X92622000Y-111252000D02*
X92556000Y-111252000D01*
X92175000Y-116395500D02*
X90270000Y-116395500D01*
X90270000Y-116395500D02*
X89762000Y-116903500D01*
X89762000Y-116840000D02*
X89762000Y-117475000D01*
X92472000Y-114300000D02*
X89762000Y-114300000D01*
X92472000Y-114300000D02*
X93103370Y-114300000D01*
X92472000Y-113350000D02*
X92472000Y-112576430D01*
X93572000Y-113831370D02*
X93572000Y-112522000D01*
X93103370Y-114300000D02*
X93572000Y-113831370D01*
X89762000Y-111379000D02*
X90397000Y-110744000D01*
X90397000Y-110744000D02*
X91159000Y-110744000D01*
X92048000Y-110744000D02*
X91667000Y-110744000D01*
X92155950Y-112260380D02*
X90262380Y-112260380D01*
X89762000Y-111760000D02*
X89762000Y-111379000D01*
X90262380Y-112260380D02*
X89762000Y-111760000D01*
D21*
X57820000Y-144648000D02*
X57820000Y-148204000D01*
X57820000Y-148204000D02*
X58074000Y-148458000D01*
X53248000Y-144648000D02*
X53248000Y-148204000D01*
X53248000Y-148204000D02*
X52994000Y-148458000D01*
D22*
X52994000Y-144902000D02*
X53248000Y-144648000D01*
D21*
X58074000Y-135758000D02*
X55534000Y-138298000D01*
X55534000Y-133218000D02*
X55534000Y-138298000D01*
X55534000Y-138298000D02*
X55534000Y-148458000D01*
X52994000Y-135758000D02*
X55534000Y-138298000D01*
D20*
X59280000Y-121760000D02*
X59280000Y-121506000D01*
X59220000Y-117221000D02*
X58458000Y-117983000D01*
X59220000Y-116840000D02*
X59220000Y-117221000D01*
X58719620Y-116403120D02*
X59220000Y-116903500D01*
X58458000Y-117983000D02*
X57823000Y-117983000D01*
X55410000Y-114841020D02*
X55410000Y-116078000D01*
X54310000Y-116098500D02*
X54013000Y-116395500D01*
X56510000Y-115313500D02*
X56510000Y-116087070D01*
X54310000Y-115313500D02*
X54310000Y-116098500D01*
X55951020Y-114300000D02*
X55410000Y-114841020D01*
X55410000Y-117348000D02*
X55410000Y-116586000D01*
X56360000Y-117475000D02*
X55537000Y-117475000D01*
X56360000Y-117475000D02*
X56426000Y-117475000D01*
X55537000Y-117475000D02*
X55410000Y-117348000D01*
X56426000Y-117475000D02*
X56934000Y-117983000D01*
X56510000Y-116087070D02*
X56826050Y-116403120D01*
X56826050Y-116403120D02*
X58719620Y-116403120D01*
X56934000Y-117983000D02*
X57315000Y-117983000D01*
X53886000Y-117983000D02*
X53505000Y-117983000D01*
X54460000Y-117475000D02*
X54394000Y-117475000D01*
X54394000Y-117475000D02*
X53886000Y-117983000D01*
X52108000Y-116395500D02*
X51600000Y-116903500D01*
X51600000Y-117475000D02*
X52108000Y-117983000D01*
X54013000Y-116395500D02*
X52108000Y-116395500D01*
X51600000Y-116840000D02*
X51600000Y-117475000D01*
X52108000Y-117983000D02*
X52997000Y-117983000D01*
X67810000Y-111379000D02*
X67810000Y-112014000D01*
X67683000Y-111252000D02*
X67810000Y-111379000D01*
X66794000Y-111252000D02*
X66286000Y-110744000D01*
X66860000Y-111252000D02*
X66794000Y-111252000D01*
X66860000Y-111252000D02*
X67683000Y-111252000D01*
X66286000Y-110744000D02*
X65905000Y-110744000D01*
X66710000Y-113350000D02*
X66710000Y-112576430D01*
X66710000Y-114300000D02*
X67341370Y-114300000D01*
X67810000Y-113831370D02*
X67810000Y-112522000D01*
X67341370Y-114300000D02*
X67810000Y-113831370D01*
X64000000Y-111760000D02*
X64000000Y-111379000D01*
X64000000Y-111379000D02*
X64635000Y-110744000D01*
X64635000Y-110744000D02*
X65397000Y-110744000D01*
X66393950Y-112260380D02*
X64500380Y-112260380D01*
X64500380Y-112260380D02*
X64000000Y-111760000D01*
X66710000Y-112576430D02*
X66393950Y-112260380D01*
X66710000Y-114300000D02*
X64000000Y-114300000D01*
X69207000Y-112268000D02*
X71112000Y-112268000D01*
X68910000Y-114300000D02*
X71620000Y-114300000D01*
X68910000Y-113350000D02*
X68910000Y-112565000D01*
X68910000Y-112565000D02*
X69207000Y-112268000D01*
X71112000Y-112268000D02*
X71620000Y-111760000D01*
X70858000Y-110744000D02*
X70223000Y-110744000D01*
X71620000Y-111506000D02*
X70858000Y-110744000D01*
X71620000Y-111760000D02*
X71620000Y-111506000D01*
X69334000Y-110744000D02*
X69715000Y-110744000D01*
X66710000Y-116098500D02*
X66413000Y-116395500D01*
X67937000Y-117475000D02*
X67810000Y-117348000D01*
X68760000Y-117475000D02*
X67937000Y-117475000D01*
X67810000Y-117348000D02*
X67810000Y-116586000D01*
X66860000Y-117475000D02*
X66794000Y-117475000D01*
X66286000Y-117983000D02*
X65905000Y-117983000D01*
X66794000Y-117475000D02*
X66286000Y-117983000D01*
X64000000Y-117475000D02*
X64508000Y-117983000D01*
X64508000Y-116395500D02*
X64000000Y-116903500D01*
X64000000Y-116840000D02*
X64000000Y-117475000D01*
X64508000Y-117983000D02*
X65397000Y-117983000D01*
X66413000Y-116395500D02*
X64508000Y-116395500D01*
X71620000Y-117221000D02*
X70858000Y-117983000D01*
X71620000Y-116840000D02*
X71620000Y-117221000D01*
X71119620Y-116403120D02*
X71620000Y-116903500D01*
X69226050Y-116403120D02*
X71119620Y-116403120D01*
X68910000Y-116087070D02*
X69226050Y-116403120D01*
X68351020Y-114300000D02*
X67810000Y-114841020D01*
X68910000Y-114300000D02*
X68351020Y-114300000D01*
X66710000Y-115313500D02*
X66710000Y-116098500D01*
X68910000Y-115313500D02*
X68910000Y-116087070D01*
X67810000Y-114841020D02*
X67810000Y-116078000D01*
X70858000Y-117983000D02*
X70223000Y-117983000D01*
X68760000Y-117475000D02*
X68826000Y-117475000D01*
X68826000Y-117475000D02*
X69334000Y-117983000D01*
X69334000Y-117983000D02*
X69715000Y-117983000D01*
X105060000Y-107840000D02*
X104994000Y-107840000D01*
X102708000Y-108348000D02*
X103597000Y-108348000D01*
X104486000Y-108348000D02*
X104105000Y-108348000D01*
X104994000Y-107840000D02*
X104486000Y-108348000D01*
X102200000Y-107840000D02*
X102708000Y-108348000D01*
X106137000Y-107840000D02*
X106010000Y-107713000D01*
X106960000Y-107840000D02*
X107026000Y-107840000D01*
X106960000Y-107840000D02*
X106137000Y-107840000D01*
X107110000Y-104665000D02*
X109820000Y-104665000D01*
X109319620Y-106768120D02*
X109820000Y-107268500D01*
X107110000Y-105678500D02*
X107110000Y-106452070D01*
X106010000Y-107713000D02*
X106010000Y-106951000D01*
X102200000Y-107205000D02*
X102200000Y-107840000D01*
X102708000Y-106760500D02*
X102200000Y-107268500D01*
X104910000Y-104665000D02*
X102200000Y-104665000D01*
X104613000Y-106760500D02*
X102708000Y-106760500D01*
X107534000Y-108348000D02*
X107915000Y-108348000D01*
X107426050Y-106768120D02*
X109319620Y-106768120D01*
X107026000Y-107840000D02*
X107534000Y-108348000D01*
X107110000Y-106452070D02*
X107426050Y-106768120D01*
X109058000Y-108348000D02*
X108423000Y-108348000D01*
X109820000Y-107586000D02*
X109058000Y-108348000D01*
X109820000Y-107205000D02*
X109820000Y-107586000D01*
X106010000Y-105206020D02*
X106010000Y-106443000D01*
X105541370Y-104665000D02*
X106010000Y-104196370D01*
X104910000Y-105678500D02*
X104910000Y-106463500D01*
X104910000Y-106463500D02*
X104613000Y-106760500D01*
X104910000Y-104665000D02*
X105541370Y-104665000D01*
X107426050Y-116403120D02*
X109319620Y-116403120D01*
X109319620Y-116403120D02*
X109820000Y-116903500D01*
X107110000Y-116087070D02*
X107426050Y-116403120D01*
X107110000Y-114300000D02*
X109820000Y-114300000D01*
X105060000Y-117475000D02*
X104994000Y-117475000D01*
X104910000Y-114300000D02*
X102200000Y-114300000D01*
X104910000Y-114300000D02*
X105541370Y-114300000D01*
X102708000Y-116395500D02*
X102200000Y-116903500D01*
X102200000Y-117475000D02*
X102708000Y-117983000D01*
X104613000Y-116395500D02*
X102708000Y-116395500D01*
X102200000Y-116840000D02*
X102200000Y-117475000D01*
X102708000Y-117983000D02*
X103597000Y-117983000D01*
X104486000Y-117983000D02*
X104105000Y-117983000D01*
X104994000Y-117475000D02*
X104486000Y-117983000D01*
X104910000Y-116098500D02*
X104613000Y-116395500D01*
X104910000Y-115313500D02*
X104910000Y-116098500D01*
X109058000Y-117983000D02*
X108423000Y-117983000D01*
X107026000Y-117475000D02*
X107534000Y-117983000D01*
X109820000Y-117221000D02*
X109058000Y-117983000D01*
X109820000Y-116840000D02*
X109820000Y-117221000D01*
X107534000Y-117983000D02*
X107915000Y-117983000D01*
X106137000Y-117475000D02*
X106010000Y-117348000D01*
X106551020Y-114300000D02*
X106010000Y-114841020D01*
X107110000Y-115313500D02*
X107110000Y-116087070D01*
X106960000Y-117475000D02*
X106137000Y-117475000D01*
X106010000Y-117348000D02*
X106010000Y-116586000D01*
X106960000Y-117475000D02*
X107026000Y-117475000D01*
X106010000Y-114841020D02*
X106010000Y-116078000D01*
X106010000Y-113831370D02*
X106010000Y-112522000D01*
X105541370Y-114300000D02*
X106010000Y-113831370D01*
X107110000Y-113350000D02*
X107110000Y-112565000D01*
X107110000Y-112565000D02*
X107407000Y-112268000D01*
X107110000Y-114300000D02*
X106551020Y-114300000D01*
X109820000Y-111506000D02*
X109058000Y-110744000D01*
X107407000Y-112268000D02*
X109312000Y-112268000D01*
X109820000Y-111760000D02*
X109820000Y-111506000D01*
X109058000Y-110744000D02*
X108423000Y-110744000D01*
X109312000Y-112268000D02*
X109820000Y-111760000D01*
X107534000Y-110744000D02*
X107915000Y-110744000D01*
X106960000Y-111252000D02*
X107026000Y-111252000D01*
X106960000Y-111252000D02*
X107026000Y-111252000D01*
X107026000Y-111252000D02*
X107534000Y-110744000D01*
X104593950Y-112260380D02*
X102700380Y-112260380D01*
X102700380Y-112260380D02*
X102200000Y-111760000D01*
X102200000Y-111379000D02*
X102835000Y-110744000D01*
X104994000Y-111252000D02*
X104486000Y-110744000D01*
X102835000Y-110744000D02*
X103597000Y-110744000D01*
X104486000Y-110744000D02*
X104105000Y-110744000D01*
X102200000Y-111760000D02*
X102200000Y-111379000D01*
X105060000Y-111252000D02*
X104994000Y-111252000D01*
X104910000Y-112576430D02*
X104593950Y-112260380D01*
X105060000Y-111252000D02*
X105883000Y-111252000D01*
X104910000Y-113350000D02*
X104910000Y-112576430D01*
X105883000Y-111252000D02*
X106010000Y-111379000D01*
X106010000Y-111379000D02*
X106010000Y-112014000D01*
X106960000Y-101617000D02*
X107026000Y-101617000D01*
X105883000Y-101617000D02*
X106010000Y-101744000D01*
X105060000Y-101617000D02*
X105883000Y-101617000D01*
X106010000Y-101744000D02*
X106010000Y-102379000D01*
X106960000Y-101617000D02*
X107026000Y-101617000D01*
X105060000Y-101617000D02*
X104994000Y-101617000D01*
X104486000Y-101109000D02*
X104105000Y-101109000D01*
X104910000Y-102941430D02*
X104593950Y-102625380D01*
X104593950Y-102625380D02*
X102700380Y-102625380D01*
X102700380Y-102625380D02*
X102200000Y-102125000D01*
X102200000Y-102125000D02*
X102200000Y-101744000D01*
X102835000Y-101109000D02*
X103597000Y-101109000D01*
X102200000Y-101744000D02*
X102835000Y-101109000D01*
X104994000Y-101617000D02*
X104486000Y-101109000D01*
X109312000Y-102633000D02*
X109820000Y-102125000D01*
X109820000Y-101871000D02*
X109058000Y-101109000D01*
X107534000Y-101109000D02*
X107915000Y-101109000D01*
X107026000Y-101617000D02*
X107534000Y-101109000D01*
X109058000Y-101109000D02*
X108423000Y-101109000D01*
X109820000Y-102125000D02*
X109820000Y-101871000D01*
X107407000Y-102633000D02*
X109312000Y-102633000D01*
X107110000Y-102930000D02*
X107407000Y-102633000D01*
X107110000Y-104665000D02*
X106551020Y-104665000D01*
X107110000Y-103715000D02*
X107110000Y-102930000D01*
X106551020Y-104665000D02*
X106010000Y-105206020D01*
X104910000Y-103715000D02*
X104910000Y-102941430D01*
X106010000Y-104196370D02*
X106010000Y-102887000D01*
X117660000Y-101617000D02*
X117594000Y-101617000D01*
X118483000Y-101617000D02*
X118610000Y-101744000D01*
X117660000Y-101617000D02*
X118483000Y-101617000D01*
X117594000Y-101617000D02*
X117086000Y-101109000D01*
X117510000Y-102941430D02*
X117193950Y-102625380D01*
X119710000Y-103715000D02*
X119710000Y-102930000D01*
X119560000Y-101617000D02*
X119626000Y-101617000D01*
X119560000Y-101617000D02*
X119626000Y-101617000D01*
X118610000Y-101744000D02*
X118610000Y-102379000D01*
X118610000Y-104196370D02*
X118610000Y-102887000D01*
X117510000Y-104665000D02*
X114800000Y-104665000D01*
X118141370Y-104665000D02*
X118610000Y-104196370D01*
X117193950Y-102625380D02*
X115300380Y-102625380D01*
X117510000Y-103715000D02*
X117510000Y-102941430D01*
X115300380Y-102625380D02*
X114800000Y-102125000D01*
X114800000Y-102125000D02*
X114800000Y-101744000D01*
X114800000Y-101744000D02*
X115435000Y-101109000D01*
X115435000Y-101109000D02*
X116197000Y-101109000D01*
X117086000Y-101109000D02*
X116705000Y-101109000D01*
X119710000Y-105678500D02*
X119710000Y-106452070D01*
X119710000Y-104665000D02*
X119151020Y-104665000D01*
X119151020Y-104665000D02*
X118610000Y-105206020D01*
X117510000Y-105678500D02*
X117510000Y-106463500D01*
X118610000Y-105206020D02*
X118610000Y-106443000D01*
X117510000Y-104665000D02*
X118141370Y-104665000D01*
X117510000Y-106463500D02*
X117213000Y-106760500D01*
X119560000Y-107840000D02*
X118737000Y-107840000D01*
X118610000Y-107713000D02*
X118610000Y-106951000D01*
X118737000Y-107840000D02*
X118610000Y-107713000D01*
X117660000Y-107840000D02*
X117594000Y-107840000D01*
X119560000Y-107840000D02*
X119626000Y-107840000D01*
X117086000Y-108348000D02*
X116705000Y-108348000D01*
X117594000Y-107840000D02*
X117086000Y-108348000D01*
X115308000Y-108348000D02*
X116197000Y-108348000D01*
X114800000Y-107205000D02*
X114800000Y-107840000D01*
X117213000Y-106760500D02*
X115308000Y-106760500D01*
X114800000Y-107840000D02*
X115308000Y-108348000D01*
X115308000Y-106760500D02*
X114800000Y-107268500D01*
X117660000Y-111252000D02*
X117594000Y-111252000D01*
X117510000Y-113350000D02*
X117510000Y-112576430D01*
X118610000Y-113831370D02*
X118610000Y-112522000D01*
X119710000Y-113350000D02*
X119710000Y-112565000D01*
X118483000Y-111252000D02*
X118610000Y-111379000D01*
X117660000Y-111252000D02*
X118483000Y-111252000D01*
X119560000Y-111252000D02*
X119626000Y-111252000D01*
X119560000Y-111252000D02*
X119626000Y-111252000D01*
X118610000Y-111379000D02*
X118610000Y-112014000D01*
X114800000Y-111379000D02*
X115435000Y-110744000D01*
X117193950Y-112260380D02*
X115300380Y-112260380D01*
X117510000Y-112576430D02*
X117193950Y-112260380D01*
X114800000Y-111760000D02*
X114800000Y-111379000D01*
X115435000Y-110744000D02*
X116197000Y-110744000D01*
X117086000Y-110744000D02*
X116705000Y-110744000D01*
X117594000Y-111252000D02*
X117086000Y-110744000D01*
X115300380Y-112260380D02*
X114800000Y-111760000D01*
X118141370Y-114300000D02*
X118610000Y-113831370D01*
X117510000Y-114300000D02*
X118141370Y-114300000D01*
X119151020Y-114300000D02*
X118610000Y-114841020D01*
X119710000Y-114300000D02*
X119151020Y-114300000D01*
X118610000Y-114841020D02*
X118610000Y-116078000D01*
X117510000Y-115313500D02*
X117510000Y-116098500D01*
X115308000Y-117983000D02*
X116197000Y-117983000D01*
X117086000Y-117983000D02*
X116705000Y-117983000D01*
X117213000Y-116395500D02*
X115308000Y-116395500D01*
X114800000Y-117475000D02*
X115308000Y-117983000D01*
X115308000Y-116395500D02*
X114800000Y-116903500D01*
X117510000Y-114300000D02*
X114800000Y-114300000D01*
X114800000Y-116840000D02*
X114800000Y-117475000D01*
X117510000Y-116098500D02*
X117213000Y-116395500D01*
X118610000Y-117348000D02*
X118610000Y-116586000D01*
X117660000Y-117475000D02*
X117594000Y-117475000D01*
X119560000Y-117475000D02*
X119626000Y-117475000D01*
X119560000Y-117475000D02*
X118737000Y-117475000D01*
X117594000Y-117475000D02*
X117086000Y-117983000D01*
X118737000Y-117475000D02*
X118610000Y-117348000D01*
X119710000Y-104665000D02*
X122420000Y-104665000D01*
X121919620Y-106768120D02*
X122420000Y-107268500D01*
X120026050Y-106768120D02*
X121919620Y-106768120D01*
X119710000Y-106452070D02*
X120026050Y-106768120D01*
X121912000Y-102633000D02*
X122420000Y-102125000D01*
X120007000Y-102633000D02*
X121912000Y-102633000D01*
X119710000Y-102930000D02*
X120007000Y-102633000D01*
X122420000Y-101871000D02*
X121658000Y-101109000D01*
X120134000Y-101109000D02*
X120515000Y-101109000D01*
X122420000Y-102125000D02*
X122420000Y-101871000D01*
X121658000Y-101109000D02*
X121023000Y-101109000D01*
X119626000Y-101617000D02*
X120134000Y-101109000D01*
X121658000Y-108348000D02*
X121023000Y-108348000D01*
X122420000Y-107586000D02*
X121658000Y-108348000D01*
X122420000Y-107205000D02*
X122420000Y-107586000D01*
X119626000Y-107840000D02*
X120134000Y-108348000D01*
X120134000Y-108348000D02*
X120515000Y-108348000D01*
X128262380Y-102625380D02*
X127762000Y-102125000D01*
X128397000Y-101109000D02*
X129159000Y-101109000D01*
X127762000Y-102125000D02*
X127762000Y-101744000D01*
X130048000Y-101109000D02*
X129667000Y-101109000D01*
X127762000Y-101744000D02*
X128397000Y-101109000D01*
X130472000Y-104665000D02*
X127762000Y-104665000D01*
X130175000Y-106760500D02*
X128270000Y-106760500D01*
X127762000Y-107205000D02*
X127762000Y-107840000D01*
X130155950Y-102625380D02*
X128262380Y-102625380D01*
X128270000Y-106760500D02*
X127762000Y-107268500D01*
X130472000Y-115313500D02*
X130472000Y-116098500D01*
X130175000Y-116395500D02*
X128270000Y-116395500D01*
X130472000Y-116098500D02*
X130175000Y-116395500D01*
X130472000Y-114300000D02*
X131103370Y-114300000D01*
X130472000Y-114300000D02*
X127762000Y-114300000D01*
X132113020Y-114300000D02*
X131572000Y-114841020D01*
X132672000Y-114300000D02*
X132113020Y-114300000D01*
X132672000Y-116087070D02*
X132988050Y-116403120D01*
X131572000Y-114841020D02*
X131572000Y-116078000D01*
X132672000Y-115313500D02*
X132672000Y-116087070D01*
X132588000Y-111252000D02*
X133096000Y-110744000D01*
X133096000Y-110744000D02*
X133477000Y-110744000D01*
X132522000Y-111252000D02*
X132588000Y-111252000D01*
X134620000Y-110744000D02*
X133985000Y-110744000D01*
X132522000Y-111252000D02*
X132588000Y-111252000D01*
X135382000Y-111506000D02*
X134620000Y-110744000D01*
X130622000Y-107840000D02*
X130556000Y-107840000D01*
X131699000Y-107840000D02*
X131572000Y-107713000D01*
X128270000Y-108348000D02*
X129159000Y-108348000D01*
X130048000Y-108348000D02*
X129667000Y-108348000D01*
X130556000Y-111252000D02*
X130048000Y-110744000D01*
X127762000Y-107840000D02*
X128270000Y-108348000D01*
X130048000Y-110744000D02*
X129667000Y-110744000D01*
X134874000Y-112268000D02*
X135382000Y-111760000D01*
X135382000Y-111760000D02*
X135382000Y-111506000D01*
X132672000Y-112565000D02*
X132969000Y-112268000D01*
X132672000Y-114300000D02*
X135382000Y-114300000D01*
X132672000Y-113350000D02*
X132672000Y-112565000D01*
X132969000Y-112268000D02*
X134874000Y-112268000D01*
X131572000Y-113831370D02*
X131572000Y-112522000D01*
X131445000Y-111252000D02*
X131572000Y-111379000D01*
X130472000Y-112576430D02*
X130155950Y-112260380D01*
X131103370Y-114300000D02*
X131572000Y-113831370D01*
X130622000Y-111252000D02*
X130556000Y-111252000D01*
X130472000Y-113350000D02*
X130472000Y-112576430D01*
X131572000Y-111379000D02*
X131572000Y-112014000D01*
X130622000Y-111252000D02*
X131445000Y-111252000D01*
X130155950Y-112260380D02*
X128262380Y-112260380D01*
X128262380Y-112260380D02*
X127762000Y-111760000D01*
X127762000Y-111379000D02*
X128397000Y-110744000D01*
X127762000Y-111760000D02*
X127762000Y-111379000D01*
X128397000Y-110744000D02*
X129159000Y-110744000D01*
X120134000Y-117983000D02*
X120515000Y-117983000D01*
X119626000Y-117475000D02*
X120134000Y-117983000D01*
X121658000Y-117983000D02*
X121023000Y-117983000D01*
X122420000Y-117221000D02*
X121658000Y-117983000D01*
X121919620Y-116403120D02*
X122420000Y-116903500D01*
X122420000Y-116840000D02*
X122420000Y-117221000D01*
X119710000Y-112565000D02*
X120007000Y-112268000D01*
X121658000Y-110744000D02*
X121023000Y-110744000D01*
X119626000Y-111252000D02*
X120134000Y-110744000D01*
X120134000Y-110744000D02*
X120515000Y-110744000D01*
X122420000Y-111760000D02*
X122420000Y-111506000D01*
X122420000Y-111506000D02*
X121658000Y-110744000D01*
X120007000Y-112268000D02*
X121912000Y-112268000D01*
X121912000Y-112268000D02*
X122420000Y-111760000D01*
X120026050Y-116403120D02*
X121919620Y-116403120D01*
X119710000Y-114300000D02*
X122420000Y-114300000D01*
X119710000Y-115313500D02*
X119710000Y-116087070D01*
X119710000Y-116087070D02*
X120026050Y-116403120D01*
X132522000Y-117475000D02*
X131699000Y-117475000D01*
X132522000Y-117475000D02*
X132588000Y-117475000D01*
X131572000Y-117348000D02*
X131572000Y-116586000D01*
X131699000Y-117475000D02*
X131572000Y-117348000D01*
X133096000Y-117983000D02*
X133477000Y-117983000D01*
X132588000Y-117475000D02*
X133096000Y-117983000D01*
X130556000Y-117475000D02*
X130048000Y-117983000D01*
X130622000Y-117475000D02*
X130556000Y-117475000D01*
X127762000Y-116840000D02*
X127762000Y-117475000D01*
X128270000Y-117983000D02*
X129159000Y-117983000D01*
X128270000Y-116395500D02*
X127762000Y-116903500D01*
X130048000Y-117983000D02*
X129667000Y-117983000D01*
X127762000Y-117475000D02*
X128270000Y-117983000D01*
X134881620Y-116403120D02*
X135382000Y-116903500D01*
X135382000Y-117221000D02*
X134620000Y-117983000D01*
X135382000Y-116840000D02*
X135382000Y-117221000D01*
X132988050Y-116403120D02*
X134881620Y-116403120D01*
X134620000Y-117983000D02*
X133985000Y-117983000D01*
X132113020Y-104665000D02*
X131572000Y-105206020D01*
X131103370Y-104665000D02*
X131572000Y-104196370D01*
X131572000Y-104196370D02*
X131572000Y-102887000D01*
X130472000Y-104665000D02*
X131103370Y-104665000D01*
X132672000Y-103715000D02*
X132672000Y-102930000D01*
X132672000Y-104665000D02*
X132113020Y-104665000D01*
X130472000Y-103715000D02*
X130472000Y-102941430D01*
X130556000Y-101617000D02*
X130048000Y-101109000D01*
X130622000Y-101617000D02*
X130556000Y-101617000D01*
X130622000Y-101617000D02*
X131445000Y-101617000D01*
X130472000Y-102941430D02*
X130155950Y-102625380D01*
X131572000Y-101744000D02*
X131572000Y-102379000D01*
X131445000Y-101617000D02*
X131572000Y-101744000D01*
X132522000Y-101617000D02*
X132588000Y-101617000D01*
X132522000Y-101617000D02*
X132588000Y-101617000D01*
X132588000Y-101617000D02*
X133096000Y-101109000D01*
X134620000Y-101109000D02*
X133985000Y-101109000D01*
X135382000Y-101871000D02*
X134620000Y-101109000D01*
X133096000Y-101109000D02*
X133477000Y-101109000D01*
X135382000Y-102125000D02*
X135382000Y-101871000D01*
X130472000Y-105678500D02*
X130472000Y-106463500D01*
X130472000Y-106463500D02*
X130175000Y-106760500D01*
X132522000Y-107840000D02*
X131699000Y-107840000D01*
X132522000Y-107840000D02*
X132588000Y-107840000D01*
X132672000Y-105678500D02*
X132672000Y-106452070D01*
X131572000Y-107713000D02*
X131572000Y-106951000D01*
X131572000Y-105206020D02*
X131572000Y-106443000D01*
X130556000Y-107840000D02*
X130048000Y-108348000D01*
X134620000Y-108348000D02*
X133985000Y-108348000D01*
X133096000Y-108348000D02*
X133477000Y-108348000D01*
X132588000Y-107840000D02*
X133096000Y-108348000D01*
X135382000Y-107586000D02*
X134620000Y-108348000D01*
X132672000Y-106452070D02*
X132988050Y-106768120D01*
X135382000Y-107205000D02*
X135382000Y-107586000D01*
X134881620Y-106768120D02*
X135382000Y-107268500D01*
X132988050Y-106768120D02*
X134881620Y-106768120D01*
X132672000Y-102930000D02*
X132969000Y-102633000D01*
X132672000Y-104665000D02*
X135382000Y-104665000D01*
X134874000Y-102633000D02*
X135382000Y-102125000D01*
X132969000Y-102633000D02*
X134874000Y-102633000D01*
X92175000Y-106760500D02*
X90270000Y-106760500D01*
X92622000Y-107840000D02*
X92556000Y-107840000D01*
X92556000Y-107840000D02*
X92048000Y-108348000D01*
X92048000Y-108348000D02*
X91667000Y-108348000D01*
X93699000Y-107840000D02*
X93572000Y-107713000D01*
X93572000Y-107713000D02*
X93572000Y-106951000D01*
X94522000Y-107840000D02*
X94588000Y-107840000D01*
X94522000Y-107840000D02*
X93699000Y-107840000D01*
X89762000Y-107840000D02*
X90270000Y-108348000D01*
X90270000Y-106760500D02*
X89762000Y-107268500D01*
X90270000Y-108348000D02*
X91159000Y-108348000D01*
X89762000Y-107205000D02*
X89762000Y-107840000D01*
X94113020Y-104665000D02*
X93572000Y-105206020D01*
X94672000Y-106452070D02*
X94988050Y-106768120D01*
X93572000Y-105206020D02*
X93572000Y-106443000D01*
X94672000Y-105678500D02*
X94672000Y-106452070D01*
X79455950Y-102625380D02*
X77562380Y-102625380D01*
X79772000Y-102941430D02*
X79455950Y-102625380D01*
X79772000Y-104665000D02*
X80403370Y-104665000D01*
X79772000Y-103715000D02*
X79772000Y-102941430D01*
X79772000Y-104665000D02*
X77062000Y-104665000D01*
X77562380Y-102625380D02*
X77062000Y-102125000D01*
X79772000Y-106463500D02*
X79475000Y-106760500D01*
X79772000Y-105678500D02*
X79772000Y-106463500D01*
X79475000Y-106760500D02*
X77570000Y-106760500D01*
X79856000Y-107840000D02*
X79348000Y-108348000D01*
X79922000Y-107840000D02*
X79856000Y-107840000D01*
X79348000Y-108348000D02*
X78967000Y-108348000D01*
X77062000Y-107205000D02*
X77062000Y-107840000D01*
X77062000Y-107840000D02*
X77570000Y-108348000D01*
X77570000Y-108348000D02*
X78459000Y-108348000D01*
X77570000Y-106760500D02*
X77062000Y-107268500D01*
X79856000Y-101617000D02*
X79348000Y-101109000D01*
X79348000Y-101109000D02*
X78967000Y-101109000D01*
X77697000Y-101109000D02*
X78459000Y-101109000D01*
X77062000Y-101744000D02*
X77697000Y-101109000D01*
X77062000Y-102125000D02*
X77062000Y-101744000D01*
X77062000Y-111379000D02*
X77697000Y-110744000D01*
X77062000Y-111760000D02*
X77062000Y-111379000D01*
X77562380Y-112260380D02*
X77062000Y-111760000D01*
X84682000Y-111760000D02*
X84682000Y-111506000D01*
X84682000Y-111506000D02*
X83920000Y-110744000D01*
X79922000Y-111252000D02*
X79856000Y-111252000D01*
X80745000Y-111252000D02*
X80872000Y-111379000D01*
X79922000Y-111252000D02*
X80745000Y-111252000D01*
X84174000Y-112268000D02*
X84682000Y-111760000D01*
X79856000Y-111252000D02*
X79348000Y-110744000D01*
X97382000Y-107205000D02*
X97382000Y-107586000D01*
X96881620Y-106768120D02*
X97382000Y-107268500D01*
X97382000Y-107586000D02*
X96620000Y-108348000D01*
X94988050Y-106768120D02*
X96881620Y-106768120D01*
X96620000Y-108348000D02*
X95985000Y-108348000D01*
X95096000Y-108348000D02*
X95477000Y-108348000D01*
X94588000Y-107840000D02*
X95096000Y-108348000D01*
X92472000Y-105678500D02*
X92472000Y-106463500D01*
X92472000Y-106463500D02*
X92175000Y-106760500D01*
X92472000Y-104665000D02*
X89762000Y-104665000D01*
X94672000Y-103715000D02*
X94672000Y-102930000D01*
X94672000Y-104665000D02*
X97382000Y-104665000D01*
X94672000Y-102930000D02*
X94969000Y-102633000D01*
X94672000Y-104665000D02*
X94113020Y-104665000D01*
X94969000Y-102633000D02*
X96874000Y-102633000D01*
X97382000Y-101871000D02*
X96620000Y-101109000D01*
X96620000Y-101109000D02*
X95985000Y-101109000D01*
X96874000Y-102633000D02*
X97382000Y-102125000D01*
X97382000Y-102125000D02*
X97382000Y-101871000D01*
X81413020Y-104665000D02*
X80872000Y-105206020D01*
X81972000Y-105678500D02*
X81972000Y-106452070D01*
X80872000Y-105206020D02*
X80872000Y-106443000D01*
X81972000Y-104665000D02*
X81413020Y-104665000D01*
X81972000Y-106452070D02*
X82288050Y-106768120D01*
X80999000Y-107840000D02*
X80872000Y-107713000D01*
X81822000Y-107840000D02*
X80999000Y-107840000D01*
X81822000Y-107840000D02*
X81888000Y-107840000D01*
X82396000Y-108348000D02*
X82777000Y-108348000D01*
X81888000Y-107840000D02*
X82396000Y-108348000D01*
X80872000Y-107713000D02*
X80872000Y-106951000D01*
X84181620Y-106768120D02*
X84682000Y-107268500D01*
X84682000Y-107205000D02*
X84682000Y-107586000D01*
X82288050Y-106768120D02*
X84181620Y-106768120D01*
X84682000Y-107586000D02*
X83920000Y-108348000D01*
X83920000Y-108348000D02*
X83285000Y-108348000D01*
X81972000Y-102930000D02*
X82269000Y-102633000D01*
X81972000Y-103715000D02*
X81972000Y-102930000D01*
X80872000Y-104196370D02*
X80872000Y-102887000D01*
X80403370Y-104665000D02*
X80872000Y-104196370D01*
X81822000Y-101617000D02*
X81888000Y-101617000D01*
X81822000Y-101617000D02*
X81888000Y-101617000D01*
X81888000Y-101617000D02*
X82396000Y-101109000D01*
X82396000Y-101109000D02*
X82777000Y-101109000D01*
X80745000Y-101617000D02*
X80872000Y-101744000D01*
X79922000Y-101617000D02*
X80745000Y-101617000D01*
X79922000Y-101617000D02*
X79856000Y-101617000D01*
X80872000Y-101744000D02*
X80872000Y-102379000D01*
X81972000Y-104665000D02*
X84682000Y-104665000D01*
X84174000Y-102633000D02*
X84682000Y-102125000D01*
X84682000Y-101871000D02*
X83920000Y-101109000D01*
X82269000Y-102633000D02*
X84174000Y-102633000D01*
X83920000Y-101109000D02*
X83285000Y-101109000D01*
X84682000Y-102125000D02*
X84682000Y-101871000D01*
X92472000Y-103715000D02*
X92472000Y-102941430D01*
X93572000Y-104196370D02*
X93572000Y-102887000D01*
X93103370Y-104665000D02*
X93572000Y-104196370D01*
X92472000Y-104665000D02*
X93103370Y-104665000D01*
X92472000Y-102941430D02*
X92155950Y-102625380D01*
X92048000Y-101109000D02*
X91667000Y-101109000D01*
X92556000Y-101617000D02*
X92048000Y-101109000D01*
X92155950Y-102625380D02*
X90262380Y-102625380D01*
X90397000Y-101109000D02*
X91159000Y-101109000D01*
X90262380Y-102625380D02*
X89762000Y-102125000D01*
X89762000Y-101744000D02*
X90397000Y-101109000D01*
X89762000Y-102125000D02*
X89762000Y-101744000D01*
X94588000Y-101617000D02*
X95096000Y-101109000D01*
X95096000Y-101109000D02*
X95477000Y-101109000D01*
X94522000Y-101617000D02*
X94588000Y-101617000D01*
X94522000Y-101617000D02*
X94588000Y-101617000D01*
X92622000Y-101617000D02*
X92556000Y-101617000D01*
X93572000Y-101744000D02*
X93572000Y-102379000D01*
X93445000Y-101617000D02*
X93572000Y-101744000D01*
X92622000Y-101617000D02*
X93445000Y-101617000D01*
X79772000Y-115313500D02*
X79772000Y-116098500D01*
X80872000Y-117348000D02*
X80872000Y-116586000D01*
X80872000Y-114841020D02*
X80872000Y-116078000D01*
X79922000Y-117475000D02*
X79856000Y-117475000D01*
X79772000Y-116098500D02*
X79475000Y-116395500D01*
X80403370Y-114300000D02*
X80872000Y-113831370D01*
X80872000Y-113831370D02*
X80872000Y-112522000D01*
X79772000Y-114300000D02*
X80403370Y-114300000D01*
X79772000Y-113350000D02*
X79772000Y-112576430D01*
X79348000Y-110744000D02*
X78967000Y-110744000D01*
X77697000Y-110744000D02*
X78459000Y-110744000D01*
X79772000Y-112576430D02*
X79455950Y-112260380D01*
X79455950Y-112260380D02*
X77562380Y-112260380D01*
X79772000Y-114300000D02*
X77062000Y-114300000D01*
X79475000Y-116395500D02*
X77570000Y-116395500D01*
X77570000Y-116395500D02*
X77062000Y-116903500D01*
X77062000Y-116840000D02*
X77062000Y-117475000D01*
D21*
X144169000Y-88308000D02*
X144169000Y-98468000D01*
X146455000Y-94658000D02*
X146455000Y-98214000D01*
X146455000Y-98214000D02*
X146709000Y-98468000D01*
X141883000Y-94658000D02*
X141883000Y-98214000D01*
X141883000Y-98214000D02*
X141629000Y-98468000D01*
X141629000Y-85768000D02*
X144169000Y-88308000D01*
X146709000Y-85768000D02*
X144169000Y-88308000D01*
X144169000Y-83228000D02*
X144169000Y-88308000D01*
D22*
X141629000Y-94912000D02*
X141883000Y-94658000D01*
D20*
X135382000Y-66840000D02*
X135382000Y-67221000D01*
X133096000Y-67983000D02*
X133477000Y-67983000D01*
X134881620Y-66403120D02*
X135382000Y-66903500D01*
X132988050Y-66403120D02*
X134881620Y-66403120D01*
X135382000Y-67221000D02*
X134620000Y-67983000D01*
X134620000Y-67983000D02*
X133985000Y-67983000D01*
X132588000Y-67475000D02*
X133096000Y-67983000D01*
X132522000Y-67475000D02*
X131699000Y-67475000D01*
X132113020Y-64300000D02*
X131572000Y-64841020D01*
X132522000Y-67475000D02*
X132588000Y-67475000D01*
X131699000Y-67475000D02*
X131572000Y-67348000D01*
X131572000Y-67348000D02*
X131572000Y-66586000D01*
X132672000Y-64300000D02*
X132113020Y-64300000D01*
X132672000Y-66087070D02*
X132988050Y-66403120D01*
X132672000Y-65313500D02*
X132672000Y-66087070D01*
X127762000Y-66840000D02*
X127762000Y-67475000D01*
X128270000Y-67983000D02*
X129159000Y-67983000D01*
X127762000Y-67475000D02*
X128270000Y-67983000D01*
X128270000Y-66395500D02*
X127762000Y-66903500D01*
X130556000Y-67475000D02*
X130048000Y-67983000D01*
X145796000Y-67983000D02*
X146177000Y-67983000D01*
X145222000Y-67475000D02*
X144399000Y-67475000D01*
X140970000Y-66395500D02*
X140462000Y-66903500D01*
X142748000Y-67983000D02*
X142367000Y-67983000D01*
X140970000Y-67983000D02*
X141859000Y-67983000D01*
X140462000Y-67475000D02*
X140970000Y-67983000D01*
X140462000Y-66840000D02*
X140462000Y-67475000D01*
X143256000Y-67475000D02*
X142748000Y-67983000D01*
X145222000Y-67475000D02*
X145288000Y-67475000D01*
X147320000Y-67983000D02*
X146685000Y-67983000D01*
X148082000Y-66840000D02*
X148082000Y-67221000D01*
X145288000Y-67475000D02*
X145796000Y-67983000D01*
X148082000Y-67221000D02*
X147320000Y-67983000D01*
X148082000Y-56680000D02*
X148082000Y-57061000D01*
X145796000Y-57823000D02*
X146177000Y-57823000D01*
X147320000Y-57823000D02*
X146685000Y-57823000D01*
X145288000Y-57315000D02*
X145796000Y-57823000D01*
X147581620Y-56243120D02*
X148082000Y-56743500D01*
X145688050Y-56243120D02*
X147581620Y-56243120D01*
X148082000Y-57061000D02*
X147320000Y-57823000D01*
X145222000Y-57315000D02*
X144399000Y-57315000D01*
X144272000Y-57188000D02*
X144272000Y-56426000D01*
X145222000Y-57315000D02*
X145288000Y-57315000D01*
X144399000Y-57315000D02*
X144272000Y-57188000D01*
X145372000Y-55927070D02*
X145688050Y-56243120D01*
X145372000Y-55153500D02*
X145372000Y-55927070D01*
X140462000Y-56680000D02*
X140462000Y-57315000D01*
X143322000Y-57315000D02*
X143256000Y-57315000D01*
X140970000Y-57823000D02*
X141859000Y-57823000D01*
X140970000Y-56235500D02*
X140462000Y-56743500D01*
X143256000Y-57315000D02*
X142748000Y-57823000D01*
X142748000Y-57823000D02*
X142367000Y-57823000D01*
X140462000Y-57315000D02*
X140970000Y-57823000D01*
X143172000Y-55938500D02*
X142875000Y-56235500D01*
X144272000Y-54681020D02*
X144272000Y-55918000D01*
X144813020Y-54140000D02*
X144272000Y-54681020D01*
X142875000Y-56235500D02*
X140970000Y-56235500D01*
X143172000Y-55153500D02*
X143172000Y-55938500D01*
X143172000Y-63350000D02*
X143172000Y-62576430D01*
X144272000Y-63831370D02*
X144272000Y-62522000D01*
X143803370Y-64300000D02*
X144272000Y-63831370D01*
X143172000Y-64300000D02*
X143803370Y-64300000D01*
X143172000Y-62576430D02*
X142855950Y-62260380D01*
X142855950Y-62260380D02*
X140962380Y-62260380D01*
X143256000Y-61252000D02*
X142748000Y-60744000D01*
X140962380Y-62260380D02*
X140462000Y-61760000D01*
X140462000Y-61760000D02*
X140462000Y-61379000D01*
X140462000Y-61379000D02*
X141097000Y-60744000D01*
X141097000Y-60744000D02*
X141859000Y-60744000D01*
X142748000Y-60744000D02*
X142367000Y-60744000D01*
X145372000Y-62565000D02*
X145669000Y-62268000D01*
X145222000Y-61252000D02*
X145288000Y-61252000D01*
X145372000Y-63350000D02*
X145372000Y-62565000D01*
X145288000Y-61252000D02*
X145796000Y-60744000D01*
X145222000Y-61252000D02*
X145288000Y-61252000D01*
X147574000Y-62268000D02*
X148082000Y-61760000D01*
X145669000Y-62268000D02*
X147574000Y-62268000D01*
X147320000Y-60744000D02*
X146685000Y-60744000D01*
X148082000Y-61506000D02*
X147320000Y-60744000D01*
X148082000Y-61760000D02*
X148082000Y-61506000D01*
X145796000Y-60744000D02*
X146177000Y-60744000D01*
X145372000Y-65313500D02*
X145372000Y-66087070D01*
X145372000Y-64300000D02*
X148082000Y-64300000D01*
X144272000Y-64841020D02*
X144272000Y-66078000D01*
X145372000Y-66087070D02*
X145688050Y-66403120D01*
X144813020Y-64300000D02*
X144272000Y-64841020D01*
X145372000Y-64300000D02*
X144813020Y-64300000D01*
X145688050Y-66403120D02*
X147581620Y-66403120D01*
X147581620Y-66403120D02*
X148082000Y-66903500D01*
X143172000Y-64300000D02*
X140462000Y-64300000D01*
X143172000Y-65313500D02*
X143172000Y-66098500D01*
X143322000Y-67475000D02*
X143256000Y-67475000D01*
X144399000Y-67475000D02*
X144272000Y-67348000D01*
X143172000Y-66098500D02*
X142875000Y-66395500D01*
X142875000Y-66395500D02*
X140970000Y-66395500D01*
X144272000Y-67348000D02*
X144272000Y-66586000D01*
X144272000Y-61379000D02*
X144272000Y-62014000D01*
X144145000Y-61252000D02*
X144272000Y-61379000D01*
X143322000Y-61252000D02*
X144145000Y-61252000D01*
X143322000Y-61252000D02*
X143256000Y-61252000D01*
X143172000Y-54140000D02*
X143803370Y-54140000D01*
X143803370Y-54140000D02*
X144272000Y-53671370D01*
X144272000Y-53671370D02*
X144272000Y-52362000D01*
X143172000Y-53190000D02*
X143172000Y-52416430D01*
X145372000Y-54140000D02*
X144813020Y-54140000D01*
X145372000Y-53190000D02*
X145372000Y-52405000D01*
X145372000Y-54140000D02*
X148082000Y-54140000D01*
X145372000Y-52405000D02*
X145669000Y-52108000D01*
X145669000Y-52108000D02*
X147574000Y-52108000D01*
X147574000Y-52108000D02*
X148082000Y-51600000D01*
X143322000Y-51092000D02*
X144145000Y-51092000D01*
X143322000Y-51092000D02*
X143256000Y-51092000D01*
X144272000Y-51219000D02*
X144272000Y-51854000D01*
X144145000Y-51092000D02*
X144272000Y-51219000D01*
X143172000Y-52416430D02*
X142855950Y-52100380D01*
X143256000Y-51092000D02*
X142748000Y-50584000D01*
X142748000Y-50584000D02*
X142367000Y-50584000D01*
X140962380Y-52100380D02*
X140462000Y-51600000D01*
X140462000Y-51600000D02*
X140462000Y-51219000D01*
X140462000Y-51219000D02*
X141097000Y-50584000D01*
X141097000Y-50584000D02*
X141859000Y-50584000D01*
X142855950Y-52100380D02*
X140962380Y-52100380D01*
X143172000Y-54140000D02*
X140462000Y-54140000D01*
X145222000Y-51092000D02*
X145288000Y-51092000D01*
X145796000Y-50584000D02*
X146177000Y-50584000D01*
X148082000Y-51600000D02*
X148082000Y-51346000D01*
X145288000Y-51092000D02*
X145796000Y-50584000D01*
X147320000Y-50584000D02*
X146685000Y-50584000D01*
X145222000Y-51092000D02*
X145288000Y-51092000D01*
X148082000Y-51346000D02*
X147320000Y-50584000D01*
X130472000Y-64300000D02*
X131103370Y-64300000D01*
X131103370Y-64300000D02*
X131572000Y-63831370D01*
X131572000Y-63831370D02*
X131572000Y-62522000D01*
X130472000Y-63350000D02*
X130472000Y-62576430D01*
X127762000Y-61379000D02*
X128397000Y-60744000D01*
X130556000Y-61252000D02*
X130048000Y-60744000D01*
X130048000Y-60744000D02*
X129667000Y-60744000D01*
X127762000Y-61760000D02*
X127762000Y-61379000D01*
X128397000Y-60744000D02*
X129159000Y-60744000D01*
X130155950Y-62260380D02*
X128262380Y-62260380D01*
X128262380Y-62260380D02*
X127762000Y-61760000D01*
X131572000Y-64841020D02*
X131572000Y-66078000D01*
X130622000Y-67475000D02*
X130556000Y-67475000D01*
X130472000Y-66098500D02*
X130175000Y-66395500D01*
X130175000Y-66395500D02*
X128270000Y-66395500D01*
X130472000Y-65313500D02*
X130472000Y-66098500D01*
X130472000Y-64300000D02*
X127762000Y-64300000D01*
X130622000Y-61252000D02*
X131445000Y-61252000D01*
X130622000Y-61252000D02*
X130556000Y-61252000D01*
X130472000Y-62576430D02*
X130155950Y-62260380D01*
X131572000Y-61379000D02*
X131572000Y-62014000D01*
X131445000Y-61252000D02*
X131572000Y-61379000D01*
X132672000Y-63350000D02*
X132672000Y-62565000D01*
X132672000Y-64300000D02*
X135382000Y-64300000D01*
X132672000Y-62565000D02*
X132969000Y-62268000D01*
X132522000Y-61252000D02*
X132588000Y-61252000D01*
X132522000Y-61252000D02*
X132588000Y-61252000D01*
X135382000Y-61760000D02*
X135382000Y-61506000D01*
X132969000Y-62268000D02*
X134874000Y-62268000D01*
X134874000Y-62268000D02*
X135382000Y-61760000D01*
X119710000Y-54140000D02*
X122420000Y-54140000D01*
X119710000Y-53190000D02*
X119710000Y-52405000D01*
X119710000Y-52405000D02*
X120007000Y-52108000D01*
X120007000Y-52108000D02*
X121912000Y-52108000D01*
X121912000Y-52108000D02*
X122420000Y-51600000D01*
X119560000Y-51092000D02*
X119626000Y-51092000D01*
X122420000Y-51346000D02*
X121658000Y-50584000D01*
X119560000Y-51092000D02*
X119626000Y-51092000D01*
X119626000Y-51092000D02*
X120134000Y-50584000D01*
X120134000Y-50584000D02*
X120515000Y-50584000D01*
X122420000Y-51600000D02*
X122420000Y-51346000D01*
X121658000Y-50584000D02*
X121023000Y-50584000D01*
X122420000Y-56680000D02*
X122420000Y-57061000D01*
X120134000Y-57823000D02*
X120515000Y-57823000D01*
X121658000Y-57823000D02*
X121023000Y-57823000D01*
X119626000Y-57315000D02*
X120134000Y-57823000D01*
X121919620Y-56243120D02*
X122420000Y-56743500D01*
X120026050Y-56243120D02*
X121919620Y-56243120D01*
X122420000Y-57061000D02*
X121658000Y-57823000D01*
X119560000Y-57315000D02*
X118737000Y-57315000D01*
X119560000Y-57315000D02*
X119626000Y-57315000D01*
X119151020Y-54140000D02*
X118610000Y-54681020D01*
X119710000Y-54140000D02*
X119151020Y-54140000D01*
X118737000Y-57315000D02*
X118610000Y-57188000D01*
X119710000Y-55927070D02*
X120026050Y-56243120D01*
X119710000Y-55153500D02*
X119710000Y-55927070D01*
X119626000Y-67475000D02*
X120134000Y-67983000D01*
X120134000Y-67983000D02*
X120515000Y-67983000D01*
X117510000Y-66098500D02*
X117213000Y-66395500D01*
X117660000Y-67475000D02*
X117594000Y-67475000D01*
X117594000Y-67475000D02*
X117086000Y-67983000D01*
X117086000Y-67983000D02*
X116705000Y-67983000D01*
X117213000Y-66395500D02*
X115308000Y-66395500D01*
X115308000Y-66395500D02*
X114800000Y-66903500D01*
X114800000Y-67475000D02*
X115308000Y-67983000D01*
X114800000Y-66840000D02*
X114800000Y-67475000D01*
X115308000Y-67983000D02*
X116197000Y-67983000D01*
X119710000Y-66087070D02*
X120026050Y-66403120D01*
X119560000Y-67475000D02*
X118737000Y-67475000D01*
X118610000Y-67348000D02*
X118610000Y-66586000D01*
X118737000Y-67475000D02*
X118610000Y-67348000D01*
X119560000Y-67475000D02*
X119626000Y-67475000D01*
X120026050Y-66403120D02*
X121919620Y-66403120D01*
X121658000Y-67983000D02*
X121023000Y-67983000D01*
X122420000Y-67221000D02*
X121658000Y-67983000D01*
X122420000Y-66840000D02*
X122420000Y-67221000D01*
X121919620Y-66403120D02*
X122420000Y-66903500D01*
X119710000Y-65313500D02*
X119710000Y-66087070D01*
X118610000Y-64841020D02*
X118610000Y-66078000D01*
X119151020Y-64300000D02*
X118610000Y-64841020D01*
X117510000Y-65313500D02*
X117510000Y-66098500D01*
X119710000Y-64300000D02*
X119151020Y-64300000D01*
X118141370Y-64300000D02*
X118610000Y-63831370D01*
X130048000Y-67983000D02*
X129667000Y-67983000D01*
X135382000Y-57061000D02*
X134620000Y-57823000D01*
X134620000Y-57823000D02*
X133985000Y-57823000D01*
X134881620Y-56243120D02*
X135382000Y-56743500D01*
X135382000Y-56680000D02*
X135382000Y-57061000D01*
X133096000Y-57823000D02*
X133477000Y-57823000D01*
X134620000Y-60744000D02*
X133985000Y-60744000D01*
X135382000Y-61506000D02*
X134620000Y-60744000D01*
X132588000Y-61252000D02*
X133096000Y-60744000D01*
X133096000Y-60744000D02*
X133477000Y-60744000D01*
X132588000Y-57315000D02*
X133096000Y-57823000D01*
X132522000Y-57315000D02*
X132588000Y-57315000D01*
X131699000Y-57315000D02*
X131572000Y-57188000D01*
X132522000Y-57315000D02*
X131699000Y-57315000D01*
X131572000Y-57188000D02*
X131572000Y-56426000D01*
X132672000Y-55153500D02*
X132672000Y-55927070D01*
X132672000Y-54140000D02*
X135382000Y-54140000D01*
X131572000Y-54681020D02*
X131572000Y-55918000D01*
X132113020Y-54140000D02*
X131572000Y-54681020D01*
X132672000Y-55927070D02*
X132988050Y-56243120D01*
X132988050Y-56243120D02*
X134881620Y-56243120D01*
X130472000Y-54140000D02*
X127762000Y-54140000D01*
X130155950Y-52100380D02*
X128262380Y-52100380D01*
X130472000Y-52416430D02*
X130155950Y-52100380D01*
X128262380Y-52100380D02*
X127762000Y-51600000D01*
X132522000Y-51092000D02*
X132588000Y-51092000D01*
X132588000Y-51092000D02*
X133096000Y-50584000D01*
X132522000Y-51092000D02*
X132588000Y-51092000D01*
X133096000Y-50584000D02*
X133477000Y-50584000D01*
X132672000Y-52405000D02*
X132969000Y-52108000D01*
X131572000Y-53671370D02*
X131572000Y-52362000D01*
X130472000Y-54140000D02*
X131103370Y-54140000D01*
X132672000Y-53190000D02*
X132672000Y-52405000D01*
X130472000Y-53190000D02*
X130472000Y-52416430D01*
X132672000Y-54140000D02*
X132113020Y-54140000D01*
X131103370Y-54140000D02*
X131572000Y-53671370D01*
X134874000Y-52108000D02*
X135382000Y-51600000D01*
X134620000Y-50584000D02*
X133985000Y-50584000D01*
X135382000Y-51346000D02*
X134620000Y-50584000D01*
X135382000Y-51600000D02*
X135382000Y-51346000D01*
X132969000Y-52108000D02*
X134874000Y-52108000D01*
X131572000Y-51219000D02*
X131572000Y-51854000D01*
X131445000Y-51092000D02*
X131572000Y-51219000D01*
X130622000Y-51092000D02*
X131445000Y-51092000D01*
X130622000Y-51092000D02*
X130556000Y-51092000D01*
X130472000Y-55153500D02*
X130472000Y-55938500D01*
X130622000Y-57315000D02*
X130556000Y-57315000D01*
X130472000Y-55938500D02*
X130175000Y-56235500D01*
X130556000Y-57315000D02*
X130048000Y-57823000D01*
X130048000Y-57823000D02*
X129667000Y-57823000D01*
X130175000Y-56235500D02*
X128270000Y-56235500D01*
X128270000Y-57823000D02*
X129159000Y-57823000D01*
X127762000Y-57315000D02*
X128270000Y-57823000D01*
X127762000Y-56680000D02*
X127762000Y-57315000D01*
X128270000Y-56235500D02*
X127762000Y-56743500D01*
X128397000Y-50584000D02*
X129159000Y-50584000D01*
X127762000Y-51219000D02*
X128397000Y-50584000D01*
X127762000Y-51600000D02*
X127762000Y-51219000D01*
X130048000Y-50584000D02*
X129667000Y-50584000D01*
X130556000Y-51092000D02*
X130048000Y-50584000D01*
X117660000Y-51092000D02*
X118483000Y-51092000D01*
X117510000Y-53190000D02*
X117510000Y-52416430D01*
X117660000Y-51092000D02*
X117594000Y-51092000D01*
X117510000Y-52416430D02*
X117193950Y-52100380D01*
X118483000Y-51092000D02*
X118610000Y-51219000D01*
X118610000Y-51219000D02*
X118610000Y-51854000D01*
X118610000Y-53671370D02*
X118610000Y-52362000D01*
X114800000Y-56680000D02*
X114800000Y-57315000D01*
X117660000Y-57315000D02*
X117594000Y-57315000D01*
X115308000Y-57823000D02*
X116197000Y-57823000D01*
X115308000Y-56235500D02*
X114800000Y-56743500D01*
X117594000Y-57315000D02*
X117086000Y-57823000D01*
X117086000Y-57823000D02*
X116705000Y-57823000D01*
X114800000Y-57315000D02*
X115308000Y-57823000D01*
X117594000Y-51092000D02*
X117086000Y-50584000D01*
X117193950Y-52100380D02*
X115300380Y-52100380D01*
X115300380Y-52100380D02*
X114800000Y-51600000D01*
X114800000Y-51219000D02*
X115435000Y-50584000D01*
X115435000Y-50584000D02*
X116197000Y-50584000D01*
X117086000Y-50584000D02*
X116705000Y-50584000D01*
X114800000Y-51600000D02*
X114800000Y-51219000D01*
X118610000Y-57188000D02*
X118610000Y-56426000D01*
X117510000Y-54140000D02*
X118141370Y-54140000D01*
X118141370Y-54140000D02*
X118610000Y-53671370D01*
X118610000Y-54681020D02*
X118610000Y-55918000D01*
X117510000Y-55938500D02*
X117213000Y-56235500D01*
X117510000Y-55153500D02*
X117510000Y-55938500D01*
X117510000Y-54140000D02*
X114800000Y-54140000D01*
X117213000Y-56235500D02*
X115308000Y-56235500D01*
X117510000Y-64300000D02*
X114800000Y-64300000D01*
X115435000Y-60744000D02*
X116197000Y-60744000D01*
X117510000Y-62576430D02*
X117193950Y-62260380D01*
X117193950Y-62260380D02*
X115300380Y-62260380D01*
X115300380Y-62260380D02*
X114800000Y-61760000D01*
X114800000Y-61379000D02*
X115435000Y-60744000D01*
X114800000Y-61760000D02*
X114800000Y-61379000D01*
X117086000Y-60744000D02*
X116705000Y-60744000D01*
X117594000Y-61252000D02*
X117086000Y-60744000D01*
X117660000Y-61252000D02*
X117594000Y-61252000D01*
X118483000Y-61252000D02*
X118610000Y-61379000D01*
X117660000Y-61252000D02*
X118483000Y-61252000D01*
X121912000Y-62268000D02*
X122420000Y-61760000D01*
X119710000Y-62565000D02*
X120007000Y-62268000D01*
X119710000Y-63350000D02*
X119710000Y-62565000D01*
X119710000Y-64300000D02*
X122420000Y-64300000D01*
X120007000Y-62268000D02*
X121912000Y-62268000D01*
X122420000Y-61760000D02*
X122420000Y-61506000D01*
X119560000Y-61252000D02*
X119626000Y-61252000D01*
X120134000Y-60744000D02*
X120515000Y-60744000D01*
X122420000Y-61506000D02*
X121658000Y-60744000D01*
X119626000Y-61252000D02*
X120134000Y-60744000D01*
X119560000Y-61252000D02*
X119626000Y-61252000D01*
X121658000Y-60744000D02*
X121023000Y-60744000D01*
X117510000Y-63350000D02*
X117510000Y-62576430D01*
X118610000Y-63831370D02*
X118610000Y-62522000D01*
X118610000Y-61379000D02*
X118610000Y-62014000D01*
X117510000Y-64300000D02*
X118141370Y-64300000D01*
X104910000Y-54140000D02*
X102200000Y-54140000D01*
X104910000Y-55938500D02*
X104613000Y-56235500D01*
X104613000Y-56235500D02*
X102708000Y-56235500D01*
X102708000Y-56235500D02*
X102200000Y-56743500D01*
X107110000Y-55153500D02*
X107110000Y-55927070D01*
X104910000Y-55153500D02*
X104910000Y-55938500D01*
X106010000Y-54681020D02*
X106010000Y-55918000D01*
X106960000Y-57315000D02*
X106137000Y-57315000D01*
X106010000Y-57188000D02*
X106010000Y-56426000D01*
X106137000Y-57315000D02*
X106010000Y-57188000D01*
X105060000Y-57315000D02*
X104994000Y-57315000D01*
X106960000Y-57315000D02*
X107026000Y-57315000D01*
X107110000Y-55927070D02*
X107426050Y-56243120D01*
X107426050Y-56243120D02*
X109319620Y-56243120D01*
X107026000Y-57315000D02*
X107534000Y-57823000D01*
X109319620Y-56243120D02*
X109820000Y-56743500D01*
X109058000Y-57823000D02*
X108423000Y-57823000D01*
X107534000Y-57823000D02*
X107915000Y-57823000D01*
X109820000Y-57061000D02*
X109058000Y-57823000D01*
X109820000Y-56680000D02*
X109820000Y-57061000D01*
X104994000Y-57315000D02*
X104486000Y-57823000D01*
X104486000Y-57823000D02*
X104105000Y-57823000D01*
X102708000Y-57823000D02*
X103597000Y-57823000D01*
X102200000Y-57315000D02*
X102708000Y-57823000D01*
X102200000Y-56680000D02*
X102200000Y-57315000D01*
X102200000Y-66840000D02*
X102200000Y-67475000D01*
X105060000Y-67475000D02*
X104994000Y-67475000D01*
X102708000Y-67983000D02*
X103597000Y-67983000D01*
X102708000Y-66395500D02*
X102200000Y-66903500D01*
X104994000Y-67475000D02*
X104486000Y-67983000D01*
X104486000Y-67983000D02*
X104105000Y-67983000D01*
X102200000Y-67475000D02*
X102708000Y-67983000D01*
X104994000Y-61252000D02*
X104486000Y-60744000D01*
X104593950Y-62260380D02*
X102700380Y-62260380D01*
X102700380Y-62260380D02*
X102200000Y-61760000D01*
X102200000Y-61379000D02*
X102835000Y-60744000D01*
X102835000Y-60744000D02*
X103597000Y-60744000D01*
X104486000Y-60744000D02*
X104105000Y-60744000D01*
X102200000Y-61760000D02*
X102200000Y-61379000D01*
X106960000Y-67475000D02*
X106137000Y-67475000D01*
X106960000Y-67475000D02*
X107026000Y-67475000D01*
X106137000Y-67475000D02*
X106010000Y-67348000D01*
X106010000Y-67348000D02*
X106010000Y-66586000D01*
X106010000Y-64841020D02*
X106010000Y-66078000D01*
X107026000Y-67475000D02*
X107534000Y-67983000D01*
X107110000Y-66087070D02*
X107426050Y-66403120D01*
X107110000Y-65313500D02*
X107110000Y-66087070D01*
X104910000Y-66098500D02*
X104613000Y-66395500D01*
X104910000Y-65313500D02*
X104910000Y-66098500D01*
X104910000Y-64300000D02*
X102200000Y-64300000D01*
X104613000Y-66395500D02*
X102708000Y-66395500D01*
X102700380Y-52100380D02*
X102200000Y-51600000D01*
X104593950Y-52100380D02*
X102700380Y-52100380D01*
X102835000Y-50584000D02*
X103597000Y-50584000D01*
X104994000Y-51092000D02*
X104486000Y-50584000D01*
X102200000Y-51600000D02*
X102200000Y-51219000D01*
X102200000Y-51219000D02*
X102835000Y-50584000D01*
X104486000Y-50584000D02*
X104105000Y-50584000D01*
X109312000Y-52108000D02*
X109820000Y-51600000D01*
X107110000Y-52405000D02*
X107407000Y-52108000D01*
X107110000Y-53190000D02*
X107110000Y-52405000D01*
X107110000Y-54140000D02*
X109820000Y-54140000D01*
X107407000Y-52108000D02*
X109312000Y-52108000D01*
X109820000Y-51600000D02*
X109820000Y-51346000D01*
X107110000Y-54140000D02*
X106551020Y-54140000D01*
X104910000Y-52416430D02*
X104593950Y-52100380D01*
X104910000Y-53190000D02*
X104910000Y-52416430D01*
X106010000Y-53671370D02*
X106010000Y-52362000D01*
X106551020Y-54140000D02*
X106010000Y-54681020D01*
X105541370Y-54140000D02*
X106010000Y-53671370D01*
X104910000Y-54140000D02*
X105541370Y-54140000D01*
X106960000Y-51092000D02*
X107026000Y-51092000D01*
X107534000Y-50584000D02*
X107915000Y-50584000D01*
X109820000Y-51346000D02*
X109058000Y-50584000D01*
X107026000Y-51092000D02*
X107534000Y-50584000D01*
X106960000Y-51092000D02*
X107026000Y-51092000D01*
X109058000Y-50584000D02*
X108423000Y-50584000D01*
X106010000Y-51219000D02*
X106010000Y-51854000D01*
X105883000Y-51092000D02*
X106010000Y-51219000D01*
X105060000Y-51092000D02*
X105883000Y-51092000D01*
X105060000Y-51092000D02*
X104994000Y-51092000D01*
X107110000Y-64300000D02*
X109820000Y-64300000D01*
X107110000Y-63350000D02*
X107110000Y-62565000D01*
X107110000Y-62565000D02*
X107407000Y-62268000D01*
X107407000Y-62268000D02*
X109312000Y-62268000D01*
X109312000Y-62268000D02*
X109820000Y-61760000D01*
X109820000Y-61506000D02*
X109058000Y-60744000D01*
X107534000Y-60744000D02*
X107915000Y-60744000D01*
X109820000Y-61760000D02*
X109820000Y-61506000D01*
X109058000Y-60744000D02*
X108423000Y-60744000D01*
X109820000Y-66840000D02*
X109820000Y-67221000D01*
X109820000Y-67221000D02*
X109058000Y-67983000D01*
X107534000Y-67983000D02*
X107915000Y-67983000D01*
X109319620Y-66403120D02*
X109820000Y-66903500D01*
X107426050Y-66403120D02*
X109319620Y-66403120D01*
X109058000Y-67983000D02*
X108423000Y-67983000D01*
X105060000Y-61252000D02*
X105883000Y-61252000D01*
X107026000Y-61252000D02*
X107534000Y-60744000D01*
X106960000Y-61252000D02*
X107026000Y-61252000D01*
X105060000Y-61252000D02*
X104994000Y-61252000D01*
X104910000Y-62576430D02*
X104593950Y-62260380D01*
X105883000Y-61252000D02*
X106010000Y-61379000D01*
X106010000Y-61379000D02*
X106010000Y-62014000D01*
X106960000Y-61252000D02*
X107026000Y-61252000D01*
X104910000Y-64300000D02*
X105541370Y-64300000D01*
X106551020Y-64300000D02*
X106010000Y-64841020D01*
X104910000Y-63350000D02*
X104910000Y-62576430D01*
X105541370Y-64300000D02*
X106010000Y-63831370D01*
X106010000Y-63831370D02*
X106010000Y-62522000D01*
X107110000Y-64300000D02*
X106551020Y-64300000D01*
D21*
X106134000Y-83218000D02*
X106134000Y-88298000D01*
X108674000Y-85758000D02*
X106134000Y-88298000D01*
X103594000Y-85758000D02*
X106134000Y-88298000D01*
D22*
X103594000Y-94902000D02*
X103848000Y-94648000D01*
D21*
X106134000Y-88298000D02*
X106134000Y-98458000D01*
X108420000Y-98204000D02*
X108674000Y-98458000D01*
X108420000Y-94648000D02*
X108420000Y-98204000D01*
X103848000Y-94648000D02*
X103848000Y-98204000D01*
X103848000Y-98204000D02*
X103594000Y-98458000D01*
D22*
X90929000Y-94912000D02*
X91183000Y-94658000D01*
D21*
X91183000Y-98214000D02*
X90929000Y-98468000D01*
X91183000Y-94658000D02*
X91183000Y-98214000D01*
X95755000Y-98214000D02*
X96009000Y-98468000D01*
X95755000Y-94658000D02*
X95755000Y-98214000D01*
X93469000Y-88308000D02*
X93469000Y-98468000D01*
X90929000Y-85768000D02*
X93469000Y-88308000D01*
X93469000Y-83228000D02*
X93469000Y-88308000D01*
X96009000Y-85768000D02*
X93469000Y-88308000D01*
X58074000Y-85758000D02*
X55534000Y-88298000D01*
X55534000Y-83218000D02*
X55534000Y-88298000D01*
X52994000Y-85758000D02*
X55534000Y-88298000D01*
X55534000Y-88298000D02*
X55534000Y-98458000D01*
X57820000Y-94648000D02*
X57820000Y-98204000D01*
X57820000Y-98204000D02*
X58074000Y-98458000D01*
X53248000Y-94648000D02*
X53248000Y-98204000D01*
X53248000Y-98204000D02*
X52994000Y-98458000D01*
D22*
X52994000Y-94902000D02*
X53248000Y-94648000D01*
D20*
X54310000Y-64300000D02*
X51600000Y-64300000D01*
X58712000Y-62268000D02*
X59220000Y-61760000D01*
X56807000Y-62268000D02*
X58712000Y-62268000D01*
X56510000Y-62565000D02*
X56807000Y-62268000D01*
X56510000Y-63350000D02*
X56510000Y-62565000D01*
X52100380Y-62260380D02*
X51600000Y-61760000D01*
X53993950Y-62260380D02*
X52100380Y-62260380D01*
X54310000Y-62576430D02*
X53993950Y-62260380D01*
X54310000Y-63350000D02*
X54310000Y-62576430D01*
X56510000Y-65313500D02*
X56510000Y-66087070D01*
X56510000Y-66087070D02*
X56826050Y-66403120D01*
X56826050Y-66403120D02*
X58719620Y-66403120D01*
X58719620Y-66403120D02*
X59220000Y-66903500D01*
X54310000Y-65313500D02*
X54310000Y-66098500D01*
X54310000Y-66098500D02*
X54013000Y-66395500D01*
X54013000Y-66395500D02*
X52108000Y-66395500D01*
X56510000Y-64300000D02*
X59220000Y-64300000D01*
X52235000Y-60744000D02*
X52997000Y-60744000D01*
X51600000Y-61379000D02*
X52235000Y-60744000D01*
X51600000Y-61760000D02*
X51600000Y-61379000D01*
X53886000Y-60744000D02*
X53505000Y-60744000D01*
X54394000Y-61252000D02*
X53886000Y-60744000D01*
X54460000Y-61252000D02*
X54394000Y-61252000D01*
X56360000Y-61252000D02*
X56426000Y-61252000D01*
X58458000Y-60744000D02*
X57823000Y-60744000D01*
X59220000Y-61506000D02*
X58458000Y-60744000D01*
X59220000Y-61760000D02*
X59220000Y-61506000D01*
X56934000Y-60744000D02*
X57315000Y-60744000D01*
X56426000Y-61252000D02*
X56934000Y-60744000D01*
X56360000Y-61252000D02*
X56426000Y-61252000D01*
X53886000Y-67983000D02*
X53505000Y-67983000D01*
X54394000Y-67475000D02*
X53886000Y-67983000D01*
X54460000Y-67475000D02*
X54394000Y-67475000D01*
X52108000Y-66395500D02*
X51600000Y-66903500D01*
X52108000Y-67983000D02*
X52997000Y-67983000D01*
X51600000Y-67475000D02*
X52108000Y-67983000D01*
X51600000Y-66840000D02*
X51600000Y-67475000D01*
X56934000Y-67983000D02*
X57315000Y-67983000D01*
X56426000Y-67475000D02*
X56934000Y-67983000D01*
X56360000Y-67475000D02*
X56426000Y-67475000D01*
X58458000Y-67983000D02*
X57823000Y-67983000D01*
X59220000Y-67221000D02*
X58458000Y-67983000D01*
X59220000Y-66840000D02*
X59220000Y-67221000D01*
X55410000Y-64841020D02*
X55410000Y-66078000D01*
X55951020Y-64300000D02*
X55410000Y-64841020D01*
X56510000Y-64300000D02*
X55951020Y-64300000D01*
X55410000Y-63831370D02*
X55410000Y-62522000D01*
X54941370Y-64300000D02*
X55410000Y-63831370D01*
X54310000Y-64300000D02*
X54941370Y-64300000D01*
X55410000Y-61379000D02*
X55410000Y-62014000D01*
X55283000Y-61252000D02*
X55410000Y-61379000D01*
X54460000Y-61252000D02*
X55283000Y-61252000D01*
X55410000Y-67348000D02*
X55410000Y-66586000D01*
X55537000Y-67475000D02*
X55410000Y-67348000D01*
X56360000Y-67475000D02*
X55537000Y-67475000D01*
X68760000Y-67475000D02*
X67937000Y-67475000D01*
X67937000Y-67475000D02*
X67810000Y-67348000D01*
X67810000Y-67348000D02*
X67810000Y-66586000D01*
X66860000Y-61252000D02*
X67683000Y-61252000D01*
X67683000Y-61252000D02*
X67810000Y-61379000D01*
X67810000Y-61379000D02*
X67810000Y-62014000D01*
X66710000Y-64300000D02*
X67341370Y-64300000D01*
X67341370Y-64300000D02*
X67810000Y-63831370D01*
X67810000Y-63831370D02*
X67810000Y-62522000D01*
X68910000Y-64300000D02*
X68351020Y-64300000D01*
X68351020Y-64300000D02*
X67810000Y-64841020D01*
X67810000Y-64841020D02*
X67810000Y-66078000D01*
X71620000Y-66840000D02*
X71620000Y-67221000D01*
X71620000Y-67221000D02*
X70858000Y-67983000D01*
X70858000Y-67983000D02*
X70223000Y-67983000D01*
X68760000Y-67475000D02*
X68826000Y-67475000D01*
X68826000Y-67475000D02*
X69334000Y-67983000D01*
X69334000Y-67983000D02*
X69715000Y-67983000D01*
X64000000Y-66840000D02*
X64000000Y-67475000D01*
X64000000Y-67475000D02*
X64508000Y-67983000D01*
X64508000Y-67983000D02*
X65397000Y-67983000D01*
X64508000Y-66395500D02*
X64000000Y-66903500D01*
X66860000Y-67475000D02*
X66794000Y-67475000D01*
X66794000Y-67475000D02*
X66286000Y-67983000D01*
X66286000Y-67983000D02*
X65905000Y-67983000D01*
X68760000Y-61252000D02*
X68826000Y-61252000D01*
X68826000Y-61252000D02*
X69334000Y-60744000D01*
X69334000Y-60744000D02*
X69715000Y-60744000D01*
X71620000Y-61760000D02*
X71620000Y-61506000D01*
X71620000Y-61506000D02*
X70858000Y-60744000D01*
X70858000Y-60744000D02*
X70223000Y-60744000D01*
X68760000Y-61252000D02*
X68826000Y-61252000D01*
X66860000Y-61252000D02*
X66794000Y-61252000D01*
X66794000Y-61252000D02*
X66286000Y-60744000D01*
X66286000Y-60744000D02*
X65905000Y-60744000D01*
X64000000Y-61760000D02*
X64000000Y-61379000D01*
X64000000Y-61379000D02*
X64635000Y-60744000D01*
X64635000Y-60744000D02*
X65397000Y-60744000D01*
X68910000Y-64300000D02*
X71620000Y-64300000D01*
X66413000Y-66395500D02*
X64508000Y-66395500D01*
X66710000Y-66098500D02*
X66413000Y-66395500D01*
X66710000Y-65313500D02*
X66710000Y-66098500D01*
X71119620Y-66403120D02*
X71620000Y-66903500D01*
X69226050Y-66403120D02*
X71119620Y-66403120D01*
X68910000Y-66087070D02*
X69226050Y-66403120D01*
X68910000Y-65313500D02*
X68910000Y-66087070D01*
X66710000Y-63350000D02*
X66710000Y-62576430D01*
X66710000Y-62576430D02*
X66393950Y-62260380D01*
X66393950Y-62260380D02*
X64500380Y-62260380D01*
X64500380Y-62260380D02*
X64000000Y-61760000D01*
X68910000Y-63350000D02*
X68910000Y-62565000D01*
X68910000Y-62565000D02*
X69207000Y-62268000D01*
X69207000Y-62268000D02*
X71112000Y-62268000D01*
X71112000Y-62268000D02*
X71620000Y-61760000D01*
X66710000Y-64300000D02*
X64000000Y-64300000D01*
X79772000Y-64300000D02*
X77062000Y-64300000D01*
X84174000Y-62268000D02*
X84682000Y-61760000D01*
X82269000Y-62268000D02*
X84174000Y-62268000D01*
X81972000Y-62565000D02*
X82269000Y-62268000D01*
X81972000Y-63350000D02*
X81972000Y-62565000D01*
X77562380Y-62260380D02*
X77062000Y-61760000D01*
X79455950Y-62260380D02*
X77562380Y-62260380D01*
X79772000Y-62576430D02*
X79455950Y-62260380D01*
X79772000Y-63350000D02*
X79772000Y-62576430D01*
X81972000Y-65313500D02*
X81972000Y-66087070D01*
X81972000Y-66087070D02*
X82288050Y-66403120D01*
X82288050Y-66403120D02*
X84181620Y-66403120D01*
X84181620Y-66403120D02*
X84682000Y-66903500D01*
X79772000Y-65313500D02*
X79772000Y-66098500D01*
X79772000Y-66098500D02*
X79475000Y-66395500D01*
X79475000Y-66395500D02*
X77570000Y-66395500D01*
X81972000Y-64300000D02*
X84682000Y-64300000D01*
X77697000Y-60744000D02*
X78459000Y-60744000D01*
X77062000Y-61379000D02*
X77697000Y-60744000D01*
X77062000Y-61760000D02*
X77062000Y-61379000D01*
X79348000Y-60744000D02*
X78967000Y-60744000D01*
X79856000Y-61252000D02*
X79348000Y-60744000D01*
X79922000Y-61252000D02*
X79856000Y-61252000D01*
X81822000Y-61252000D02*
X81888000Y-61252000D01*
X83920000Y-60744000D02*
X83285000Y-60744000D01*
X84682000Y-61506000D02*
X83920000Y-60744000D01*
X84682000Y-61760000D02*
X84682000Y-61506000D01*
X82396000Y-60744000D02*
X82777000Y-60744000D01*
X81888000Y-61252000D02*
X82396000Y-60744000D01*
X81822000Y-61252000D02*
X81888000Y-61252000D01*
X79348000Y-67983000D02*
X78967000Y-67983000D01*
X79856000Y-67475000D02*
X79348000Y-67983000D01*
X79922000Y-67475000D02*
X79856000Y-67475000D01*
X77570000Y-66395500D02*
X77062000Y-66903500D01*
X77570000Y-67983000D02*
X78459000Y-67983000D01*
X77062000Y-67475000D02*
X77570000Y-67983000D01*
X77062000Y-66840000D02*
X77062000Y-67475000D01*
X82396000Y-67983000D02*
X82777000Y-67983000D01*
X81888000Y-67475000D02*
X82396000Y-67983000D01*
X81822000Y-67475000D02*
X81888000Y-67475000D01*
X83920000Y-67983000D02*
X83285000Y-67983000D01*
X84682000Y-67221000D02*
X83920000Y-67983000D01*
X84682000Y-66840000D02*
X84682000Y-67221000D01*
X80872000Y-64841020D02*
X80872000Y-66078000D01*
X81413020Y-64300000D02*
X80872000Y-64841020D01*
X81972000Y-64300000D02*
X81413020Y-64300000D01*
X80872000Y-63831370D02*
X80872000Y-62522000D01*
X80403370Y-64300000D02*
X80872000Y-63831370D01*
X79772000Y-64300000D02*
X80403370Y-64300000D01*
X80872000Y-61379000D02*
X80872000Y-62014000D01*
X80745000Y-61252000D02*
X80872000Y-61379000D01*
X79922000Y-61252000D02*
X80745000Y-61252000D01*
X80872000Y-67348000D02*
X80872000Y-66586000D01*
X80999000Y-67475000D02*
X80872000Y-67348000D01*
X81822000Y-67475000D02*
X80999000Y-67475000D01*
X94522000Y-67475000D02*
X93699000Y-67475000D01*
X93699000Y-67475000D02*
X93572000Y-67348000D01*
X93572000Y-67348000D02*
X93572000Y-66586000D01*
X92622000Y-61252000D02*
X93445000Y-61252000D01*
X93445000Y-61252000D02*
X93572000Y-61379000D01*
X93572000Y-61379000D02*
X93572000Y-62014000D01*
X92472000Y-64300000D02*
X93103370Y-64300000D01*
X93103370Y-64300000D02*
X93572000Y-63831370D01*
X93572000Y-63831370D02*
X93572000Y-62522000D01*
X94672000Y-64300000D02*
X94113020Y-64300000D01*
X94113020Y-64300000D02*
X93572000Y-64841020D01*
X93572000Y-64841020D02*
X93572000Y-66078000D01*
X97382000Y-66840000D02*
X97382000Y-67221000D01*
X97382000Y-67221000D02*
X96620000Y-67983000D01*
X96620000Y-67983000D02*
X95985000Y-67983000D01*
X94522000Y-67475000D02*
X94588000Y-67475000D01*
X94588000Y-67475000D02*
X95096000Y-67983000D01*
X95096000Y-67983000D02*
X95477000Y-67983000D01*
X89762000Y-66840000D02*
X89762000Y-67475000D01*
X89762000Y-67475000D02*
X90270000Y-67983000D01*
X90270000Y-67983000D02*
X91159000Y-67983000D01*
X90270000Y-66395500D02*
X89762000Y-66903500D01*
X92622000Y-67475000D02*
X92556000Y-67475000D01*
X92556000Y-67475000D02*
X92048000Y-67983000D01*
X92048000Y-67983000D02*
X91667000Y-67983000D01*
X94522000Y-61252000D02*
X94588000Y-61252000D01*
X94588000Y-61252000D02*
X95096000Y-60744000D01*
X95096000Y-60744000D02*
X95477000Y-60744000D01*
X97382000Y-61760000D02*
X97382000Y-61506000D01*
X97382000Y-61506000D02*
X96620000Y-60744000D01*
X96620000Y-60744000D02*
X95985000Y-60744000D01*
X94522000Y-61252000D02*
X94588000Y-61252000D01*
X92622000Y-61252000D02*
X92556000Y-61252000D01*
X92556000Y-61252000D02*
X92048000Y-60744000D01*
X92048000Y-60744000D02*
X91667000Y-60744000D01*
X89762000Y-61760000D02*
X89762000Y-61379000D01*
X89762000Y-61379000D02*
X90397000Y-60744000D01*
X90397000Y-60744000D02*
X91159000Y-60744000D01*
X94672000Y-64300000D02*
X97382000Y-64300000D01*
X92175000Y-66395500D02*
X90270000Y-66395500D01*
X92472000Y-66098500D02*
X92175000Y-66395500D01*
X92472000Y-65313500D02*
X92472000Y-66098500D01*
X96881620Y-66403120D02*
X97382000Y-66903500D01*
X94988050Y-66403120D02*
X96881620Y-66403120D01*
X94672000Y-66087070D02*
X94988050Y-66403120D01*
X94672000Y-65313500D02*
X94672000Y-66087070D01*
X92472000Y-63350000D02*
X92472000Y-62576430D01*
X92472000Y-62576430D02*
X92155950Y-62260380D01*
X92155950Y-62260380D02*
X90262380Y-62260380D01*
X90262380Y-62260380D02*
X89762000Y-61760000D01*
X94672000Y-63350000D02*
X94672000Y-62565000D01*
X94672000Y-62565000D02*
X94969000Y-62268000D01*
X94969000Y-62268000D02*
X96874000Y-62268000D01*
X96874000Y-62268000D02*
X97382000Y-61760000D01*
X92472000Y-64300000D02*
X89762000Y-64300000D01*
X92472000Y-54140000D02*
X89762000Y-54140000D01*
X96874000Y-52108000D02*
X97382000Y-51600000D01*
X94969000Y-52108000D02*
X96874000Y-52108000D01*
X94672000Y-52405000D02*
X94969000Y-52108000D01*
X94672000Y-53190000D02*
X94672000Y-52405000D01*
X90262380Y-52100380D02*
X89762000Y-51600000D01*
X92155950Y-52100380D02*
X90262380Y-52100380D01*
X92472000Y-52416430D02*
X92155950Y-52100380D01*
X92472000Y-53190000D02*
X92472000Y-52416430D01*
X94672000Y-55153500D02*
X94672000Y-55927070D01*
X94672000Y-55927070D02*
X94988050Y-56243120D01*
X94988050Y-56243120D02*
X96881620Y-56243120D01*
X96881620Y-56243120D02*
X97382000Y-56743500D01*
X92472000Y-55153500D02*
X92472000Y-55938500D01*
X92472000Y-55938500D02*
X92175000Y-56235500D01*
X92175000Y-56235500D02*
X90270000Y-56235500D01*
X94672000Y-54140000D02*
X97382000Y-54140000D01*
X90397000Y-50584000D02*
X91159000Y-50584000D01*
X89762000Y-51219000D02*
X90397000Y-50584000D01*
X89762000Y-51600000D02*
X89762000Y-51219000D01*
X92048000Y-50584000D02*
X91667000Y-50584000D01*
X92556000Y-51092000D02*
X92048000Y-50584000D01*
X92622000Y-51092000D02*
X92556000Y-51092000D01*
X94522000Y-51092000D02*
X94588000Y-51092000D01*
X96620000Y-50584000D02*
X95985000Y-50584000D01*
X97382000Y-51346000D02*
X96620000Y-50584000D01*
X97382000Y-51600000D02*
X97382000Y-51346000D01*
X95096000Y-50584000D02*
X95477000Y-50584000D01*
X94588000Y-51092000D02*
X95096000Y-50584000D01*
X94522000Y-51092000D02*
X94588000Y-51092000D01*
X92048000Y-57823000D02*
X91667000Y-57823000D01*
X92556000Y-57315000D02*
X92048000Y-57823000D01*
X92622000Y-57315000D02*
X92556000Y-57315000D01*
X90270000Y-56235500D02*
X89762000Y-56743500D01*
X90270000Y-57823000D02*
X91159000Y-57823000D01*
X89762000Y-57315000D02*
X90270000Y-57823000D01*
X89762000Y-56680000D02*
X89762000Y-57315000D01*
X95096000Y-57823000D02*
X95477000Y-57823000D01*
X94588000Y-57315000D02*
X95096000Y-57823000D01*
X94522000Y-57315000D02*
X94588000Y-57315000D01*
X96620000Y-57823000D02*
X95985000Y-57823000D01*
X97382000Y-57061000D02*
X96620000Y-57823000D01*
X97382000Y-56680000D02*
X97382000Y-57061000D01*
X93572000Y-54681020D02*
X93572000Y-55918000D01*
X94113020Y-54140000D02*
X93572000Y-54681020D01*
X94672000Y-54140000D02*
X94113020Y-54140000D01*
X93572000Y-53671370D02*
X93572000Y-52362000D01*
X93103370Y-54140000D02*
X93572000Y-53671370D01*
X92472000Y-54140000D02*
X93103370Y-54140000D01*
X93572000Y-51219000D02*
X93572000Y-51854000D01*
X93445000Y-51092000D02*
X93572000Y-51219000D01*
X92622000Y-51092000D02*
X93445000Y-51092000D01*
X93572000Y-57188000D02*
X93572000Y-56426000D01*
X93699000Y-57315000D02*
X93572000Y-57188000D01*
X94522000Y-57315000D02*
X93699000Y-57315000D01*
X81822000Y-57315000D02*
X80999000Y-57315000D01*
X80999000Y-57315000D02*
X80872000Y-57188000D01*
X80872000Y-57188000D02*
X80872000Y-56426000D01*
X79922000Y-51092000D02*
X80745000Y-51092000D01*
X80745000Y-51092000D02*
X80872000Y-51219000D01*
X80872000Y-51219000D02*
X80872000Y-51854000D01*
X79772000Y-54140000D02*
X80403370Y-54140000D01*
X80403370Y-54140000D02*
X80872000Y-53671370D01*
X80872000Y-53671370D02*
X80872000Y-52362000D01*
X81972000Y-54140000D02*
X81413020Y-54140000D01*
X81413020Y-54140000D02*
X80872000Y-54681020D01*
X80872000Y-54681020D02*
X80872000Y-55918000D01*
X84682000Y-56680000D02*
X84682000Y-57061000D01*
X84682000Y-57061000D02*
X83920000Y-57823000D01*
X83920000Y-57823000D02*
X83285000Y-57823000D01*
X81822000Y-57315000D02*
X81888000Y-57315000D01*
X81888000Y-57315000D02*
X82396000Y-57823000D01*
X82396000Y-57823000D02*
X82777000Y-57823000D01*
X77062000Y-56680000D02*
X77062000Y-57315000D01*
X77062000Y-57315000D02*
X77570000Y-57823000D01*
X77570000Y-57823000D02*
X78459000Y-57823000D01*
X77570000Y-56235500D02*
X77062000Y-56743500D01*
X79922000Y-57315000D02*
X79856000Y-57315000D01*
X79856000Y-57315000D02*
X79348000Y-57823000D01*
X79348000Y-57823000D02*
X78967000Y-57823000D01*
X81822000Y-51092000D02*
X81888000Y-51092000D01*
X81888000Y-51092000D02*
X82396000Y-50584000D01*
X82396000Y-50584000D02*
X82777000Y-50584000D01*
X84682000Y-51600000D02*
X84682000Y-51346000D01*
X84682000Y-51346000D02*
X83920000Y-50584000D01*
X83920000Y-50584000D02*
X83285000Y-50584000D01*
X81822000Y-51092000D02*
X81888000Y-51092000D01*
X79922000Y-51092000D02*
X79856000Y-51092000D01*
X79856000Y-51092000D02*
X79348000Y-50584000D01*
X79348000Y-50584000D02*
X78967000Y-50584000D01*
X77062000Y-51600000D02*
X77062000Y-51219000D01*
X77062000Y-51219000D02*
X77697000Y-50584000D01*
X77697000Y-50584000D02*
X78459000Y-50584000D01*
X81972000Y-54140000D02*
X84682000Y-54140000D01*
X79475000Y-56235500D02*
X77570000Y-56235500D01*
X79772000Y-55938500D02*
X79475000Y-56235500D01*
X79772000Y-55153500D02*
X79772000Y-55938500D01*
X84181620Y-56243120D02*
X84682000Y-56743500D01*
X82288050Y-56243120D02*
X84181620Y-56243120D01*
X81972000Y-55927070D02*
X82288050Y-56243120D01*
X81972000Y-55153500D02*
X81972000Y-55927070D01*
X79772000Y-53190000D02*
X79772000Y-52416430D01*
X79772000Y-52416430D02*
X79455950Y-52100380D01*
X79455950Y-52100380D02*
X77562380Y-52100380D01*
X77562380Y-52100380D02*
X77062000Y-51600000D01*
X81972000Y-53190000D02*
X81972000Y-52405000D01*
X81972000Y-52405000D02*
X82269000Y-52108000D01*
X82269000Y-52108000D02*
X84174000Y-52108000D01*
X84174000Y-52108000D02*
X84682000Y-51600000D01*
X79772000Y-54140000D02*
X77062000Y-54140000D01*
X66710000Y-54140000D02*
X64000000Y-54140000D01*
X71112000Y-52108000D02*
X71620000Y-51600000D01*
X69207000Y-52108000D02*
X71112000Y-52108000D01*
X68910000Y-52405000D02*
X69207000Y-52108000D01*
X68910000Y-53190000D02*
X68910000Y-52405000D01*
X64500380Y-52100380D02*
X64000000Y-51600000D01*
X66393950Y-52100380D02*
X64500380Y-52100380D01*
X66710000Y-52416430D02*
X66393950Y-52100380D01*
X66710000Y-53190000D02*
X66710000Y-52416430D01*
X68910000Y-55153500D02*
X68910000Y-55927070D01*
X68910000Y-55927070D02*
X69226050Y-56243120D01*
X69226050Y-56243120D02*
X71119620Y-56243120D01*
X71119620Y-56243120D02*
X71620000Y-56743500D01*
X66710000Y-55153500D02*
X66710000Y-55938500D01*
X66710000Y-55938500D02*
X66413000Y-56235500D01*
X66413000Y-56235500D02*
X64508000Y-56235500D01*
X68910000Y-54140000D02*
X71620000Y-54140000D01*
X64635000Y-50584000D02*
X65397000Y-50584000D01*
X64000000Y-51219000D02*
X64635000Y-50584000D01*
X64000000Y-51600000D02*
X64000000Y-51219000D01*
X66286000Y-50584000D02*
X65905000Y-50584000D01*
X66794000Y-51092000D02*
X66286000Y-50584000D01*
X66860000Y-51092000D02*
X66794000Y-51092000D01*
X68760000Y-51092000D02*
X68826000Y-51092000D01*
X70858000Y-50584000D02*
X70223000Y-50584000D01*
X71620000Y-51346000D02*
X70858000Y-50584000D01*
X71620000Y-51600000D02*
X71620000Y-51346000D01*
X69334000Y-50584000D02*
X69715000Y-50584000D01*
X68826000Y-51092000D02*
X69334000Y-50584000D01*
X68760000Y-51092000D02*
X68826000Y-51092000D01*
X66286000Y-57823000D02*
X65905000Y-57823000D01*
X66794000Y-57315000D02*
X66286000Y-57823000D01*
X66860000Y-57315000D02*
X66794000Y-57315000D01*
X64508000Y-56235500D02*
X64000000Y-56743500D01*
X64508000Y-57823000D02*
X65397000Y-57823000D01*
X64000000Y-57315000D02*
X64508000Y-57823000D01*
X64000000Y-56680000D02*
X64000000Y-57315000D01*
X69334000Y-57823000D02*
X69715000Y-57823000D01*
X68826000Y-57315000D02*
X69334000Y-57823000D01*
X68760000Y-57315000D02*
X68826000Y-57315000D01*
X70858000Y-57823000D02*
X70223000Y-57823000D01*
X71620000Y-57061000D02*
X70858000Y-57823000D01*
X71620000Y-56680000D02*
X71620000Y-57061000D01*
X67810000Y-54681020D02*
X67810000Y-55918000D01*
X68351020Y-54140000D02*
X67810000Y-54681020D01*
X68910000Y-54140000D02*
X68351020Y-54140000D01*
X67810000Y-53671370D02*
X67810000Y-52362000D01*
X67341370Y-54140000D02*
X67810000Y-53671370D01*
X66710000Y-54140000D02*
X67341370Y-54140000D01*
X67810000Y-51219000D02*
X67810000Y-51854000D01*
X67683000Y-51092000D02*
X67810000Y-51219000D01*
X66860000Y-51092000D02*
X67683000Y-51092000D01*
X67810000Y-57188000D02*
X67810000Y-56426000D01*
X67937000Y-57315000D02*
X67810000Y-57188000D01*
X68760000Y-57315000D02*
X67937000Y-57315000D01*
X56360000Y-57315000D02*
X55537000Y-57315000D01*
X55537000Y-57315000D02*
X55410000Y-57188000D01*
X55410000Y-57188000D02*
X55410000Y-56426000D01*
X54460000Y-51092000D02*
X55283000Y-51092000D01*
X55283000Y-51092000D02*
X55410000Y-51219000D01*
X55410000Y-51219000D02*
X55410000Y-51854000D01*
X54310000Y-54140000D02*
X54941370Y-54140000D01*
X54941370Y-54140000D02*
X55410000Y-53671370D01*
X55410000Y-53671370D02*
X55410000Y-52362000D01*
X56510000Y-54140000D02*
X55951020Y-54140000D01*
X55951020Y-54140000D02*
X55410000Y-54681020D01*
X55410000Y-54681020D02*
X55410000Y-55918000D01*
X59220000Y-56680000D02*
X59220000Y-57061000D01*
X59220000Y-57061000D02*
X58458000Y-57823000D01*
X58458000Y-57823000D02*
X57823000Y-57823000D01*
X56360000Y-57315000D02*
X56426000Y-57315000D01*
X56426000Y-57315000D02*
X56934000Y-57823000D01*
X56934000Y-57823000D02*
X57315000Y-57823000D01*
X51600000Y-56680000D02*
X51600000Y-57315000D01*
X51600000Y-57315000D02*
X52108000Y-57823000D01*
X52108000Y-57823000D02*
X52997000Y-57823000D01*
X52108000Y-56235500D02*
X51600000Y-56743500D01*
X54460000Y-57315000D02*
X54394000Y-57315000D01*
X54394000Y-57315000D02*
X53886000Y-57823000D01*
X53886000Y-57823000D02*
X53505000Y-57823000D01*
X56360000Y-51092000D02*
X56426000Y-51092000D01*
X56426000Y-51092000D02*
X56934000Y-50584000D01*
X56934000Y-50584000D02*
X57315000Y-50584000D01*
X59220000Y-51600000D02*
X59220000Y-51346000D01*
X59220000Y-51346000D02*
X58458000Y-50584000D01*
X58458000Y-50584000D02*
X57823000Y-50584000D01*
X56360000Y-51092000D02*
X56426000Y-51092000D01*
X54460000Y-51092000D02*
X54394000Y-51092000D01*
X54394000Y-51092000D02*
X53886000Y-50584000D01*
X53886000Y-50584000D02*
X53505000Y-50584000D01*
X51600000Y-51600000D02*
X51600000Y-51219000D01*
X51600000Y-51219000D02*
X52235000Y-50584000D01*
X52235000Y-50584000D02*
X52997000Y-50584000D01*
X56510000Y-54140000D02*
X59220000Y-54140000D01*
X54013000Y-56235500D02*
X52108000Y-56235500D01*
X54310000Y-55938500D02*
X54013000Y-56235500D01*
X54310000Y-55153500D02*
X54310000Y-55938500D01*
X58719620Y-56243120D02*
X59220000Y-56743500D01*
X56826050Y-56243120D02*
X58719620Y-56243120D01*
X56510000Y-55927070D02*
X56826050Y-56243120D01*
X56510000Y-55153500D02*
X56510000Y-55927070D01*
X54310000Y-53190000D02*
X54310000Y-52416430D01*
X54310000Y-52416430D02*
X53993950Y-52100380D01*
X53993950Y-52100380D02*
X52100380Y-52100380D01*
X52100380Y-52100380D02*
X51600000Y-51600000D01*
X56510000Y-53190000D02*
X56510000Y-52405000D01*
X56510000Y-52405000D02*
X56807000Y-52108000D01*
X56807000Y-52108000D02*
X58712000Y-52108000D01*
X58712000Y-52108000D02*
X59220000Y-51600000D01*
X54310000Y-54140000D02*
X51600000Y-54140000D01*
M02*
