G04 #@! TF.FileFunction,Profile,NP*
%FSLAX46Y46*%
G04 Gerber Fmt 4.6, Leading zero omitted, Abs format (unit mm)*
G04 Created by KiCad (PCBNEW 4.0.7+dfsg1-1) date Sun Nov 19 14:40:27 2017*
%MOMM*%
%LPD*%
G01*
G04 APERTURE LIST*
%ADD10C,0.100000*%
G04 APERTURE END LIST*
D10*
X98500000Y-59350000D02*
G75*
G03X98500000Y-59350000I-250000J0D01*
G01*
X89250000Y-59350000D02*
G75*
G03X89250000Y-59350000I-250000J0D01*
G01*
X89050000Y-59100000D02*
X98250000Y-59100000D01*
X89000000Y-59600000D02*
X89000000Y-59100000D01*
X98250000Y-59600000D02*
X89050000Y-59600000D01*
X98250000Y-59100000D02*
X98250000Y-59600000D01*
X76500000Y-59350000D02*
G75*
G03X76500000Y-59350000I-250000J0D01*
G01*
X85750000Y-59350000D02*
G75*
G03X85750000Y-59350000I-250000J0D01*
G01*
X76250000Y-59600000D02*
X76250000Y-59100000D01*
X76300000Y-59100000D02*
X85500000Y-59100000D01*
X85500000Y-59100000D02*
X85500000Y-59600000D01*
X85500000Y-59600000D02*
X76300000Y-59600000D01*
X127050000Y-59100000D02*
X136250000Y-59100000D01*
X136250000Y-59100000D02*
X136250000Y-59600000D01*
X127000000Y-59600000D02*
X127000000Y-59100000D01*
X136250000Y-59600000D02*
X127050000Y-59600000D01*
X136500000Y-59350000D02*
G75*
G03X136500000Y-59350000I-250000J0D01*
G01*
X123500000Y-59350000D02*
G75*
G03X123500000Y-59350000I-250000J0D01*
G01*
X123250000Y-59100000D02*
X123250000Y-59600000D01*
X123250000Y-59600000D02*
X114050000Y-59600000D01*
X114050000Y-59100000D02*
X123250000Y-59100000D01*
X110750000Y-59100000D02*
X110750000Y-59600000D01*
X114250000Y-59350000D02*
G75*
G03X114250000Y-59350000I-250000J0D01*
G01*
X101550000Y-59100000D02*
X110750000Y-59100000D01*
X110750000Y-59600000D02*
X101550000Y-59600000D01*
X114000000Y-59600000D02*
X114000000Y-59100000D01*
X101500000Y-59600000D02*
X101500000Y-59100000D01*
X127250000Y-59350000D02*
G75*
G03X127250000Y-59350000I-250000J0D01*
G01*
X101750000Y-59350000D02*
G75*
G03X101750000Y-59350000I-250000J0D01*
G01*
X111000000Y-59350000D02*
G75*
G03X111000000Y-59350000I-250000J0D01*
G01*
X139550000Y-59100000D02*
X148750000Y-59100000D01*
X148750000Y-59100000D02*
X148750000Y-59600000D01*
X139500000Y-59600000D02*
X139500000Y-59100000D01*
X148750000Y-59600000D02*
X139550000Y-59600000D01*
X139750000Y-59350000D02*
G75*
G03X139750000Y-59350000I-250000J0D01*
G01*
X149000000Y-59350000D02*
G75*
G03X149000000Y-59350000I-250000J0D01*
G01*
X63550000Y-59600000D02*
X63550000Y-59100000D01*
X72500000Y-59600000D02*
X63550000Y-59600000D01*
X72500000Y-59100000D02*
X72500000Y-59600000D01*
X63550000Y-59100000D02*
X72500000Y-59100000D01*
X59750000Y-59100000D02*
X59750000Y-59600000D01*
X51250000Y-59100000D02*
X59750000Y-59100000D01*
X51250000Y-59600000D02*
X51250000Y-59100000D01*
X59750000Y-59600000D02*
X51250000Y-59600000D01*
X72750000Y-59350000D02*
G75*
G03X72750000Y-59350000I-250000J0D01*
G01*
X63800000Y-59350000D02*
G75*
G03X63800000Y-59350000I-250000J0D01*
G01*
X60000000Y-59350000D02*
G75*
G03X60000000Y-59350000I-250000J0D01*
G01*
X51500000Y-59350000D02*
G75*
G03X51500000Y-59350000I-250000J0D01*
G01*
X98500000Y-69600000D02*
G75*
G03X98500000Y-69600000I-250000J0D01*
G01*
X89250000Y-69600000D02*
G75*
G03X89250000Y-69600000I-250000J0D01*
G01*
X89050000Y-69350000D02*
X98250000Y-69350000D01*
X89000000Y-69850000D02*
X89000000Y-69350000D01*
X98250000Y-69850000D02*
X89050000Y-69850000D01*
X98250000Y-69350000D02*
X98250000Y-69850000D01*
X76500000Y-69600000D02*
G75*
G03X76500000Y-69600000I-250000J0D01*
G01*
X85750000Y-69600000D02*
G75*
G03X85750000Y-69600000I-250000J0D01*
G01*
X76250000Y-69850000D02*
X76250000Y-69350000D01*
X76300000Y-69350000D02*
X85500000Y-69350000D01*
X85500000Y-69350000D02*
X85500000Y-69850000D01*
X85500000Y-69850000D02*
X76300000Y-69850000D01*
X127050000Y-69350000D02*
X136250000Y-69350000D01*
X136250000Y-69350000D02*
X136250000Y-69850000D01*
X127000000Y-69850000D02*
X127000000Y-69350000D01*
X136250000Y-69850000D02*
X127050000Y-69850000D01*
X136500000Y-69600000D02*
G75*
G03X136500000Y-69600000I-250000J0D01*
G01*
X123500000Y-69600000D02*
G75*
G03X123500000Y-69600000I-250000J0D01*
G01*
X123250000Y-69350000D02*
X123250000Y-69850000D01*
X123250000Y-69850000D02*
X114050000Y-69850000D01*
X114050000Y-69350000D02*
X123250000Y-69350000D01*
X110750000Y-69350000D02*
X110750000Y-69850000D01*
X114250000Y-69600000D02*
G75*
G03X114250000Y-69600000I-250000J0D01*
G01*
X101550000Y-69350000D02*
X110750000Y-69350000D01*
X110750000Y-69850000D02*
X101550000Y-69850000D01*
X114000000Y-69850000D02*
X114000000Y-69350000D01*
X101500000Y-69850000D02*
X101500000Y-69350000D01*
X127250000Y-69600000D02*
G75*
G03X127250000Y-69600000I-250000J0D01*
G01*
X101750000Y-69600000D02*
G75*
G03X101750000Y-69600000I-250000J0D01*
G01*
X111000000Y-69600000D02*
G75*
G03X111000000Y-69600000I-250000J0D01*
G01*
X139550000Y-69350000D02*
X148750000Y-69350000D01*
X148750000Y-69350000D02*
X148750000Y-69850000D01*
X139500000Y-69850000D02*
X139500000Y-69350000D01*
X148750000Y-69850000D02*
X139550000Y-69850000D01*
X139750000Y-69600000D02*
G75*
G03X139750000Y-69600000I-250000J0D01*
G01*
X149000000Y-69600000D02*
G75*
G03X149000000Y-69600000I-250000J0D01*
G01*
X63550000Y-69850000D02*
X63550000Y-69350000D01*
X72500000Y-69850000D02*
X63550000Y-69850000D01*
X72500000Y-69350000D02*
X72500000Y-69850000D01*
X63550000Y-69350000D02*
X72500000Y-69350000D01*
X59750000Y-69350000D02*
X59750000Y-69850000D01*
X51250000Y-69350000D02*
X59750000Y-69350000D01*
X51250000Y-69850000D02*
X51250000Y-69350000D01*
X59750000Y-69850000D02*
X51250000Y-69850000D01*
X72750000Y-69600000D02*
G75*
G03X72750000Y-69600000I-250000J0D01*
G01*
X63800000Y-69600000D02*
G75*
G03X63800000Y-69600000I-250000J0D01*
G01*
X60000000Y-69600000D02*
G75*
G03X60000000Y-69600000I-250000J0D01*
G01*
X51500000Y-69600000D02*
G75*
G03X51500000Y-69600000I-250000J0D01*
G01*
X98500000Y-81350000D02*
G75*
G03X98500000Y-81350000I-250000J0D01*
G01*
X89250000Y-81350000D02*
G75*
G03X89250000Y-81350000I-250000J0D01*
G01*
X89050000Y-81100000D02*
X98250000Y-81100000D01*
X89000000Y-81600000D02*
X89000000Y-81100000D01*
X98250000Y-81600000D02*
X89050000Y-81600000D01*
X98250000Y-81100000D02*
X98250000Y-81600000D01*
X76500000Y-81350000D02*
G75*
G03X76500000Y-81350000I-250000J0D01*
G01*
X85750000Y-81350000D02*
G75*
G03X85750000Y-81350000I-250000J0D01*
G01*
X76250000Y-81600000D02*
X76250000Y-81100000D01*
X76300000Y-81100000D02*
X85500000Y-81100000D01*
X85500000Y-81100000D02*
X85500000Y-81600000D01*
X85500000Y-81600000D02*
X76300000Y-81600000D01*
X127050000Y-81100000D02*
X136250000Y-81100000D01*
X136250000Y-81100000D02*
X136250000Y-81600000D01*
X127000000Y-81600000D02*
X127000000Y-81100000D01*
X136250000Y-81600000D02*
X127050000Y-81600000D01*
X136500000Y-81350000D02*
G75*
G03X136500000Y-81350000I-250000J0D01*
G01*
X123500000Y-81350000D02*
G75*
G03X123500000Y-81350000I-250000J0D01*
G01*
X123250000Y-81100000D02*
X123250000Y-81600000D01*
X123250000Y-81600000D02*
X114050000Y-81600000D01*
X114050000Y-81100000D02*
X123250000Y-81100000D01*
X110750000Y-81100000D02*
X110750000Y-81600000D01*
X114250000Y-81350000D02*
G75*
G03X114250000Y-81350000I-250000J0D01*
G01*
X101550000Y-81100000D02*
X110750000Y-81100000D01*
X110750000Y-81600000D02*
X101550000Y-81600000D01*
X114000000Y-81600000D02*
X114000000Y-81100000D01*
X101500000Y-81600000D02*
X101500000Y-81100000D01*
X127250000Y-81350000D02*
G75*
G03X127250000Y-81350000I-250000J0D01*
G01*
X101750000Y-81350000D02*
G75*
G03X101750000Y-81350000I-250000J0D01*
G01*
X111000000Y-81350000D02*
G75*
G03X111000000Y-81350000I-250000J0D01*
G01*
X139550000Y-81100000D02*
X148750000Y-81100000D01*
X148750000Y-81100000D02*
X148750000Y-81600000D01*
X139500000Y-81600000D02*
X139500000Y-81100000D01*
X148750000Y-81600000D02*
X139550000Y-81600000D01*
X139750000Y-81350000D02*
G75*
G03X139750000Y-81350000I-250000J0D01*
G01*
X149000000Y-81350000D02*
G75*
G03X149000000Y-81350000I-250000J0D01*
G01*
X63550000Y-81600000D02*
X63550000Y-81100000D01*
X72500000Y-81600000D02*
X63550000Y-81600000D01*
X72500000Y-81100000D02*
X72500000Y-81600000D01*
X63550000Y-81100000D02*
X72500000Y-81100000D01*
X59750000Y-81100000D02*
X59750000Y-81600000D01*
X51250000Y-81100000D02*
X59750000Y-81100000D01*
X51250000Y-81600000D02*
X51250000Y-81100000D01*
X59750000Y-81600000D02*
X51250000Y-81600000D01*
X72750000Y-81350000D02*
G75*
G03X72750000Y-81350000I-250000J0D01*
G01*
X63800000Y-81350000D02*
G75*
G03X63800000Y-81350000I-250000J0D01*
G01*
X60000000Y-81350000D02*
G75*
G03X60000000Y-81350000I-250000J0D01*
G01*
X51500000Y-81350000D02*
G75*
G03X51500000Y-81350000I-250000J0D01*
G01*
X98500000Y-100100000D02*
G75*
G03X98500000Y-100100000I-250000J0D01*
G01*
X89250000Y-100100000D02*
G75*
G03X89250000Y-100100000I-250000J0D01*
G01*
X89050000Y-99850000D02*
X98250000Y-99850000D01*
X89000000Y-100350000D02*
X89000000Y-99850000D01*
X98250000Y-100350000D02*
X89050000Y-100350000D01*
X98250000Y-99850000D02*
X98250000Y-100350000D01*
X76500000Y-100100000D02*
G75*
G03X76500000Y-100100000I-250000J0D01*
G01*
X85750000Y-100100000D02*
G75*
G03X85750000Y-100100000I-250000J0D01*
G01*
X76250000Y-100350000D02*
X76250000Y-99850000D01*
X76300000Y-99850000D02*
X85500000Y-99850000D01*
X85500000Y-99850000D02*
X85500000Y-100350000D01*
X85500000Y-100350000D02*
X76300000Y-100350000D01*
X127050000Y-99850000D02*
X136250000Y-99850000D01*
X136250000Y-99850000D02*
X136250000Y-100350000D01*
X127000000Y-100350000D02*
X127000000Y-99850000D01*
X136250000Y-100350000D02*
X127050000Y-100350000D01*
X136500000Y-100100000D02*
G75*
G03X136500000Y-100100000I-250000J0D01*
G01*
X123500000Y-100100000D02*
G75*
G03X123500000Y-100100000I-250000J0D01*
G01*
X123250000Y-99850000D02*
X123250000Y-100350000D01*
X123250000Y-100350000D02*
X114050000Y-100350000D01*
X114050000Y-99850000D02*
X123250000Y-99850000D01*
X110750000Y-99850000D02*
X110750000Y-100350000D01*
X114250000Y-100100000D02*
G75*
G03X114250000Y-100100000I-250000J0D01*
G01*
X101550000Y-99850000D02*
X110750000Y-99850000D01*
X110750000Y-100350000D02*
X101550000Y-100350000D01*
X114000000Y-100350000D02*
X114000000Y-99850000D01*
X101500000Y-100350000D02*
X101500000Y-99850000D01*
X127250000Y-100100000D02*
G75*
G03X127250000Y-100100000I-250000J0D01*
G01*
X101750000Y-100100000D02*
G75*
G03X101750000Y-100100000I-250000J0D01*
G01*
X111000000Y-100100000D02*
G75*
G03X111000000Y-100100000I-250000J0D01*
G01*
X139550000Y-99850000D02*
X148750000Y-99850000D01*
X148750000Y-99850000D02*
X148750000Y-100350000D01*
X139500000Y-100350000D02*
X139500000Y-99850000D01*
X148750000Y-100350000D02*
X139550000Y-100350000D01*
X139750000Y-100100000D02*
G75*
G03X139750000Y-100100000I-250000J0D01*
G01*
X149000000Y-100100000D02*
G75*
G03X149000000Y-100100000I-250000J0D01*
G01*
X63550000Y-100350000D02*
X63550000Y-99850000D01*
X72500000Y-100350000D02*
X63550000Y-100350000D01*
X72500000Y-99850000D02*
X72500000Y-100350000D01*
X63550000Y-99850000D02*
X72500000Y-99850000D01*
X59750000Y-99850000D02*
X59750000Y-100350000D01*
X51250000Y-99850000D02*
X59750000Y-99850000D01*
X51250000Y-100350000D02*
X51250000Y-99850000D01*
X59750000Y-100350000D02*
X51250000Y-100350000D01*
X72750000Y-100100000D02*
G75*
G03X72750000Y-100100000I-250000J0D01*
G01*
X63800000Y-100100000D02*
G75*
G03X63800000Y-100100000I-250000J0D01*
G01*
X60000000Y-100100000D02*
G75*
G03X60000000Y-100100000I-250000J0D01*
G01*
X51500000Y-100100000D02*
G75*
G03X51500000Y-100100000I-250000J0D01*
G01*
X98500000Y-109600000D02*
G75*
G03X98500000Y-109600000I-250000J0D01*
G01*
X89250000Y-109600000D02*
G75*
G03X89250000Y-109600000I-250000J0D01*
G01*
X89050000Y-109350000D02*
X98250000Y-109350000D01*
X89000000Y-109850000D02*
X89000000Y-109350000D01*
X98250000Y-109850000D02*
X89050000Y-109850000D01*
X98250000Y-109350000D02*
X98250000Y-109850000D01*
X76500000Y-109600000D02*
G75*
G03X76500000Y-109600000I-250000J0D01*
G01*
X85750000Y-109600000D02*
G75*
G03X85750000Y-109600000I-250000J0D01*
G01*
X76250000Y-109850000D02*
X76250000Y-109350000D01*
X76300000Y-109350000D02*
X85500000Y-109350000D01*
X85500000Y-109350000D02*
X85500000Y-109850000D01*
X85500000Y-109850000D02*
X76300000Y-109850000D01*
X127050000Y-109350000D02*
X136250000Y-109350000D01*
X136250000Y-109350000D02*
X136250000Y-109850000D01*
X127000000Y-109850000D02*
X127000000Y-109350000D01*
X136250000Y-109850000D02*
X127050000Y-109850000D01*
X136500000Y-109600000D02*
G75*
G03X136500000Y-109600000I-250000J0D01*
G01*
X123500000Y-109600000D02*
G75*
G03X123500000Y-109600000I-250000J0D01*
G01*
X123250000Y-109350000D02*
X123250000Y-109850000D01*
X123250000Y-109850000D02*
X114050000Y-109850000D01*
X114050000Y-109350000D02*
X123250000Y-109350000D01*
X110750000Y-109350000D02*
X110750000Y-109850000D01*
X114250000Y-109600000D02*
G75*
G03X114250000Y-109600000I-250000J0D01*
G01*
X101550000Y-109350000D02*
X110750000Y-109350000D01*
X110750000Y-109850000D02*
X101550000Y-109850000D01*
X114000000Y-109850000D02*
X114000000Y-109350000D01*
X101500000Y-109850000D02*
X101500000Y-109350000D01*
X127250000Y-109600000D02*
G75*
G03X127250000Y-109600000I-250000J0D01*
G01*
X101750000Y-109600000D02*
G75*
G03X101750000Y-109600000I-250000J0D01*
G01*
X111000000Y-109600000D02*
G75*
G03X111000000Y-109600000I-250000J0D01*
G01*
X139550000Y-109350000D02*
X148750000Y-109350000D01*
X148750000Y-109350000D02*
X148750000Y-109850000D01*
X139500000Y-109850000D02*
X139500000Y-109350000D01*
X148750000Y-109850000D02*
X139550000Y-109850000D01*
X139750000Y-109600000D02*
G75*
G03X139750000Y-109600000I-250000J0D01*
G01*
X149000000Y-109600000D02*
G75*
G03X149000000Y-109600000I-250000J0D01*
G01*
X63550000Y-109850000D02*
X63550000Y-109350000D01*
X72500000Y-109850000D02*
X63550000Y-109850000D01*
X72500000Y-109350000D02*
X72500000Y-109850000D01*
X63550000Y-109350000D02*
X72500000Y-109350000D01*
X59750000Y-109350000D02*
X59750000Y-109850000D01*
X51250000Y-109350000D02*
X59750000Y-109350000D01*
X51250000Y-109850000D02*
X51250000Y-109350000D01*
X59750000Y-109850000D02*
X51250000Y-109850000D01*
X72750000Y-109600000D02*
G75*
G03X72750000Y-109600000I-250000J0D01*
G01*
X63800000Y-109600000D02*
G75*
G03X63800000Y-109600000I-250000J0D01*
G01*
X60000000Y-109600000D02*
G75*
G03X60000000Y-109600000I-250000J0D01*
G01*
X51500000Y-109600000D02*
G75*
G03X51500000Y-109600000I-250000J0D01*
G01*
X98500000Y-119350000D02*
G75*
G03X98500000Y-119350000I-250000J0D01*
G01*
X89250000Y-119350000D02*
G75*
G03X89250000Y-119350000I-250000J0D01*
G01*
X89050000Y-119100000D02*
X98250000Y-119100000D01*
X89000000Y-119600000D02*
X89000000Y-119100000D01*
X98250000Y-119600000D02*
X89050000Y-119600000D01*
X98250000Y-119100000D02*
X98250000Y-119600000D01*
X76500000Y-119350000D02*
G75*
G03X76500000Y-119350000I-250000J0D01*
G01*
X85750000Y-119350000D02*
G75*
G03X85750000Y-119350000I-250000J0D01*
G01*
X76250000Y-119600000D02*
X76250000Y-119100000D01*
X76300000Y-119100000D02*
X85500000Y-119100000D01*
X85500000Y-119100000D02*
X85500000Y-119600000D01*
X85500000Y-119600000D02*
X76300000Y-119600000D01*
X127050000Y-119100000D02*
X136250000Y-119100000D01*
X136250000Y-119100000D02*
X136250000Y-119600000D01*
X127000000Y-119600000D02*
X127000000Y-119100000D01*
X136250000Y-119600000D02*
X127050000Y-119600000D01*
X136500000Y-119350000D02*
G75*
G03X136500000Y-119350000I-250000J0D01*
G01*
X123500000Y-119350000D02*
G75*
G03X123500000Y-119350000I-250000J0D01*
G01*
X123250000Y-119100000D02*
X123250000Y-119600000D01*
X123250000Y-119600000D02*
X114050000Y-119600000D01*
X114050000Y-119100000D02*
X123250000Y-119100000D01*
X110750000Y-119100000D02*
X110750000Y-119600000D01*
X114250000Y-119350000D02*
G75*
G03X114250000Y-119350000I-250000J0D01*
G01*
X101550000Y-119100000D02*
X110750000Y-119100000D01*
X110750000Y-119600000D02*
X101550000Y-119600000D01*
X114000000Y-119600000D02*
X114000000Y-119100000D01*
X101500000Y-119600000D02*
X101500000Y-119100000D01*
X127250000Y-119350000D02*
G75*
G03X127250000Y-119350000I-250000J0D01*
G01*
X101750000Y-119350000D02*
G75*
G03X101750000Y-119350000I-250000J0D01*
G01*
X111000000Y-119350000D02*
G75*
G03X111000000Y-119350000I-250000J0D01*
G01*
X139550000Y-119100000D02*
X148750000Y-119100000D01*
X148750000Y-119100000D02*
X148750000Y-119600000D01*
X139500000Y-119600000D02*
X139500000Y-119100000D01*
X148750000Y-119600000D02*
X139550000Y-119600000D01*
X139750000Y-119350000D02*
G75*
G03X139750000Y-119350000I-250000J0D01*
G01*
X149000000Y-119350000D02*
G75*
G03X149000000Y-119350000I-250000J0D01*
G01*
X63550000Y-119600000D02*
X63550000Y-119100000D01*
X72500000Y-119600000D02*
X63550000Y-119600000D01*
X72500000Y-119100000D02*
X72500000Y-119600000D01*
X63550000Y-119100000D02*
X72500000Y-119100000D01*
X59750000Y-119100000D02*
X59750000Y-119600000D01*
X51250000Y-119100000D02*
X59750000Y-119100000D01*
X51250000Y-119600000D02*
X51250000Y-119100000D01*
X59750000Y-119600000D02*
X51250000Y-119600000D01*
X72750000Y-119350000D02*
G75*
G03X72750000Y-119350000I-250000J0D01*
G01*
X63800000Y-119350000D02*
G75*
G03X63800000Y-119350000I-250000J0D01*
G01*
X60000000Y-119350000D02*
G75*
G03X60000000Y-119350000I-250000J0D01*
G01*
X51500000Y-119350000D02*
G75*
G03X51500000Y-119350000I-250000J0D01*
G01*
X148750000Y-131600000D02*
X139550000Y-131600000D01*
X139500000Y-131600000D02*
X139500000Y-131100000D01*
X139550000Y-131100000D02*
X148750000Y-131100000D01*
X139750000Y-131350000D02*
G75*
G03X139750000Y-131350000I-250000J0D01*
G01*
X148750000Y-131100000D02*
X148750000Y-131600000D01*
X149000000Y-131350000D02*
G75*
G03X149000000Y-131350000I-250000J0D01*
G01*
X136250000Y-131600000D02*
X127050000Y-131600000D01*
X127000000Y-131600000D02*
X127000000Y-131100000D01*
X127050000Y-131100000D02*
X136250000Y-131100000D01*
X127250000Y-131350000D02*
G75*
G03X127250000Y-131350000I-250000J0D01*
G01*
X136250000Y-131100000D02*
X136250000Y-131600000D01*
X136500000Y-131350000D02*
G75*
G03X136500000Y-131350000I-250000J0D01*
G01*
X123250000Y-131600000D02*
X114050000Y-131600000D01*
X114000000Y-131600000D02*
X114000000Y-131100000D01*
X114050000Y-131100000D02*
X123250000Y-131100000D01*
X114250000Y-131350000D02*
G75*
G03X114250000Y-131350000I-250000J0D01*
G01*
X123250000Y-131100000D02*
X123250000Y-131600000D01*
X123500000Y-131350000D02*
G75*
G03X123500000Y-131350000I-250000J0D01*
G01*
X110750000Y-131600000D02*
X101550000Y-131600000D01*
X101500000Y-131600000D02*
X101500000Y-131100000D01*
X101550000Y-131100000D02*
X110750000Y-131100000D01*
X101750000Y-131350000D02*
G75*
G03X101750000Y-131350000I-250000J0D01*
G01*
X110750000Y-131100000D02*
X110750000Y-131600000D01*
X111000000Y-131350000D02*
G75*
G03X111000000Y-131350000I-250000J0D01*
G01*
X98250000Y-131600000D02*
X89050000Y-131600000D01*
X89000000Y-131600000D02*
X89000000Y-131100000D01*
X89050000Y-131100000D02*
X98250000Y-131100000D01*
X89250000Y-131350000D02*
G75*
G03X89250000Y-131350000I-250000J0D01*
G01*
X98250000Y-131100000D02*
X98250000Y-131600000D01*
X98500000Y-131350000D02*
G75*
G03X98500000Y-131350000I-250000J0D01*
G01*
X76300000Y-131100000D02*
X85500000Y-131100000D01*
X76250000Y-131600000D02*
X76250000Y-131100000D01*
X85500000Y-131600000D02*
X76300000Y-131600000D01*
X76500000Y-131350000D02*
G75*
G03X76500000Y-131350000I-250000J0D01*
G01*
X85500000Y-131100000D02*
X85500000Y-131600000D01*
X85750000Y-131350000D02*
G75*
G03X85750000Y-131350000I-250000J0D01*
G01*
X72500000Y-131600000D02*
X63550000Y-131600000D01*
X63550000Y-131100000D02*
X72500000Y-131100000D01*
X63550000Y-131600000D02*
X63550000Y-131100000D01*
X72750000Y-131350000D02*
G75*
G03X72750000Y-131350000I-250000J0D01*
G01*
X72500000Y-131100000D02*
X72500000Y-131600000D01*
X63800000Y-131350000D02*
G75*
G03X63800000Y-131350000I-250000J0D01*
G01*
X60000000Y-131350000D02*
G75*
G03X60000000Y-131350000I-250000J0D01*
G01*
X51250000Y-131600000D02*
X51250000Y-131100000D01*
X59750000Y-131600000D02*
X51250000Y-131600000D01*
X59750000Y-131100000D02*
X59750000Y-131600000D01*
X51250000Y-131100000D02*
X59750000Y-131100000D01*
X51500000Y-131350000D02*
G75*
G03X51500000Y-131350000I-250000J0D01*
G01*
X138500000Y-148500000D02*
G75*
G03X138500000Y-148500000I-500000J0D01*
G01*
X138500000Y-148500000D02*
X137500000Y-148500000D01*
X138500000Y-51500000D02*
X138500000Y-148500000D01*
X137500000Y-148500000D02*
X137500000Y-51500000D01*
X137500000Y-51500000D02*
X138500000Y-51500000D01*
X138500000Y-51500000D02*
G75*
G03X138500000Y-51500000I-500000J0D01*
G01*
X125600000Y-148500000D02*
G75*
G03X125600000Y-148500000I-500000J0D01*
G01*
X125600000Y-148500000D02*
X124600000Y-148500000D01*
X125600000Y-51500000D02*
X125600000Y-148500000D01*
X124600000Y-148500000D02*
X124600000Y-51500000D01*
X124600000Y-51500000D02*
X125600000Y-51500000D01*
X125600000Y-51500000D02*
G75*
G03X125600000Y-51500000I-500000J0D01*
G01*
X112800000Y-148500000D02*
G75*
G03X112800000Y-148500000I-500000J0D01*
G01*
X112800000Y-148500000D02*
X111800000Y-148500000D01*
X112800000Y-51500000D02*
X112800000Y-148500000D01*
X111800000Y-148500000D02*
X111800000Y-51500000D01*
X111800000Y-51500000D02*
X112800000Y-51500000D01*
X112800000Y-51500000D02*
G75*
G03X112800000Y-51500000I-500000J0D01*
G01*
X100400000Y-148500000D02*
G75*
G03X100400000Y-148500000I-500000J0D01*
G01*
X100400000Y-148500000D02*
X99400000Y-148500000D01*
X100400000Y-51500000D02*
X100400000Y-148500000D01*
X99400000Y-148500000D02*
X99400000Y-51500000D01*
X99400000Y-51500000D02*
X100400000Y-51500000D01*
X100400000Y-51500000D02*
G75*
G03X100400000Y-51500000I-500000J0D01*
G01*
X87700000Y-148500000D02*
G75*
G03X87700000Y-148500000I-500000J0D01*
G01*
X87700000Y-148500000D02*
X86700000Y-148500000D01*
X87700000Y-51500000D02*
X87700000Y-148500000D01*
X86700000Y-148500000D02*
X86700000Y-51500000D01*
X86700000Y-51500000D02*
X87700000Y-51500000D01*
X87700000Y-51500000D02*
G75*
G03X87700000Y-51500000I-500000J0D01*
G01*
X74800000Y-148500000D02*
G75*
G03X74800000Y-148500000I-500000J0D01*
G01*
X74800000Y-148500000D02*
X73800000Y-148500000D01*
X74800000Y-51500000D02*
X74800000Y-148500000D01*
X73800000Y-148500000D02*
X73800000Y-51500000D01*
X73800000Y-51500000D02*
X74800000Y-51500000D01*
X74800000Y-51500000D02*
G75*
G03X74800000Y-51500000I-500000J0D01*
G01*
X62100000Y-148500000D02*
X61100000Y-148500000D01*
X62100000Y-51500000D02*
X62100000Y-148500000D01*
X61100000Y-51500000D02*
X62100000Y-51500000D01*
X61100000Y-148500000D02*
X61100000Y-51500000D01*
X62100000Y-148500000D02*
G75*
G03X62100000Y-148500000I-500000J0D01*
G01*
X62100000Y-51500000D02*
G75*
G03X62100000Y-51500000I-500000J0D01*
G01*
X50000000Y-50000000D02*
X50000000Y-150000000D01*
X150000000Y-150000000D02*
X150000000Y-50000000D01*
X150000000Y-50000000D02*
X50000000Y-50000000D01*
X50000000Y-150000000D02*
X150000000Y-150000000D01*
M02*
