G04 #@! TF.FileFunction,Copper,L1,Top,Signal*
%FSLAX46Y46*%
G04 Gerber Fmt 4.6, Leading zero omitted, Abs format (unit mm)*
G04 Created by KiCad (PCBNEW 4.0.7+dfsg1-1) date Sun Nov 19 14:40:27 2017*
%MOMM*%
%LPD*%
G01*
G04 APERTURE LIST*
%ADD10C,0.100000*%
%ADD11O,2.032000X1.727200*%
%ADD12R,0.600000X1.550000*%
%ADD13R,3.500120X3.500120*%
%ADD14R,0.800100X0.800100*%
%ADD15O,1.727200X2.032000*%
%ADD16R,3.657600X2.032000*%
%ADD17R,1.016000X2.032000*%
%ADD18C,0.203200*%
%ADD19C,0.304800*%
%ADD20C,0.762000*%
%ADD21C,0.406400*%
G04 APERTURE END LIST*
D10*
D11*
X102200000Y-71535000D03*
X102200000Y-74075000D03*
X102200000Y-76615000D03*
X102200000Y-79155000D03*
D12*
X120495000Y-72740000D03*
X119225000Y-72740000D03*
X117955000Y-72740000D03*
X116685000Y-72740000D03*
X116685000Y-78140000D03*
X117955000Y-78140000D03*
X119225000Y-78140000D03*
X120495000Y-78140000D03*
D11*
X114800000Y-71560000D03*
X114800000Y-74100000D03*
X114800000Y-76640000D03*
X114800000Y-79180000D03*
X109820000Y-71535000D03*
X109820000Y-74075000D03*
X109820000Y-76615000D03*
X109820000Y-79155000D03*
D12*
X107895000Y-72715000D03*
X106625000Y-72715000D03*
X105355000Y-72715000D03*
X104085000Y-72715000D03*
X104085000Y-78115000D03*
X105355000Y-78115000D03*
X106625000Y-78115000D03*
X107895000Y-78115000D03*
D11*
X122420000Y-71560000D03*
X122420000Y-74100000D03*
X122420000Y-76640000D03*
X122420000Y-79180000D03*
X84620000Y-71535000D03*
X84620000Y-74075000D03*
X84620000Y-76615000D03*
X84620000Y-79155000D03*
D12*
X82695000Y-72715000D03*
X81425000Y-72715000D03*
X80155000Y-72715000D03*
X78885000Y-72715000D03*
X78885000Y-78115000D03*
X80155000Y-78115000D03*
X81425000Y-78115000D03*
X82695000Y-78115000D03*
D11*
X89700000Y-71560000D03*
X89700000Y-74100000D03*
X89700000Y-76640000D03*
X89700000Y-79180000D03*
D12*
X95395000Y-72740000D03*
X94125000Y-72740000D03*
X92855000Y-72740000D03*
X91585000Y-72740000D03*
X91585000Y-78140000D03*
X92855000Y-78140000D03*
X94125000Y-78140000D03*
X95395000Y-78140000D03*
D11*
X97320000Y-71560000D03*
X97320000Y-74100000D03*
X97320000Y-76640000D03*
X97320000Y-79180000D03*
D12*
X57405000Y-72690000D03*
X56135000Y-72690000D03*
X54865000Y-72690000D03*
X53595000Y-72690000D03*
X53595000Y-78090000D03*
X54865000Y-78090000D03*
X56135000Y-78090000D03*
X57405000Y-78090000D03*
D11*
X71620000Y-71535000D03*
X71620000Y-74075000D03*
X71620000Y-76615000D03*
X71620000Y-79155000D03*
X77000000Y-71535000D03*
X77000000Y-74075000D03*
X77000000Y-76615000D03*
X77000000Y-79155000D03*
D12*
X69695000Y-72715000D03*
X68425000Y-72715000D03*
X67155000Y-72715000D03*
X65885000Y-72715000D03*
X65885000Y-78115000D03*
X67155000Y-78115000D03*
X68425000Y-78115000D03*
X69695000Y-78115000D03*
D11*
X64000000Y-71535000D03*
X64000000Y-74075000D03*
X64000000Y-76615000D03*
X64000000Y-79155000D03*
X59330000Y-71510000D03*
X59330000Y-74050000D03*
X59330000Y-76590000D03*
X59330000Y-79130000D03*
X51710000Y-71510000D03*
X51710000Y-74050000D03*
X51710000Y-76590000D03*
X51710000Y-79130000D03*
X148020000Y-71585000D03*
X148020000Y-74125000D03*
X148020000Y-76665000D03*
X148020000Y-79205000D03*
X140400000Y-71585000D03*
X140400000Y-74125000D03*
X140400000Y-76665000D03*
X140400000Y-79205000D03*
X135320000Y-71560000D03*
X135320000Y-74100000D03*
X135320000Y-76640000D03*
X135320000Y-79180000D03*
D12*
X133395000Y-72740000D03*
X132125000Y-72740000D03*
X130855000Y-72740000D03*
X129585000Y-72740000D03*
X129585000Y-78140000D03*
X130855000Y-78140000D03*
X132125000Y-78140000D03*
X133395000Y-78140000D03*
X146095000Y-72765000D03*
X144825000Y-72765000D03*
X143555000Y-72765000D03*
X142285000Y-72765000D03*
X142285000Y-78165000D03*
X143555000Y-78165000D03*
X144825000Y-78165000D03*
X146095000Y-78165000D03*
D11*
X127700000Y-71560000D03*
X127700000Y-74100000D03*
X127700000Y-76640000D03*
X127700000Y-79180000D03*
D12*
X146095000Y-123015000D03*
X144825000Y-123015000D03*
X143555000Y-123015000D03*
X142285000Y-123015000D03*
X142285000Y-128415000D03*
X143555000Y-128415000D03*
X144825000Y-128415000D03*
X146095000Y-128415000D03*
D11*
X135320000Y-121810000D03*
X135320000Y-124350000D03*
X135320000Y-126890000D03*
X135320000Y-129430000D03*
D12*
X133395000Y-122990000D03*
X132125000Y-122990000D03*
X130855000Y-122990000D03*
X129585000Y-122990000D03*
X129585000Y-128390000D03*
X130855000Y-128390000D03*
X132125000Y-128390000D03*
X133395000Y-128390000D03*
D11*
X148020000Y-121835000D03*
X148020000Y-124375000D03*
X148020000Y-126915000D03*
X148020000Y-129455000D03*
X140400000Y-121835000D03*
X140400000Y-124375000D03*
X140400000Y-126915000D03*
X140400000Y-129455000D03*
X127700000Y-121810000D03*
X127700000Y-124350000D03*
X127700000Y-126890000D03*
X127700000Y-129430000D03*
X122420000Y-121810000D03*
X122420000Y-124350000D03*
X122420000Y-126890000D03*
X122420000Y-129430000D03*
X114800000Y-121810000D03*
X114800000Y-124350000D03*
X114800000Y-126890000D03*
X114800000Y-129430000D03*
D12*
X120495000Y-122990000D03*
X119225000Y-122990000D03*
X117955000Y-122990000D03*
X116685000Y-122990000D03*
X116685000Y-128390000D03*
X117955000Y-128390000D03*
X119225000Y-128390000D03*
X120495000Y-128390000D03*
D11*
X109820000Y-121785000D03*
X109820000Y-124325000D03*
X109820000Y-126865000D03*
X109820000Y-129405000D03*
D12*
X107895000Y-122965000D03*
X106625000Y-122965000D03*
X105355000Y-122965000D03*
X104085000Y-122965000D03*
X104085000Y-128365000D03*
X105355000Y-128365000D03*
X106625000Y-128365000D03*
X107895000Y-128365000D03*
D11*
X102200000Y-121785000D03*
X102200000Y-124325000D03*
X102200000Y-126865000D03*
X102200000Y-129405000D03*
X97320000Y-121810000D03*
X97320000Y-124350000D03*
X97320000Y-126890000D03*
X97320000Y-129430000D03*
X77000000Y-121785000D03*
X77000000Y-124325000D03*
X77000000Y-126865000D03*
X77000000Y-129405000D03*
D12*
X82695000Y-122965000D03*
X81425000Y-122965000D03*
X80155000Y-122965000D03*
X78885000Y-122965000D03*
X78885000Y-128365000D03*
X80155000Y-128365000D03*
X81425000Y-128365000D03*
X82695000Y-128365000D03*
X95395000Y-122990000D03*
X94125000Y-122990000D03*
X92855000Y-122990000D03*
X91585000Y-122990000D03*
X91585000Y-128390000D03*
X92855000Y-128390000D03*
X94125000Y-128390000D03*
X95395000Y-128390000D03*
D11*
X89700000Y-121810000D03*
X89700000Y-124350000D03*
X89700000Y-126890000D03*
X89700000Y-129430000D03*
X84620000Y-121785000D03*
X84620000Y-124325000D03*
X84620000Y-126865000D03*
X84620000Y-129405000D03*
X71620000Y-121785000D03*
X71620000Y-124325000D03*
X71620000Y-126865000D03*
X71620000Y-129405000D03*
X64000000Y-121785000D03*
X64000000Y-124325000D03*
X64000000Y-126865000D03*
X64000000Y-129405000D03*
D12*
X69695000Y-122965000D03*
X68425000Y-122965000D03*
X67155000Y-122965000D03*
X65885000Y-122965000D03*
X65885000Y-128365000D03*
X67155000Y-128365000D03*
X68425000Y-128365000D03*
X69695000Y-128365000D03*
D13*
X129538000Y-139862860D03*
X129538000Y-145862340D03*
X134237000Y-142862600D03*
X117013000Y-139862860D03*
X117013000Y-145862340D03*
X121712000Y-142862600D03*
X78788000Y-139862860D03*
X78788000Y-145862340D03*
X83487000Y-142862600D03*
X66213000Y-139862860D03*
X66213000Y-145862340D03*
X70912000Y-142862600D03*
X129538000Y-89862860D03*
X129538000Y-95862340D03*
X134237000Y-92862600D03*
X117013000Y-89862860D03*
X117013000Y-95862340D03*
X121712000Y-92862600D03*
X79388000Y-89812860D03*
X79388000Y-95812340D03*
X84087000Y-92812600D03*
X66213000Y-89862860D03*
X66213000Y-95862340D03*
X70912000Y-92862600D03*
D11*
X109820000Y-102125000D03*
X109820000Y-104665000D03*
X109820000Y-107205000D03*
X102200000Y-102125000D03*
X102200000Y-104665000D03*
X102200000Y-107205000D03*
X114800000Y-102125000D03*
X114800000Y-104665000D03*
X114800000Y-107205000D03*
D14*
X107010760Y-107520000D03*
X107010760Y-105620000D03*
X105011780Y-106570000D03*
X105009240Y-101810000D03*
X105009240Y-103710000D03*
X107008220Y-102760000D03*
D11*
X114800000Y-111760000D03*
X114800000Y-114300000D03*
X114800000Y-116840000D03*
X109820000Y-111760000D03*
X109820000Y-114300000D03*
X109820000Y-116840000D03*
D14*
X105009240Y-111445000D03*
X105009240Y-113345000D03*
X107008220Y-112395000D03*
D11*
X102200000Y-111760000D03*
X102200000Y-114300000D03*
X102200000Y-116840000D03*
D14*
X107010760Y-117155000D03*
X107010760Y-115255000D03*
X105011780Y-116205000D03*
D15*
X141629000Y-148468000D03*
X144169000Y-148468000D03*
X146709000Y-148468000D03*
X128341000Y-135890000D03*
X130881000Y-135890000D03*
D16*
X144169000Y-137546000D03*
D17*
X144169000Y-144150000D03*
X146455000Y-144150000D03*
X141883000Y-144150000D03*
D15*
X141629000Y-133228000D03*
X144169000Y-133228000D03*
X146709000Y-133228000D03*
X128341000Y-133350000D03*
X130881000Y-133350000D03*
X103594000Y-148458000D03*
X106134000Y-148458000D03*
X108674000Y-148458000D03*
D16*
X106134000Y-137536000D03*
D17*
X106134000Y-144140000D03*
X108420000Y-144140000D03*
X103848000Y-144140000D03*
D15*
X103594000Y-133218000D03*
X106134000Y-133218000D03*
X108674000Y-133218000D03*
X115816000Y-133350000D03*
X118356000Y-133350000D03*
X115816000Y-135890000D03*
X118356000Y-135890000D03*
X77591000Y-135890000D03*
X80131000Y-135890000D03*
X77591000Y-133350000D03*
X80131000Y-133350000D03*
D14*
X94572760Y-107520000D03*
X94572760Y-105620000D03*
X92573780Y-106570000D03*
D11*
X89762000Y-102125000D03*
X89762000Y-104665000D03*
X89762000Y-107205000D03*
D14*
X92571240Y-101810000D03*
X92571240Y-103710000D03*
X94570220Y-102760000D03*
D11*
X97382000Y-102125000D03*
X97382000Y-104665000D03*
X97382000Y-107205000D03*
X77062000Y-111760000D03*
X77062000Y-114300000D03*
X77062000Y-116840000D03*
D14*
X79871240Y-111445000D03*
X79871240Y-113345000D03*
X81870220Y-112395000D03*
D11*
X77062000Y-102125000D03*
X77062000Y-104665000D03*
X77062000Y-107205000D03*
D14*
X81872760Y-107520000D03*
X81872760Y-105620000D03*
X79873780Y-106570000D03*
X81872760Y-117155000D03*
X81872760Y-115255000D03*
X79873780Y-116205000D03*
D11*
X84682000Y-102125000D03*
X84682000Y-104665000D03*
X84682000Y-107205000D03*
D14*
X79871240Y-101810000D03*
X79871240Y-103710000D03*
X81870220Y-102760000D03*
X94572760Y-117155000D03*
X94572760Y-115255000D03*
X92573780Y-116205000D03*
D11*
X89762000Y-111760000D03*
X89762000Y-114300000D03*
X89762000Y-116840000D03*
X97382000Y-111760000D03*
X97382000Y-114300000D03*
X97382000Y-116840000D03*
X84682000Y-111760000D03*
X84682000Y-114300000D03*
X84682000Y-116840000D03*
D14*
X92571240Y-111445000D03*
X92571240Y-113345000D03*
X94570220Y-112395000D03*
D15*
X90929000Y-133228000D03*
X93469000Y-133228000D03*
X96009000Y-133228000D03*
D16*
X93469000Y-137546000D03*
D17*
X93469000Y-144150000D03*
X95755000Y-144150000D03*
X91183000Y-144150000D03*
D15*
X90929000Y-148468000D03*
X93469000Y-148468000D03*
X96009000Y-148468000D03*
D11*
X71620000Y-102125000D03*
X71620000Y-104665000D03*
X71620000Y-107205000D03*
X64000000Y-102125000D03*
X64000000Y-104665000D03*
X64000000Y-107205000D03*
D14*
X66809240Y-101810000D03*
X66809240Y-103710000D03*
X68808220Y-102760000D03*
X68810760Y-107520000D03*
X68810760Y-105620000D03*
X66811780Y-106570000D03*
D15*
X65016000Y-133350000D03*
X67556000Y-133350000D03*
X52994000Y-148458000D03*
X55534000Y-148458000D03*
X58074000Y-148458000D03*
D16*
X55534000Y-137536000D03*
D17*
X55534000Y-144140000D03*
X57820000Y-144140000D03*
X53248000Y-144140000D03*
D15*
X65016000Y-135890000D03*
X67556000Y-135890000D03*
X52994000Y-133218000D03*
X55534000Y-133218000D03*
X58074000Y-133218000D03*
D11*
X51600000Y-102125000D03*
X51600000Y-104665000D03*
X51600000Y-107205000D03*
X59220000Y-102125000D03*
X59220000Y-104665000D03*
X59220000Y-107205000D03*
D14*
X56410760Y-107520000D03*
X56410760Y-105620000D03*
X54411780Y-106570000D03*
X54409240Y-101810000D03*
X54409240Y-103710000D03*
X56408220Y-102760000D03*
D12*
X57355000Y-122940000D03*
X56085000Y-122940000D03*
X54815000Y-122940000D03*
X53545000Y-122940000D03*
X53545000Y-128340000D03*
X54815000Y-128340000D03*
X56085000Y-128340000D03*
X57355000Y-128340000D03*
D11*
X59280000Y-121760000D03*
X59280000Y-124300000D03*
X59280000Y-126840000D03*
X59280000Y-129380000D03*
X51660000Y-121760000D03*
X51660000Y-124300000D03*
X51660000Y-126840000D03*
X51660000Y-129380000D03*
D14*
X68810760Y-117155000D03*
X68810760Y-115255000D03*
X66811780Y-116205000D03*
X66809240Y-111445000D03*
X66809240Y-113345000D03*
X68808220Y-112395000D03*
D11*
X64000000Y-111760000D03*
X64000000Y-114300000D03*
X64000000Y-116840000D03*
X71620000Y-111760000D03*
X71620000Y-114300000D03*
X71620000Y-116840000D03*
D14*
X54409240Y-111445000D03*
X54409240Y-113345000D03*
X56408220Y-112395000D03*
X56410760Y-117155000D03*
X56410760Y-115255000D03*
X54411780Y-116205000D03*
D11*
X51600000Y-111760000D03*
X51600000Y-114300000D03*
X51600000Y-116840000D03*
X59220000Y-111760000D03*
X59220000Y-114300000D03*
X59220000Y-116840000D03*
X122420000Y-102125000D03*
X122420000Y-104665000D03*
X122420000Y-107205000D03*
D14*
X117609240Y-101810000D03*
X117609240Y-103710000D03*
X119608220Y-102760000D03*
X119610760Y-107520000D03*
X119610760Y-105620000D03*
X117611780Y-106570000D03*
D11*
X127762000Y-102125000D03*
X127762000Y-104665000D03*
X127762000Y-107205000D03*
X127762000Y-111760000D03*
X127762000Y-114300000D03*
X127762000Y-116840000D03*
D14*
X132572760Y-117155000D03*
X132572760Y-115255000D03*
X130573780Y-116205000D03*
X117609240Y-111445000D03*
X117609240Y-113345000D03*
X119608220Y-112395000D03*
X130571240Y-111445000D03*
X130571240Y-113345000D03*
X132570220Y-112395000D03*
D11*
X122420000Y-111760000D03*
X122420000Y-114300000D03*
X122420000Y-116840000D03*
D14*
X119610760Y-117155000D03*
X119610760Y-115255000D03*
X117611780Y-116205000D03*
X130571240Y-101810000D03*
X130571240Y-103710000D03*
X132570220Y-102760000D03*
X143271240Y-101810000D03*
X143271240Y-103710000D03*
X145270220Y-102760000D03*
X145272760Y-107520000D03*
X145272760Y-105620000D03*
X143273780Y-106570000D03*
D11*
X135382000Y-102125000D03*
X135382000Y-104665000D03*
X135382000Y-107205000D03*
X140462000Y-102125000D03*
X140462000Y-104665000D03*
X140462000Y-107205000D03*
X148082000Y-102125000D03*
X148082000Y-104665000D03*
X148082000Y-107205000D03*
D14*
X132572760Y-107520000D03*
X132572760Y-105620000D03*
X130573780Y-106570000D03*
D11*
X140462000Y-111760000D03*
X140462000Y-114300000D03*
X140462000Y-116840000D03*
X148082000Y-111760000D03*
X148082000Y-114300000D03*
X148082000Y-116840000D03*
D14*
X145272760Y-117155000D03*
X145272760Y-115255000D03*
X143273780Y-116205000D03*
D11*
X135382000Y-111760000D03*
X135382000Y-114300000D03*
X135382000Y-116840000D03*
D14*
X143271240Y-111445000D03*
X143271240Y-113345000D03*
X145270220Y-112395000D03*
D11*
X109820000Y-61760000D03*
X109820000Y-64300000D03*
X109820000Y-66840000D03*
X102200000Y-61760000D03*
X102200000Y-64300000D03*
X102200000Y-66840000D03*
D14*
X117609240Y-61445000D03*
X117609240Y-63345000D03*
X119608220Y-62395000D03*
X119610760Y-67155000D03*
X119610760Y-65255000D03*
X117611780Y-66205000D03*
D11*
X114800000Y-61760000D03*
X114800000Y-64300000D03*
X114800000Y-66840000D03*
X122420000Y-61760000D03*
X122420000Y-64300000D03*
X122420000Y-66840000D03*
D14*
X105009240Y-51285000D03*
X105009240Y-53185000D03*
X107008220Y-52235000D03*
X105009240Y-61445000D03*
X105009240Y-63345000D03*
X107008220Y-62395000D03*
D11*
X102200000Y-51600000D03*
X102200000Y-54140000D03*
X102200000Y-56680000D03*
X109820000Y-51600000D03*
X109820000Y-54140000D03*
X109820000Y-56680000D03*
D14*
X107010760Y-67155000D03*
X107010760Y-65255000D03*
X105011780Y-66205000D03*
X107010760Y-56995000D03*
X107010760Y-55095000D03*
X105011780Y-56045000D03*
D11*
X114800000Y-51600000D03*
X114800000Y-54140000D03*
X114800000Y-56680000D03*
D14*
X119610760Y-56995000D03*
X119610760Y-55095000D03*
X117611780Y-56045000D03*
X117609240Y-51285000D03*
X117609240Y-53185000D03*
X119608220Y-52235000D03*
X130571240Y-51285000D03*
X130571240Y-53185000D03*
X132570220Y-52235000D03*
X132572760Y-56995000D03*
X132572760Y-55095000D03*
X130573780Y-56045000D03*
D11*
X127762000Y-51600000D03*
X127762000Y-54140000D03*
X127762000Y-56680000D03*
X122420000Y-51600000D03*
X122420000Y-54140000D03*
X122420000Y-56680000D03*
X135382000Y-51600000D03*
X135382000Y-54140000D03*
X135382000Y-56680000D03*
X148082000Y-61760000D03*
X148082000Y-64300000D03*
X148082000Y-66840000D03*
X148082000Y-51600000D03*
X148082000Y-54140000D03*
X148082000Y-56680000D03*
X140462000Y-51600000D03*
X140462000Y-54140000D03*
X140462000Y-56680000D03*
D14*
X145272760Y-56995000D03*
X145272760Y-55095000D03*
X143273780Y-56045000D03*
X143271240Y-51285000D03*
X143271240Y-53185000D03*
X145270220Y-52235000D03*
X143271240Y-61445000D03*
X143271240Y-63345000D03*
X145270220Y-62395000D03*
X145272760Y-67155000D03*
X145272760Y-65255000D03*
X143273780Y-66205000D03*
D11*
X140462000Y-61760000D03*
X140462000Y-64300000D03*
X140462000Y-66840000D03*
D14*
X132572760Y-67155000D03*
X132572760Y-65255000D03*
X130573780Y-66205000D03*
D11*
X135382000Y-61760000D03*
X135382000Y-64300000D03*
X135382000Y-66840000D03*
X127762000Y-61760000D03*
X127762000Y-64300000D03*
X127762000Y-66840000D03*
D14*
X130571240Y-61445000D03*
X130571240Y-63345000D03*
X132570220Y-62395000D03*
D15*
X128341000Y-83350000D03*
X130881000Y-83350000D03*
X128341000Y-85890000D03*
X130881000Y-85890000D03*
X141629000Y-83228000D03*
X144169000Y-83228000D03*
X146709000Y-83228000D03*
X141629000Y-98468000D03*
X144169000Y-98468000D03*
X146709000Y-98468000D03*
D16*
X144169000Y-87546000D03*
D17*
X144169000Y-94150000D03*
X146455000Y-94150000D03*
X141883000Y-94150000D03*
D15*
X115816000Y-85890000D03*
X118356000Y-85890000D03*
X103594000Y-83218000D03*
X106134000Y-83218000D03*
X108674000Y-83218000D03*
X115816000Y-83350000D03*
X118356000Y-83350000D03*
X103594000Y-98458000D03*
X106134000Y-98458000D03*
X108674000Y-98458000D03*
D16*
X106134000Y-87536000D03*
D17*
X106134000Y-94140000D03*
X108420000Y-94140000D03*
X103848000Y-94140000D03*
D16*
X93469000Y-87546000D03*
D17*
X93469000Y-94150000D03*
X95755000Y-94150000D03*
X91183000Y-94150000D03*
D15*
X90929000Y-98468000D03*
X93469000Y-98468000D03*
X96009000Y-98468000D03*
X90929000Y-83228000D03*
X93469000Y-83228000D03*
X96009000Y-83228000D03*
X78191000Y-85840000D03*
X80731000Y-85840000D03*
X78191000Y-83300000D03*
X80731000Y-83300000D03*
X65016000Y-83350000D03*
X67556000Y-83350000D03*
X65016000Y-85890000D03*
X67556000Y-85890000D03*
X52994000Y-83218000D03*
X55534000Y-83218000D03*
X58074000Y-83218000D03*
X52994000Y-98458000D03*
X55534000Y-98458000D03*
X58074000Y-98458000D03*
D16*
X55534000Y-87536000D03*
D17*
X55534000Y-94140000D03*
X57820000Y-94140000D03*
X53248000Y-94140000D03*
D14*
X54409240Y-61445000D03*
X54409240Y-63345000D03*
X56408220Y-62395000D03*
X56410760Y-67155000D03*
X56410760Y-65255000D03*
X54411780Y-66205000D03*
D11*
X51600000Y-61760000D03*
X51600000Y-64300000D03*
X51600000Y-66840000D03*
X59220000Y-61760000D03*
X59220000Y-64300000D03*
X59220000Y-66840000D03*
X71620000Y-61760000D03*
X71620000Y-64300000D03*
X71620000Y-66840000D03*
X64000000Y-61760000D03*
X64000000Y-64300000D03*
X64000000Y-66840000D03*
D14*
X68810760Y-67155000D03*
X68810760Y-65255000D03*
X66811780Y-66205000D03*
X66809240Y-61445000D03*
X66809240Y-63345000D03*
X68808220Y-62395000D03*
X79871240Y-61445000D03*
X79871240Y-63345000D03*
X81870220Y-62395000D03*
X81872760Y-67155000D03*
X81872760Y-65255000D03*
X79873780Y-66205000D03*
D11*
X77062000Y-61760000D03*
X77062000Y-64300000D03*
X77062000Y-66840000D03*
X84682000Y-61760000D03*
X84682000Y-64300000D03*
X84682000Y-66840000D03*
X97382000Y-61760000D03*
X97382000Y-64300000D03*
X97382000Y-66840000D03*
X89762000Y-61760000D03*
X89762000Y-64300000D03*
X89762000Y-66840000D03*
D14*
X94572760Y-67155000D03*
X94572760Y-65255000D03*
X92573780Y-66205000D03*
X92571240Y-61445000D03*
X92571240Y-63345000D03*
X94570220Y-62395000D03*
X92571240Y-51285000D03*
X92571240Y-53185000D03*
X94570220Y-52235000D03*
X94572760Y-56995000D03*
X94572760Y-55095000D03*
X92573780Y-56045000D03*
D11*
X89762000Y-51600000D03*
X89762000Y-54140000D03*
X89762000Y-56680000D03*
X97382000Y-51600000D03*
X97382000Y-54140000D03*
X97382000Y-56680000D03*
X84682000Y-51600000D03*
X84682000Y-54140000D03*
X84682000Y-56680000D03*
X77062000Y-51600000D03*
X77062000Y-54140000D03*
X77062000Y-56680000D03*
D14*
X81872760Y-56995000D03*
X81872760Y-55095000D03*
X79873780Y-56045000D03*
X79871240Y-51285000D03*
X79871240Y-53185000D03*
X81870220Y-52235000D03*
X66809240Y-51285000D03*
X66809240Y-53185000D03*
X68808220Y-52235000D03*
X68810760Y-56995000D03*
X68810760Y-55095000D03*
X66811780Y-56045000D03*
D11*
X64000000Y-51600000D03*
X64000000Y-54140000D03*
X64000000Y-56680000D03*
X71620000Y-51600000D03*
X71620000Y-54140000D03*
X71620000Y-56680000D03*
X59220000Y-51600000D03*
X59220000Y-54140000D03*
X59220000Y-56680000D03*
X51600000Y-51600000D03*
X51600000Y-54140000D03*
X51600000Y-56680000D03*
D14*
X56410760Y-56995000D03*
X56410760Y-55095000D03*
X54411780Y-56045000D03*
X54409240Y-51285000D03*
X54409240Y-53185000D03*
X56408220Y-52235000D03*
D18*
X75780800Y-79155000D02*
X77000000Y-79155000D01*
X75650000Y-75645000D02*
X75650000Y-79024200D01*
X75650000Y-79024200D02*
X75780800Y-79155000D01*
X78010202Y-75377299D02*
X75917701Y-75377299D01*
X75917701Y-75377299D02*
X75650000Y-75645000D01*
X78200000Y-73525000D02*
X77650000Y-74075000D01*
X77650000Y-74075000D02*
X77000000Y-74075000D01*
X78895000Y-72725000D02*
X78895000Y-74492501D01*
X80165000Y-72725000D02*
X80165000Y-74669200D01*
X78895000Y-74492501D02*
X78010202Y-75377299D01*
X78895000Y-79103200D02*
X79962944Y-80171144D01*
X78895000Y-78125000D02*
X78895000Y-79103200D01*
X78219200Y-76615000D02*
X77000000Y-76615000D01*
X80165000Y-74669200D02*
X78219200Y-76615000D01*
X80165000Y-78125000D02*
X80165000Y-79103200D01*
X71031775Y-76615000D02*
X71620000Y-76615000D01*
D19*
X72067000Y-76930000D02*
X72382000Y-76615000D01*
D18*
X71250000Y-76245000D02*
X71620000Y-76615000D01*
X70530000Y-75315000D02*
X72520000Y-75315000D01*
X73081332Y-74753668D02*
X73081332Y-71736332D01*
X73081332Y-71736332D02*
X72880000Y-71535000D01*
X70372490Y-74075000D02*
X71620000Y-74075000D01*
X72880000Y-71535000D02*
X71620000Y-71535000D01*
X72520000Y-75315000D02*
X73081332Y-74753668D01*
X66962944Y-80171144D02*
X70603856Y-80171144D01*
X70343619Y-79091381D02*
X70343619Y-77303156D01*
X70603856Y-80171144D02*
X71620000Y-79155000D01*
X67705694Y-79643894D02*
X69791106Y-79643894D01*
X70343619Y-77303156D02*
X71031775Y-76615000D01*
X69695000Y-78115000D02*
X69695000Y-76150000D01*
X69791106Y-79643894D02*
X70343619Y-79091381D01*
X57415000Y-72700000D02*
X57415000Y-72225000D01*
X56145000Y-72700000D02*
X56145000Y-71721800D01*
X57415000Y-72225000D02*
X55640000Y-70450000D01*
X56145000Y-71721800D02*
X55482697Y-71059497D01*
X58053619Y-79066381D02*
X58053619Y-77278156D01*
X58960000Y-76220000D02*
X59330000Y-76590000D01*
X58053619Y-77278156D02*
X58741775Y-76590000D01*
X58741775Y-76590000D02*
X59330000Y-76590000D01*
D19*
X59777000Y-76905000D02*
X60092000Y-76590000D01*
D18*
X50362090Y-75947729D02*
X50362090Y-77817152D01*
X52720202Y-75352299D02*
X50957520Y-75352299D01*
X50957520Y-75352299D02*
X50362090Y-75947729D01*
X50362090Y-77817152D02*
X51674938Y-79130000D01*
X54875000Y-78100000D02*
X54875000Y-79078200D01*
X53605000Y-78100000D02*
X53605000Y-79078200D01*
X51674938Y-79130000D02*
X51710000Y-79130000D01*
X60702532Y-74619931D02*
X60702532Y-73343688D01*
X59330000Y-71971156D02*
X59330000Y-71510000D01*
X58082490Y-74050000D02*
X59330000Y-74050000D01*
X60032463Y-75290000D02*
X60702532Y-74619931D01*
X58240000Y-75290000D02*
X60032463Y-75290000D01*
X60702532Y-73343688D02*
X59330000Y-71971156D01*
X57405000Y-78090000D02*
X57405000Y-76125000D01*
X56130000Y-76002490D02*
X58082490Y-74050000D01*
X56135000Y-76225000D02*
X56130000Y-76220000D01*
X56130000Y-76220000D02*
X56130000Y-76002490D01*
X57405000Y-76125000D02*
X58240000Y-75290000D01*
X56135000Y-78090000D02*
X56135000Y-76225000D01*
X54875000Y-74644200D02*
X52929200Y-76590000D01*
X52360000Y-74050000D02*
X51710000Y-74050000D01*
X53605000Y-74467501D02*
X52720202Y-75352299D01*
X52910000Y-71746030D02*
X52910000Y-73500000D01*
X53605000Y-72700000D02*
X53605000Y-74467501D01*
X54875000Y-72700000D02*
X54875000Y-74644200D01*
X52910000Y-73500000D02*
X52360000Y-74050000D01*
X52929200Y-76590000D02*
X51710000Y-76590000D01*
X55482697Y-71059497D02*
X53596533Y-71059497D01*
D19*
X52025000Y-71195000D02*
X51710000Y-71510000D01*
D18*
X52760000Y-70450000D02*
X51710000Y-71500000D01*
X53596533Y-71059497D02*
X52910000Y-71746030D01*
X55640000Y-70450000D02*
X52760000Y-70450000D01*
X51710000Y-71500000D02*
X51710000Y-71510000D01*
X54672944Y-80146144D02*
X58313856Y-80146144D01*
X57501106Y-79618894D02*
X58053619Y-79066381D01*
X53605000Y-79078200D02*
X54672944Y-80146144D01*
X58313856Y-80146144D02*
X59330000Y-79130000D01*
X54875000Y-79078200D02*
X55415694Y-79618894D01*
X55415694Y-79618894D02*
X57501106Y-79618894D01*
X81425000Y-78115000D02*
X81425000Y-76250000D01*
X83603856Y-80171144D02*
X84620000Y-79155000D01*
X83343619Y-79091381D02*
X83343619Y-77303156D01*
X83343619Y-77303156D02*
X84031775Y-76615000D01*
X84031775Y-76615000D02*
X84620000Y-76615000D01*
X82695000Y-78115000D02*
X82695000Y-76150000D01*
X84250000Y-76245000D02*
X84620000Y-76615000D01*
D19*
X85067000Y-76930000D02*
X85382000Y-76615000D01*
D18*
X82705000Y-72725000D02*
X82705000Y-72250000D01*
X83530000Y-75315000D02*
X85520000Y-75315000D01*
X85520000Y-75315000D02*
X86081332Y-74753668D01*
X86081332Y-71736332D02*
X85880000Y-71535000D01*
X86081332Y-74753668D02*
X86081332Y-71736332D01*
X85880000Y-71535000D02*
X84620000Y-71535000D01*
X79962944Y-80171144D02*
X83603856Y-80171144D01*
X80705694Y-79643894D02*
X82791106Y-79643894D01*
X80165000Y-79103200D02*
X80705694Y-79643894D01*
X82791106Y-79643894D02*
X83343619Y-79091381D01*
X78050000Y-70475000D02*
X77000000Y-71525000D01*
X78886533Y-71084497D02*
X78200000Y-71771030D01*
D19*
X77315000Y-71220000D02*
X77000000Y-71535000D01*
D18*
X77000000Y-71525000D02*
X77000000Y-71535000D01*
X78200000Y-71771030D02*
X78200000Y-73525000D01*
X80930000Y-70475000D02*
X78050000Y-70475000D01*
X81435000Y-71746800D02*
X80772697Y-71084497D01*
X81435000Y-72725000D02*
X81435000Y-71746800D01*
X80772697Y-71084497D02*
X78886533Y-71084497D01*
X82705000Y-72250000D02*
X80930000Y-70475000D01*
X81425000Y-76250000D02*
X81420000Y-76245000D01*
X82695000Y-76150000D02*
X83530000Y-75315000D01*
X83372490Y-74075000D02*
X84620000Y-74075000D01*
X81420000Y-76027490D02*
X83372490Y-74075000D01*
X81420000Y-76245000D02*
X81420000Y-76027490D01*
X68420000Y-76027490D02*
X70372490Y-74075000D01*
X69705000Y-72725000D02*
X69705000Y-72250000D01*
X68435000Y-72725000D02*
X68435000Y-71746800D01*
X68435000Y-71746800D02*
X67772697Y-71084497D01*
X69705000Y-72250000D02*
X67930000Y-70475000D01*
X69695000Y-76150000D02*
X70530000Y-75315000D01*
X68420000Y-76245000D02*
X68420000Y-76027490D01*
X62917701Y-75377299D02*
X62650000Y-75645000D01*
X62780800Y-79155000D02*
X64000000Y-79155000D01*
X65010202Y-75377299D02*
X62917701Y-75377299D01*
X62650000Y-79024200D02*
X62780800Y-79155000D01*
X62650000Y-75645000D02*
X62650000Y-79024200D01*
X65895000Y-79103200D02*
X66962944Y-80171144D01*
X67165000Y-79103200D02*
X67705694Y-79643894D01*
X68425000Y-76250000D02*
X68420000Y-76245000D01*
X67165000Y-78125000D02*
X67165000Y-79103200D01*
X68425000Y-78115000D02*
X68425000Y-76250000D01*
X65895000Y-78125000D02*
X65895000Y-79103200D01*
X67930000Y-70475000D02*
X65050000Y-70475000D01*
X67772697Y-71084497D02*
X65886533Y-71084497D01*
X65886533Y-71084497D02*
X65200000Y-71771030D01*
D19*
X64315000Y-71220000D02*
X64000000Y-71535000D01*
D18*
X65050000Y-70475000D02*
X64000000Y-71525000D01*
X64000000Y-71525000D02*
X64000000Y-71535000D01*
X64650000Y-74075000D02*
X64000000Y-74075000D01*
X67165000Y-74669200D02*
X65219200Y-76615000D01*
X65895000Y-72725000D02*
X65895000Y-74492501D01*
X65895000Y-74492501D02*
X65010202Y-75377299D01*
X65219200Y-76615000D02*
X64000000Y-76615000D01*
X65200000Y-73525000D02*
X64650000Y-74075000D01*
X65200000Y-71771030D02*
X65200000Y-73525000D01*
X67165000Y-72725000D02*
X67165000Y-74669200D01*
X104095000Y-79103200D02*
X105162944Y-80171144D01*
X108803856Y-80171144D02*
X109820000Y-79155000D01*
X105365000Y-79103200D02*
X105905694Y-79643894D01*
X105905694Y-79643894D02*
X107991106Y-79643894D01*
X105162944Y-80171144D02*
X108803856Y-80171144D01*
X116695000Y-79128200D02*
X117762944Y-80196144D01*
X92662944Y-80196144D02*
X96303856Y-80196144D01*
X96303856Y-80196144D02*
X97320000Y-79180000D01*
X91595000Y-79128200D02*
X92662944Y-80196144D01*
X95405000Y-72275000D02*
X93630000Y-70500000D01*
X95405000Y-72750000D02*
X95405000Y-72275000D01*
X94135000Y-71771800D02*
X93472697Y-71109497D01*
X93472697Y-71109497D02*
X91586533Y-71109497D01*
X93630000Y-70500000D02*
X90750000Y-70500000D01*
X94135000Y-72750000D02*
X94135000Y-71771800D01*
X92865000Y-79128200D02*
X93405694Y-79668894D01*
X95491106Y-79668894D02*
X96043619Y-79116381D01*
X95395000Y-78140000D02*
X95395000Y-76175000D01*
X94125000Y-76275000D02*
X94120000Y-76270000D01*
X94120000Y-76270000D02*
X94120000Y-76052490D01*
X94125000Y-78140000D02*
X94125000Y-76275000D01*
X93405694Y-79668894D02*
X95491106Y-79668894D01*
X96043619Y-79116381D02*
X96043619Y-77328156D01*
X88480800Y-79180000D02*
X89700000Y-79180000D01*
X90919200Y-76640000D02*
X89700000Y-76640000D01*
X88350000Y-79049200D02*
X88480800Y-79180000D01*
X91595000Y-78150000D02*
X91595000Y-79128200D01*
X92865000Y-78150000D02*
X92865000Y-79128200D01*
X92865000Y-74694200D02*
X90919200Y-76640000D01*
X88617701Y-75402299D02*
X88350000Y-75670000D01*
X88350000Y-75670000D02*
X88350000Y-79049200D01*
X90710202Y-75402299D02*
X88617701Y-75402299D01*
X91595000Y-74517501D02*
X90710202Y-75402299D01*
X90900000Y-71796030D02*
X90900000Y-73550000D01*
X92865000Y-72750000D02*
X92865000Y-74694200D01*
X90900000Y-73550000D02*
X90350000Y-74100000D01*
X91595000Y-72750000D02*
X91595000Y-74517501D01*
X90350000Y-74100000D02*
X89700000Y-74100000D01*
X91586533Y-71109497D02*
X90900000Y-71796030D01*
X89700000Y-71550000D02*
X89700000Y-71560000D01*
X90750000Y-70500000D02*
X89700000Y-71550000D01*
D19*
X90015000Y-71245000D02*
X89700000Y-71560000D01*
D18*
X107905000Y-72725000D02*
X107905000Y-72250000D01*
X111281332Y-74753668D02*
X111281332Y-71736332D01*
X111080000Y-71535000D02*
X109820000Y-71535000D01*
X111281332Y-71736332D02*
X111080000Y-71535000D01*
X108730000Y-75315000D02*
X110720000Y-75315000D01*
X108572490Y-74075000D02*
X109820000Y-74075000D01*
X110720000Y-75315000D02*
X111281332Y-74753668D01*
X107895000Y-76150000D02*
X108730000Y-75315000D01*
X107991106Y-79643894D02*
X108543619Y-79091381D01*
X107895000Y-78115000D02*
X107895000Y-76150000D01*
D19*
X110267000Y-76930000D02*
X110582000Y-76615000D01*
D18*
X109231775Y-76615000D02*
X109820000Y-76615000D01*
X109450000Y-76245000D02*
X109820000Y-76615000D01*
X108543619Y-77303156D02*
X109231775Y-76615000D01*
X108543619Y-79091381D02*
X108543619Y-77303156D01*
X116695000Y-78150000D02*
X116695000Y-79128200D01*
X113450000Y-79049200D02*
X113580800Y-79180000D01*
X115810202Y-75402299D02*
X113717701Y-75402299D01*
X113580800Y-79180000D02*
X114800000Y-79180000D01*
X117965000Y-79128200D02*
X118505694Y-79668894D01*
X113717701Y-75402299D02*
X113450000Y-75670000D01*
X117965000Y-78150000D02*
X117965000Y-79128200D01*
X113450000Y-75670000D02*
X113450000Y-79049200D01*
X116686533Y-71109497D02*
X116000000Y-71796030D01*
X118572697Y-71109497D02*
X116686533Y-71109497D01*
X115850000Y-70500000D02*
X114800000Y-71550000D01*
D19*
X115115000Y-71245000D02*
X114800000Y-71560000D01*
D18*
X114800000Y-71550000D02*
X114800000Y-71560000D01*
X118730000Y-70500000D02*
X115850000Y-70500000D01*
X116019200Y-76640000D02*
X114800000Y-76640000D01*
X116000000Y-73550000D02*
X115450000Y-74100000D01*
X116000000Y-71796030D02*
X116000000Y-73550000D01*
X116695000Y-72750000D02*
X116695000Y-74517501D01*
X115450000Y-74100000D02*
X114800000Y-74100000D01*
X117965000Y-72750000D02*
X117965000Y-74694200D01*
X116695000Y-74517501D02*
X115810202Y-75402299D01*
X117965000Y-74694200D02*
X116019200Y-76640000D01*
X107905000Y-72250000D02*
X106130000Y-70475000D01*
X105972697Y-71084497D02*
X104086533Y-71084497D01*
X106635000Y-72725000D02*
X106635000Y-71746800D01*
X106130000Y-70475000D02*
X103250000Y-70475000D01*
X106635000Y-71746800D02*
X105972697Y-71084497D01*
X103250000Y-70475000D02*
X102200000Y-71525000D01*
X103400000Y-71771030D02*
X103400000Y-73525000D01*
D19*
X102515000Y-71220000D02*
X102200000Y-71535000D01*
D18*
X102200000Y-71525000D02*
X102200000Y-71535000D01*
X104086533Y-71084497D02*
X103400000Y-71771030D01*
X98580000Y-71560000D02*
X97320000Y-71560000D01*
X94120000Y-76052490D02*
X96072490Y-74100000D01*
X98220000Y-75340000D02*
X98781332Y-74778668D01*
X98781332Y-74778668D02*
X98781332Y-71761332D01*
X95395000Y-76175000D02*
X96230000Y-75340000D01*
X98781332Y-71761332D02*
X98580000Y-71560000D01*
X96230000Y-75340000D02*
X98220000Y-75340000D01*
X96072490Y-74100000D02*
X97320000Y-74100000D01*
X100850000Y-79024200D02*
X100980800Y-79155000D01*
X96731775Y-76640000D02*
X97320000Y-76640000D01*
D19*
X97767000Y-76955000D02*
X98082000Y-76640000D01*
D18*
X96043619Y-77328156D02*
X96731775Y-76640000D01*
X96950000Y-76270000D02*
X97320000Y-76640000D01*
X100850000Y-75645000D02*
X100850000Y-79024200D01*
X100980800Y-79155000D02*
X102200000Y-79155000D01*
X101117701Y-75377299D02*
X100850000Y-75645000D01*
X105365000Y-72725000D02*
X105365000Y-74669200D01*
X103400000Y-73525000D02*
X102850000Y-74075000D01*
X102850000Y-74075000D02*
X102200000Y-74075000D01*
X104095000Y-72725000D02*
X104095000Y-74492501D01*
X104095000Y-74492501D02*
X103210202Y-75377299D01*
X103210202Y-75377299D02*
X101117701Y-75377299D01*
X105365000Y-74669200D02*
X103419200Y-76615000D01*
X106620000Y-76245000D02*
X106620000Y-76027490D01*
X106620000Y-76027490D02*
X108572490Y-74075000D01*
X104095000Y-78125000D02*
X104095000Y-79103200D01*
X106625000Y-78115000D02*
X106625000Y-76250000D01*
X105365000Y-78125000D02*
X105365000Y-79103200D01*
X103419200Y-76615000D02*
X102200000Y-76615000D01*
X106625000Y-76250000D02*
X106620000Y-76245000D01*
D19*
X122867000Y-76955000D02*
X123182000Y-76640000D01*
D18*
X120495000Y-78140000D02*
X120495000Y-76175000D01*
X121143619Y-77328156D02*
X121831775Y-76640000D01*
X119225000Y-78140000D02*
X119225000Y-76275000D01*
X119235000Y-71771800D02*
X118572697Y-71109497D01*
X126480800Y-79180000D02*
X127700000Y-79180000D01*
X126617701Y-75402299D02*
X126350000Y-75670000D01*
X128710202Y-75402299D02*
X126617701Y-75402299D01*
X126350000Y-79049200D02*
X126480800Y-79180000D01*
D19*
X128015000Y-71245000D02*
X127700000Y-71560000D01*
D18*
X126350000Y-75670000D02*
X126350000Y-79049200D01*
X120591106Y-79668894D02*
X121143619Y-79116381D01*
X117762944Y-80196144D02*
X121403856Y-80196144D01*
X118505694Y-79668894D02*
X120591106Y-79668894D01*
X121143619Y-79116381D02*
X121143619Y-77328156D01*
X121403856Y-80196144D02*
X122420000Y-79180000D01*
X122050000Y-76270000D02*
X122420000Y-76640000D01*
X120495000Y-76175000D02*
X121330000Y-75340000D01*
X119220000Y-76270000D02*
X119220000Y-76052490D01*
X121831775Y-76640000D02*
X122420000Y-76640000D01*
X121172490Y-74100000D02*
X122420000Y-74100000D01*
X119225000Y-76275000D02*
X119220000Y-76270000D01*
X119220000Y-76052490D02*
X121172490Y-74100000D01*
X121330000Y-75340000D02*
X123320000Y-75340000D01*
X120505000Y-72275000D02*
X118730000Y-70500000D01*
X120505000Y-72750000D02*
X120505000Y-72275000D01*
X123881332Y-74778668D02*
X123881332Y-71761332D01*
X123680000Y-71560000D02*
X122420000Y-71560000D01*
X123320000Y-75340000D02*
X123881332Y-74778668D01*
X119235000Y-72750000D02*
X119235000Y-71771800D01*
X123881332Y-71761332D02*
X123680000Y-71560000D01*
X128900000Y-71796030D02*
X128900000Y-73550000D01*
X128750000Y-70500000D02*
X127700000Y-71550000D01*
X131472697Y-71109497D02*
X129586533Y-71109497D01*
X131630000Y-70500000D02*
X128750000Y-70500000D01*
X129586533Y-71109497D02*
X128900000Y-71796030D01*
X127700000Y-71550000D02*
X127700000Y-71560000D01*
X133405000Y-72275000D02*
X131630000Y-70500000D01*
X129595000Y-74517501D02*
X128710202Y-75402299D01*
X128900000Y-73550000D02*
X128350000Y-74100000D01*
X128350000Y-74100000D02*
X127700000Y-74100000D01*
X128919200Y-76640000D02*
X127700000Y-76640000D01*
X130865000Y-74694200D02*
X128919200Y-76640000D01*
X133395000Y-78140000D02*
X133395000Y-76175000D01*
X133395000Y-76175000D02*
X134230000Y-75340000D01*
X132120000Y-76052490D02*
X134072490Y-74100000D01*
X132125000Y-76275000D02*
X132120000Y-76270000D01*
X130865000Y-72750000D02*
X130865000Y-74694200D01*
X129595000Y-72750000D02*
X129595000Y-74517501D01*
X132125000Y-78140000D02*
X132125000Y-76275000D01*
X132120000Y-76270000D02*
X132120000Y-76052490D01*
X133491106Y-79668894D02*
X134043619Y-79116381D01*
X130662944Y-80196144D02*
X134303856Y-80196144D01*
X129595000Y-79128200D02*
X130662944Y-80196144D01*
X131405694Y-79668894D02*
X133491106Y-79668894D01*
X130865000Y-79128200D02*
X131405694Y-79668894D01*
X130865000Y-78150000D02*
X130865000Y-79128200D01*
X129595000Y-78150000D02*
X129595000Y-79128200D01*
X136781332Y-74778668D02*
X136781332Y-71761332D01*
X136781332Y-71761332D02*
X136580000Y-71560000D01*
X136580000Y-71560000D02*
X135320000Y-71560000D01*
X136220000Y-75340000D02*
X136781332Y-74778668D01*
X134230000Y-75340000D02*
X136220000Y-75340000D01*
X132135000Y-71771800D02*
X131472697Y-71109497D01*
X132135000Y-72750000D02*
X132135000Y-71771800D01*
X134072490Y-74100000D02*
X135320000Y-74100000D01*
X133405000Y-72750000D02*
X133405000Y-72275000D01*
X140400000Y-71575000D02*
X140400000Y-71585000D01*
X141600000Y-71821030D02*
X141600000Y-73575000D01*
X141600000Y-73575000D02*
X141050000Y-74125000D01*
X141050000Y-74125000D02*
X140400000Y-74125000D01*
D19*
X140715000Y-71270000D02*
X140400000Y-71585000D01*
D18*
X141450000Y-70525000D02*
X140400000Y-71575000D01*
X139180800Y-79205000D02*
X140400000Y-79205000D01*
X139050000Y-75695000D02*
X139050000Y-79074200D01*
X139050000Y-79074200D02*
X139180800Y-79205000D01*
X142295000Y-74542501D02*
X141410202Y-75427299D01*
X143565000Y-74719200D02*
X141619200Y-76665000D01*
X141619200Y-76665000D02*
X140400000Y-76665000D01*
X139317701Y-75427299D02*
X139050000Y-75695000D01*
X141410202Y-75427299D02*
X139317701Y-75427299D01*
X134303856Y-80196144D02*
X135320000Y-79180000D01*
X134043619Y-77328156D02*
X134731775Y-76640000D01*
X134043619Y-79116381D02*
X134043619Y-77328156D01*
X134950000Y-76270000D02*
X135320000Y-76640000D01*
X134731775Y-76640000D02*
X135320000Y-76640000D01*
D19*
X135767000Y-76955000D02*
X136082000Y-76640000D01*
D18*
X142286533Y-71134497D02*
X141600000Y-71821030D01*
X144172697Y-71134497D02*
X142286533Y-71134497D01*
X142295000Y-72775000D02*
X142295000Y-74542501D01*
X143565000Y-72775000D02*
X143565000Y-74719200D01*
X144330000Y-70525000D02*
X141450000Y-70525000D01*
X142295000Y-78175000D02*
X142295000Y-79153200D01*
X143565000Y-79153200D02*
X144105694Y-79693894D01*
X144825000Y-78165000D02*
X144825000Y-76300000D01*
X142295000Y-79153200D02*
X143362944Y-80221144D01*
X143565000Y-78175000D02*
X143565000Y-79153200D01*
X146105000Y-72300000D02*
X144330000Y-70525000D01*
X146105000Y-72775000D02*
X146105000Y-72300000D01*
X144835000Y-71796800D02*
X144172697Y-71134497D01*
X144835000Y-72775000D02*
X144835000Y-71796800D01*
X149280000Y-71585000D02*
X148020000Y-71585000D01*
X146930000Y-75365000D02*
X148920000Y-75365000D01*
X149481332Y-71786332D02*
X149280000Y-71585000D01*
X149481332Y-74803668D02*
X149481332Y-71786332D01*
X148920000Y-75365000D02*
X149481332Y-74803668D01*
X146772490Y-74125000D02*
X148020000Y-74125000D01*
X144820000Y-76295000D02*
X144820000Y-76077490D01*
X146095000Y-76200000D02*
X146930000Y-75365000D01*
X144825000Y-76300000D02*
X144820000Y-76295000D01*
X146095000Y-78165000D02*
X146095000Y-76200000D01*
X144820000Y-76077490D02*
X146772490Y-74125000D01*
X143362944Y-80221144D02*
X147003856Y-80221144D01*
X144105694Y-79693894D02*
X146191106Y-79693894D01*
X146191106Y-79693894D02*
X146743619Y-79141381D01*
X147650000Y-76295000D02*
X148020000Y-76665000D01*
X146743619Y-77353156D02*
X147431775Y-76665000D01*
X146743619Y-79141381D02*
X146743619Y-77353156D01*
X147003856Y-80221144D02*
X148020000Y-79205000D01*
D19*
X148467000Y-76980000D02*
X148782000Y-76665000D01*
D18*
X147431775Y-76665000D02*
X148020000Y-76665000D01*
X57355000Y-128340000D02*
X57355000Y-126375000D01*
X57355000Y-126375000D02*
X58190000Y-125540000D01*
X58190000Y-125540000D02*
X59982463Y-125540000D01*
X59982463Y-125540000D02*
X60652532Y-124869931D01*
X60652532Y-124869931D02*
X60652532Y-123593688D01*
X60652532Y-123593688D02*
X59280000Y-122221156D01*
X59280000Y-122221156D02*
X59280000Y-121760000D01*
X53555000Y-122950000D02*
X53555000Y-124717501D01*
X51624938Y-129380000D02*
X51660000Y-129380000D01*
X53555000Y-124717501D02*
X52670202Y-125602299D01*
X52670202Y-125602299D02*
X50907520Y-125602299D01*
X50907520Y-125602299D02*
X50312090Y-126197729D01*
X50312090Y-126197729D02*
X50312090Y-128067152D01*
X50312090Y-128067152D02*
X51624938Y-129380000D01*
X146743619Y-127603156D02*
X147431775Y-126915000D01*
D19*
X148467000Y-127230000D02*
X148782000Y-126915000D01*
D18*
X147003856Y-130471144D02*
X148020000Y-129455000D01*
X146743619Y-129391381D02*
X146743619Y-127603156D01*
X146191106Y-129943894D02*
X146743619Y-129391381D01*
X143565000Y-128425000D02*
X143565000Y-129403200D01*
X144825000Y-128415000D02*
X144825000Y-126550000D01*
X142295000Y-129403200D02*
X143362944Y-130471144D01*
X144105694Y-129943894D02*
X146191106Y-129943894D01*
X143362944Y-130471144D02*
X147003856Y-130471144D01*
X146095000Y-128415000D02*
X146095000Y-126450000D01*
X143565000Y-129403200D02*
X144105694Y-129943894D01*
X139050000Y-129324200D02*
X139180800Y-129455000D01*
X142295000Y-128425000D02*
X142295000Y-129403200D01*
X139050000Y-125945000D02*
X139050000Y-129324200D01*
X139317701Y-125677299D02*
X139050000Y-125945000D01*
X139180800Y-129455000D02*
X140400000Y-129455000D01*
X141410202Y-125677299D02*
X139317701Y-125677299D01*
X146095000Y-126450000D02*
X146930000Y-125615000D01*
X144820000Y-126327490D02*
X146772490Y-124375000D01*
X147431775Y-126915000D02*
X148020000Y-126915000D01*
X147650000Y-126545000D02*
X148020000Y-126915000D01*
X146772490Y-124375000D02*
X148020000Y-124375000D01*
X144835000Y-122046800D02*
X144172697Y-121384497D01*
X146105000Y-123025000D02*
X146105000Y-122550000D01*
X146105000Y-122550000D02*
X144330000Y-120775000D01*
X144835000Y-123025000D02*
X144835000Y-122046800D01*
X143565000Y-123025000D02*
X143565000Y-124969200D01*
X142295000Y-123025000D02*
X142295000Y-124792501D01*
X141600000Y-122071030D02*
X141600000Y-123825000D01*
X146930000Y-125615000D02*
X148920000Y-125615000D01*
X148920000Y-125615000D02*
X149481332Y-125053668D01*
X149481332Y-125053668D02*
X149481332Y-122036332D01*
X149481332Y-122036332D02*
X149280000Y-121835000D01*
X149280000Y-121835000D02*
X148020000Y-121835000D01*
X143565000Y-124969200D02*
X141619200Y-126915000D01*
X144825000Y-126550000D02*
X144820000Y-126545000D01*
X141050000Y-124375000D02*
X140400000Y-124375000D01*
X141600000Y-123825000D02*
X141050000Y-124375000D01*
X144820000Y-126545000D02*
X144820000Y-126327490D01*
X141619200Y-126915000D02*
X140400000Y-126915000D01*
X142295000Y-124792501D02*
X141410202Y-125677299D01*
X144330000Y-120775000D02*
X141450000Y-120775000D01*
X144172697Y-121384497D02*
X142286533Y-121384497D01*
X142286533Y-121384497D02*
X141600000Y-122071030D01*
D19*
X140715000Y-121520000D02*
X140400000Y-121835000D01*
D18*
X141450000Y-120775000D02*
X140400000Y-121825000D01*
X140400000Y-121825000D02*
X140400000Y-121835000D01*
X116000000Y-123800000D02*
X115450000Y-124350000D01*
X115450000Y-124350000D02*
X114800000Y-124350000D01*
X116695000Y-124767501D02*
X115810202Y-125652299D01*
X113450000Y-125920000D02*
X113450000Y-129299200D01*
X113717701Y-125652299D02*
X113450000Y-125920000D01*
X116019200Y-126890000D02*
X114800000Y-126890000D01*
X115810202Y-125652299D02*
X113717701Y-125652299D01*
X118730000Y-120750000D02*
X115850000Y-120750000D01*
X115850000Y-120750000D02*
X114800000Y-121800000D01*
X114800000Y-121800000D02*
X114800000Y-121810000D01*
D19*
X115115000Y-121495000D02*
X114800000Y-121810000D01*
D18*
X123320000Y-125590000D02*
X123881332Y-125028668D01*
X123881332Y-122011332D02*
X123680000Y-121810000D01*
X123680000Y-121810000D02*
X122420000Y-121810000D01*
X123881332Y-125028668D02*
X123881332Y-122011332D01*
X118572697Y-121359497D02*
X116686533Y-121359497D01*
X120505000Y-123000000D02*
X120505000Y-122525000D01*
X120505000Y-122525000D02*
X118730000Y-120750000D01*
X116686533Y-121359497D02*
X116000000Y-122046030D01*
X119235000Y-122021800D02*
X118572697Y-121359497D01*
X119235000Y-123000000D02*
X119235000Y-122021800D01*
X126350000Y-125920000D02*
X126350000Y-129299200D01*
X126617701Y-125652299D02*
X126350000Y-125920000D01*
X121330000Y-125590000D02*
X123320000Y-125590000D01*
X121143619Y-127578156D02*
X121831775Y-126890000D01*
X121831775Y-126890000D02*
X122420000Y-126890000D01*
D19*
X122867000Y-127205000D02*
X123182000Y-126890000D01*
D18*
X122050000Y-126520000D02*
X122420000Y-126890000D01*
X116695000Y-128400000D02*
X116695000Y-129378200D01*
X117965000Y-123000000D02*
X117965000Y-124944200D01*
X117965000Y-124944200D02*
X116019200Y-126890000D01*
X116695000Y-123000000D02*
X116695000Y-124767501D01*
X116000000Y-122046030D02*
X116000000Y-123800000D01*
X119220000Y-126520000D02*
X119220000Y-126302490D01*
X120495000Y-126425000D02*
X121330000Y-125590000D01*
X119225000Y-126525000D02*
X119220000Y-126520000D01*
X119220000Y-126302490D02*
X121172490Y-124350000D01*
X121172490Y-124350000D02*
X122420000Y-124350000D01*
X113580800Y-129430000D02*
X114800000Y-129430000D01*
X117965000Y-129378200D02*
X118505694Y-129918894D01*
X113450000Y-129299200D02*
X113580800Y-129430000D01*
X116695000Y-129378200D02*
X117762944Y-130446144D01*
X105365000Y-129353200D02*
X105905694Y-129893894D01*
X104095000Y-129353200D02*
X105162944Y-130421144D01*
X107991106Y-129893894D02*
X108543619Y-129341381D01*
X108803856Y-130421144D02*
X109820000Y-129405000D01*
X105162944Y-130421144D02*
X108803856Y-130421144D01*
X105905694Y-129893894D02*
X107991106Y-129893894D01*
X130865000Y-124944200D02*
X128919200Y-126890000D01*
X128350000Y-124350000D02*
X127700000Y-124350000D01*
X128710202Y-125652299D02*
X126617701Y-125652299D01*
X128919200Y-126890000D02*
X127700000Y-126890000D01*
X128750000Y-120750000D02*
X127700000Y-121800000D01*
X129586533Y-121359497D02*
X128900000Y-122046030D01*
D19*
X128015000Y-121495000D02*
X127700000Y-121810000D01*
D18*
X127700000Y-121800000D02*
X127700000Y-121810000D01*
X136781332Y-125028668D02*
X136781332Y-122011332D01*
X136220000Y-125590000D02*
X136781332Y-125028668D01*
X136580000Y-121810000D02*
X135320000Y-121810000D01*
X136781332Y-122011332D02*
X136580000Y-121810000D01*
X133405000Y-123000000D02*
X133405000Y-122525000D01*
X134230000Y-125590000D02*
X136220000Y-125590000D01*
X134072490Y-124350000D02*
X135320000Y-124350000D01*
X129595000Y-123000000D02*
X129595000Y-124767501D01*
X130865000Y-123000000D02*
X130865000Y-124944200D01*
X128900000Y-123800000D02*
X128350000Y-124350000D01*
X128900000Y-122046030D02*
X128900000Y-123800000D01*
X129595000Y-124767501D02*
X128710202Y-125652299D01*
X131630000Y-120750000D02*
X128750000Y-120750000D01*
X133405000Y-122525000D02*
X131630000Y-120750000D01*
X132135000Y-123000000D02*
X132135000Y-122021800D01*
X132135000Y-122021800D02*
X131472697Y-121359497D01*
X131472697Y-121359497D02*
X129586533Y-121359497D01*
D19*
X135767000Y-127205000D02*
X136082000Y-126890000D01*
D18*
X133395000Y-126425000D02*
X134230000Y-125590000D01*
X132120000Y-126302490D02*
X134072490Y-124350000D01*
X134731775Y-126890000D02*
X135320000Y-126890000D01*
X134950000Y-126520000D02*
X135320000Y-126890000D01*
X132125000Y-126525000D02*
X132120000Y-126520000D01*
X132120000Y-126520000D02*
X132120000Y-126302490D01*
X106635000Y-122975000D02*
X106635000Y-121996800D01*
X106635000Y-121996800D02*
X105972697Y-121334497D01*
X107905000Y-122500000D02*
X106130000Y-120725000D01*
X107905000Y-122975000D02*
X107905000Y-122500000D01*
X109231775Y-126865000D02*
X109820000Y-126865000D01*
X109450000Y-126495000D02*
X109820000Y-126865000D01*
X108572490Y-124325000D02*
X109820000Y-124325000D01*
X108543619Y-127553156D02*
X109231775Y-126865000D01*
X108543619Y-129341381D02*
X108543619Y-127553156D01*
X105365000Y-128375000D02*
X105365000Y-129353200D01*
X107895000Y-128365000D02*
X107895000Y-126400000D01*
X106625000Y-128365000D02*
X106625000Y-126500000D01*
X102850000Y-124325000D02*
X102200000Y-124325000D01*
X103400000Y-123775000D02*
X102850000Y-124325000D01*
X103419200Y-126865000D02*
X102200000Y-126865000D01*
X103210202Y-125627299D02*
X101117701Y-125627299D01*
X101117701Y-125627299D02*
X100850000Y-125895000D01*
X104095000Y-128375000D02*
X104095000Y-129353200D01*
X100850000Y-125895000D02*
X100850000Y-129274200D01*
X100980800Y-129405000D02*
X102200000Y-129405000D01*
X100850000Y-129274200D02*
X100980800Y-129405000D01*
X104086533Y-121334497D02*
X103400000Y-122021030D01*
X103400000Y-122021030D02*
X103400000Y-123775000D01*
D19*
X102515000Y-121470000D02*
X102200000Y-121785000D01*
D18*
X102200000Y-121775000D02*
X102200000Y-121785000D01*
X103250000Y-120725000D02*
X102200000Y-121775000D01*
X106130000Y-120725000D02*
X103250000Y-120725000D01*
X105972697Y-121334497D02*
X104086533Y-121334497D01*
X126350000Y-129299200D02*
X126480800Y-129430000D01*
X129595000Y-128400000D02*
X129595000Y-129378200D01*
X126480800Y-129430000D02*
X127700000Y-129430000D01*
X129595000Y-129378200D02*
X130662944Y-130446144D01*
X130865000Y-128400000D02*
X130865000Y-129378200D01*
X119225000Y-128390000D02*
X119225000Y-126525000D01*
X117965000Y-128400000D02*
X117965000Y-129378200D01*
X121143619Y-129366381D02*
X121143619Y-127578156D01*
X120495000Y-128390000D02*
X120495000Y-126425000D01*
X130865000Y-129378200D02*
X131405694Y-129918894D01*
X131405694Y-129918894D02*
X133491106Y-129918894D01*
X130662944Y-130446144D02*
X134303856Y-130446144D01*
X132125000Y-128390000D02*
X132125000Y-126525000D01*
X133395000Y-128390000D02*
X133395000Y-126425000D01*
X134043619Y-129366381D02*
X134043619Y-127578156D01*
X134043619Y-127578156D02*
X134731775Y-126890000D01*
X133491106Y-129918894D02*
X134043619Y-129366381D01*
X134303856Y-130446144D02*
X135320000Y-129430000D01*
X117762944Y-130446144D02*
X121403856Y-130446144D01*
X121403856Y-130446144D02*
X122420000Y-129430000D01*
X118505694Y-129918894D02*
X120591106Y-129918894D01*
X120591106Y-129918894D02*
X121143619Y-129366381D01*
X108730000Y-125565000D02*
X110720000Y-125565000D01*
X110720000Y-125565000D02*
X111281332Y-125003668D01*
D19*
X110267000Y-127180000D02*
X110582000Y-126865000D01*
D18*
X111281332Y-121986332D02*
X111080000Y-121785000D01*
X111080000Y-121785000D02*
X109820000Y-121785000D01*
X111281332Y-125003668D02*
X111281332Y-121986332D01*
X106620000Y-126495000D02*
X106620000Y-126277490D01*
X106620000Y-126277490D02*
X108572490Y-124325000D01*
X106625000Y-126500000D02*
X106620000Y-126495000D01*
X107895000Y-126400000D02*
X108730000Y-125565000D01*
X104095000Y-124742501D02*
X103210202Y-125627299D01*
X105365000Y-124919200D02*
X103419200Y-126865000D01*
X104095000Y-122975000D02*
X104095000Y-124742501D01*
X105365000Y-122975000D02*
X105365000Y-124919200D01*
X92865000Y-123000000D02*
X92865000Y-124944200D01*
X92865000Y-124944200D02*
X90919200Y-126890000D01*
X90900000Y-123800000D02*
X90350000Y-124350000D01*
X91595000Y-123000000D02*
X91595000Y-124767501D01*
X91595000Y-124767501D02*
X90710202Y-125652299D01*
X88350000Y-129299200D02*
X88480800Y-129430000D01*
X88350000Y-125920000D02*
X88350000Y-129299200D01*
X90919200Y-126890000D02*
X89700000Y-126890000D01*
X90710202Y-125652299D02*
X88617701Y-125652299D01*
X88617701Y-125652299D02*
X88350000Y-125920000D01*
X91595000Y-128400000D02*
X91595000Y-129378200D01*
X88480800Y-129430000D02*
X89700000Y-129430000D01*
X96950000Y-126520000D02*
X97320000Y-126890000D01*
D19*
X97767000Y-127205000D02*
X98082000Y-126890000D01*
D18*
X96043619Y-127578156D02*
X96731775Y-126890000D01*
X94125000Y-126525000D02*
X94120000Y-126520000D01*
X96731775Y-126890000D02*
X97320000Y-126890000D01*
X94120000Y-126302490D02*
X96072490Y-124350000D01*
X94120000Y-126520000D02*
X94120000Y-126302490D01*
X94125000Y-128390000D02*
X94125000Y-126525000D01*
X92865000Y-128400000D02*
X92865000Y-129378200D01*
X96043619Y-129366381D02*
X96043619Y-127578156D01*
X95395000Y-128390000D02*
X95395000Y-126425000D01*
X95395000Y-126425000D02*
X96230000Y-125590000D01*
X90350000Y-124350000D02*
X89700000Y-124350000D01*
D19*
X90015000Y-121495000D02*
X89700000Y-121810000D01*
D18*
X90900000Y-122046030D02*
X90900000Y-123800000D01*
X89700000Y-121800000D02*
X89700000Y-121810000D01*
X90750000Y-120750000D02*
X89700000Y-121800000D01*
X98781332Y-125028668D02*
X98781332Y-122011332D01*
X98781332Y-122011332D02*
X98580000Y-121810000D01*
X96072490Y-124350000D02*
X97320000Y-124350000D01*
X96230000Y-125590000D02*
X98220000Y-125590000D01*
X98220000Y-125590000D02*
X98781332Y-125028668D01*
X98580000Y-121810000D02*
X97320000Y-121810000D01*
X94135000Y-123000000D02*
X94135000Y-122021800D01*
X94135000Y-122021800D02*
X93472697Y-121359497D01*
X95405000Y-123000000D02*
X95405000Y-122525000D01*
X91586533Y-121359497D02*
X90900000Y-122046030D01*
X93630000Y-120750000D02*
X90750000Y-120750000D01*
X93472697Y-121359497D02*
X91586533Y-121359497D01*
X95405000Y-122525000D02*
X93630000Y-120750000D01*
X84250000Y-126495000D02*
X84620000Y-126865000D01*
D19*
X85067000Y-127180000D02*
X85382000Y-126865000D01*
D18*
X83343619Y-127553156D02*
X84031775Y-126865000D01*
X83530000Y-125565000D02*
X85520000Y-125565000D01*
X81425000Y-128365000D02*
X81425000Y-126500000D01*
X82695000Y-128365000D02*
X82695000Y-126400000D01*
X80165000Y-128375000D02*
X80165000Y-129353200D01*
X83343619Y-129341381D02*
X83343619Y-127553156D01*
X77650000Y-124325000D02*
X77000000Y-124325000D01*
X75917701Y-125627299D02*
X75650000Y-125895000D01*
X78200000Y-123775000D02*
X77650000Y-124325000D01*
X78010202Y-125627299D02*
X75917701Y-125627299D01*
X78219200Y-126865000D02*
X77000000Y-126865000D01*
X75650000Y-125895000D02*
X75650000Y-129274200D01*
X75650000Y-129274200D02*
X75780800Y-129405000D01*
X75780800Y-129405000D02*
X77000000Y-129405000D01*
X78895000Y-128375000D02*
X78895000Y-129353200D01*
X77000000Y-121775000D02*
X77000000Y-121785000D01*
X82705000Y-122500000D02*
X80930000Y-120725000D01*
D19*
X77315000Y-121470000D02*
X77000000Y-121785000D01*
D18*
X78050000Y-120725000D02*
X77000000Y-121775000D01*
X80930000Y-120725000D02*
X78050000Y-120725000D01*
X82791106Y-129893894D02*
X83343619Y-129341381D01*
X83603856Y-130421144D02*
X84620000Y-129405000D01*
X79962944Y-130421144D02*
X83603856Y-130421144D01*
X80165000Y-129353200D02*
X80705694Y-129893894D01*
X78895000Y-129353200D02*
X79962944Y-130421144D01*
X80705694Y-129893894D02*
X82791106Y-129893894D01*
X96303856Y-130446144D02*
X97320000Y-129430000D01*
X91595000Y-129378200D02*
X92662944Y-130446144D01*
X93405694Y-129918894D02*
X95491106Y-129918894D01*
X95491106Y-129918894D02*
X96043619Y-129366381D01*
X92865000Y-129378200D02*
X93405694Y-129918894D01*
X92662944Y-130446144D02*
X96303856Y-130446144D01*
X78200000Y-122021030D02*
X78200000Y-123775000D01*
X81435000Y-122975000D02*
X81435000Y-121996800D01*
X82705000Y-122975000D02*
X82705000Y-122500000D01*
X81435000Y-121996800D02*
X80772697Y-121334497D01*
X78886533Y-121334497D02*
X78200000Y-122021030D01*
X80772697Y-121334497D02*
X78886533Y-121334497D01*
X83372490Y-124325000D02*
X84620000Y-124325000D01*
X81420000Y-126277490D02*
X83372490Y-124325000D01*
X84031775Y-126865000D02*
X84620000Y-126865000D01*
X81425000Y-126500000D02*
X81420000Y-126495000D01*
X82695000Y-126400000D02*
X83530000Y-125565000D01*
X81420000Y-126495000D02*
X81420000Y-126277490D01*
X85520000Y-125565000D02*
X86081332Y-125003668D01*
X85880000Y-121785000D02*
X84620000Y-121785000D01*
X86081332Y-121986332D02*
X85880000Y-121785000D01*
X86081332Y-125003668D02*
X86081332Y-121986332D01*
X80165000Y-122975000D02*
X80165000Y-124919200D01*
X78895000Y-124742501D02*
X78010202Y-125627299D01*
X78895000Y-122975000D02*
X78895000Y-124742501D01*
X80165000Y-124919200D02*
X78219200Y-126865000D01*
X65050000Y-120725000D02*
X64000000Y-121775000D01*
D19*
X64315000Y-121470000D02*
X64000000Y-121785000D01*
D18*
X64000000Y-121775000D02*
X64000000Y-121785000D01*
X65886533Y-121334497D02*
X65200000Y-122021030D01*
X67772697Y-121334497D02*
X65886533Y-121334497D01*
X67930000Y-120725000D02*
X65050000Y-120725000D01*
X68435000Y-121996800D02*
X67772697Y-121334497D01*
X69705000Y-122500000D02*
X67930000Y-120725000D01*
X65219200Y-126865000D02*
X64000000Y-126865000D01*
X62650000Y-129274200D02*
X62780800Y-129405000D01*
X62650000Y-125895000D02*
X62650000Y-129274200D01*
X65010202Y-125627299D02*
X62917701Y-125627299D01*
X62780800Y-129405000D02*
X64000000Y-129405000D01*
X62917701Y-125627299D02*
X62650000Y-125895000D01*
X64650000Y-124325000D02*
X64000000Y-124325000D01*
X67705694Y-129893894D02*
X69791106Y-129893894D01*
X69791106Y-129893894D02*
X70343619Y-129341381D01*
X70603856Y-130421144D02*
X71620000Y-129405000D01*
X67165000Y-128375000D02*
X67165000Y-129353200D01*
X65895000Y-128375000D02*
X65895000Y-129353200D01*
X67165000Y-129353200D02*
X67705694Y-129893894D01*
X65895000Y-129353200D02*
X66962944Y-130421144D01*
X66962944Y-130421144D02*
X70603856Y-130421144D01*
X72520000Y-125565000D02*
X73081332Y-125003668D01*
X73081332Y-121986332D02*
X72880000Y-121785000D01*
X72880000Y-121785000D02*
X71620000Y-121785000D01*
X73081332Y-125003668D02*
X73081332Y-121986332D01*
X68420000Y-126277490D02*
X70372490Y-124325000D01*
X70372490Y-124325000D02*
X71620000Y-124325000D01*
X68435000Y-122975000D02*
X68435000Y-121996800D01*
X69705000Y-122975000D02*
X69705000Y-122500000D01*
X70530000Y-125565000D02*
X72520000Y-125565000D01*
X71250000Y-126495000D02*
X71620000Y-126865000D01*
X70343619Y-127553156D02*
X71031775Y-126865000D01*
D19*
X72067000Y-127180000D02*
X72382000Y-126865000D01*
D18*
X71031775Y-126865000D02*
X71620000Y-126865000D01*
X65200000Y-122021030D02*
X65200000Y-123775000D01*
X70343619Y-129341381D02*
X70343619Y-127553156D01*
X68420000Y-126495000D02*
X68420000Y-126277490D01*
X68425000Y-126500000D02*
X68420000Y-126495000D01*
X68425000Y-128365000D02*
X68425000Y-126500000D01*
X69695000Y-128365000D02*
X69695000Y-126400000D01*
X69695000Y-126400000D02*
X70530000Y-125565000D01*
X67165000Y-124919200D02*
X65219200Y-126865000D01*
X67165000Y-122975000D02*
X67165000Y-124919200D01*
X65895000Y-124742501D02*
X65010202Y-125627299D01*
X65895000Y-122975000D02*
X65895000Y-124742501D01*
X65200000Y-123775000D02*
X64650000Y-124325000D01*
D19*
X117609240Y-113345000D02*
X117609240Y-114030760D01*
X117611780Y-116205000D02*
X116959000Y-116205000D01*
X116959000Y-116205000D02*
X116324000Y-116840000D01*
X117340000Y-114300000D02*
X114800000Y-114300000D01*
X119610760Y-115255000D02*
X119610760Y-114569240D01*
X116324000Y-116840000D02*
X114800000Y-116840000D01*
X117609240Y-114030760D02*
X117340000Y-114300000D01*
X119610760Y-114569240D02*
X119880000Y-114300000D01*
X117609240Y-111445000D02*
X115115000Y-111445000D01*
X115115000Y-111445000D02*
X114800000Y-111760000D01*
X117611780Y-106570000D02*
X116959000Y-106570000D01*
X116959000Y-106570000D02*
X116324000Y-107205000D01*
X119608220Y-112395000D02*
X121023000Y-112395000D01*
X116324000Y-107205000D02*
X114800000Y-107205000D01*
X119608220Y-102760000D02*
X121023000Y-102760000D01*
X117609240Y-101810000D02*
X115115000Y-101810000D01*
X117609240Y-104395760D02*
X117340000Y-104665000D01*
X117340000Y-104665000D02*
X114800000Y-104665000D01*
X117609240Y-103710000D02*
X117609240Y-104395760D01*
X119610760Y-104934240D02*
X119880000Y-104665000D01*
X119610760Y-105620000D02*
X119610760Y-104934240D01*
X115115000Y-101810000D02*
X114800000Y-102125000D01*
X105009240Y-101810000D02*
X102515000Y-101810000D01*
X104740000Y-104665000D02*
X102200000Y-104665000D01*
X104359000Y-106570000D02*
X103724000Y-107205000D01*
X103724000Y-107205000D02*
X102200000Y-107205000D01*
X105009240Y-104395760D02*
X104740000Y-104665000D01*
X102515000Y-101810000D02*
X102200000Y-102125000D01*
X105009240Y-103710000D02*
X105009240Y-104395760D01*
X105011780Y-106570000D02*
X104359000Y-106570000D01*
X104359000Y-116205000D02*
X103724000Y-116840000D01*
X105011780Y-116205000D02*
X104359000Y-116205000D01*
X103724000Y-116840000D02*
X102200000Y-116840000D01*
X105009240Y-113345000D02*
X105009240Y-114030760D01*
X104740000Y-114300000D02*
X102200000Y-114300000D01*
X105009240Y-114030760D02*
X104740000Y-114300000D01*
X109058000Y-111760000D02*
X110582000Y-111760000D01*
X105009240Y-111445000D02*
X102515000Y-111445000D01*
X108423000Y-112395000D02*
X109058000Y-111760000D01*
X102515000Y-111445000D02*
X102200000Y-111760000D01*
X107008220Y-112395000D02*
X108423000Y-112395000D01*
X107010760Y-114569240D02*
X107280000Y-114300000D01*
X107280000Y-114300000D02*
X110582000Y-114300000D01*
X107010760Y-117155000D02*
X110267000Y-117155000D01*
X110267000Y-117155000D02*
X110582000Y-116840000D01*
X107010760Y-115255000D02*
X107010760Y-114569240D01*
X108423000Y-102760000D02*
X109058000Y-102125000D01*
X109058000Y-102125000D02*
X110582000Y-102125000D01*
X107010760Y-104934240D02*
X107280000Y-104665000D01*
X110267000Y-107520000D02*
X110582000Y-107205000D01*
X107010760Y-107520000D02*
X110267000Y-107520000D01*
X107008220Y-102760000D02*
X108423000Y-102760000D01*
X107280000Y-104665000D02*
X110582000Y-104665000D01*
X107010760Y-105620000D02*
X107010760Y-104934240D01*
X96620000Y-111760000D02*
X98144000Y-111760000D01*
X94572760Y-117155000D02*
X97829000Y-117155000D01*
X94572760Y-114569240D02*
X94842000Y-114300000D01*
X94572760Y-115255000D02*
X94572760Y-114569240D01*
X94842000Y-114300000D02*
X98144000Y-114300000D01*
X97829000Y-117155000D02*
X98144000Y-116840000D01*
X92571240Y-114030760D02*
X92302000Y-114300000D01*
X92571240Y-113345000D02*
X92571240Y-114030760D01*
X92571240Y-111445000D02*
X90077000Y-111445000D01*
X90077000Y-111445000D02*
X89762000Y-111760000D01*
X94572760Y-104934240D02*
X94842000Y-104665000D01*
X94572760Y-105620000D02*
X94572760Y-104934240D01*
X97829000Y-107520000D02*
X98144000Y-107205000D01*
X96620000Y-102125000D02*
X98144000Y-102125000D01*
X94572760Y-107520000D02*
X97829000Y-107520000D01*
X94842000Y-104665000D02*
X98144000Y-104665000D01*
X92302000Y-114300000D02*
X89762000Y-114300000D01*
X91921000Y-116205000D02*
X91286000Y-116840000D01*
X92573780Y-116205000D02*
X91921000Y-116205000D01*
X91286000Y-116840000D02*
X89762000Y-116840000D01*
D20*
X115816000Y-135890000D02*
X115816000Y-133350000D01*
X118356000Y-137160000D02*
X118356000Y-135890000D01*
X118356000Y-135890000D02*
X118356000Y-133350000D01*
X113911000Y-137795000D02*
X115816000Y-135890000D01*
X117013000Y-138503000D02*
X118356000Y-137160000D01*
D21*
X103594000Y-135758000D02*
X103594000Y-133218000D01*
X106134000Y-137536000D02*
X106134000Y-133218000D01*
X106896000Y-137536000D02*
X108674000Y-135758000D01*
X108674000Y-135758000D02*
X108674000Y-133218000D01*
X106134000Y-137536000D02*
X105372000Y-137536000D01*
X105372000Y-137536000D02*
X103594000Y-135758000D01*
X106134000Y-137536000D02*
X106896000Y-137536000D01*
D20*
X117013000Y-145862340D02*
X117013000Y-145063000D01*
X113911000Y-142875000D02*
X113911000Y-137795000D01*
X116898340Y-145862340D02*
X113911000Y-142875000D01*
X117013000Y-145862340D02*
X116898340Y-145862340D01*
X117013000Y-139862860D02*
X117013000Y-138503000D01*
D21*
X106134000Y-144140000D02*
X106134000Y-148458000D01*
X108420000Y-148204000D02*
X108674000Y-148458000D01*
X103848000Y-144140000D02*
X103848000Y-148204000D01*
X108420000Y-144140000D02*
X108420000Y-148204000D01*
X103848000Y-148204000D02*
X103594000Y-148458000D01*
X94231000Y-137546000D02*
X96009000Y-135768000D01*
X93469000Y-137546000D02*
X94231000Y-137546000D01*
X96009000Y-135768000D02*
X96009000Y-133228000D01*
X92707000Y-137546000D02*
X90929000Y-135768000D01*
X93469000Y-137546000D02*
X92707000Y-137546000D01*
X93469000Y-137546000D02*
X93469000Y-133228000D01*
X90929000Y-135768000D02*
X90929000Y-133228000D01*
X95755000Y-148214000D02*
X96009000Y-148468000D01*
X91183000Y-148214000D02*
X90929000Y-148468000D01*
X91183000Y-144150000D02*
X91183000Y-148214000D01*
X93469000Y-144150000D02*
X93469000Y-148468000D01*
X95755000Y-144150000D02*
X95755000Y-148214000D01*
D19*
X132572760Y-117155000D02*
X135829000Y-117155000D01*
X129921000Y-116205000D02*
X129286000Y-116840000D01*
X135829000Y-117155000D02*
X136144000Y-116840000D01*
X130573780Y-116205000D02*
X129921000Y-116205000D01*
X129286000Y-116840000D02*
X127762000Y-116840000D01*
X119610760Y-117155000D02*
X122867000Y-117155000D01*
X122867000Y-117155000D02*
X123182000Y-116840000D01*
X121023000Y-112395000D02*
X121658000Y-111760000D01*
X121658000Y-111760000D02*
X123182000Y-111760000D01*
X119880000Y-114300000D02*
X123182000Y-114300000D01*
X129286000Y-107205000D02*
X127762000Y-107205000D01*
X129921000Y-106570000D02*
X129286000Y-107205000D01*
X128077000Y-111445000D02*
X127762000Y-111760000D01*
X130571240Y-111445000D02*
X128077000Y-111445000D01*
X130573780Y-106570000D02*
X129921000Y-106570000D01*
X119610760Y-107520000D02*
X122867000Y-107520000D01*
X122867000Y-107520000D02*
X123182000Y-107205000D01*
X121658000Y-102125000D02*
X123182000Y-102125000D01*
X119880000Y-104665000D02*
X123182000Y-104665000D01*
X121023000Y-102760000D02*
X121658000Y-102125000D01*
X145542000Y-104665000D02*
X148844000Y-104665000D01*
X145270220Y-102760000D02*
X146685000Y-102760000D01*
X147320000Y-102125000D02*
X148844000Y-102125000D01*
X145272760Y-105620000D02*
X145272760Y-104934240D01*
X146685000Y-102760000D02*
X147320000Y-102125000D01*
X145272760Y-104934240D02*
X145542000Y-104665000D01*
X148529000Y-107520000D02*
X148844000Y-107205000D01*
X130302000Y-104665000D02*
X127762000Y-104665000D01*
X130571240Y-101810000D02*
X128077000Y-101810000D01*
X128077000Y-101810000D02*
X127762000Y-102125000D01*
X130571240Y-103710000D02*
X130571240Y-104395760D01*
X130571240Y-104395760D02*
X130302000Y-104665000D01*
X132570220Y-112395000D02*
X133985000Y-112395000D01*
X130571240Y-113345000D02*
X130571240Y-114030760D01*
X130571240Y-114030760D02*
X130302000Y-114300000D01*
X130302000Y-114300000D02*
X127762000Y-114300000D01*
X132572760Y-105620000D02*
X132572760Y-104934240D01*
X135829000Y-107520000D02*
X136144000Y-107205000D01*
X133985000Y-102760000D02*
X134620000Y-102125000D01*
X132842000Y-104665000D02*
X136144000Y-104665000D01*
X132570220Y-102760000D02*
X133985000Y-102760000D01*
X132572760Y-104934240D02*
X132842000Y-104665000D01*
X134620000Y-102125000D02*
X136144000Y-102125000D01*
X143273780Y-106570000D02*
X142621000Y-106570000D01*
X143002000Y-104665000D02*
X140462000Y-104665000D01*
X140777000Y-101810000D02*
X140462000Y-102125000D01*
X142621000Y-106570000D02*
X141986000Y-107205000D01*
X141986000Y-107205000D02*
X140462000Y-107205000D01*
X143271240Y-104395760D02*
X143002000Y-104665000D01*
X143271240Y-101810000D02*
X140777000Y-101810000D01*
X143271240Y-103710000D02*
X143271240Y-104395760D01*
X143271240Y-111445000D02*
X140777000Y-111445000D01*
X143271240Y-114030760D02*
X143002000Y-114300000D01*
X143273780Y-116205000D02*
X142621000Y-116205000D01*
X142621000Y-116205000D02*
X141986000Y-116840000D01*
X141986000Y-116840000D02*
X140462000Y-116840000D01*
X140777000Y-111445000D02*
X140462000Y-111760000D01*
X143002000Y-114300000D02*
X140462000Y-114300000D01*
X143271240Y-113345000D02*
X143271240Y-114030760D01*
X145272760Y-117155000D02*
X148529000Y-117155000D01*
X148529000Y-117155000D02*
X148844000Y-116840000D01*
X145270220Y-112395000D02*
X146685000Y-112395000D01*
X147320000Y-111760000D02*
X148844000Y-111760000D01*
X145542000Y-114300000D02*
X148844000Y-114300000D01*
X146685000Y-112395000D02*
X147320000Y-111760000D01*
X145272760Y-114569240D02*
X145542000Y-114300000D01*
X145272760Y-107520000D02*
X148529000Y-107520000D01*
X145272760Y-115255000D02*
X145272760Y-114569240D01*
X132572760Y-114569240D02*
X132842000Y-114300000D01*
X134620000Y-111760000D02*
X136144000Y-111760000D01*
X133985000Y-112395000D02*
X134620000Y-111760000D01*
X132572760Y-107520000D02*
X135829000Y-107520000D01*
X132572760Y-115255000D02*
X132572760Y-114569240D01*
X132842000Y-114300000D02*
X136144000Y-114300000D01*
D20*
X129538000Y-145862340D02*
X129423340Y-145862340D01*
X126436000Y-142875000D02*
X126436000Y-137795000D01*
X129538000Y-139862860D02*
X129538000Y-138503000D01*
X129423340Y-145862340D02*
X126436000Y-142875000D01*
X129538000Y-145862340D02*
X129538000Y-145063000D01*
D21*
X144169000Y-144150000D02*
X144169000Y-148468000D01*
X141883000Y-144150000D02*
X141883000Y-148214000D01*
X146455000Y-144150000D02*
X146455000Y-148214000D01*
X141883000Y-148214000D02*
X141629000Y-148468000D01*
X146455000Y-148214000D02*
X146709000Y-148468000D01*
X144169000Y-137546000D02*
X144931000Y-137546000D01*
X144169000Y-137546000D02*
X144169000Y-133228000D01*
X143407000Y-137546000D02*
X141629000Y-135768000D01*
X144931000Y-137546000D02*
X146709000Y-135768000D01*
X141629000Y-135768000D02*
X141629000Y-133228000D01*
X144169000Y-137546000D02*
X143407000Y-137546000D01*
X146709000Y-135768000D02*
X146709000Y-133228000D01*
D20*
X128341000Y-135890000D02*
X128341000Y-133350000D01*
X126436000Y-137795000D02*
X128341000Y-135890000D01*
X129538000Y-138503000D02*
X130881000Y-137160000D01*
X130881000Y-137160000D02*
X130881000Y-135890000D01*
X130881000Y-135890000D02*
X130881000Y-133350000D01*
D18*
X57365000Y-122950000D02*
X57365000Y-122475000D01*
X56095000Y-122950000D02*
X56095000Y-121971800D01*
X57365000Y-122475000D02*
X55590000Y-120700000D01*
X56095000Y-121971800D02*
X55432697Y-121309497D01*
X52710000Y-120700000D02*
X51660000Y-121750000D01*
D19*
X51975000Y-121445000D02*
X51660000Y-121760000D01*
D18*
X55432697Y-121309497D02*
X53546533Y-121309497D01*
X55590000Y-120700000D02*
X52710000Y-120700000D01*
X53546533Y-121309497D02*
X52860000Y-121996030D01*
X58032490Y-124300000D02*
X59280000Y-124300000D01*
X56080000Y-126252490D02*
X58032490Y-124300000D01*
X56085000Y-126475000D02*
X56080000Y-126470000D01*
X56080000Y-126470000D02*
X56080000Y-126252490D01*
X54825000Y-122950000D02*
X54825000Y-124894200D01*
X52860000Y-123750000D02*
X52310000Y-124300000D01*
X52860000Y-121996030D02*
X52860000Y-123750000D01*
X51660000Y-121750000D02*
X51660000Y-121760000D01*
X52310000Y-124300000D02*
X51660000Y-124300000D01*
D19*
X54409240Y-103710000D02*
X54409240Y-104395760D01*
X54409240Y-104395760D02*
X54140000Y-104665000D01*
X54409240Y-101810000D02*
X51915000Y-101810000D01*
X51915000Y-101810000D02*
X51600000Y-102125000D01*
X57823000Y-102760000D02*
X58458000Y-102125000D01*
X56408220Y-102760000D02*
X57823000Y-102760000D01*
X58458000Y-102125000D02*
X59982000Y-102125000D01*
X56680000Y-104665000D02*
X59982000Y-104665000D01*
X56410760Y-104934240D02*
X56680000Y-104665000D01*
X59667000Y-107520000D02*
X59982000Y-107205000D01*
X56410760Y-107520000D02*
X59667000Y-107520000D01*
X56410760Y-105620000D02*
X56410760Y-104934240D01*
X56410760Y-117155000D02*
X59667000Y-117155000D01*
X59667000Y-117155000D02*
X59982000Y-116840000D01*
X56680000Y-114300000D02*
X59982000Y-114300000D01*
X56410760Y-115255000D02*
X56410760Y-114569240D01*
X53759000Y-116205000D02*
X53124000Y-116840000D01*
X53124000Y-116840000D02*
X51600000Y-116840000D01*
X54140000Y-114300000D02*
X51600000Y-114300000D01*
X54411780Y-116205000D02*
X53759000Y-116205000D01*
X54409240Y-114030760D02*
X54140000Y-114300000D01*
X54409240Y-113345000D02*
X54409240Y-114030760D01*
X51915000Y-111445000D02*
X51600000Y-111760000D01*
X54409240Y-111445000D02*
X51915000Y-111445000D01*
X56408220Y-112395000D02*
X57823000Y-112395000D01*
X56410760Y-114569240D02*
X56680000Y-114300000D01*
X57823000Y-112395000D02*
X58458000Y-111760000D01*
X58458000Y-111760000D02*
X59982000Y-111760000D01*
X53124000Y-107205000D02*
X51600000Y-107205000D01*
X53759000Y-106570000D02*
X53124000Y-107205000D01*
X54411780Y-106570000D02*
X53759000Y-106570000D01*
X54140000Y-104665000D02*
X51600000Y-104665000D01*
X70223000Y-112395000D02*
X70858000Y-111760000D01*
X70858000Y-111760000D02*
X72382000Y-111760000D01*
X68808220Y-112395000D02*
X70223000Y-112395000D01*
X68810760Y-115255000D02*
X68810760Y-114569240D01*
X72067000Y-117155000D02*
X72382000Y-116840000D01*
X68810760Y-117155000D02*
X72067000Y-117155000D01*
X69080000Y-114300000D02*
X72382000Y-114300000D01*
X68810760Y-114569240D02*
X69080000Y-114300000D01*
X70858000Y-102125000D02*
X72382000Y-102125000D01*
X68808220Y-102760000D02*
X70223000Y-102760000D01*
X68810760Y-104934240D02*
X69080000Y-104665000D01*
X70223000Y-102760000D02*
X70858000Y-102125000D01*
X66811780Y-106570000D02*
X66159000Y-106570000D01*
X72067000Y-107520000D02*
X72382000Y-107205000D01*
X68810760Y-107520000D02*
X72067000Y-107520000D01*
X68810760Y-105620000D02*
X68810760Y-104934240D01*
X69080000Y-104665000D02*
X72382000Y-104665000D01*
X66159000Y-106570000D02*
X65524000Y-107205000D01*
X66540000Y-104665000D02*
X64000000Y-104665000D01*
X65524000Y-107205000D02*
X64000000Y-107205000D01*
X66809240Y-101810000D02*
X64315000Y-101810000D01*
X64315000Y-101810000D02*
X64000000Y-102125000D01*
X66809240Y-104395760D02*
X66540000Y-104665000D01*
X66809240Y-103710000D02*
X66809240Y-104395760D01*
X64315000Y-111445000D02*
X64000000Y-111760000D01*
X66809240Y-111445000D02*
X64315000Y-111445000D01*
X66809240Y-113345000D02*
X66809240Y-114030760D01*
X66159000Y-116205000D02*
X65524000Y-116840000D01*
X66811780Y-116205000D02*
X66159000Y-116205000D01*
X65524000Y-116840000D02*
X64000000Y-116840000D01*
X66809240Y-114030760D02*
X66540000Y-114300000D01*
X66540000Y-114300000D02*
X64000000Y-114300000D01*
D20*
X78673340Y-145862340D02*
X75686000Y-142875000D01*
X78788000Y-145862340D02*
X78788000Y-145063000D01*
X78788000Y-145862340D02*
X78673340Y-145862340D01*
X78788000Y-139862860D02*
X78788000Y-138503000D01*
X75686000Y-142875000D02*
X75686000Y-137795000D01*
X66213000Y-139862860D02*
X66213000Y-138503000D01*
X66213000Y-145862340D02*
X66098340Y-145862340D01*
X63111000Y-142875000D02*
X63111000Y-137795000D01*
X66213000Y-145862340D02*
X66213000Y-145063000D01*
X66098340Y-145862340D02*
X63111000Y-142875000D01*
X67556000Y-135890000D02*
X67556000Y-133350000D01*
X63111000Y-137795000D02*
X65016000Y-135890000D01*
X67556000Y-137160000D02*
X67556000Y-135890000D01*
X66213000Y-138503000D02*
X67556000Y-137160000D01*
X65016000Y-135890000D02*
X65016000Y-133350000D01*
X80131000Y-135890000D02*
X80131000Y-133350000D01*
X80131000Y-137160000D02*
X80131000Y-135890000D01*
X77591000Y-135890000D02*
X77591000Y-133350000D01*
X78788000Y-138503000D02*
X80131000Y-137160000D01*
X75686000Y-137795000D02*
X77591000Y-135890000D01*
D21*
X53248000Y-144140000D02*
X53248000Y-148204000D01*
X57820000Y-144140000D02*
X57820000Y-148204000D01*
X57820000Y-148204000D02*
X58074000Y-148458000D01*
X55534000Y-144140000D02*
X55534000Y-148458000D01*
X53248000Y-148204000D02*
X52994000Y-148458000D01*
D18*
X55365694Y-129868894D02*
X57451106Y-129868894D01*
X53555000Y-129328200D02*
X54622944Y-130396144D01*
X54825000Y-129328200D02*
X55365694Y-129868894D01*
X58263856Y-130396144D02*
X59280000Y-129380000D01*
X57451106Y-129868894D02*
X58003619Y-129316381D01*
X54622944Y-130396144D02*
X58263856Y-130396144D01*
D21*
X54772000Y-137536000D02*
X52994000Y-135758000D01*
X52994000Y-135758000D02*
X52994000Y-133218000D01*
X55534000Y-137536000D02*
X55534000Y-133218000D01*
X56296000Y-137536000D02*
X58074000Y-135758000D01*
X55534000Y-137536000D02*
X54772000Y-137536000D01*
X55534000Y-137536000D02*
X56296000Y-137536000D01*
X58074000Y-135758000D02*
X58074000Y-133218000D01*
D18*
X58003619Y-127528156D02*
X58691775Y-126840000D01*
X58910000Y-126470000D02*
X59280000Y-126840000D01*
D19*
X59727000Y-127155000D02*
X60042000Y-126840000D01*
D18*
X58691775Y-126840000D02*
X59280000Y-126840000D01*
X52879200Y-126840000D02*
X51660000Y-126840000D01*
X54825000Y-124894200D02*
X52879200Y-126840000D01*
X53555000Y-128350000D02*
X53555000Y-129328200D01*
X54825000Y-128350000D02*
X54825000Y-129328200D01*
X56085000Y-128340000D02*
X56085000Y-126475000D01*
X58003619Y-129316381D02*
X58003619Y-127528156D01*
D19*
X94570220Y-112395000D02*
X95985000Y-112395000D01*
X91286000Y-107205000D02*
X89762000Y-107205000D01*
X92302000Y-104665000D02*
X89762000Y-104665000D01*
X91921000Y-106570000D02*
X91286000Y-107205000D01*
X95985000Y-112395000D02*
X96620000Y-111760000D01*
X92573780Y-106570000D02*
X91921000Y-106570000D01*
X94570220Y-102760000D02*
X95985000Y-102760000D01*
X92571240Y-104395760D02*
X92302000Y-104665000D01*
X90077000Y-101810000D02*
X89762000Y-102125000D01*
X95985000Y-102760000D02*
X96620000Y-102125000D01*
X92571240Y-101810000D02*
X90077000Y-101810000D01*
X92571240Y-103710000D02*
X92571240Y-104395760D01*
X79873780Y-106570000D02*
X79221000Y-106570000D01*
X78586000Y-107205000D02*
X77062000Y-107205000D01*
X79221000Y-106570000D02*
X78586000Y-107205000D01*
X77377000Y-101810000D02*
X77062000Y-102125000D01*
X79871240Y-103710000D02*
X79871240Y-104395760D01*
X79871240Y-101810000D02*
X77377000Y-101810000D01*
X79871240Y-104395760D02*
X79602000Y-104665000D01*
X79602000Y-104665000D02*
X77062000Y-104665000D01*
X81872760Y-107520000D02*
X85129000Y-107520000D01*
X85129000Y-107520000D02*
X85444000Y-107205000D01*
X82142000Y-104665000D02*
X85444000Y-104665000D01*
X83920000Y-102125000D02*
X85444000Y-102125000D01*
X83285000Y-102760000D02*
X83920000Y-102125000D01*
X81870220Y-102760000D02*
X83285000Y-102760000D01*
X81872760Y-105620000D02*
X81872760Y-104934240D01*
X81872760Y-104934240D02*
X82142000Y-104665000D01*
X79871240Y-114030760D02*
X79602000Y-114300000D01*
X79871240Y-111445000D02*
X77377000Y-111445000D01*
X77377000Y-111445000D02*
X77062000Y-111760000D01*
X79871240Y-113345000D02*
X79871240Y-114030760D01*
X79221000Y-116205000D02*
X78586000Y-116840000D01*
X79602000Y-114300000D02*
X77062000Y-114300000D01*
X78586000Y-116840000D02*
X77062000Y-116840000D01*
X79873780Y-116205000D02*
X79221000Y-116205000D01*
X81872760Y-117155000D02*
X85129000Y-117155000D01*
X85129000Y-117155000D02*
X85444000Y-116840000D01*
X81872760Y-115255000D02*
X81872760Y-114569240D01*
X82142000Y-114300000D02*
X85444000Y-114300000D01*
X81870220Y-112395000D02*
X83285000Y-112395000D01*
X83285000Y-112395000D02*
X83920000Y-111760000D01*
X83920000Y-111760000D02*
X85444000Y-111760000D01*
X81872760Y-114569240D02*
X82142000Y-114300000D01*
X105011780Y-66205000D02*
X104359000Y-66205000D01*
X104359000Y-66205000D02*
X103724000Y-66840000D01*
X103724000Y-66840000D02*
X102200000Y-66840000D01*
X116324000Y-66840000D02*
X114800000Y-66840000D01*
X116959000Y-66205000D02*
X116324000Y-66840000D01*
X117611780Y-66205000D02*
X116959000Y-66205000D01*
D21*
X108674000Y-85758000D02*
X108674000Y-83218000D01*
X106896000Y-87536000D02*
X108674000Y-85758000D01*
X103848000Y-98204000D02*
X103594000Y-98458000D01*
X106134000Y-94140000D02*
X106134000Y-98458000D01*
X108420000Y-98204000D02*
X108674000Y-98458000D01*
X108420000Y-94140000D02*
X108420000Y-98204000D01*
X103848000Y-94140000D02*
X103848000Y-98204000D01*
X103594000Y-85758000D02*
X103594000Y-83218000D01*
X106134000Y-87536000D02*
X105372000Y-87536000D01*
X106134000Y-87536000D02*
X106134000Y-83218000D01*
X106134000Y-87536000D02*
X106896000Y-87536000D01*
X105372000Y-87536000D02*
X103594000Y-85758000D01*
D20*
X118356000Y-87160000D02*
X118356000Y-85890000D01*
X118356000Y-85890000D02*
X118356000Y-83350000D01*
X113911000Y-87795000D02*
X115816000Y-85890000D01*
X115816000Y-85890000D02*
X115816000Y-83350000D01*
X117013000Y-88503000D02*
X118356000Y-87160000D01*
X117013000Y-95862340D02*
X117013000Y-95063000D01*
X113911000Y-92875000D02*
X113911000Y-87795000D01*
X116898340Y-95862340D02*
X113911000Y-92875000D01*
X117013000Y-95862340D02*
X116898340Y-95862340D01*
X117013000Y-89862860D02*
X117013000Y-88503000D01*
D19*
X105009240Y-64030760D02*
X104740000Y-64300000D01*
X104740000Y-64300000D02*
X102200000Y-64300000D01*
X105009240Y-63345000D02*
X105009240Y-64030760D01*
X105009240Y-61445000D02*
X102515000Y-61445000D01*
X102515000Y-61445000D02*
X102200000Y-61760000D01*
X115115000Y-61445000D02*
X114800000Y-61760000D01*
X117340000Y-64300000D02*
X114800000Y-64300000D01*
X117609240Y-64030760D02*
X117340000Y-64300000D01*
X117609240Y-63345000D02*
X117609240Y-64030760D01*
X117609240Y-61445000D02*
X115115000Y-61445000D01*
X107010760Y-67155000D02*
X110267000Y-67155000D01*
X107008220Y-62395000D02*
X108423000Y-62395000D01*
X110267000Y-67155000D02*
X110582000Y-66840000D01*
X107280000Y-64300000D02*
X110582000Y-64300000D01*
X107010760Y-64569240D02*
X107280000Y-64300000D01*
X108423000Y-62395000D02*
X109058000Y-61760000D01*
X109058000Y-61760000D02*
X110582000Y-61760000D01*
X107010760Y-65255000D02*
X107010760Y-64569240D01*
X117611780Y-56045000D02*
X116959000Y-56045000D01*
X116324000Y-56680000D02*
X114800000Y-56680000D01*
X117609240Y-53185000D02*
X117609240Y-53870760D01*
X117609240Y-53870760D02*
X117340000Y-54140000D01*
X117340000Y-54140000D02*
X114800000Y-54140000D01*
X117609240Y-51285000D02*
X115115000Y-51285000D01*
X115115000Y-51285000D02*
X114800000Y-51600000D01*
X116959000Y-56045000D02*
X116324000Y-56680000D01*
X119610760Y-56995000D02*
X122867000Y-56995000D01*
X121658000Y-51600000D02*
X123182000Y-51600000D01*
X121023000Y-52235000D02*
X121658000Y-51600000D01*
X122867000Y-56995000D02*
X123182000Y-56680000D01*
X119610760Y-55095000D02*
X119610760Y-54409240D01*
X119610760Y-54409240D02*
X119880000Y-54140000D01*
X119880000Y-54140000D02*
X123182000Y-54140000D01*
X119608220Y-52235000D02*
X121023000Y-52235000D01*
X109058000Y-51600000D02*
X110582000Y-51600000D01*
X107008220Y-52235000D02*
X108423000Y-52235000D01*
X107280000Y-54140000D02*
X110582000Y-54140000D01*
X107010760Y-54409240D02*
X107280000Y-54140000D01*
X107010760Y-55095000D02*
X107010760Y-54409240D01*
X110267000Y-56995000D02*
X110582000Y-56680000D01*
X107010760Y-56995000D02*
X110267000Y-56995000D01*
X108423000Y-52235000D02*
X109058000Y-51600000D01*
X122867000Y-67155000D02*
X123182000Y-66840000D01*
X121658000Y-61760000D02*
X123182000Y-61760000D01*
X121023000Y-62395000D02*
X121658000Y-61760000D01*
X119608220Y-62395000D02*
X121023000Y-62395000D01*
X119610760Y-64569240D02*
X119880000Y-64300000D01*
X119610760Y-65255000D02*
X119610760Y-64569240D01*
X119610760Y-67155000D02*
X122867000Y-67155000D01*
X119880000Y-64300000D02*
X123182000Y-64300000D01*
X102515000Y-51285000D02*
X102200000Y-51600000D01*
X104740000Y-54140000D02*
X102200000Y-54140000D01*
X105009240Y-53870760D02*
X104740000Y-54140000D01*
X105009240Y-53185000D02*
X105009240Y-53870760D01*
X103724000Y-56680000D02*
X102200000Y-56680000D01*
X104359000Y-56045000D02*
X103724000Y-56680000D01*
X105011780Y-56045000D02*
X104359000Y-56045000D01*
X105009240Y-51285000D02*
X102515000Y-51285000D01*
D20*
X128341000Y-85890000D02*
X128341000Y-83350000D01*
X130881000Y-85890000D02*
X130881000Y-83350000D01*
X129538000Y-88503000D02*
X130881000Y-87160000D01*
X130881000Y-87160000D02*
X130881000Y-85890000D01*
X126436000Y-87795000D02*
X128341000Y-85890000D01*
D21*
X141629000Y-85768000D02*
X141629000Y-83228000D01*
X146709000Y-85768000D02*
X146709000Y-83228000D01*
X144169000Y-87546000D02*
X144931000Y-87546000D01*
X144169000Y-87546000D02*
X144169000Y-83228000D01*
X144931000Y-87546000D02*
X146709000Y-85768000D01*
X144169000Y-87546000D02*
X143407000Y-87546000D01*
X143407000Y-87546000D02*
X141629000Y-85768000D01*
X146455000Y-94150000D02*
X146455000Y-98214000D01*
X144169000Y-94150000D02*
X144169000Y-98468000D01*
X141883000Y-94150000D02*
X141883000Y-98214000D01*
X141883000Y-98214000D02*
X141629000Y-98468000D01*
X146455000Y-98214000D02*
X146709000Y-98468000D01*
D20*
X129538000Y-95862340D02*
X129423340Y-95862340D01*
X126436000Y-92875000D02*
X126436000Y-87795000D01*
X129538000Y-89862860D02*
X129538000Y-88503000D01*
X129423340Y-95862340D02*
X126436000Y-92875000D01*
X129538000Y-95862340D02*
X129538000Y-95063000D01*
D19*
X134620000Y-51600000D02*
X136144000Y-51600000D01*
X132842000Y-54140000D02*
X136144000Y-54140000D01*
X132570220Y-52235000D02*
X133985000Y-52235000D01*
X133985000Y-52235000D02*
X134620000Y-51600000D01*
X132572760Y-55095000D02*
X132572760Y-54409240D01*
X135829000Y-56995000D02*
X136144000Y-56680000D01*
X132572760Y-54409240D02*
X132842000Y-54140000D01*
X132572760Y-56995000D02*
X135829000Y-56995000D01*
X132570220Y-62395000D02*
X133985000Y-62395000D01*
X133985000Y-62395000D02*
X134620000Y-61760000D01*
X134620000Y-61760000D02*
X136144000Y-61760000D01*
X130573780Y-66205000D02*
X129921000Y-66205000D01*
X129286000Y-66840000D02*
X127762000Y-66840000D01*
X129921000Y-66205000D02*
X129286000Y-66840000D01*
X130571240Y-63345000D02*
X130571240Y-64030760D01*
X130571240Y-64030760D02*
X130302000Y-64300000D01*
X130302000Y-64300000D02*
X127762000Y-64300000D01*
X130571240Y-61445000D02*
X128077000Y-61445000D01*
X128077000Y-61445000D02*
X127762000Y-61760000D01*
X132572760Y-67155000D02*
X135829000Y-67155000D01*
X132572760Y-65255000D02*
X132572760Y-64569240D01*
X132572760Y-64569240D02*
X132842000Y-64300000D01*
X132842000Y-64300000D02*
X136144000Y-64300000D01*
X135829000Y-67155000D02*
X136144000Y-66840000D01*
X128077000Y-51285000D02*
X127762000Y-51600000D01*
X130571240Y-51285000D02*
X128077000Y-51285000D01*
X129921000Y-56045000D02*
X129286000Y-56680000D01*
X130571240Y-53870760D02*
X130302000Y-54140000D01*
X130302000Y-54140000D02*
X127762000Y-54140000D01*
X130573780Y-56045000D02*
X129921000Y-56045000D01*
X130571240Y-53185000D02*
X130571240Y-53870760D01*
X129286000Y-56680000D02*
X127762000Y-56680000D01*
X143273780Y-56045000D02*
X142621000Y-56045000D01*
X143002000Y-54140000D02*
X140462000Y-54140000D01*
X142621000Y-56045000D02*
X141986000Y-56680000D01*
X141986000Y-56680000D02*
X140462000Y-56680000D01*
X143271240Y-53185000D02*
X143271240Y-53870760D01*
X143271240Y-51285000D02*
X140777000Y-51285000D01*
X140777000Y-51285000D02*
X140462000Y-51600000D01*
X143271240Y-53870760D02*
X143002000Y-54140000D01*
X145272760Y-56995000D02*
X148529000Y-56995000D01*
X145542000Y-54140000D02*
X148844000Y-54140000D01*
X146685000Y-52235000D02*
X147320000Y-51600000D01*
X145272760Y-55095000D02*
X145272760Y-54409240D01*
X145272760Y-54409240D02*
X145542000Y-54140000D01*
X145270220Y-52235000D02*
X146685000Y-52235000D01*
X147320000Y-51600000D02*
X148844000Y-51600000D01*
X148529000Y-56995000D02*
X148844000Y-56680000D01*
X145272760Y-67155000D02*
X148529000Y-67155000D01*
X145272760Y-65255000D02*
X145272760Y-64569240D01*
X148529000Y-67155000D02*
X148844000Y-66840000D01*
X147320000Y-61760000D02*
X148844000Y-61760000D01*
X146685000Y-62395000D02*
X147320000Y-61760000D01*
X145270220Y-62395000D02*
X146685000Y-62395000D01*
X145542000Y-64300000D02*
X148844000Y-64300000D01*
X145272760Y-64569240D02*
X145542000Y-64300000D01*
X140777000Y-61445000D02*
X140462000Y-61760000D01*
X141986000Y-66840000D02*
X140462000Y-66840000D01*
X143002000Y-64300000D02*
X140462000Y-64300000D01*
X143271240Y-64030760D02*
X143002000Y-64300000D01*
X143271240Y-63345000D02*
X143271240Y-64030760D01*
X142621000Y-66205000D02*
X141986000Y-66840000D01*
X143273780Y-66205000D02*
X142621000Y-66205000D01*
X143271240Y-61445000D02*
X140777000Y-61445000D01*
D21*
X91183000Y-98214000D02*
X90929000Y-98468000D01*
X91183000Y-94150000D02*
X91183000Y-98214000D01*
X93469000Y-94150000D02*
X93469000Y-98468000D01*
X95755000Y-98214000D02*
X96009000Y-98468000D01*
X95755000Y-94150000D02*
X95755000Y-98214000D01*
X90929000Y-85768000D02*
X90929000Y-83228000D01*
X92707000Y-87546000D02*
X90929000Y-85768000D01*
X93469000Y-87546000D02*
X92707000Y-87546000D01*
X93469000Y-87546000D02*
X93469000Y-83228000D01*
X96009000Y-85768000D02*
X96009000Y-83228000D01*
X94231000Y-87546000D02*
X96009000Y-85768000D01*
X93469000Y-87546000D02*
X94231000Y-87546000D01*
D20*
X79388000Y-95812340D02*
X79388000Y-95013000D01*
X80731000Y-87110000D02*
X80731000Y-85840000D01*
X79388000Y-88453000D02*
X80731000Y-87110000D01*
X79388000Y-89812860D02*
X79388000Y-88453000D01*
X80731000Y-85840000D02*
X80731000Y-83300000D01*
X76286000Y-87745000D02*
X78191000Y-85840000D01*
X76286000Y-92825000D02*
X76286000Y-87745000D01*
X79273340Y-95812340D02*
X76286000Y-92825000D01*
X79388000Y-95812340D02*
X79273340Y-95812340D01*
X78191000Y-85840000D02*
X78191000Y-83300000D01*
X65016000Y-85890000D02*
X65016000Y-83350000D01*
X66213000Y-95862340D02*
X66098340Y-95862340D01*
X66098340Y-95862340D02*
X63111000Y-92875000D01*
X63111000Y-92875000D02*
X63111000Y-87795000D01*
X63111000Y-87795000D02*
X65016000Y-85890000D01*
X67556000Y-85890000D02*
X67556000Y-83350000D01*
X66213000Y-89862860D02*
X66213000Y-88503000D01*
X66213000Y-88503000D02*
X67556000Y-87160000D01*
X67556000Y-87160000D02*
X67556000Y-85890000D01*
X66213000Y-95862340D02*
X66213000Y-95063000D01*
D21*
X55534000Y-87536000D02*
X56296000Y-87536000D01*
X56296000Y-87536000D02*
X58074000Y-85758000D01*
X58074000Y-85758000D02*
X58074000Y-83218000D01*
X55534000Y-87536000D02*
X55534000Y-83218000D01*
X55534000Y-87536000D02*
X54772000Y-87536000D01*
X54772000Y-87536000D02*
X52994000Y-85758000D01*
X52994000Y-85758000D02*
X52994000Y-83218000D01*
X57820000Y-94140000D02*
X57820000Y-98204000D01*
X57820000Y-98204000D02*
X58074000Y-98458000D01*
X55534000Y-94140000D02*
X55534000Y-98458000D01*
X53248000Y-94140000D02*
X53248000Y-98204000D01*
X53248000Y-98204000D02*
X52994000Y-98458000D01*
D19*
X58458000Y-61760000D02*
X59982000Y-61760000D01*
X57823000Y-62395000D02*
X58458000Y-61760000D01*
X56408220Y-62395000D02*
X57823000Y-62395000D01*
X51915000Y-61445000D02*
X51600000Y-61760000D01*
X54409240Y-61445000D02*
X51915000Y-61445000D01*
X54140000Y-64300000D02*
X51600000Y-64300000D01*
X54409240Y-64030760D02*
X54140000Y-64300000D01*
X54409240Y-63345000D02*
X54409240Y-64030760D01*
X56680000Y-64300000D02*
X59982000Y-64300000D01*
X56410760Y-64569240D02*
X56680000Y-64300000D01*
X56410760Y-65255000D02*
X56410760Y-64569240D01*
X53124000Y-66840000D02*
X51600000Y-66840000D01*
X53759000Y-66205000D02*
X53124000Y-66840000D01*
X54411780Y-66205000D02*
X53759000Y-66205000D01*
X59667000Y-67155000D02*
X59982000Y-66840000D01*
X56410760Y-67155000D02*
X59667000Y-67155000D01*
X68810760Y-67155000D02*
X72067000Y-67155000D01*
X72067000Y-67155000D02*
X72382000Y-66840000D01*
X66811780Y-66205000D02*
X66159000Y-66205000D01*
X66159000Y-66205000D02*
X65524000Y-66840000D01*
X65524000Y-66840000D02*
X64000000Y-66840000D01*
X68810760Y-65255000D02*
X68810760Y-64569240D01*
X68810760Y-64569240D02*
X69080000Y-64300000D01*
X69080000Y-64300000D02*
X72382000Y-64300000D01*
X66809240Y-63345000D02*
X66809240Y-64030760D01*
X66809240Y-64030760D02*
X66540000Y-64300000D01*
X66540000Y-64300000D02*
X64000000Y-64300000D01*
X66809240Y-61445000D02*
X64315000Y-61445000D01*
X64315000Y-61445000D02*
X64000000Y-61760000D01*
X68808220Y-62395000D02*
X70223000Y-62395000D01*
X70223000Y-62395000D02*
X70858000Y-61760000D01*
X70858000Y-61760000D02*
X72382000Y-61760000D01*
X83920000Y-61760000D02*
X85444000Y-61760000D01*
X83285000Y-62395000D02*
X83920000Y-61760000D01*
X81870220Y-62395000D02*
X83285000Y-62395000D01*
X77377000Y-61445000D02*
X77062000Y-61760000D01*
X79871240Y-61445000D02*
X77377000Y-61445000D01*
X79602000Y-64300000D02*
X77062000Y-64300000D01*
X79871240Y-64030760D02*
X79602000Y-64300000D01*
X79871240Y-63345000D02*
X79871240Y-64030760D01*
X82142000Y-64300000D02*
X85444000Y-64300000D01*
X81872760Y-64569240D02*
X82142000Y-64300000D01*
X81872760Y-65255000D02*
X81872760Y-64569240D01*
X78586000Y-66840000D02*
X77062000Y-66840000D01*
X79221000Y-66205000D02*
X78586000Y-66840000D01*
X79873780Y-66205000D02*
X79221000Y-66205000D01*
X85129000Y-67155000D02*
X85444000Y-66840000D01*
X81872760Y-67155000D02*
X85129000Y-67155000D01*
X94572760Y-67155000D02*
X97829000Y-67155000D01*
X97829000Y-67155000D02*
X98144000Y-66840000D01*
X92573780Y-66205000D02*
X91921000Y-66205000D01*
X91921000Y-66205000D02*
X91286000Y-66840000D01*
X91286000Y-66840000D02*
X89762000Y-66840000D01*
X94572760Y-65255000D02*
X94572760Y-64569240D01*
X94572760Y-64569240D02*
X94842000Y-64300000D01*
X94842000Y-64300000D02*
X98144000Y-64300000D01*
X92571240Y-63345000D02*
X92571240Y-64030760D01*
X92571240Y-64030760D02*
X92302000Y-64300000D01*
X92302000Y-64300000D02*
X89762000Y-64300000D01*
X92571240Y-61445000D02*
X90077000Y-61445000D01*
X90077000Y-61445000D02*
X89762000Y-61760000D01*
X94570220Y-62395000D02*
X95985000Y-62395000D01*
X95985000Y-62395000D02*
X96620000Y-61760000D01*
X96620000Y-61760000D02*
X98144000Y-61760000D01*
X96620000Y-51600000D02*
X98144000Y-51600000D01*
X95985000Y-52235000D02*
X96620000Y-51600000D01*
X94570220Y-52235000D02*
X95985000Y-52235000D01*
X90077000Y-51285000D02*
X89762000Y-51600000D01*
X92571240Y-51285000D02*
X90077000Y-51285000D01*
X92302000Y-54140000D02*
X89762000Y-54140000D01*
X92571240Y-53870760D02*
X92302000Y-54140000D01*
X92571240Y-53185000D02*
X92571240Y-53870760D01*
X94842000Y-54140000D02*
X98144000Y-54140000D01*
X94572760Y-54409240D02*
X94842000Y-54140000D01*
X94572760Y-55095000D02*
X94572760Y-54409240D01*
X91286000Y-56680000D02*
X89762000Y-56680000D01*
X91921000Y-56045000D02*
X91286000Y-56680000D01*
X92573780Y-56045000D02*
X91921000Y-56045000D01*
X97829000Y-56995000D02*
X98144000Y-56680000D01*
X94572760Y-56995000D02*
X97829000Y-56995000D01*
X81872760Y-56995000D02*
X85129000Y-56995000D01*
X85129000Y-56995000D02*
X85444000Y-56680000D01*
X79873780Y-56045000D02*
X79221000Y-56045000D01*
X79221000Y-56045000D02*
X78586000Y-56680000D01*
X78586000Y-56680000D02*
X77062000Y-56680000D01*
X81872760Y-55095000D02*
X81872760Y-54409240D01*
X81872760Y-54409240D02*
X82142000Y-54140000D01*
X82142000Y-54140000D02*
X85444000Y-54140000D01*
X79871240Y-53185000D02*
X79871240Y-53870760D01*
X79871240Y-53870760D02*
X79602000Y-54140000D01*
X79602000Y-54140000D02*
X77062000Y-54140000D01*
X79871240Y-51285000D02*
X77377000Y-51285000D01*
X77377000Y-51285000D02*
X77062000Y-51600000D01*
X81870220Y-52235000D02*
X83285000Y-52235000D01*
X83285000Y-52235000D02*
X83920000Y-51600000D01*
X83920000Y-51600000D02*
X85444000Y-51600000D01*
X70858000Y-51600000D02*
X72382000Y-51600000D01*
X70223000Y-52235000D02*
X70858000Y-51600000D01*
X68808220Y-52235000D02*
X70223000Y-52235000D01*
X64315000Y-51285000D02*
X64000000Y-51600000D01*
X66809240Y-51285000D02*
X64315000Y-51285000D01*
X66540000Y-54140000D02*
X64000000Y-54140000D01*
X66809240Y-53870760D02*
X66540000Y-54140000D01*
X66809240Y-53185000D02*
X66809240Y-53870760D01*
X69080000Y-54140000D02*
X72382000Y-54140000D01*
X68810760Y-54409240D02*
X69080000Y-54140000D01*
X68810760Y-55095000D02*
X68810760Y-54409240D01*
X65524000Y-56680000D02*
X64000000Y-56680000D01*
X66159000Y-56045000D02*
X65524000Y-56680000D01*
X66811780Y-56045000D02*
X66159000Y-56045000D01*
X72067000Y-56995000D02*
X72382000Y-56680000D01*
X68810760Y-56995000D02*
X72067000Y-56995000D01*
X56410760Y-56995000D02*
X59667000Y-56995000D01*
X59667000Y-56995000D02*
X59982000Y-56680000D01*
X54411780Y-56045000D02*
X53759000Y-56045000D01*
X53759000Y-56045000D02*
X53124000Y-56680000D01*
X53124000Y-56680000D02*
X51600000Y-56680000D01*
X56410760Y-55095000D02*
X56410760Y-54409240D01*
X56410760Y-54409240D02*
X56680000Y-54140000D01*
X56680000Y-54140000D02*
X59982000Y-54140000D01*
X54409240Y-53185000D02*
X54409240Y-53870760D01*
X54409240Y-53870760D02*
X54140000Y-54140000D01*
X54140000Y-54140000D02*
X51600000Y-54140000D01*
X54409240Y-51285000D02*
X51915000Y-51285000D01*
X51915000Y-51285000D02*
X51600000Y-51600000D01*
X56408220Y-52235000D02*
X57823000Y-52235000D01*
X57823000Y-52235000D02*
X58458000Y-51600000D01*
X58458000Y-51600000D02*
X59982000Y-51600000D01*
M02*
